<svg width="1920" height="242" viewBox="0 0 1920 242" fill="none" xmlns="http://www.w3.org/2000/svg">
<rect x="1" width="1920" height="242" fill="#6F00FF"/>
<rect width="47" height="29" fill="white"/>
<rect y="213" width="47" height="29" fill="white"/>
<rect x="98" width="60" height="29" fill="white"/>
<rect x="98" y="213" width="60" height="29" fill="white"/>
<rect x="209" width="60" height="29" fill="white"/>
<rect x="209" y="213" width="60" height="29" fill="white"/>
<rect x="320" width="60" height="29" fill="white"/>
<rect x="320" y="213" width="60" height="29" fill="white"/>
<rect x="431" width="60" height="29" fill="white"/>
<rect x="431" y="213" width="60" height="29" fill="white"/>
<rect x="542" width="60" height="29" fill="white"/>
<rect x="542" y="213" width="60" height="29" fill="white"/>
<rect x="653" width="60" height="29" fill="white"/>
<rect x="653" y="213" width="60" height="29" fill="white"/>
<rect x="764" width="60" height="29" fill="white"/>
<rect x="764" y="213" width="60" height="29" fill="white"/>
<rect x="875" width="60" height="29" fill="white"/>
<rect x="875" y="213" width="60" height="29" fill="white"/>
<rect x="986" width="60" height="29" fill="white"/>
<rect x="986" y="213" width="60" height="29" fill="white"/>
<rect x="1097" width="60" height="29" fill="white"/>
<rect x="1097" y="213" width="60" height="29" fill="white"/>
<rect x="1208" width="60" height="29" fill="white"/>
<rect x="1208" y="213" width="60" height="29" fill="white"/>
<rect x="1319" width="60" height="29" fill="white"/>
<rect x="1319" y="213" width="60" height="29" fill="white"/>
<rect x="1430" width="60" height="29" fill="white"/>
<rect x="1430" y="213" width="60" height="29" fill="white"/>
<rect x="1541" width="60" height="29" fill="white"/>
<rect x="1541" y="213" width="60" height="29" fill="white"/>
<rect x="1652" width="60" height="29" fill="white"/>
<rect x="1652" y="213" width="60" height="29" fill="white"/>
<rect x="1763" width="60" height="29" fill="white"/>
<rect x="1763" y="213" width="60" height="29" fill="white"/>
<rect x="1874" width="46" height="29" fill="white"/>
<rect x="1874" y="213" width="46" height="29" fill="white"/>
<g clip-path="url(#clip0_3027_15503)">
<g clip-path="url(#clip1_3027_15503)">
<path d="M46.51 133.715L57.325 109.215H64.15L75 133.715H67.79L59.32 112.61H62.05L53.58 133.715H46.51ZM52.425 128.955L54.21 123.845H66.18L67.965 128.955H52.425ZM76.9646 133.715V109.215H83.8946V133.715H76.9646ZM106.536 133.715L96.0705 109.215H103.561L112.381 130.425H107.971L117.001 109.215H123.861L113.361 133.715H106.536ZM137.342 134.205C135.382 134.205 133.574 133.89 131.917 133.26C130.26 132.63 128.814 131.744 127.577 130.6C126.364 129.434 125.419 128.08 124.742 126.54C124.065 125 123.727 123.309 123.727 121.465C123.727 119.622 124.065 117.93 124.742 116.39C125.419 114.85 126.364 113.509 127.577 112.365C128.814 111.199 130.26 110.3 131.917 109.67C133.574 109.04 135.382 108.725 137.342 108.725C139.325 108.725 141.134 109.04 142.767 109.67C144.424 110.3 145.859 111.199 147.072 112.365C148.285 113.509 149.23 114.85 149.907 116.39C150.607 117.93 150.957 119.622 150.957 121.465C150.957 123.309 150.607 125.012 149.907 126.575C149.23 128.115 148.285 129.457 147.072 130.6C145.859 131.744 144.424 132.63 142.767 133.26C141.134 133.89 139.325 134.205 137.342 134.205ZM137.342 128.465C138.275 128.465 139.139 128.302 139.932 127.975C140.749 127.649 141.449 127.182 142.032 126.575C142.639 125.945 143.105 125.199 143.432 124.335C143.782 123.472 143.957 122.515 143.957 121.465C143.957 120.392 143.782 119.435 143.432 118.595C143.105 117.732 142.639 116.997 142.032 116.39C141.449 115.76 140.749 115.282 139.932 114.955C139.139 114.629 138.275 114.465 137.342 114.465C136.409 114.465 135.534 114.629 134.717 114.955C133.924 115.282 133.224 115.76 132.617 116.39C132.034 116.997 131.567 117.732 131.217 118.595C130.89 119.435 130.727 120.392 130.727 121.465C130.727 122.515 130.89 123.472 131.217 124.335C131.567 125.199 132.034 125.945 132.617 126.575C133.224 127.182 133.924 127.649 134.717 127.975C135.534 128.302 136.409 128.465 137.342 128.465ZM154.587 133.715V109.215H161.517V133.715H154.587ZM178.662 134.205C176.725 134.205 174.929 133.902 173.272 133.295C171.639 132.665 170.215 131.779 169.002 130.635C167.812 129.492 166.879 128.15 166.202 126.61C165.525 125.047 165.187 123.332 165.187 121.465C165.187 119.599 165.525 117.895 166.202 116.355C166.879 114.792 167.812 113.439 169.002 112.295C170.215 111.152 171.639 110.277 173.272 109.67C174.929 109.04 176.725 108.725 178.662 108.725C180.925 108.725 182.944 109.122 184.717 109.915C186.514 110.709 188.007 111.852 189.197 113.345L184.787 117.335C183.994 116.402 183.119 115.69 182.162 115.2C181.229 114.71 180.179 114.465 179.012 114.465C178.009 114.465 177.087 114.629 176.247 114.955C175.407 115.282 174.684 115.76 174.077 116.39C173.494 116.997 173.027 117.732 172.677 118.595C172.35 119.459 172.187 120.415 172.187 121.465C172.187 122.515 172.35 123.472 172.677 124.335C173.027 125.199 173.494 125.945 174.077 126.575C174.684 127.182 175.407 127.649 176.247 127.975C177.087 128.302 178.009 128.465 179.012 128.465C180.179 128.465 181.229 128.22 182.162 127.73C183.119 127.24 183.994 126.529 184.787 125.595L189.197 129.585C188.007 131.055 186.514 132.199 184.717 133.015C182.944 133.809 180.925 134.205 178.662 134.205ZM198.657 118.7H210.032V123.88H198.657V118.7ZM199.147 128.36H211.957V133.715H192.287V109.215H211.502V114.57H199.147V128.36ZM223.048 133.715L233.863 109.215H240.688L251.538 133.715H244.328L235.858 112.61H238.588L230.118 133.715H223.048ZM228.963 128.955L230.748 123.845H242.718L244.503 128.955H228.963ZM262.113 134.205C260.106 134.205 258.169 133.96 256.303 133.47C254.459 132.957 252.954 132.304 251.788 131.51L254.063 126.4C255.159 127.1 256.419 127.684 257.843 128.15C259.289 128.594 260.724 128.815 262.148 128.815C263.104 128.815 263.874 128.734 264.458 128.57C265.041 128.384 265.461 128.15 265.718 127.87C265.998 127.567 266.138 127.217 266.138 126.82C266.138 126.26 265.881 125.817 265.368 125.49C264.854 125.164 264.189 124.895 263.373 124.685C262.556 124.475 261.646 124.265 260.643 124.055C259.663 123.845 258.671 123.577 257.668 123.25C256.688 122.924 255.789 122.504 254.973 121.99C254.156 121.454 253.491 120.765 252.978 119.925C252.464 119.062 252.208 117.977 252.208 116.67C252.208 115.2 252.604 113.87 253.398 112.68C254.214 111.49 255.428 110.534 257.038 109.81C258.648 109.087 260.654 108.725 263.058 108.725C264.668 108.725 266.243 108.912 267.783 109.285C269.346 109.635 270.734 110.16 271.948 110.86L269.813 116.005C268.646 115.375 267.491 114.909 266.348 114.605C265.204 114.279 264.096 114.115 263.023 114.115C262.066 114.115 261.296 114.22 260.713 114.43C260.129 114.617 259.709 114.874 259.453 115.2C259.196 115.527 259.068 115.9 259.068 116.32C259.068 116.857 259.313 117.289 259.803 117.615C260.316 117.919 260.981 118.175 261.798 118.385C262.638 118.572 263.548 118.77 264.528 118.98C265.531 119.19 266.523 119.459 267.503 119.785C268.506 120.089 269.416 120.509 270.233 121.045C271.049 121.559 271.703 122.247 272.193 123.11C272.706 123.95 272.963 125.012 272.963 126.295C272.963 127.719 272.554 129.037 271.738 130.25C270.944 131.44 269.743 132.397 268.133 133.12C266.546 133.844 264.539 134.205 262.113 134.205ZM284.774 134.205C282.767 134.205 280.831 133.96 278.964 133.47C277.121 132.957 275.616 132.304 274.449 131.51L276.724 126.4C277.821 127.1 279.081 127.684 280.504 128.15C281.951 128.594 283.386 128.815 284.809 128.815C285.766 128.815 286.536 128.734 287.119 128.57C287.702 128.384 288.122 128.15 288.379 127.87C288.659 127.567 288.799 127.217 288.799 126.82C288.799 126.26 288.542 125.817 288.029 125.49C287.516 125.164 286.851 124.895 286.034 124.685C285.217 124.475 284.307 124.265 283.304 124.055C282.324 123.845 281.332 123.577 280.329 123.25C279.349 122.924 278.451 122.504 277.634 121.99C276.817 121.454 276.152 120.765 275.639 119.925C275.126 119.062 274.869 117.977 274.869 116.67C274.869 115.2 275.266 113.87 276.059 112.68C276.876 111.49 278.089 110.534 279.699 109.81C281.309 109.087 283.316 108.725 285.719 108.725C287.329 108.725 288.904 108.912 290.444 109.285C292.007 109.635 293.396 110.16 294.609 110.86L292.474 116.005C291.307 115.375 290.152 114.909 289.009 114.605C287.866 114.279 286.757 114.115 285.684 114.115C284.727 114.115 283.957 114.22 283.374 114.43C282.791 114.617 282.371 114.874 282.114 115.2C281.857 115.527 281.729 115.9 281.729 116.32C281.729 116.857 281.974 117.289 282.464 117.615C282.977 117.919 283.642 118.175 284.459 118.385C285.299 118.572 286.209 118.77 287.189 118.98C288.192 119.19 289.184 119.459 290.164 119.785C291.167 120.089 292.077 120.509 292.894 121.045C293.711 121.559 294.364 122.247 294.854 123.11C295.367 123.95 295.624 125.012 295.624 126.295C295.624 127.719 295.216 129.037 294.399 130.25C293.606 131.44 292.404 132.397 290.794 133.12C289.207 133.844 287.201 134.205 284.774 134.205ZM298.825 133.715V109.215H305.755V133.715H298.825ZM319.295 134.205C317.289 134.205 315.352 133.96 313.485 133.47C311.642 132.957 310.137 132.304 308.97 131.51L311.245 126.4C312.342 127.1 313.602 127.684 315.025 128.15C316.472 128.594 317.907 128.815 319.33 128.815C320.287 128.815 321.057 128.734 321.64 128.57C322.224 128.384 322.644 128.15 322.9 127.87C323.18 127.567 323.32 127.217 323.32 126.82C323.32 126.26 323.064 125.817 322.55 125.49C322.037 125.164 321.372 124.895 320.555 124.685C319.739 124.475 318.829 124.265 317.825 124.055C316.845 123.845 315.854 123.577 314.85 123.25C313.87 122.924 312.972 122.504 312.155 121.99C311.339 121.454 310.674 120.765 310.16 119.925C309.647 119.062 309.39 117.977 309.39 116.67C309.39 115.2 309.787 113.87 310.58 112.68C311.397 111.49 312.61 110.534 314.22 109.81C315.83 109.087 317.837 108.725 320.24 108.725C321.85 108.725 323.425 108.912 324.965 109.285C326.529 109.635 327.917 110.16 329.13 110.86L326.995 116.005C325.829 115.375 324.674 114.909 323.53 114.605C322.387 114.279 321.279 114.115 320.205 114.115C319.249 114.115 318.479 114.22 317.895 114.43C317.312 114.617 316.892 114.874 316.635 115.2C316.379 115.527 316.25 115.9 316.25 116.32C316.25 116.857 316.495 117.289 316.985 117.615C317.499 117.919 318.164 118.175 318.98 118.385C319.82 118.572 320.73 118.77 321.71 118.98C322.714 119.19 323.705 119.459 324.685 119.785C325.689 120.089 326.599 120.509 327.415 121.045C328.232 121.559 328.885 122.247 329.375 123.11C329.889 123.95 330.145 125.012 330.145 126.295C330.145 127.719 329.737 129.037 328.92 130.25C328.127 131.44 326.925 132.397 325.315 133.12C323.729 133.844 321.722 134.205 319.295 134.205ZM338.22 133.715V114.71H330.695V109.215H352.64V114.71H345.15V133.715H338.22ZM351.051 133.715L361.866 109.215H368.691L379.541 133.715H372.331L363.861 112.61H366.591L358.121 133.715H351.051ZM356.966 128.955L358.751 123.845H370.721L372.506 128.955H356.966ZM381.506 133.715V109.215H387.211L400.721 125.525H398.026V109.215H404.816V133.715H399.111L385.601 117.405H388.296V133.715H381.506ZM414.919 133.715V114.71H407.394V109.215H429.339V114.71H421.849V133.715H414.919Z" fill="white"/>
<path d="M473.51 133.715L484.325 109.215H491.15L502 133.715H494.79L486.32 112.61H489.05L480.58 133.715H473.51ZM479.425 128.955L481.21 123.845H493.18L494.965 128.955H479.425ZM503.965 133.715V109.215H510.895V133.715H503.965ZM526.011 133.715V109.215H537.596C540.302 109.215 542.682 109.717 544.736 110.72C546.789 111.724 548.387 113.135 549.531 114.955C550.697 116.775 551.281 118.945 551.281 121.465C551.281 123.962 550.697 126.132 549.531 127.975C548.387 129.795 546.789 131.207 544.736 132.21C542.682 133.214 540.302 133.715 537.596 133.715H526.011ZM532.941 128.185H537.316C538.716 128.185 539.929 127.929 540.956 127.415C542.006 126.879 542.822 126.109 543.406 125.105C543.989 124.079 544.281 122.865 544.281 121.465C544.281 120.042 543.989 118.829 543.406 117.825C542.822 116.822 542.006 116.064 540.956 115.55C539.929 115.014 538.716 114.745 537.316 114.745H532.941V128.185ZM554.927 133.715V109.215H561.857V133.715H554.927ZM563.847 133.715L574.662 109.215H581.487L592.337 133.715H585.127L576.657 112.61H579.387L570.917 133.715H563.847ZM569.762 128.955L571.547 123.845H583.517L585.302 128.955H569.762ZM594.302 133.715V109.215H601.232V128.22H612.922V133.715H594.302ZM622.034 118.7H633.409V123.88H622.034V118.7ZM622.524 128.36H635.334V133.715H615.664V109.215H634.879V114.57H622.524V128.36ZM639.179 133.715V109.215H650.379C652.619 109.215 654.544 109.577 656.154 110.3C657.788 111.024 659.048 112.074 659.934 113.45C660.821 114.804 661.264 116.414 661.264 118.28C661.264 120.124 660.821 121.722 659.934 123.075C659.048 124.405 657.788 125.432 656.154 126.155C654.544 126.855 652.619 127.205 650.379 127.205H643.029L646.109 124.3V133.715H639.179ZM654.334 133.715L648.244 124.79H655.629L661.754 133.715H654.334ZM646.109 125.035L643.029 121.85H649.959C651.406 121.85 652.479 121.535 653.179 120.905C653.903 120.275 654.264 119.4 654.264 118.28C654.264 117.137 653.903 116.25 653.179 115.62C652.479 114.99 651.406 114.675 649.959 114.675H643.029L646.109 111.49V125.035Z" fill="white"/>
<path d="M706.51 133.715L717.325 109.215H724.15L735 133.715H727.79L719.32 112.61H722.05L713.58 133.715H706.51ZM712.425 128.955L714.21 123.845H726.18L727.965 128.955H712.425ZM736.965 133.715V109.215H743.895V133.715H736.965ZM771.226 134.205C769.289 134.205 767.492 133.902 765.836 133.295C764.202 132.665 762.779 131.779 761.566 130.635C760.376 129.492 759.442 128.15 758.766 126.61C758.089 125.047 757.751 123.332 757.751 121.465C757.751 119.599 758.089 117.895 758.766 116.355C759.442 114.792 760.376 113.439 761.566 112.295C762.779 111.152 764.202 110.277 765.836 109.67C767.492 109.04 769.289 108.725 771.226 108.725C773.489 108.725 775.507 109.122 777.281 109.915C779.077 110.709 780.571 111.852 781.761 113.345L777.351 117.335C776.557 116.402 775.682 115.69 774.726 115.2C773.792 114.71 772.742 114.465 771.576 114.465C770.572 114.465 769.651 114.629 768.811 114.955C767.971 115.282 767.247 115.76 766.641 116.39C766.057 116.997 765.591 117.732 765.241 118.595C764.914 119.459 764.751 120.415 764.751 121.465C764.751 122.515 764.914 123.472 765.241 124.335C765.591 125.199 766.057 125.945 766.641 126.575C767.247 127.182 767.971 127.649 768.811 127.975C769.651 128.302 770.572 128.465 771.576 128.465C772.742 128.465 773.792 128.22 774.726 127.73C775.682 127.24 776.557 126.529 777.351 125.595L781.761 129.585C780.571 131.055 779.077 132.199 777.281 133.015C775.507 133.809 773.489 134.205 771.226 134.205ZM801.23 109.215H808.16V133.715H801.23V109.215ZM791.78 133.715H784.85V109.215H791.78V133.715ZM801.72 124.16H791.29V118.42H801.72V124.16ZM810.109 133.715L820.924 109.215H827.749L838.599 133.715H831.389L822.919 112.61H825.649L817.179 133.715H810.109ZM816.024 128.955L817.809 123.845H829.779L831.564 128.955H816.024ZM844.548 133.715V114.71H837.023V109.215H858.968V114.71H851.478V133.715H844.548ZM868.795 133.715L879.61 109.215H886.435L897.285 133.715H890.075L881.605 112.61H884.335L875.865 133.715H868.795ZM874.71 128.955L876.495 123.845H888.465L890.25 128.955H874.71ZM907.86 134.205C905.853 134.205 903.916 133.96 902.05 133.47C900.206 132.957 898.701 132.304 897.535 131.51L899.81 126.4C900.906 127.1 902.166 127.684 903.59 128.15C905.036 128.594 906.471 128.815 907.895 128.815C908.851 128.815 909.621 128.734 910.205 128.57C910.788 128.384 911.208 128.15 911.465 127.87C911.745 127.567 911.885 127.217 911.885 126.82C911.885 126.26 911.628 125.817 911.115 125.49C910.601 125.164 909.936 124.895 909.12 124.685C908.303 124.475 907.393 124.265 906.39 124.055C905.41 123.845 904.418 123.577 903.415 123.25C902.435 122.924 901.536 122.504 900.72 121.99C899.903 121.454 899.238 120.765 898.725 119.925C898.211 119.062 897.955 117.977 897.955 116.67C897.955 115.2 898.351 113.87 899.145 112.68C899.961 111.49 901.175 110.534 902.785 109.81C904.395 109.087 906.401 108.725 908.805 108.725C910.415 108.725 911.99 108.912 913.53 109.285C915.093 109.635 916.481 110.16 917.695 110.86L915.56 116.005C914.393 115.375 913.238 114.909 912.095 114.605C910.951 114.279 909.843 114.115 908.77 114.115C907.813 114.115 907.043 114.22 906.46 114.43C905.876 114.617 905.456 114.874 905.2 115.2C904.943 115.527 904.815 115.9 904.815 116.32C904.815 116.857 905.06 117.289 905.55 117.615C906.063 117.919 906.728 118.175 907.545 118.385C908.385 118.572 909.295 118.77 910.275 118.98C911.278 119.19 912.27 119.459 913.25 119.785C914.253 120.089 915.163 120.509 915.98 121.045C916.796 121.559 917.45 122.247 917.94 123.11C918.453 123.95 918.71 125.012 918.71 126.295C918.71 127.719 918.301 129.037 917.485 130.25C916.691 131.44 915.49 132.397 913.88 133.12C912.293 133.844 910.286 134.205 907.86 134.205ZM930.521 134.205C928.514 134.205 926.578 133.96 924.711 133.47C922.868 132.957 921.363 132.304 920.196 131.51L922.471 126.4C923.568 127.1 924.828 127.684 926.251 128.15C927.698 128.594 929.133 128.815 930.556 128.815C931.513 128.815 932.283 128.734 932.866 128.57C933.449 128.384 933.869 128.15 934.126 127.87C934.406 127.567 934.546 127.217 934.546 126.82C934.546 126.26 934.289 125.817 933.776 125.49C933.263 125.164 932.598 124.895 931.781 124.685C930.964 124.475 930.054 124.265 929.051 124.055C928.071 123.845 927.079 123.577 926.076 123.25C925.096 122.924 924.198 122.504 923.381 121.99C922.564 121.454 921.899 120.765 921.386 119.925C920.873 119.062 920.616 117.977 920.616 116.67C920.616 115.2 921.013 113.87 921.806 112.68C922.623 111.49 923.836 110.534 925.446 109.81C927.056 109.087 929.063 108.725 931.466 108.725C933.076 108.725 934.651 108.912 936.191 109.285C937.754 109.635 939.143 110.16 940.356 110.86L938.221 116.005C937.054 115.375 935.899 114.909 934.756 114.605C933.613 114.279 932.504 114.115 931.431 114.115C930.474 114.115 929.704 114.22 929.121 114.43C928.538 114.617 928.118 114.874 927.861 115.2C927.604 115.527 927.476 115.9 927.476 116.32C927.476 116.857 927.721 117.289 928.211 117.615C928.724 117.919 929.389 118.175 930.206 118.385C931.046 118.572 931.956 118.77 932.936 118.98C933.939 119.19 934.931 119.459 935.911 119.785C936.914 120.089 937.824 120.509 938.641 121.045C939.458 121.559 940.111 122.247 940.601 123.11C941.114 123.95 941.371 125.012 941.371 126.295C941.371 127.719 940.963 129.037 940.146 130.25C939.353 131.44 938.151 132.397 936.541 133.12C934.954 133.844 932.948 134.205 930.521 134.205ZM944.572 133.715V109.215H951.502V133.715H944.572ZM965.042 134.205C963.036 134.205 961.099 133.96 959.232 133.47C957.389 132.957 955.884 132.304 954.717 131.51L956.992 126.4C958.089 127.1 959.349 127.684 960.772 128.15C962.219 128.594 963.654 128.815 965.077 128.815C966.034 128.815 966.804 128.734 967.387 128.57C967.971 128.384 968.391 128.15 968.647 127.87C968.927 127.567 969.067 127.217 969.067 126.82C969.067 126.26 968.811 125.817 968.297 125.49C967.784 125.164 967.119 124.895 966.302 124.685C965.486 124.475 964.576 124.265 963.572 124.055C962.592 123.845 961.601 123.577 960.597 123.25C959.617 122.924 958.719 122.504 957.902 121.99C957.086 121.454 956.421 120.765 955.907 119.925C955.394 119.062 955.137 117.977 955.137 116.67C955.137 115.2 955.534 113.87 956.327 112.68C957.144 111.49 958.357 110.534 959.967 109.81C961.577 109.087 963.584 108.725 965.987 108.725C967.597 108.725 969.172 108.912 970.712 109.285C972.276 109.635 973.664 110.16 974.877 110.86L972.742 116.005C971.576 115.375 970.421 114.909 969.277 114.605C968.134 114.279 967.026 114.115 965.952 114.115C964.996 114.115 964.226 114.22 963.642 114.43C963.059 114.617 962.639 114.874 962.382 115.2C962.126 115.527 961.997 115.9 961.997 116.32C961.997 116.857 962.242 117.289 962.732 117.615C963.246 117.919 963.911 118.175 964.727 118.385C965.567 118.572 966.477 118.77 967.457 118.98C968.461 119.19 969.452 119.459 970.432 119.785C971.436 120.089 972.346 120.509 973.162 121.045C973.979 121.559 974.632 122.247 975.122 123.11C975.636 123.95 975.892 125.012 975.892 126.295C975.892 127.719 975.484 129.037 974.667 130.25C973.874 131.44 972.672 132.397 971.062 133.12C969.476 133.844 967.469 134.205 965.042 134.205ZM983.967 133.715V114.71H976.442V109.215H998.387V114.71H990.897V133.715H983.967ZM996.798 133.715L1007.61 109.215H1014.44L1025.29 133.715H1018.08L1009.61 112.61H1012.34L1003.87 133.715H996.798ZM1002.71 128.955L1004.5 123.845H1016.47L1018.25 128.955H1002.71ZM1027.25 133.715V109.215H1032.96L1046.47 125.525H1043.77V109.215H1050.56V133.715H1044.86L1031.35 117.405H1034.04V133.715H1027.25ZM1060.67 133.715V114.71H1053.14V109.215H1075.09V114.71H1067.6V133.715H1060.67ZM1084.91 133.715L1095.73 109.215H1102.55L1113.4 133.715H1106.19L1097.72 112.61H1100.45L1091.98 133.715H1084.91ZM1090.83 128.955L1092.61 123.845H1104.58L1106.37 128.955H1090.83ZM1115.37 133.715V109.215H1121.07L1134.58 125.525H1131.89V109.215H1138.68V133.715H1132.97L1119.46 117.405H1122.16V133.715H1115.37ZM1143.57 133.715V109.215H1155.15C1157.86 109.215 1160.24 109.717 1162.29 110.72C1164.34 111.724 1165.94 113.135 1167.09 114.955C1168.25 116.775 1168.84 118.945 1168.84 121.465C1168.84 123.962 1168.25 126.132 1167.09 127.975C1165.94 129.795 1164.34 131.207 1162.29 132.21C1160.24 133.214 1157.86 133.715 1155.15 133.715H1143.57ZM1150.5 128.185H1154.87C1156.27 128.185 1157.48 127.929 1158.51 127.415C1159.56 126.879 1160.38 126.109 1160.96 125.105C1161.54 124.079 1161.84 122.865 1161.84 121.465C1161.84 120.042 1161.54 118.829 1160.96 117.825C1160.38 116.822 1159.56 116.064 1158.51 115.55C1157.48 115.014 1156.27 114.745 1154.87 114.745H1150.5V128.185ZM1194.88 134.205C1192.95 134.205 1191.15 133.902 1189.49 133.295C1187.86 132.665 1186.44 131.779 1185.22 130.635C1184.03 129.492 1183.1 128.15 1182.42 126.61C1181.75 125.047 1181.41 123.332 1181.41 121.465C1181.41 119.599 1181.75 117.895 1182.42 116.355C1183.1 114.792 1184.03 113.439 1185.22 112.295C1186.44 111.152 1187.86 110.277 1189.49 109.67C1191.15 109.04 1192.95 108.725 1194.88 108.725C1197.15 108.725 1199.16 109.122 1200.94 109.915C1202.73 110.709 1204.23 111.852 1205.42 113.345L1201.01 117.335C1200.21 116.402 1199.34 115.69 1198.38 115.2C1197.45 114.71 1196.4 114.465 1195.23 114.465C1194.23 114.465 1193.31 114.629 1192.47 114.955C1191.63 115.282 1190.9 115.76 1190.3 116.39C1189.71 116.997 1189.25 117.732 1188.9 118.595C1188.57 119.459 1188.41 120.415 1188.41 121.465C1188.41 122.515 1188.57 123.472 1188.9 124.335C1189.25 125.199 1189.71 125.945 1190.3 126.575C1190.9 127.182 1191.63 127.649 1192.47 127.975C1193.31 128.302 1194.23 128.465 1195.23 128.465C1196.4 128.465 1197.45 128.22 1198.38 127.73C1199.34 127.24 1200.21 126.529 1201.01 125.595L1205.42 129.585C1204.23 131.055 1202.73 132.199 1200.94 133.015C1199.16 133.809 1197.15 134.205 1194.88 134.205ZM1224.89 109.215H1231.82V133.715H1224.89V109.215ZM1215.44 133.715H1208.51V109.215H1215.44V133.715ZM1225.38 124.16H1214.95V118.42H1225.38V124.16ZM1233.77 133.715L1244.58 109.215H1251.41L1262.26 133.715H1255.05L1246.58 112.61H1249.31L1240.84 133.715H1233.77ZM1239.68 128.955L1241.47 123.845H1253.44L1255.22 128.955H1239.68ZM1268.21 133.715V114.71H1260.68V109.215H1282.63V114.71H1275.14V133.715H1268.21ZM1295.39 133.715V109.215H1307.92C1311.14 109.215 1313.55 109.81 1315.13 111C1316.72 112.167 1317.51 113.707 1317.51 115.62C1317.51 116.88 1317.17 117.989 1316.5 118.945C1315.84 119.879 1314.91 120.625 1313.7 121.185C1312.51 121.722 1311.08 121.99 1309.43 121.99L1310.13 120.31C1311.85 120.31 1313.36 120.579 1314.64 121.115C1315.93 121.629 1316.92 122.387 1317.62 123.39C1318.34 124.37 1318.7 125.572 1318.7 126.995C1318.7 129.119 1317.84 130.775 1316.11 131.965C1314.41 133.132 1311.91 133.715 1308.62 133.715H1295.39ZM1302.25 128.71H1308.06C1309.25 128.71 1310.15 128.512 1310.76 128.115C1311.39 127.695 1311.7 127.065 1311.7 126.225C1311.7 125.385 1311.39 124.767 1310.76 124.37C1310.15 123.95 1309.25 123.74 1308.06 123.74H1301.76V118.945H1307.01C1308.18 118.945 1309.05 118.747 1309.64 118.35C1310.22 117.954 1310.51 117.359 1310.51 116.565C1310.51 115.772 1310.22 115.189 1309.64 114.815C1309.05 114.419 1308.18 114.22 1307.01 114.22H1302.25V128.71ZM1334.65 134.205C1332.69 134.205 1330.88 133.89 1329.22 133.26C1327.57 132.63 1326.12 131.744 1324.88 130.6C1323.67 129.434 1322.72 128.08 1322.05 126.54C1321.37 125 1321.03 123.309 1321.03 121.465C1321.03 119.622 1321.37 117.93 1322.05 116.39C1322.72 114.85 1323.67 113.509 1324.88 112.365C1326.12 111.199 1327.57 110.3 1329.22 109.67C1330.88 109.04 1332.69 108.725 1334.65 108.725C1336.63 108.725 1338.44 109.04 1340.07 109.67C1341.73 110.3 1343.16 111.199 1344.38 112.365C1345.59 113.509 1346.54 114.85 1347.21 116.39C1347.91 117.93 1348.26 119.622 1348.26 121.465C1348.26 123.309 1347.91 125.012 1347.21 126.575C1346.54 128.115 1345.59 129.457 1344.38 130.6C1343.16 131.744 1341.73 132.63 1340.07 133.26C1338.44 133.89 1336.63 134.205 1334.65 134.205ZM1334.65 128.465C1335.58 128.465 1336.44 128.302 1337.24 127.975C1338.05 127.649 1338.75 127.182 1339.34 126.575C1339.94 125.945 1340.41 125.199 1340.74 124.335C1341.09 123.472 1341.26 122.515 1341.26 121.465C1341.26 120.392 1341.09 119.435 1340.74 118.595C1340.41 117.732 1339.94 116.997 1339.34 116.39C1338.75 115.76 1338.05 115.282 1337.24 114.955C1336.44 114.629 1335.58 114.465 1334.65 114.465C1333.71 114.465 1332.84 114.629 1332.02 114.955C1331.23 115.282 1330.53 115.76 1329.92 116.39C1329.34 116.997 1328.87 117.732 1328.52 118.595C1328.2 119.435 1328.03 120.392 1328.03 121.465C1328.03 122.515 1328.2 123.472 1328.52 124.335C1328.87 125.199 1329.34 125.945 1329.92 126.575C1330.53 127.182 1331.23 127.649 1332.02 127.975C1332.84 128.302 1333.71 128.465 1334.65 128.465ZM1356.76 133.715V114.71H1349.24V109.215H1371.18V114.71H1363.69V133.715H1356.76Z" fill="white"/>
<path d="M1415.51 133.715L1426.33 109.215H1433.15L1444 133.715H1436.79L1428.32 112.61H1431.05L1422.58 133.715H1415.51ZM1421.43 128.955L1423.21 123.845H1435.18L1436.97 128.955H1421.43ZM1445.96 133.715V109.215H1452.89V133.715H1445.96ZM1468.01 133.715V109.215H1479.21C1481.45 109.215 1483.38 109.577 1484.99 110.3C1486.62 111.024 1487.88 112.074 1488.77 113.45C1489.65 114.804 1490.1 116.414 1490.1 118.28C1490.1 120.124 1489.65 121.722 1488.77 123.075C1487.88 124.405 1486.62 125.432 1484.99 126.155C1483.38 126.855 1481.45 127.205 1479.21 127.205H1471.86L1474.94 124.3V133.715H1468.01ZM1483.17 133.715L1477.08 124.79H1484.46L1490.59 133.715H1483.17ZM1474.94 125.035L1471.86 121.85H1478.79C1480.24 121.85 1481.31 121.535 1482.01 120.905C1482.73 120.275 1483.1 119.4 1483.1 118.28C1483.1 117.137 1482.73 116.25 1482.01 115.62C1481.31 114.99 1480.24 114.675 1478.79 114.675H1471.86L1474.94 111.49V125.035ZM1500.29 118.7H1511.66V123.88H1500.29V118.7ZM1500.78 128.36H1513.59V133.715H1493.92V109.215H1513.13V114.57H1500.78V128.36ZM1526.04 134.205C1524.04 134.205 1522.1 133.96 1520.23 133.47C1518.39 132.957 1516.89 132.304 1515.72 131.51L1517.99 126.4C1519.09 127.1 1520.35 127.684 1521.77 128.15C1523.22 128.594 1524.66 128.815 1526.08 128.815C1527.04 128.815 1527.81 128.734 1528.39 128.57C1528.97 128.384 1529.39 128.15 1529.65 127.87C1529.93 127.567 1530.07 127.217 1530.07 126.82C1530.07 126.26 1529.81 125.817 1529.3 125.49C1528.79 125.164 1528.12 124.895 1527.3 124.685C1526.49 124.475 1525.58 124.265 1524.57 124.055C1523.59 123.845 1522.6 123.577 1521.6 123.25C1520.62 122.924 1519.72 122.504 1518.9 121.99C1518.09 121.454 1517.42 120.765 1516.91 119.925C1516.4 119.062 1516.14 117.977 1516.14 116.67C1516.14 115.2 1516.54 113.87 1517.33 112.68C1518.15 111.49 1519.36 110.534 1520.97 109.81C1522.58 109.087 1524.59 108.725 1526.99 108.725C1528.6 108.725 1530.17 108.912 1531.71 109.285C1533.28 109.635 1534.67 110.16 1535.88 110.86L1533.74 116.005C1532.58 115.375 1531.42 114.909 1530.28 114.605C1529.14 114.279 1528.03 114.115 1526.95 114.115C1526 114.115 1525.23 114.22 1524.64 114.43C1524.06 114.617 1523.64 114.874 1523.38 115.2C1523.13 115.527 1523 115.9 1523 116.32C1523 116.857 1523.24 117.289 1523.73 117.615C1524.25 117.919 1524.91 118.175 1525.73 118.385C1526.57 118.572 1527.48 118.77 1528.46 118.98C1529.46 119.19 1530.45 119.459 1531.43 119.785C1532.44 120.089 1533.35 120.509 1534.16 121.045C1534.98 121.559 1535.63 122.247 1536.12 123.11C1536.64 123.95 1536.89 125.012 1536.89 126.295C1536.89 127.719 1536.49 129.037 1535.67 130.25C1534.88 131.44 1533.67 132.397 1532.06 133.12C1530.48 133.844 1528.47 134.205 1526.04 134.205ZM1551.4 134.205C1547.78 134.205 1544.96 133.214 1542.93 131.23C1540.9 129.247 1539.89 126.435 1539.89 122.795V109.215H1546.82V122.585C1546.82 124.685 1547.22 126.19 1548.04 127.1C1548.88 128.01 1550.02 128.465 1551.47 128.465C1552.92 128.465 1554.05 128.01 1554.87 127.1C1555.68 126.19 1556.09 124.685 1556.09 122.585V109.215H1562.92V122.795C1562.92 126.435 1561.9 129.247 1559.87 131.23C1557.84 133.214 1555.02 134.205 1551.4 134.205ZM1567.61 133.715V109.215H1573.32L1583.47 125.875H1580.46L1590.33 109.215H1596.03L1596.1 133.715H1589.73L1589.66 118.91H1590.75L1583.36 131.3H1580.28L1572.69 118.91H1574.02V133.715H1567.61ZM1607.37 118.7H1618.75V123.88H1607.37V118.7ZM1607.86 128.36H1620.67V133.715H1601V109.215H1620.22V114.57H1607.86V128.36ZM1634.7 133.715V109.215H1647.23C1650.45 109.215 1652.86 109.81 1654.44 111C1656.03 112.167 1656.82 113.707 1656.82 115.62C1656.82 116.88 1656.49 117.989 1655.81 118.945C1655.16 119.879 1654.22 120.625 1653.01 121.185C1651.82 121.722 1650.4 121.99 1648.74 121.99L1649.44 120.31C1651.17 120.31 1652.67 120.579 1653.95 121.115C1655.24 121.629 1656.23 122.387 1656.93 123.39C1657.65 124.37 1658.01 125.572 1658.01 126.995C1658.01 129.119 1657.15 130.775 1655.42 131.965C1653.72 133.132 1651.22 133.715 1647.93 133.715H1634.7ZM1641.56 128.71H1647.37C1648.56 128.71 1649.46 128.512 1650.07 128.115C1650.7 127.695 1651.01 127.065 1651.01 126.225C1651.01 125.385 1650.7 124.767 1650.07 124.37C1649.46 123.95 1648.56 123.74 1647.37 123.74H1641.07V118.945H1646.32C1647.49 118.945 1648.37 118.747 1648.95 118.35C1649.53 117.954 1649.82 117.359 1649.82 116.565C1649.82 115.772 1649.53 115.189 1648.95 114.815C1648.37 114.419 1647.49 114.22 1646.32 114.22H1641.56V128.71ZM1672.91 134.205C1669.29 134.205 1666.47 133.214 1664.44 131.23C1662.41 129.247 1661.39 126.435 1661.39 122.795V109.215H1668.32V122.585C1668.32 124.685 1668.73 126.19 1669.55 127.1C1670.39 128.01 1671.53 128.465 1672.98 128.465C1674.43 128.465 1675.56 128.01 1676.37 127.1C1677.19 126.19 1677.6 124.685 1677.6 122.585V109.215H1684.42V122.795C1684.42 126.435 1683.41 129.247 1681.38 131.23C1679.35 133.214 1676.53 134.205 1672.91 134.205ZM1689.12 133.715V109.215H1696.05V133.715H1689.12ZM1700.98 133.715V109.215H1707.91V128.22H1719.6V133.715H1700.98ZM1722.34 133.715V109.215H1733.93C1736.63 109.215 1739.01 109.717 1741.07 110.72C1743.12 111.724 1744.72 113.135 1745.86 114.955C1747.03 116.775 1747.61 118.945 1747.61 121.465C1747.61 123.962 1747.03 126.132 1745.86 127.975C1744.72 129.795 1743.12 131.207 1741.07 132.21C1739.01 133.214 1736.63 133.715 1733.93 133.715H1722.34ZM1729.27 128.185H1733.65C1735.05 128.185 1736.26 127.929 1737.29 127.415C1738.34 126.879 1739.15 126.109 1739.74 125.105C1740.32 124.079 1740.61 122.865 1740.61 121.465C1740.61 120.042 1740.32 118.829 1739.74 117.825C1739.15 116.822 1738.34 116.064 1737.29 115.55C1736.26 115.014 1735.05 114.745 1733.65 114.745H1729.27V128.185ZM1757.63 118.7H1769V123.88H1757.63V118.7ZM1758.12 128.36H1770.93V133.715H1751.26V109.215H1770.47V114.57H1758.12V128.36ZM1774.77 133.715V109.215H1785.97C1788.21 109.215 1790.14 109.577 1791.75 110.3C1793.38 111.024 1794.64 112.074 1795.53 113.45C1796.41 114.804 1796.86 116.414 1796.86 118.28C1796.86 120.124 1796.41 121.722 1795.53 123.075C1794.64 124.405 1793.38 125.432 1791.75 126.155C1790.14 126.855 1788.21 127.205 1785.97 127.205H1778.62L1781.7 124.3V133.715H1774.77ZM1789.93 133.715L1783.84 124.79H1791.22L1797.35 133.715H1789.93ZM1781.7 125.035L1778.62 121.85H1785.55C1787 121.85 1788.07 121.535 1788.77 120.905C1789.5 120.275 1789.86 119.4 1789.86 118.28C1789.86 117.137 1789.5 116.25 1788.77 115.62C1788.07 114.99 1787 114.675 1785.55 114.675H1778.62L1781.7 111.49V125.035Z" fill="white"/>
<path d="M1843.51 133.715L1854.33 109.215H1861.15L1872 133.715H1864.79L1856.32 112.61H1859.05L1850.58 133.715H1843.51ZM1849.43 128.955L1851.21 123.845H1863.18L1864.97 128.955H1849.43ZM1873.96 133.715V109.215H1880.89V133.715H1873.96ZM1893.07 133.715L1903.89 109.215H1910.71L1921.56 133.715H1914.35L1905.88 112.61H1908.61L1900.14 133.715H1893.07ZM1898.99 128.955L1900.77 123.845H1912.74L1914.53 128.955H1898.99ZM1934.32 134.205C1930.7 134.205 1927.88 133.214 1925.85 131.23C1923.82 129.247 1922.8 126.435 1922.8 122.795V109.215H1929.73V122.585C1929.73 124.685 1930.14 126.19 1930.96 127.1C1931.8 128.01 1932.94 128.465 1934.39 128.465C1935.83 128.465 1936.97 128.01 1937.78 127.1C1938.6 126.19 1939.01 124.685 1939.01 122.585V109.215H1945.83V122.795C1945.83 126.435 1944.82 129.247 1942.79 131.23C1940.76 133.214 1937.93 134.205 1934.32 134.205ZM1955.37 133.715V114.71H1947.84V109.215H1969.79V114.71H1962.3V133.715H1955.37ZM1984.38 134.205C1982.42 134.205 1980.61 133.89 1978.96 133.26C1977.3 132.63 1975.85 131.744 1974.62 130.6C1973.4 129.434 1972.46 128.08 1971.78 126.54C1971.1 125 1970.77 123.309 1970.77 121.465C1970.77 119.622 1971.1 117.93 1971.78 116.39C1972.46 114.85 1973.4 113.509 1974.62 112.365C1975.85 111.199 1977.3 110.3 1978.96 109.67C1980.61 109.04 1982.42 108.725 1984.38 108.725C1986.36 108.725 1988.17 109.04 1989.81 109.67C1991.46 110.3 1992.9 111.199 1994.11 112.365C1995.32 113.509 1996.27 114.85 1996.95 116.39C1997.65 117.93 1998 119.622 1998 121.465C1998 123.309 1997.65 125.012 1996.95 126.575C1996.27 128.115 1995.32 129.457 1994.11 130.6C1992.9 131.744 1991.46 132.63 1989.81 133.26C1988.17 133.89 1986.36 134.205 1984.38 134.205ZM1984.38 128.465C1985.31 128.465 1986.18 128.302 1986.97 127.975C1987.79 127.649 1988.49 127.182 1989.07 126.575C1989.68 125.945 1990.14 125.199 1990.47 124.335C1990.82 123.472 1991 122.515 1991 121.465C1991 120.392 1990.82 119.435 1990.47 118.595C1990.14 117.732 1989.68 116.997 1989.07 116.39C1988.49 115.76 1987.79 115.282 1986.97 114.955C1986.18 114.629 1985.31 114.465 1984.38 114.465C1983.45 114.465 1982.57 114.629 1981.76 114.955C1980.96 115.282 1980.26 115.76 1979.66 116.39C1979.07 116.997 1978.61 117.732 1978.26 118.595C1977.93 119.435 1977.77 120.392 1977.77 121.465C1977.77 122.515 1977.93 123.472 1978.26 124.335C1978.61 125.199 1979.07 125.945 1979.66 126.575C1980.26 127.182 1980.96 127.649 1981.76 127.975C1982.57 128.302 1983.45 128.465 1984.38 128.465ZM2001.63 133.715V109.215H2007.33L2017.48 125.875H2014.47L2024.34 109.215H2030.05L2030.12 133.715H2023.75L2023.68 118.91H2024.76L2017.38 131.3H2014.3L2006.7 118.91H2008.03V133.715H2001.63ZM2032.08 133.715L2042.89 109.215H2049.72L2060.57 133.715H2053.36L2044.89 112.61H2047.62L2039.15 133.715H2032.08ZM2037.99 128.955L2039.78 123.845H2051.75L2053.53 128.955H2037.99ZM2066.52 133.715V114.71H2058.99V109.215H2080.94V114.71H2073.45V133.715H2066.52ZM2083.52 133.715V109.215H2090.45V133.715H2083.52ZM2107.74 134.205C2105.78 134.205 2103.97 133.89 2102.31 133.26C2100.65 132.63 2099.21 131.744 2097.97 130.6C2096.76 129.434 2095.81 128.08 2095.14 126.54C2094.46 125 2094.12 123.309 2094.12 121.465C2094.12 119.622 2094.46 117.93 2095.14 116.39C2095.81 114.85 2096.76 113.509 2097.97 112.365C2099.21 111.199 2100.65 110.3 2102.31 109.67C2103.97 109.04 2105.78 108.725 2107.74 108.725C2109.72 108.725 2111.53 109.04 2113.16 109.67C2114.82 110.3 2116.25 111.199 2117.47 112.365C2118.68 113.509 2119.62 114.85 2120.3 116.39C2121 117.93 2121.35 119.622 2121.35 121.465C2121.35 123.309 2121 125.012 2120.3 126.575C2119.62 128.115 2118.68 129.457 2117.47 130.6C2116.25 131.744 2114.82 132.63 2113.16 133.26C2111.53 133.89 2109.72 134.205 2107.74 134.205ZM2107.74 128.465C2108.67 128.465 2109.53 128.302 2110.33 127.975C2111.14 127.649 2111.84 127.182 2112.43 126.575C2113.03 125.945 2113.5 125.199 2113.83 124.335C2114.18 123.472 2114.35 122.515 2114.35 121.465C2114.35 120.392 2114.18 119.435 2113.83 118.595C2113.5 117.732 2113.03 116.997 2112.43 116.39C2111.84 115.76 2111.14 115.282 2110.33 114.955C2109.53 114.629 2108.67 114.465 2107.74 114.465C2106.8 114.465 2105.93 114.629 2105.11 114.955C2104.32 115.282 2103.62 115.76 2103.01 116.39C2102.43 116.997 2101.96 117.732 2101.61 118.595C2101.28 119.435 2101.12 120.392 2101.12 121.465C2101.12 122.515 2101.28 123.472 2101.61 124.335C2101.96 125.199 2102.43 125.945 2103.01 126.575C2103.62 127.182 2104.32 127.649 2105.11 127.975C2105.93 128.302 2106.8 128.465 2107.74 128.465ZM2124.98 133.715V109.215H2130.69L2144.2 125.525H2141.5V109.215H2148.29V133.715H2142.59L2129.08 117.405H2131.77V133.715H2124.98Z" fill="white"/>
</g>
</g>
<defs>
<clipPath id="clip0_3027_15503">
<rect width="2019" height="43" fill="white" transform="translate(47 99.7153)"/>
</clipPath>
<clipPath id="clip1_3027_15503">
<rect width="3408" height="43" fill="white" transform="translate(47 99.7153)"/>
</clipPath>
</defs>
</svg>
