<svg width="1920" height="946" viewBox="0 0 1920 946" fill="none" xmlns="http://www.w3.org/2000/svg">
<rect width="1924" height="946" transform="translate(-2)" fill="#FEFEFE"/>
<path d="M84.8301 761.05C77.5301 761.05 70.9301 759.8 65.0301 757.3C59.2301 754.8 54.6301 751.2 51.2301 746.5C47.8301 741.8 46.0801 736.25 45.9801 729.85H68.4801C68.7801 734.15 70.2801 737.55 72.9801 740.05C75.7801 742.55 79.5801 743.8 84.3801 743.8C89.2801 743.8 93.1301 742.65 95.9301 740.35C98.7301 737.95 100.13 734.85 100.13 731.05C100.13 727.95 99.1801 725.4 97.2801 723.4C95.3801 721.4 92.9801 719.85 90.0801 718.75C87.2801 717.55 83.3801 716.25 78.3801 714.85C71.5801 712.85 66.0301 710.9 61.7301 709C57.5301 707 53.8801 704.05 50.7801 700.15C47.7801 696.15 46.2801 690.85 46.2801 684.25C46.2801 678.05 47.8301 672.65 50.9301 668.05C54.0301 663.45 58.3801 659.95 63.9801 657.55C69.5801 655.05 75.9801 653.8 83.1801 653.8C93.9801 653.8 102.73 656.45 109.43 661.75C116.23 666.95 119.98 674.25 120.68 683.65H97.5801C97.3801 680.05 95.8301 677.1 92.9301 674.8C90.1301 672.4 86.3801 671.2 81.6801 671.2C77.5801 671.2 74.2801 672.25 71.7801 674.35C69.3801 676.45 68.1801 679.5 68.1801 683.5C68.1801 686.3 69.0801 688.65 70.8801 690.55C72.7801 692.35 75.0801 693.85 77.7801 695.05C80.5801 696.15 84.4801 697.45 89.4801 698.95C96.2801 700.95 101.83 702.95 106.13 704.95C110.43 706.95 114.13 709.95 117.23 713.95C120.33 717.95 121.88 723.2 121.88 729.7C121.88 735.3 120.43 740.5 117.53 745.3C114.63 750.1 110.38 753.95 104.78 756.85C99.1801 759.65 92.5301 761.05 84.8301 761.05ZM198.686 760L160.586 713.35V760H139.586V655.3H160.586V702.25L198.686 655.3H224.036L180.836 707.2L225.236 760H198.686ZM321.799 655.3L286.399 723.55V760H265.399V723.55L229.849 655.3H253.549L276.049 703.15L298.399 655.3H321.799ZM462.703 655.3L424.303 760H398.803L360.403 655.3H382.903L411.703 738.55L440.353 655.3H462.703ZM495.793 672.25V698.5H531.043V715.15H495.793V742.9H535.543V760H474.793V655.15H535.543V672.25H495.793ZM643.677 760H622.677L575.127 688.15V760H554.127V655.15H575.127L622.677 727.15V655.15H643.677V760ZM735.18 655.3V672.25H707.28V760H686.28V672.25H658.38V655.3H735.18ZM770.702 655.3V720.1C770.702 727.2 772.552 732.65 776.252 736.45C779.952 740.15 785.152 742 791.852 742C798.652 742 803.902 740.15 807.602 736.45C811.302 732.65 813.152 727.2 813.152 720.1V655.3H834.302V719.95C834.302 728.85 832.352 736.4 828.452 742.6C824.652 748.7 819.502 753.3 813.002 756.4C806.602 759.5 799.452 761.05 791.552 761.05C783.752 761.05 776.652 759.5 770.252 756.4C763.952 753.3 758.952 748.7 755.252 742.6C751.552 736.4 749.702 728.85 749.702 719.95V655.3H770.702ZM908.092 760L884.992 719.2H875.092V760H854.092V655.3H893.392C901.492 655.3 908.392 656.75 914.092 659.65C919.792 662.45 924.042 666.3 926.842 671.2C929.742 676 931.192 681.4 931.192 687.4C931.192 694.3 929.192 700.55 925.192 706.15C921.192 711.65 915.242 715.45 907.342 717.55L932.392 760H908.092ZM875.092 703.45H892.642C898.342 703.45 902.592 702.1 905.392 699.4C908.192 696.6 909.592 692.75 909.592 687.85C909.592 683.05 908.192 679.35 905.392 676.75C902.592 674.05 898.342 672.7 892.642 672.7H875.092V703.45ZM970.686 672.25V698.5H1005.94V715.15H970.686V742.9H1010.44V760H949.686V655.15H1010.44V672.25H970.686Z" fill="#F4F4F4" fill-opacity="0.4"/>
</svg>
