<svg width="1901" height="381" viewBox="0 0 1901 381" fill="none" xmlns="http://www.w3.org/2000/svg">
<mask id="path-1-outside-1_3014_14786" maskUnits="userSpaceOnUse" x="24" y="79" width="1876" height="229" fill="black">
<rect fill="white" x="24" y="79" width="1876" height="229"/>
<path d="M25.9531 303V84.1184H132.892C160.409 84.1184 181.046 89.3299 194.805 99.7528C208.771 110.176 215.755 123.934 215.755 141.028C215.755 152.493 212.94 162.499 207.312 171.046C201.684 179.384 193.971 185.846 184.173 190.432C174.376 195.018 163.119 197.311 150.403 197.311L156.344 184.491C170.102 184.491 182.297 186.784 192.928 191.37C203.56 195.748 211.794 202.314 217.631 211.07C223.676 219.825 226.699 230.561 226.699 243.277C226.699 262.038 219.298 276.734 204.498 287.366C189.697 297.789 167.913 303 139.146 303H25.9531ZM76.2959 264.852H135.394C148.527 264.852 158.429 262.767 165.099 258.598C171.978 254.221 175.418 247.342 175.418 237.961C175.418 228.789 171.978 222.014 165.099 217.636C158.429 213.05 148.527 210.757 135.394 210.757H72.5436V173.86H126.639C138.938 173.86 148.318 171.775 154.781 167.606C161.451 163.228 164.787 156.662 164.787 147.907C164.787 139.36 161.451 133.002 154.781 128.833C148.318 124.455 138.938 122.266 126.639 122.266H76.2959V264.852ZM265.049 303V84.1184H315.705V261.725H425.458V303H265.049ZM556.411 306.752C539.109 306.752 523.058 303.938 508.257 298.31C493.665 292.681 480.949 284.76 470.109 274.545C459.478 264.331 451.139 252.345 445.094 238.586C439.257 224.828 436.339 209.819 436.339 193.559C436.339 177.299 439.257 162.29 445.094 148.532C451.139 134.774 459.582 122.788 470.422 112.573C481.262 102.359 493.978 94.4371 508.57 88.8088C523.162 83.1804 539.005 80.3662 556.098 80.3662C573.4 80.3662 589.243 83.1804 603.627 88.8088C618.219 94.4371 630.831 102.359 641.462 112.573C652.302 122.788 660.745 134.774 666.79 148.532C672.835 162.082 675.858 177.091 675.858 193.559C675.858 209.819 672.835 224.932 666.79 238.899C660.745 252.657 652.302 264.644 641.462 274.858C630.831 284.864 618.219 292.681 603.627 298.31C589.243 303.938 573.505 306.752 556.411 306.752ZM556.098 263.601C565.896 263.601 574.86 261.934 582.99 258.598C591.328 255.263 598.624 250.468 604.878 244.215C611.131 237.961 615.926 230.561 619.261 222.014C622.805 213.467 624.577 203.982 624.577 193.559C624.577 183.136 622.805 173.651 619.261 165.105C615.926 156.558 611.131 149.158 604.878 142.904C598.832 136.65 591.641 131.855 583.302 128.52C574.964 125.185 565.896 123.517 556.098 123.517C546.301 123.517 537.233 125.185 528.895 128.52C520.765 131.855 513.573 136.65 507.319 142.904C501.065 149.158 496.167 156.558 492.623 165.105C489.287 173.651 487.62 183.136 487.62 193.559C487.62 203.774 489.287 213.259 492.623 222.014C496.167 230.561 500.961 237.961 507.006 244.215C513.26 250.468 520.556 255.263 528.895 258.598C537.233 261.934 546.301 263.601 556.098 263.601ZM819.616 306.752C802.314 306.752 786.367 304.042 771.775 298.622C757.391 292.994 744.779 285.073 733.94 274.858C723.308 264.644 714.97 252.657 708.925 238.899C703.088 225.141 700.169 210.027 700.169 193.559C700.169 177.091 703.088 161.978 708.925 148.219C714.97 134.461 723.412 122.475 734.252 112.26C745.092 102.046 757.808 94.2287 772.4 88.8088C786.992 83.1804 803.044 80.3662 820.554 80.3662C839.941 80.3662 857.347 83.5973 872.773 90.0595C888.407 96.5217 901.54 105.902 912.172 118.201L879.652 148.219C871.731 139.881 863.08 133.732 853.699 129.771C844.318 125.602 834.104 123.517 823.056 123.517C812.424 123.517 802.731 125.185 793.976 128.52C785.22 131.855 777.612 136.65 771.149 142.904C764.896 149.158 759.997 156.558 756.453 165.105C753.118 173.651 751.45 183.136 751.45 193.559C751.45 203.774 753.118 213.154 756.453 221.701C759.997 230.248 764.896 237.752 771.149 244.215C777.612 250.468 785.116 255.263 793.663 258.598C802.418 261.934 812.007 263.601 822.43 263.601C832.436 263.601 842.13 262.038 851.51 258.911C861.099 255.576 870.376 250.052 879.34 242.339L908.107 278.923C896.225 287.887 882.362 294.766 866.519 299.56C850.885 304.355 835.251 306.752 819.616 306.752ZM861.829 272.357V190.12H908.107V278.923L861.829 272.357ZM1043.72 303V84.1184H1138.46C1158.06 84.1184 1174.94 87.3495 1189.12 93.8118C1203.29 100.066 1214.23 109.133 1221.95 121.016C1229.66 132.898 1233.52 147.073 1233.52 163.541C1233.52 179.801 1229.66 193.872 1221.95 205.754C1214.23 217.636 1203.29 226.808 1189.12 233.271C1174.94 239.524 1158.06 242.651 1138.46 242.651H1071.86L1094.37 219.825V303H1043.72ZM1094.37 225.453L1071.86 201.376H1135.65C1151.28 201.376 1162.95 198.041 1170.67 191.37C1178.38 184.7 1182.24 175.423 1182.24 163.541C1182.24 151.451 1178.38 142.07 1170.67 135.399C1162.95 128.729 1151.28 125.393 1135.65 125.393H1071.86L1094.37 101.316V225.453ZM1379.05 306.752C1361.75 306.752 1345.7 303.938 1330.9 298.31C1316.3 292.681 1303.59 284.76 1292.75 274.545C1282.12 264.331 1273.78 252.345 1267.73 238.586C1261.9 224.828 1258.98 209.819 1258.98 193.559C1258.98 177.299 1261.9 162.29 1267.73 148.532C1273.78 134.774 1282.22 122.788 1293.06 112.573C1303.9 102.359 1316.62 94.4371 1331.21 88.8088C1345.8 83.1804 1361.64 80.3662 1378.74 80.3662C1396.04 80.3662 1411.88 83.1804 1426.26 88.8088C1440.86 94.4371 1453.47 102.359 1464.1 112.573C1474.94 122.788 1483.38 134.774 1489.43 148.532C1495.47 162.082 1498.5 177.091 1498.5 193.559C1498.5 209.819 1495.47 224.932 1489.43 238.899C1483.38 252.657 1474.94 264.644 1464.1 274.858C1453.47 284.864 1440.86 292.681 1426.26 298.31C1411.88 303.938 1396.14 306.752 1379.05 306.752ZM1378.74 263.601C1388.53 263.601 1397.5 261.934 1405.63 258.598C1413.97 255.263 1421.26 250.468 1427.52 244.215C1433.77 237.961 1438.56 230.561 1441.9 222.014C1445.44 213.467 1447.22 203.982 1447.22 193.559C1447.22 183.136 1445.44 173.651 1441.9 165.105C1438.56 156.558 1433.77 149.158 1427.52 142.904C1421.47 136.65 1414.28 131.855 1405.94 128.52C1397.6 125.185 1388.53 123.517 1378.74 123.517C1368.94 123.517 1359.87 125.185 1351.53 128.52C1343.4 131.855 1336.21 136.65 1329.96 142.904C1323.7 149.158 1318.8 156.558 1315.26 165.105C1311.93 173.651 1310.26 183.136 1310.26 193.559C1310.26 203.774 1311.93 213.259 1315.26 222.014C1318.8 230.561 1323.6 237.961 1329.64 244.215C1335.9 250.468 1343.19 255.263 1351.53 258.598C1359.87 261.934 1368.94 263.601 1378.74 263.601ZM1608.48 306.752C1590.97 306.752 1574.19 304.459 1558.14 299.873C1542.09 295.079 1529.17 288.929 1519.37 281.425L1536.57 243.277C1545.95 249.947 1556.99 255.471 1569.71 259.849C1582.64 264.018 1595.66 266.103 1608.8 266.103C1618.8 266.103 1626.83 265.165 1632.87 263.289C1639.13 261.204 1643.71 258.39 1646.63 254.846C1649.55 251.302 1651.01 247.237 1651.01 242.651C1651.01 236.814 1648.72 232.228 1644.13 228.893C1639.54 225.349 1633.5 222.535 1625.99 220.45C1618.49 218.157 1610.15 216.073 1600.98 214.197C1592.02 212.112 1582.95 209.611 1573.78 206.692C1564.81 203.774 1556.58 200.021 1549.07 195.435C1541.57 190.849 1535.42 184.804 1530.62 177.299C1526.04 169.795 1523.75 160.206 1523.75 148.532C1523.75 136.025 1527.08 124.664 1533.75 114.449C1540.63 104.026 1550.85 95.7921 1564.39 89.7468C1578.15 83.4931 1595.35 80.3662 1615.99 80.3662C1629.75 80.3662 1643.3 82.0339 1656.64 85.3692C1669.98 88.4961 1681.76 93.2906 1691.97 99.7528L1676.34 138.213C1666.12 132.377 1655.91 128.103 1645.69 125.393C1635.48 122.475 1625.47 121.016 1615.68 121.016C1605.88 121.016 1597.85 122.162 1591.6 124.455C1585.34 126.748 1580.86 129.771 1578.15 133.523C1575.44 137.067 1574.09 141.236 1574.09 146.031C1574.09 151.659 1576.38 156.245 1580.97 159.789C1585.55 163.124 1591.6 165.834 1599.1 167.919C1606.61 170.003 1614.84 172.088 1623.81 174.173C1632.98 176.257 1642.05 178.654 1651.01 181.364C1660.18 184.074 1668.52 187.722 1676.02 192.308C1683.53 196.895 1689.57 202.94 1694.16 210.444C1698.95 217.949 1701.35 227.434 1701.35 238.899C1701.35 251.198 1697.91 262.455 1691.03 272.669C1684.15 282.884 1673.84 291.118 1660.08 297.372C1646.53 303.625 1629.33 306.752 1608.48 306.752ZM1778.25 303V125.393H1708.21V84.1184H1898.95V125.393H1828.91V303H1778.25Z"/>
</mask>
<path d="M25.9531 303H24.9531V304H25.9531V303ZM25.9531 84.1184V83.1184H24.9531V84.1184H25.9531ZM194.805 99.7528L194.201 100.55L194.206 100.554L194.805 99.7528ZM207.312 171.046L208.141 171.605L208.147 171.596L207.312 171.046ZM184.173 190.432L184.597 191.338L184.173 190.432ZM150.403 197.311L149.496 196.891L148.837 198.311H150.403V197.311ZM156.344 184.491V183.491H155.705L155.437 184.071L156.344 184.491ZM192.928 191.37L192.532 192.289L192.54 192.292L192.548 192.295L192.928 191.37ZM217.631 211.07L216.799 211.624L216.803 211.631L216.808 211.638L217.631 211.07ZM204.498 287.366L205.074 288.183L205.081 288.178L204.498 287.366ZM76.2959 264.852H75.2959V265.852H76.2959V264.852ZM165.099 258.598L165.629 259.446L165.636 259.442L165.099 258.598ZM165.099 217.636L164.533 218.46L164.547 218.47L164.562 218.48L165.099 217.636ZM72.5436 210.757H71.5436V211.757H72.5436V210.757ZM72.5436 173.86V172.86H71.5436V173.86H72.5436ZM154.781 167.606L155.323 168.446L155.329 168.442L154.781 167.606ZM154.781 128.833L154.22 129.661L154.235 129.671L154.251 129.681L154.781 128.833ZM76.2959 122.266V121.266H75.2959V122.266H76.2959ZM26.9531 303V84.1184H24.9531V303H26.9531ZM25.9531 85.1184H132.892V83.1184H25.9531V85.1184ZM132.892 85.1184C160.311 85.1184 180.692 90.3164 194.201 100.55L195.408 98.9557C181.4 88.3434 160.507 83.1184 132.892 83.1184V85.1184ZM194.206 100.554C207.926 110.793 214.755 124.257 214.755 141.028H216.755C216.755 123.611 209.617 109.559 195.403 98.9514L194.206 100.554ZM214.755 141.028C214.755 152.322 211.985 162.131 206.477 170.496L208.147 171.596C213.896 162.866 216.755 152.664 216.755 141.028H214.755ZM206.483 170.486C200.964 178.663 193.396 185.011 183.749 189.527L184.597 191.338C194.546 186.681 202.404 180.105 208.141 171.605L206.483 170.486ZM183.749 189.527C174.106 194.041 162.998 196.311 150.403 196.311V198.311C163.24 198.311 174.646 195.996 184.597 191.338L183.749 189.527ZM151.31 197.732L157.251 184.912L155.437 184.071L149.496 196.891L151.31 197.732ZM156.344 185.491C169.991 185.491 182.047 187.766 192.532 192.289L193.325 190.452C182.547 185.803 170.213 183.491 156.344 183.491V185.491ZM192.548 192.295C203.013 196.604 211.082 203.05 216.799 211.624L218.463 210.515C212.506 201.579 204.107 194.892 193.309 190.446L192.548 192.295ZM216.808 211.638C222.717 220.196 225.699 230.723 225.699 243.277H227.699C227.699 230.398 224.635 219.454 218.454 210.502L216.808 211.638ZM225.699 243.277C225.699 261.727 218.445 276.116 203.915 286.553L205.081 288.178C220.152 277.352 227.699 262.349 227.699 243.277H225.699ZM203.922 286.548C189.363 296.801 167.819 302 139.146 302V304C168.008 304 190.032 298.776 205.074 288.183L203.922 286.548ZM139.146 302H25.9531V304H139.146V302ZM76.2959 265.852H135.394V263.852H76.2959V265.852ZM135.394 265.852C148.602 265.852 158.726 263.761 165.629 259.446L164.569 257.75C158.131 261.774 148.451 263.852 135.394 263.852V265.852ZM165.636 259.442C172.851 254.851 176.418 247.623 176.418 237.961H174.418C174.418 247.06 171.106 253.591 164.562 257.755L165.636 259.442ZM176.418 237.961C176.418 228.497 172.844 221.379 165.636 216.793L164.562 218.48C171.113 222.648 174.418 229.08 174.418 237.961H176.418ZM165.666 216.812C158.754 212.06 148.614 209.757 135.394 209.757V211.757C148.439 211.757 158.103 214.04 164.533 218.46L165.666 216.812ZM135.394 209.757H72.5436V211.757H135.394V209.757ZM73.5436 210.757V173.86H71.5436V210.757H73.5436ZM72.5436 174.86H126.639V172.86H72.5436V174.86ZM126.639 174.86C139.025 174.86 148.629 172.765 155.323 168.446L154.238 166.766C148.008 170.786 138.85 172.86 126.639 172.86V174.86ZM155.329 168.442C162.313 163.859 165.787 156.96 165.787 147.907H163.787C163.787 156.364 160.59 162.598 154.232 166.77L155.329 168.442ZM165.787 147.907C165.787 139.051 162.303 132.355 155.311 127.985L154.251 129.681C160.6 133.649 163.787 139.669 163.787 147.907H165.787ZM155.341 128.005C148.643 123.468 139.032 121.266 126.639 121.266V123.266C138.844 123.266 147.993 125.443 154.22 129.661L155.341 128.005ZM126.639 121.266H76.2959V123.266H126.639V121.266ZM75.2959 122.266V264.852H77.2959V122.266H75.2959ZM265.049 303H264.049V304H265.049V303ZM265.049 84.1184V83.1184H264.049V84.1184H265.049ZM315.705 84.1184H316.705V83.1184H315.705V84.1184ZM315.705 261.725H314.705V262.725H315.705V261.725ZM425.458 261.725H426.458V260.725H425.458V261.725ZM425.458 303V304H426.458V303H425.458ZM266.049 303V84.1184H264.049V303H266.049ZM265.049 85.1184H315.705V83.1184H265.049V85.1184ZM314.705 84.1184V261.725H316.705V84.1184H314.705ZM315.705 262.725H425.458V260.725H315.705V262.725ZM424.458 261.725V303H426.458V261.725H424.458ZM425.458 302H265.049V304H425.458V302ZM508.257 298.31L507.897 299.243L507.902 299.244L508.257 298.31ZM470.109 274.545L469.416 275.267L469.423 275.273L470.109 274.545ZM445.094 238.586L444.174 238.977L444.179 238.989L445.094 238.586ZM445.094 148.532L444.179 148.13L444.174 148.142L445.094 148.532ZM508.57 88.8088L508.21 87.8757L508.57 88.8088ZM603.627 88.8088L603.263 89.74L603.267 89.7418L603.627 88.8088ZM641.462 112.573L640.769 113.294L640.776 113.301L641.462 112.573ZM666.79 148.532L665.874 148.934L665.877 148.94L666.79 148.532ZM666.79 238.899L667.705 239.301L667.708 239.296L666.79 238.899ZM641.462 274.858L642.148 275.586L642.148 275.586L641.462 274.858ZM603.627 298.31L603.267 297.377L603.263 297.378L603.627 298.31ZM582.99 258.598L582.618 257.67L582.61 257.673L582.99 258.598ZM604.878 244.215L604.171 243.508L604.878 244.215ZM619.261 222.014L618.338 221.631L618.334 221.641L618.33 221.65L619.261 222.014ZM619.261 165.105L618.33 165.468L618.334 165.478L618.338 165.488L619.261 165.105ZM604.878 142.904L604.159 143.599L604.165 143.605L604.171 143.611L604.878 142.904ZM583.302 128.52L582.931 129.449L583.302 128.52ZM528.895 128.52L528.523 127.592L528.515 127.595L528.895 128.52ZM507.319 142.904L508.026 143.611L507.319 142.904ZM492.623 165.105L491.699 164.722L491.695 164.731L491.691 164.741L492.623 165.105ZM492.623 222.014L491.688 222.37L491.693 222.383L491.699 222.397L492.623 222.014ZM507.006 244.215L506.287 244.91L506.293 244.916L506.299 244.922L507.006 244.215ZM528.895 258.598L528.523 259.527L528.895 258.598ZM556.411 305.752C539.219 305.752 523.29 302.956 508.613 297.375L507.902 299.244C522.826 304.92 538.999 307.752 556.411 307.752V305.752ZM508.617 297.377C494.14 291.793 481.536 283.939 470.795 273.818L469.423 275.273C480.362 285.581 493.19 293.57 507.897 299.243L508.617 297.377ZM470.802 273.824C460.267 263.702 452.003 251.825 446.01 238.184L444.179 238.989C450.276 252.864 458.689 264.96 469.416 275.267L470.802 273.824ZM446.015 238.196C440.235 224.572 437.339 209.697 437.339 193.559H435.339C435.339 209.941 438.28 225.085 444.174 238.977L446.015 238.196ZM437.339 193.559C437.339 177.422 440.235 162.547 446.015 148.923L444.174 148.142C438.28 162.034 435.339 177.177 435.339 193.559H437.339ZM446.01 148.934C452.002 135.298 460.366 123.422 471.108 113.301L469.736 111.845C458.798 122.153 450.277 134.25 444.179 148.13L446.01 148.934ZM471.108 113.301C481.849 103.18 494.452 95.3259 508.93 89.7418L508.21 87.8757C493.503 93.5484 480.675 101.537 469.736 111.845L471.108 113.301ZM508.93 89.7418C523.397 84.1616 539.116 81.3662 556.098 81.3662V79.3662C538.893 79.3662 522.927 82.1991 508.21 87.8757L508.93 89.7418ZM556.098 81.3662C573.291 81.3662 589.008 84.1622 603.263 89.74L603.991 87.8775C589.478 82.1986 573.51 79.3662 556.098 79.3662V81.3662ZM603.267 89.7418C617.743 95.3253 630.24 103.177 640.769 113.294L642.155 111.852C631.422 101.54 618.695 93.549 603.987 87.8757L603.267 89.7418ZM640.776 113.301C651.518 123.422 659.883 135.298 665.874 148.934L667.705 148.13C661.607 134.25 653.086 122.153 642.148 111.845L640.776 113.301ZM665.877 148.94C671.859 162.348 674.858 177.216 674.858 193.559H676.858C676.858 176.966 673.812 161.816 667.703 148.125L665.877 148.94ZM674.858 193.559C674.858 209.692 671.86 224.669 665.872 238.502L667.708 239.296C673.811 225.196 676.858 209.946 676.858 193.559H674.858ZM665.874 238.497C659.883 252.133 651.518 264.009 640.776 274.13L642.148 275.586C653.086 265.279 661.607 253.181 667.705 239.301L665.874 238.497ZM640.777 274.13C630.246 284.041 617.747 291.792 603.267 297.377L603.987 299.243C618.691 293.571 631.415 285.687 642.148 275.586L640.777 274.13ZM603.263 297.378C589.007 302.957 573.393 305.752 556.411 305.752V307.752C573.616 307.752 589.48 304.919 603.991 299.241L603.263 297.378ZM556.098 264.601C566.011 264.601 575.106 262.914 583.369 259.523L582.61 257.673C574.614 260.954 565.781 262.601 556.098 262.601V264.601ZM583.361 259.527C591.823 256.142 599.234 251.273 605.585 244.922L604.171 243.508C598.014 249.664 590.833 254.384 582.618 257.67L583.361 259.527ZM605.585 244.922C611.94 238.567 616.809 231.048 620.193 222.377L618.33 221.65C615.043 230.073 610.323 237.355 604.171 243.508L605.585 244.922ZM620.185 222.397C623.785 213.714 625.577 204.097 625.577 193.559H623.577C623.577 203.867 621.825 213.22 618.338 221.631L620.185 222.397ZM625.577 193.559C625.577 183.021 623.785 173.404 620.185 164.722L618.338 165.488C621.825 173.899 623.577 183.251 623.577 193.559H625.577ZM620.193 164.741C616.809 156.07 611.94 148.552 605.585 142.197L604.171 143.611C610.323 149.763 615.043 157.045 618.33 165.468L620.193 164.741ZM605.597 142.209C599.45 135.85 592.139 130.978 583.674 127.592L582.931 129.449C591.143 132.733 598.215 137.45 604.159 143.599L605.597 142.209ZM583.674 127.592C575.207 124.205 566.012 122.517 556.098 122.517V124.517C565.78 124.517 574.721 126.165 582.931 129.449L583.674 127.592ZM556.098 122.517C546.185 122.517 536.99 124.205 528.523 127.592L529.266 129.449C537.476 126.165 546.416 124.517 556.098 124.517V122.517ZM528.515 127.595C520.262 130.981 512.959 135.85 506.612 142.197L508.026 143.611C514.187 137.45 521.268 132.73 529.274 129.445L528.515 127.595ZM506.612 142.197C500.261 148.547 495.291 156.059 491.699 164.722L493.546 165.488C497.042 157.056 501.869 149.768 508.026 143.611L506.612 142.197ZM491.691 164.741C488.305 173.418 486.62 183.029 486.62 193.559H488.62C488.62 183.244 490.27 173.884 493.554 165.468L491.691 164.741ZM486.62 193.559C486.62 203.884 488.306 213.491 491.688 222.37L493.557 221.658C490.269 213.026 488.62 203.663 488.62 193.559H486.62ZM491.699 222.397C495.288 231.052 500.149 238.56 506.287 244.91L507.725 243.52C501.773 237.362 497.045 230.069 493.546 221.631L491.699 222.397ZM506.299 244.922C512.65 251.273 520.061 256.142 528.523 259.527L529.266 257.67C521.051 254.384 513.87 249.664 507.714 243.508L506.299 244.922ZM528.523 259.527C536.99 262.914 546.185 264.601 556.098 264.601V262.601C546.416 262.601 537.476 260.954 529.266 257.67L528.523 259.527ZM771.775 298.622L771.41 299.554L771.419 299.557L771.427 299.56L771.775 298.622ZM733.94 274.858L733.247 275.579L733.254 275.586L733.94 274.858ZM708.925 238.899L708.004 239.29L708.009 239.301L708.925 238.899ZM708.925 148.219L708.009 147.817L708.004 147.829L708.925 148.219ZM734.252 112.26L734.938 112.988L734.252 112.26ZM772.4 88.8088L772.748 89.7462L772.76 89.7418L772.4 88.8088ZM872.773 90.0595L872.387 90.9818L872.391 90.9837L872.773 90.0595ZM912.172 118.201L912.85 118.936L913.561 118.28L912.928 117.547L912.172 118.201ZM879.652 148.219L878.927 148.908L879.606 149.623L880.331 148.954L879.652 148.219ZM853.699 129.771L853.293 130.685L853.302 130.688L853.31 130.692L853.699 129.771ZM771.149 142.904L770.454 142.185L770.448 142.191L770.442 142.197L771.149 142.904ZM756.453 165.105L755.529 164.722L755.525 164.731L755.522 164.741L756.453 165.105ZM756.453 221.701L755.522 222.065L755.525 222.074L755.529 222.084L756.453 221.701ZM771.149 244.215L770.431 244.91L770.442 244.922L770.454 244.933L771.149 244.215ZM793.663 258.598L793.299 259.53L793.307 259.533L793.663 258.598ZM851.51 258.911L851.827 259.86L851.839 259.855L851.51 258.911ZM879.34 242.339L880.126 241.72L879.48 240.899L878.687 241.581L879.34 242.339ZM908.107 278.923L908.709 279.721L909.523 279.107L908.893 278.305L908.107 278.923ZM866.519 299.56L866.23 298.603L866.226 298.604L866.519 299.56ZM861.829 272.357H860.829V273.225L861.688 273.347L861.829 272.357ZM861.829 190.12V189.12H860.829V190.12H861.829ZM908.107 190.12H909.107V189.12H908.107V190.12ZM908.107 278.923L907.966 279.913L909.107 280.075V278.923H908.107ZM819.616 305.752C802.42 305.752 786.592 303.059 772.123 297.685L771.427 299.56C786.142 305.025 802.208 307.752 819.616 307.752V305.752ZM772.139 297.691C757.87 292.108 745.369 284.254 734.625 274.13L733.254 275.586C744.19 285.891 756.912 293.88 771.41 299.554L772.139 297.691ZM734.632 274.137C724.097 264.015 715.834 252.138 709.84 238.497L708.009 239.301C714.106 253.177 722.519 265.272 733.247 275.579L734.632 274.137ZM709.845 238.508C704.066 224.886 701.169 209.907 701.169 193.559H699.169C699.169 210.148 702.11 225.396 708.004 239.29L709.845 238.508ZM701.169 193.559C701.169 177.211 704.066 162.233 709.845 148.61L708.004 147.829C702.11 161.723 699.169 176.971 699.169 193.559H701.169ZM709.84 148.622C715.832 134.985 724.197 123.11 734.938 112.988L733.567 111.533C722.628 121.84 714.108 133.937 708.009 147.817L709.84 148.622ZM734.938 112.988C745.676 102.87 758.276 95.1217 772.748 89.7462L772.052 87.8713C757.34 93.3357 744.508 101.222 733.567 111.533L734.938 112.988ZM772.76 89.7418C787.224 84.1627 803.152 81.3662 820.554 81.3662V79.3662C802.935 79.3662 786.76 82.1981 772.04 87.8757L772.76 89.7418ZM820.554 81.3662C839.829 81.3662 857.101 84.5784 872.387 90.9818L873.159 89.1372C857.593 82.6162 840.053 79.3662 820.554 79.3662V81.3662ZM872.391 90.9837C887.887 97.3888 900.89 106.679 911.415 118.855L912.928 117.547C902.191 105.126 888.928 95.6547 873.155 89.1353L872.391 90.9837ZM911.493 117.467L878.974 147.485L880.331 148.954L912.85 118.936L911.493 117.467ZM880.377 147.531C872.373 139.105 863.611 132.87 854.088 128.85L853.31 130.692C862.549 134.593 871.088 140.657 878.927 148.908L880.377 147.531ZM854.105 128.857C844.587 124.627 834.233 122.517 823.056 122.517V124.517C833.975 124.517 844.05 126.577 853.293 130.685L854.105 128.857ZM823.056 122.517C812.319 122.517 802.503 124.202 793.62 127.586L794.332 129.455C802.959 126.168 812.53 124.517 823.056 124.517V122.517ZM793.62 127.586C784.743 130.967 777.018 135.833 770.454 142.185L771.845 143.622C778.206 137.467 785.698 132.744 794.332 129.455L793.62 127.586ZM770.442 142.197C764.092 148.547 759.121 156.059 755.529 164.722L757.377 165.488C760.873 157.056 765.7 149.768 771.857 143.611L770.442 142.197ZM755.522 164.741C752.135 173.418 750.45 183.029 750.45 193.559H752.45C752.45 183.244 754.1 173.884 757.385 165.468L755.522 164.741ZM750.45 193.559C750.45 203.884 752.136 213.39 755.522 222.065L757.385 221.338C754.099 212.919 752.45 203.663 752.45 193.559H750.45ZM755.529 222.084C759.12 230.744 764.087 238.355 770.431 244.91L771.868 243.519C765.704 237.15 760.874 229.752 757.377 221.318L755.529 222.084ZM770.454 244.933C777.014 251.281 784.632 256.147 793.299 259.53L794.027 257.667C785.601 254.379 778.21 249.656 771.845 243.496L770.454 244.933ZM793.307 259.533C802.188 262.916 811.899 264.601 822.43 264.601V262.601C812.115 262.601 802.648 260.951 794.019 257.664L793.307 259.533ZM822.43 264.601C832.542 264.601 842.343 263.021 851.826 259.86L851.194 257.962C841.917 261.055 832.33 262.601 822.43 262.601V264.601ZM851.839 259.855C861.564 256.473 870.948 250.878 879.992 243.097L878.687 241.581C869.803 249.225 860.634 254.679 851.182 257.966L851.839 259.855ZM878.553 242.957L907.321 279.541L908.893 278.305L880.126 241.72L878.553 242.957ZM907.505 278.125C895.726 287.01 881.972 293.839 866.23 298.603L866.809 300.518C882.752 295.693 896.723 288.763 908.709 279.721L907.505 278.125ZM866.226 298.604C850.682 303.371 835.147 305.752 819.616 305.752V307.752C835.354 307.752 851.087 305.339 866.812 300.516L866.226 298.604ZM862.829 272.357V190.12H860.829V272.357H862.829ZM861.829 191.12H908.107V189.12H861.829V191.12ZM907.107 190.12V278.923H909.107V190.12H907.107ZM908.247 277.933L861.969 271.366L861.688 273.347L907.966 279.913L908.247 277.933ZM1043.72 303H1042.72V304H1043.72V303ZM1043.72 84.1184V83.1184H1042.72V84.1184H1043.72ZM1189.12 93.8118L1188.7 94.7217L1188.71 94.7267L1189.12 93.8118ZM1221.95 121.016L1221.11 121.56L1221.95 121.016ZM1189.12 233.271L1189.52 234.186L1189.53 234.18L1189.12 233.271ZM1071.86 242.651L1071.15 241.949L1069.47 243.651H1071.86V242.651ZM1094.37 219.825H1095.37V217.387L1093.66 219.123L1094.37 219.825ZM1094.37 303V304H1095.37V303H1094.37ZM1094.37 225.453L1093.64 226.136L1095.37 227.987V225.453H1094.37ZM1071.86 201.376V200.376H1069.55L1071.13 202.059L1071.86 201.376ZM1071.86 125.393L1071.13 124.71L1069.55 126.393H1071.86V125.393ZM1094.37 101.316H1095.37V98.7827L1093.64 100.633L1094.37 101.316ZM1044.72 303V84.1184H1042.72V303H1044.72ZM1043.72 85.1184H1138.46V83.1184H1043.72V85.1184ZM1138.46 85.1184C1157.95 85.1184 1174.68 88.3321 1188.7 94.7217L1189.53 92.9019C1175.2 86.367 1158.16 83.1184 1138.46 83.1184V85.1184ZM1188.71 94.7267C1202.73 100.91 1213.51 109.856 1221.11 121.56L1222.79 120.471C1214.96 108.411 1203.85 99.2215 1189.52 92.8969L1188.71 94.7267ZM1221.11 121.56C1228.7 133.255 1232.52 147.234 1232.52 163.541H1234.52C1234.52 146.912 1230.62 132.54 1222.79 120.471L1221.11 121.56ZM1232.52 163.541C1232.52 179.637 1228.7 193.512 1221.11 205.21L1222.79 206.299C1230.62 194.231 1234.52 179.965 1234.52 163.541H1232.52ZM1221.11 205.21C1213.51 216.916 1202.72 225.969 1188.7 232.361L1189.53 234.18C1203.86 227.647 1214.96 218.356 1222.79 206.299L1221.11 205.21ZM1188.71 232.356C1174.69 238.541 1157.95 241.651 1138.46 241.651V243.651C1158.16 243.651 1175.19 240.508 1189.52 234.186L1188.71 232.356ZM1138.46 241.651H1071.86V243.651H1138.46V241.651ZM1072.57 243.353L1095.08 220.527L1093.66 219.123L1071.15 241.949L1072.57 243.353ZM1093.37 219.825V303H1095.37V219.825H1093.37ZM1094.37 302H1043.72V304H1094.37V302ZM1095.1 224.77L1072.59 200.693L1071.13 202.059L1093.64 226.136L1095.1 224.77ZM1071.86 202.376H1135.65V200.376H1071.86V202.376ZM1135.65 202.376C1151.4 202.376 1163.35 199.02 1171.32 192.127L1170.01 190.614C1162.56 197.062 1151.16 200.376 1135.65 200.376V202.376ZM1171.32 192.127C1179.29 185.234 1183.24 175.661 1183.24 163.541H1181.24C1181.24 175.186 1177.47 184.165 1170.01 190.614L1171.32 192.127ZM1183.24 163.541C1183.24 151.22 1179.29 141.539 1171.32 134.643L1170.01 136.156C1177.46 142.601 1181.24 151.682 1181.24 163.541H1183.24ZM1171.32 134.643C1163.35 127.75 1151.4 124.393 1135.65 124.393V126.393C1151.16 126.393 1162.56 129.707 1170.01 136.156L1171.32 134.643ZM1135.65 124.393H1071.86V126.393H1135.65V124.393ZM1072.59 126.076L1095.1 101.999L1093.64 100.633L1071.13 124.71L1072.59 126.076ZM1093.37 101.316V225.453H1095.37V101.316H1093.37ZM1330.9 298.31L1330.54 299.243L1330.54 299.244L1330.9 298.31ZM1292.75 274.545L1292.05 275.267L1292.06 275.273L1292.75 274.545ZM1267.73 238.586L1266.81 238.977L1266.82 238.989L1267.73 238.586ZM1267.73 148.532L1266.82 148.13L1266.81 148.142L1267.73 148.532ZM1331.21 88.8088L1330.85 87.8757L1331.21 88.8088ZM1426.27 88.8088L1425.9 89.74L1425.91 89.7418L1426.27 88.8088ZM1464.1 112.573L1463.41 113.294L1463.41 113.301L1464.1 112.573ZM1489.43 148.532L1488.51 148.934L1488.51 148.94L1489.43 148.532ZM1489.43 238.899L1490.34 239.301L1490.35 239.296L1489.43 238.899ZM1464.1 274.858L1464.79 275.586L1464.79 275.586L1464.1 274.858ZM1426.27 298.31L1425.91 297.377L1425.9 297.378L1426.27 298.31ZM1405.63 258.598L1405.26 257.67L1405.25 257.673L1405.63 258.598ZM1427.52 244.215L1426.81 243.508L1427.52 244.215ZM1441.9 222.014L1440.98 221.631L1440.97 221.641L1440.97 221.65L1441.9 222.014ZM1441.9 165.105L1440.97 165.468L1440.97 165.478L1440.98 165.488L1441.9 165.105ZM1427.52 142.904L1426.8 143.599L1426.8 143.605L1426.81 143.611L1427.52 142.904ZM1405.94 128.52L1405.57 129.449L1405.94 128.52ZM1351.53 128.52L1351.16 127.592L1351.15 127.595L1351.53 128.52ZM1329.96 142.904L1330.66 143.611L1329.96 142.904ZM1315.26 165.105L1314.34 164.722L1314.33 164.731L1314.33 164.741L1315.26 165.105ZM1315.26 222.014L1314.33 222.37L1314.33 222.383L1314.34 222.397L1315.26 222.014ZM1329.64 244.215L1328.93 244.91L1328.93 244.916L1328.94 244.922L1329.64 244.215ZM1351.53 258.598L1351.16 259.527L1351.53 258.598ZM1379.05 305.752C1361.86 305.752 1345.93 302.956 1331.25 297.375L1330.54 299.244C1345.46 304.92 1361.64 307.752 1379.05 307.752V305.752ZM1331.26 297.377C1316.78 291.793 1304.17 283.939 1293.43 273.818L1292.06 275.273C1303 285.581 1315.83 293.57 1330.54 299.243L1331.26 297.377ZM1293.44 273.824C1282.9 263.702 1274.64 251.825 1268.65 238.184L1266.82 238.989C1272.91 252.864 1281.33 264.96 1292.05 275.267L1293.44 273.824ZM1268.65 238.196C1262.87 224.572 1259.98 209.697 1259.98 193.559H1257.98C1257.98 209.941 1260.92 225.085 1266.81 238.977L1268.65 238.196ZM1259.98 193.559C1259.98 177.422 1262.87 162.547 1268.65 148.923L1266.81 148.142C1260.92 162.034 1257.98 177.177 1257.98 193.559H1259.98ZM1268.65 148.934C1274.64 135.298 1283 123.422 1293.75 113.301L1292.37 111.845C1281.44 122.153 1272.92 134.25 1266.82 148.13L1268.65 148.934ZM1293.75 113.301C1304.49 103.18 1317.09 95.3259 1331.57 89.7418L1330.85 87.8757C1316.14 93.5484 1303.31 101.537 1292.37 111.845L1293.75 113.301ZM1331.57 89.7418C1346.03 84.1616 1361.75 81.3662 1378.74 81.3662V79.3662C1361.53 79.3662 1345.57 82.1991 1330.85 87.8757L1331.57 89.7418ZM1378.74 81.3662C1395.93 81.3662 1411.65 84.1622 1425.9 89.74L1426.63 87.8775C1412.12 82.1986 1396.15 79.3662 1378.74 79.3662V81.3662ZM1425.91 89.7418C1440.38 95.3253 1452.88 103.177 1463.41 113.294L1464.79 111.852C1454.06 101.54 1441.33 93.549 1426.62 87.8757L1425.91 89.7418ZM1463.41 113.301C1474.16 123.422 1482.52 135.298 1488.51 148.934L1490.34 148.13C1484.24 134.25 1475.72 122.153 1464.79 111.845L1463.41 113.301ZM1488.51 148.94C1494.5 162.348 1497.5 177.216 1497.5 193.559H1499.5C1499.5 176.966 1496.45 161.816 1490.34 148.125L1488.51 148.94ZM1497.5 193.559C1497.5 209.692 1494.5 224.669 1488.51 238.502L1490.35 239.296C1496.45 225.196 1499.5 209.946 1499.5 193.559H1497.5ZM1488.51 238.497C1482.52 252.133 1474.16 264.009 1463.41 274.13L1464.79 275.586C1475.72 265.279 1484.24 253.181 1490.34 239.301L1488.51 238.497ZM1463.41 274.13C1452.88 284.041 1440.39 291.792 1425.91 297.377L1426.62 299.243C1441.33 293.571 1454.05 285.687 1464.79 275.586L1463.41 274.13ZM1425.9 297.378C1411.64 302.957 1396.03 305.752 1379.05 305.752V307.752C1396.25 307.752 1412.12 304.919 1426.63 299.241L1425.9 297.378ZM1378.74 264.601C1388.65 264.601 1397.74 262.914 1406.01 259.523L1405.25 257.673C1397.25 260.954 1388.42 262.601 1378.74 262.601V264.601ZM1406 259.527C1414.46 256.142 1421.87 251.273 1428.22 244.922L1426.81 243.508C1420.65 249.664 1413.47 254.384 1405.26 257.67L1406 259.527ZM1428.22 244.922C1434.58 238.567 1439.45 231.048 1442.83 222.377L1440.97 221.65C1437.68 230.073 1432.96 237.355 1426.81 243.508L1428.22 244.922ZM1442.82 222.397C1446.42 213.714 1448.22 204.097 1448.22 193.559H1446.22C1446.22 203.867 1444.46 213.22 1440.98 221.631L1442.82 222.397ZM1448.22 193.559C1448.22 183.021 1446.42 173.404 1442.82 164.722L1440.98 165.488C1444.46 173.899 1446.22 183.251 1446.22 193.559H1448.22ZM1442.83 164.741C1439.45 156.07 1434.58 148.552 1428.22 142.197L1426.81 143.611C1432.96 149.763 1437.68 157.045 1440.97 165.468L1442.83 164.741ZM1428.23 142.209C1422.09 135.85 1414.78 130.978 1406.31 127.592L1405.57 129.449C1413.78 132.733 1420.85 137.45 1426.8 143.599L1428.23 142.209ZM1406.31 127.592C1397.84 124.205 1388.65 122.517 1378.74 122.517V124.517C1388.42 124.517 1397.36 126.165 1405.57 129.449L1406.31 127.592ZM1378.74 122.517C1368.82 122.517 1359.63 124.205 1351.16 127.592L1351.9 129.449C1360.11 126.165 1369.05 124.517 1378.74 124.517V122.517ZM1351.15 127.595C1342.9 130.981 1335.6 135.85 1329.25 142.197L1330.66 143.611C1336.82 137.45 1343.91 132.73 1351.91 129.445L1351.15 127.595ZM1329.25 142.197C1322.9 148.547 1317.93 156.059 1314.34 164.722L1316.18 165.488C1319.68 157.056 1324.51 149.768 1330.66 143.611L1329.25 142.197ZM1314.33 164.741C1310.94 173.418 1309.26 183.029 1309.26 193.559H1311.26C1311.26 183.244 1312.91 173.884 1316.19 165.468L1314.33 164.741ZM1309.26 193.559C1309.26 203.884 1310.94 213.491 1314.33 222.37L1316.2 221.658C1312.91 213.026 1311.26 203.663 1311.26 193.559H1309.26ZM1314.34 222.397C1317.93 231.052 1322.79 238.56 1328.93 244.91L1330.36 243.52C1324.41 237.362 1319.68 230.069 1316.18 221.631L1314.34 222.397ZM1328.94 244.922C1335.29 251.273 1342.7 256.142 1351.16 259.527L1351.9 257.67C1343.69 254.384 1336.51 249.664 1330.35 243.508L1328.94 244.922ZM1351.16 259.527C1359.63 262.914 1368.82 264.601 1378.74 264.601V262.601C1369.05 262.601 1360.11 260.954 1351.9 257.67L1351.16 259.527ZM1558.14 299.873L1557.85 300.831L1557.87 300.835L1558.14 299.873ZM1519.37 281.425L1518.46 281.014L1518.13 281.736L1518.76 282.218L1519.37 281.425ZM1536.57 243.277L1537.15 242.462L1536.15 241.757L1535.65 242.866L1536.57 243.277ZM1569.71 259.849L1569.39 260.795L1569.39 260.798L1569.4 260.801L1569.71 259.849ZM1632.87 263.289L1633.17 264.244L1633.18 264.241L1633.19 264.237L1632.87 263.289ZM1646.63 254.846L1645.86 254.21L1646.63 254.846ZM1644.13 228.893L1643.52 229.684L1643.53 229.693L1643.54 229.702L1644.13 228.893ZM1625.99 220.45L1625.7 221.407L1625.71 221.41L1625.73 221.414L1625.99 220.45ZM1600.98 214.197L1600.75 215.171L1600.77 215.174L1600.78 215.176L1600.98 214.197ZM1573.78 206.692L1573.47 207.643L1573.47 207.645L1573.78 206.692ZM1549.07 195.435L1548.55 196.289L1549.07 195.435ZM1530.62 177.299L1529.77 177.821L1529.78 177.829L1529.78 177.838L1530.62 177.299ZM1533.75 114.449L1532.92 113.898L1532.91 113.902L1533.75 114.449ZM1564.39 89.7468L1564.8 90.6601L1564.81 90.6572L1564.39 89.7468ZM1656.64 85.3692L1656.4 86.3393L1656.4 86.3411L1656.41 86.3428L1656.64 85.3692ZM1691.97 99.7528L1692.9 100.129L1693.21 99.3548L1692.51 98.9078L1691.97 99.7528ZM1676.34 138.213L1675.84 139.082L1676.83 139.649L1677.26 138.59L1676.34 138.213ZM1645.69 125.393L1645.42 126.355L1645.43 126.357L1645.44 126.36L1645.69 125.393ZM1591.6 124.455L1591.25 123.516L1591.6 124.455ZM1578.15 133.523L1578.95 134.131L1578.96 134.12L1578.96 134.109L1578.15 133.523ZM1580.97 159.789L1580.36 160.58L1580.37 160.589L1580.38 160.598L1580.97 159.789ZM1599.1 167.919L1598.84 168.882L1599.1 167.919ZM1623.81 174.173L1623.58 175.147L1623.58 175.148L1623.81 174.173ZM1651.01 181.364L1650.72 182.322L1650.73 182.323L1651.01 181.364ZM1676.02 192.308L1676.55 191.455L1676.02 192.308ZM1694.16 210.444L1693.31 210.966L1693.31 210.974L1693.32 210.983L1694.16 210.444ZM1691.03 272.669L1691.86 273.228L1691.03 272.669ZM1660.08 297.372L1659.66 296.461L1659.66 296.464L1660.08 297.372ZM1608.48 305.752C1591.06 305.752 1574.37 303.471 1558.42 298.912L1557.87 300.835C1574.01 305.447 1590.89 307.752 1608.48 307.752V305.752ZM1558.43 298.915C1542.45 294.144 1529.65 288.04 1519.98 280.631L1518.76 282.218C1528.68 289.818 1541.73 296.014 1557.85 300.831L1558.43 298.915ZM1520.28 281.836L1537.48 243.688L1535.65 242.866L1518.46 281.014L1520.28 281.836ZM1535.99 244.092C1545.46 250.826 1556.59 256.391 1569.39 260.795L1570.04 258.904C1557.4 254.552 1546.44 249.068 1537.15 242.462L1535.99 244.092ZM1569.4 260.801C1582.42 265.001 1595.56 267.103 1608.8 267.103V265.103C1595.77 265.103 1582.85 263.036 1570.02 258.897L1569.4 260.801ZM1608.8 267.103C1618.85 267.103 1626.99 266.162 1633.17 264.244L1632.58 262.334C1626.67 264.168 1618.75 265.103 1608.8 265.103V267.103ZM1633.19 264.237C1639.55 262.118 1644.32 259.221 1647.4 255.482L1645.86 254.21C1643.1 257.559 1638.71 260.29 1632.56 262.34L1633.19 264.237ZM1647.4 255.482C1650.47 251.759 1652.01 247.47 1652.01 242.651H1650.01C1650.01 247.005 1648.63 250.845 1645.86 254.21L1647.4 255.482ZM1652.01 242.651C1652.01 236.506 1649.57 231.614 1644.72 228.084L1643.54 229.702C1647.86 232.842 1650.01 237.123 1650.01 242.651H1652.01ZM1644.74 228.102C1640.02 224.457 1633.85 221.595 1626.26 219.487L1625.73 221.414C1633.15 223.475 1639.06 226.242 1643.52 229.684L1644.74 228.102ZM1626.29 219.494C1618.75 217.19 1610.38 215.098 1601.18 213.217L1600.78 215.176C1609.93 217.047 1618.23 219.124 1625.7 221.407L1626.29 219.494ZM1601.21 213.223C1592.27 211.144 1583.23 208.65 1574.08 205.739L1573.47 207.645C1582.67 210.571 1591.76 213.08 1600.75 215.171L1601.21 213.223ZM1574.09 205.741C1565.19 202.845 1557.03 199.125 1549.59 194.582L1548.55 196.289C1556.13 200.918 1564.43 204.702 1573.47 207.643L1574.09 205.741ZM1549.59 194.582C1542.22 190.076 1536.18 184.139 1531.47 176.761L1529.78 177.838C1534.66 185.469 1540.92 191.622 1548.55 196.289L1549.59 194.582ZM1531.48 176.778C1527.01 169.474 1524.75 160.08 1524.75 148.532H1522.75C1522.75 160.331 1525.06 170.116 1529.77 177.821L1531.48 176.778ZM1524.75 148.532C1524.75 136.214 1528.03 125.044 1534.59 114.996L1532.91 113.902C1526.13 124.284 1522.75 135.836 1522.75 148.532H1524.75ZM1534.59 115C1541.34 104.764 1551.39 96.6425 1564.8 90.66L1563.99 88.8336C1550.3 94.9417 1539.92 103.289 1532.92 113.898L1534.59 115ZM1564.81 90.6572C1578.4 84.4799 1595.44 81.3662 1615.99 81.3662V79.3662C1595.26 79.3662 1577.91 82.5062 1563.98 88.8365L1564.81 90.6572ZM1615.99 81.3662C1629.66 81.3662 1643.13 83.0238 1656.4 86.3393L1656.88 84.399C1643.46 81.0439 1629.83 79.3662 1615.99 79.3662V81.3662ZM1656.41 86.3428C1669.66 89.4476 1681.33 94.2027 1691.44 100.598L1692.51 98.9078C1682.19 92.3785 1670.3 87.5445 1656.87 84.3956L1656.41 86.3428ZM1691.05 99.3763L1675.41 137.837L1677.26 138.59L1692.9 100.129L1691.05 99.3763ZM1676.83 137.345C1666.55 131.47 1656.26 127.161 1645.95 124.427L1645.44 126.36C1655.56 129.045 1665.69 133.283 1675.84 139.082L1676.83 137.345ZM1645.97 124.432C1635.67 121.49 1625.57 120.016 1615.68 120.016V122.016C1625.37 122.016 1635.29 123.46 1645.42 126.355L1645.97 124.432ZM1615.68 120.016C1605.81 120.016 1597.66 121.169 1591.25 123.516L1591.94 125.394C1598.05 123.156 1605.95 122.016 1615.68 122.016V120.016ZM1591.25 123.516C1584.89 125.849 1580.21 128.967 1577.34 132.938L1578.96 134.109C1581.52 130.575 1585.8 127.647 1591.94 125.394L1591.25 123.516ZM1577.36 132.916C1574.51 136.647 1573.09 141.034 1573.09 146.031H1575.09C1575.09 141.438 1576.38 137.487 1578.95 134.131L1577.36 132.916ZM1573.09 146.031C1573.09 151.979 1575.53 156.854 1580.36 160.58L1581.58 158.998C1577.23 155.637 1575.09 151.339 1575.09 146.031H1573.09ZM1580.38 160.598C1585.09 164.024 1591.26 166.777 1598.84 168.882L1599.37 166.955C1591.94 164.892 1586.02 162.224 1581.56 158.98L1580.38 160.598ZM1598.84 168.882C1606.36 170.971 1614.6 173.059 1623.58 175.147L1624.03 173.199C1615.08 171.117 1606.86 169.035 1599.37 166.955L1598.84 168.882ZM1623.58 175.148C1632.73 177.227 1641.78 179.618 1650.72 182.322L1651.3 180.407C1642.31 177.69 1633.22 175.287 1624.03 173.197L1623.58 175.148ZM1650.73 182.323C1659.82 185.011 1668.08 188.625 1675.5 193.162L1676.55 191.455C1668.96 186.82 1660.54 183.138 1651.29 180.405L1650.73 182.323ZM1675.5 193.162C1682.87 197.665 1688.8 203.597 1693.31 210.966L1695.01 209.923C1690.34 202.283 1684.19 196.124 1676.55 191.455L1675.5 193.162ZM1693.32 210.983C1697.98 218.286 1700.35 227.57 1700.35 238.899H1702.35C1702.35 227.297 1699.93 217.612 1695 209.906L1693.32 210.983ZM1700.35 238.899C1700.35 250.999 1696.97 262.061 1690.2 272.111L1691.86 273.228C1698.85 262.849 1702.35 251.397 1702.35 238.899H1700.35ZM1690.2 272.111C1683.45 282.14 1673.29 290.267 1659.66 296.461L1660.49 298.282C1674.38 291.969 1684.86 283.627 1691.86 273.228L1690.2 272.111ZM1659.66 296.464C1646.28 302.638 1629.24 305.752 1608.48 305.752V307.752C1629.42 307.752 1646.77 304.613 1660.5 298.28L1659.66 296.464ZM1778.25 303H1777.25V304H1778.25V303ZM1778.25 125.393H1779.25V124.393H1778.25V125.393ZM1708.21 125.393H1707.21V126.393H1708.21V125.393ZM1708.21 84.1184V83.1184H1707.21V84.1184H1708.21ZM1898.95 84.1184H1899.95V83.1184H1898.95V84.1184ZM1898.95 125.393V126.393H1899.95V125.393H1898.95ZM1828.91 125.393V124.393H1827.91V125.393H1828.91ZM1828.91 303V304H1829.91V303H1828.91ZM1779.25 303V125.393H1777.25V303H1779.25ZM1778.25 124.393H1708.21V126.393H1778.25V124.393ZM1709.21 125.393V84.1184H1707.21V125.393H1709.21ZM1708.21 85.1184H1898.95V83.1184H1708.21V85.1184ZM1897.95 84.1184V125.393H1899.95V84.1184H1897.95ZM1898.95 124.393H1828.91V126.393H1898.95V124.393ZM1827.91 125.393V303H1829.91V125.393H1827.91ZM1828.91 302H1778.25V304H1828.91V302Z" fill="url(#paint0_linear_3014_14786)" mask="url(#path-1-outside-1_3014_14786)"/>
<g filter="url(#filter0_d_3014_14786)">
<path d="M582.3 304.2C576.767 304.2 571.633 303.3 566.9 301.5C562.233 299.7 558.167 297.167 554.7 293.9C551.3 290.633 548.633 286.8 546.7 282.4C544.833 278 543.9 273.2 543.9 268C543.9 262.8 544.833 258 546.7 253.6C548.633 249.2 551.333 245.367 554.8 242.1C558.267 238.833 562.333 236.3 567 234.5C571.667 232.7 576.733 231.8 582.2 231.8C587.733 231.8 592.8 232.7 597.4 234.5C602.067 236.3 606.1 238.833 609.5 242.1C612.967 245.367 615.667 249.2 617.6 253.6C619.533 257.933 620.5 262.733 620.5 268C620.5 273.2 619.533 278.033 617.6 282.5C615.667 286.9 612.967 290.733 609.5 294C606.1 297.2 602.067 299.7 597.4 301.5C592.8 303.3 587.767 304.2 582.3 304.2ZM582.2 290.4C585.333 290.4 588.2 289.867 590.8 288.8C593.467 287.733 595.8 286.2 597.8 284.2C599.8 282.2 601.333 279.833 602.4 277.1C603.533 274.367 604.1 271.333 604.1 268C604.1 264.667 603.533 261.633 602.4 258.9C601.333 256.167 599.8 253.8 597.8 251.8C595.867 249.8 593.567 248.267 590.9 247.2C588.233 246.133 585.333 245.6 582.2 245.6C579.067 245.6 576.167 246.133 573.5 247.2C570.9 248.267 568.6 249.8 566.6 251.8C564.6 253.8 563.033 256.167 561.9 258.9C560.833 261.633 560.3 264.667 560.3 268C560.3 271.267 560.833 274.3 561.9 277.1C563.033 279.833 564.567 282.2 566.5 284.2C568.5 286.2 570.833 287.733 573.5 288.8C576.167 289.867 579.067 290.4 582.2 290.4ZM663.775 304.2C653.842 304.2 646.075 301.433 640.475 295.9C634.875 290.367 632.075 282.467 632.075 272.2V233H648.275V271.6C648.275 278.267 649.642 283.067 652.375 286C655.108 288.933 658.942 290.4 663.875 290.4C668.808 290.4 672.642 288.933 675.375 286C678.108 283.067 679.475 278.267 679.475 271.6V233H695.475V272.2C695.475 282.467 692.675 290.367 687.075 295.9C681.475 301.433 673.708 304.2 663.775 304.2ZM711.484 303V233H741.784C748.05 233 753.45 234.033 757.984 236.1C762.517 238.1 766.017 241 768.484 244.8C770.95 248.6 772.184 253.133 772.184 258.4C772.184 263.6 770.95 268.1 768.484 271.9C766.017 275.633 762.517 278.5 757.984 280.5C753.45 282.5 748.05 283.5 741.784 283.5H720.484L727.684 276.4V303H711.484ZM755.984 303L738.484 277.6H755.784L773.484 303H755.984ZM727.684 278.2L720.484 270.6H740.884C745.884 270.6 749.617 269.533 752.084 267.4C754.55 265.2 755.784 262.2 755.784 258.4C755.784 254.533 754.55 251.533 752.084 249.4C749.617 247.267 745.884 246.2 740.884 246.2H720.484L727.684 238.5V278.2ZM813.339 303V233H847.539C856.339 233 862.939 234.667 867.339 238C871.806 241.333 874.039 245.733 874.039 251.2C874.039 254.867 873.139 258.067 871.339 260.8C869.539 263.467 867.072 265.533 863.939 267C860.806 268.467 857.206 269.2 853.139 269.2L855.039 265.1C859.439 265.1 863.339 265.833 866.739 267.3C870.139 268.7 872.772 270.8 874.639 273.6C876.572 276.4 877.539 279.833 877.539 283.9C877.539 289.9 875.172 294.6 870.439 298C865.706 301.333 858.739 303 849.539 303H813.339ZM829.439 290.8H848.339C852.539 290.8 855.706 290.133 857.839 288.8C860.039 287.4 861.139 285.2 861.139 282.2C861.139 279.267 860.039 277.1 857.839 275.7C855.706 274.233 852.539 273.5 848.339 273.5H828.239V261.7H845.539C849.472 261.7 852.472 261.033 854.539 259.7C856.672 258.3 857.739 256.2 857.739 253.4C857.739 250.667 856.672 248.633 854.539 247.3C852.472 245.9 849.472 245.2 845.539 245.2H829.439V290.8ZM889.804 303V233H906.004V289.8H941.104V303H889.804ZM982.984 304.2C977.45 304.2 972.317 303.3 967.584 301.5C962.917 299.7 958.85 297.167 955.384 293.9C951.984 290.633 949.317 286.8 947.384 282.4C945.517 278 944.584 273.2 944.584 268C944.584 262.8 945.517 258 947.384 253.6C949.317 249.2 952.017 245.367 955.484 242.1C958.95 238.833 963.017 236.3 967.684 234.5C972.35 232.7 977.417 231.8 982.884 231.8C988.417 231.8 993.484 232.7 998.084 234.5C1002.75 236.3 1006.78 238.833 1010.18 242.1C1013.65 245.367 1016.35 249.2 1018.28 253.6C1020.22 257.933 1021.18 262.733 1021.18 268C1021.18 273.2 1020.22 278.033 1018.28 282.5C1016.35 286.9 1013.65 290.733 1010.18 294C1006.78 297.2 1002.75 299.7 998.084 301.5C993.484 303.3 988.45 304.2 982.984 304.2ZM982.884 290.4C986.017 290.4 988.884 289.867 991.484 288.8C994.15 287.733 996.484 286.2 998.484 284.2C1000.48 282.2 1002.02 279.833 1003.08 277.1C1004.22 274.367 1004.78 271.333 1004.78 268C1004.78 264.667 1004.22 261.633 1003.08 258.9C1002.02 256.167 1000.48 253.8 998.484 251.8C996.55 249.8 994.25 248.267 991.584 247.2C988.917 246.133 986.017 245.6 982.884 245.6C979.75 245.6 976.85 246.133 974.184 247.2C971.584 248.267 969.284 249.8 967.284 251.8C965.284 253.8 963.717 256.167 962.584 258.9C961.517 261.633 960.984 264.667 960.984 268C960.984 271.267 961.517 274.3 962.584 277.1C963.717 279.833 965.25 282.2 967.184 284.2C969.184 286.2 971.517 287.733 974.184 288.8C976.85 289.867 979.75 290.4 982.884 290.4ZM1067.16 304.2C1061.63 304.2 1056.53 303.333 1051.86 301.6C1047.26 299.8 1043.23 297.267 1039.76 294C1036.36 290.733 1033.69 286.9 1031.76 282.5C1029.89 278.1 1028.96 273.267 1028.96 268C1028.96 262.733 1029.89 257.9 1031.76 253.5C1033.69 249.1 1036.39 245.267 1039.86 242C1043.33 238.733 1047.39 236.233 1052.06 234.5C1056.73 232.7 1061.86 231.8 1067.46 231.8C1073.66 231.8 1079.23 232.833 1084.16 234.9C1089.16 236.967 1093.36 239.967 1096.76 243.9L1086.36 253.5C1083.83 250.833 1081.06 248.867 1078.06 247.6C1075.06 246.267 1071.79 245.6 1068.26 245.6C1064.86 245.6 1061.76 246.133 1058.96 247.2C1056.16 248.267 1053.73 249.8 1051.66 251.8C1049.66 253.8 1048.09 256.167 1046.96 258.9C1045.89 261.633 1045.36 264.667 1045.36 268C1045.36 271.267 1045.89 274.267 1046.96 277C1048.09 279.733 1049.66 282.133 1051.66 284.2C1053.73 286.2 1056.13 287.733 1058.86 288.8C1061.66 289.867 1064.73 290.4 1068.06 290.4C1071.26 290.4 1074.36 289.9 1077.36 288.9C1080.43 287.833 1083.39 286.067 1086.26 283.6L1095.46 295.3C1091.66 298.167 1087.23 300.367 1082.16 301.9C1077.16 303.433 1072.16 304.2 1067.16 304.2ZM1080.66 293.2V266.9H1095.46V295.3L1080.66 293.2ZM1138.83 303V233H1169.13C1175.39 233 1180.79 234.033 1185.33 236.1C1189.86 238.1 1193.36 241 1195.83 244.8C1198.29 248.6 1199.53 253.133 1199.53 258.4C1199.53 263.6 1198.29 268.1 1195.83 271.9C1193.36 275.7 1189.86 278.633 1185.33 280.7C1180.79 282.7 1175.39 283.7 1169.13 283.7H1147.83L1155.03 276.4V303H1138.83ZM1155.03 278.2L1147.83 270.5H1168.23C1173.23 270.5 1176.96 269.433 1179.43 267.3C1181.89 265.167 1183.13 262.2 1183.13 258.4C1183.13 254.533 1181.89 251.533 1179.43 249.4C1176.96 247.267 1173.23 246.2 1168.23 246.2H1147.83L1155.03 238.5V278.2ZM1246.07 304.2C1240.54 304.2 1235.4 303.3 1230.67 301.5C1226 299.7 1221.94 297.167 1218.47 293.9C1215.07 290.633 1212.4 286.8 1210.47 282.4C1208.6 278 1207.67 273.2 1207.67 268C1207.67 262.8 1208.6 258 1210.47 253.6C1212.4 249.2 1215.1 245.367 1218.57 242.1C1222.04 238.833 1226.1 236.3 1230.77 234.5C1235.44 232.7 1240.5 231.8 1245.97 231.8C1251.5 231.8 1256.57 232.7 1261.17 234.5C1265.84 236.3 1269.87 238.833 1273.27 242.1C1276.74 245.367 1279.44 249.2 1281.37 253.6C1283.3 257.933 1284.27 262.733 1284.27 268C1284.27 273.2 1283.3 278.033 1281.37 282.5C1279.44 286.9 1276.74 290.733 1273.27 294C1269.87 297.2 1265.84 299.7 1261.17 301.5C1256.57 303.3 1251.54 304.2 1246.07 304.2ZM1245.97 290.4C1249.1 290.4 1251.97 289.867 1254.57 288.8C1257.24 287.733 1259.57 286.2 1261.57 284.2C1263.57 282.2 1265.1 279.833 1266.17 277.1C1267.3 274.367 1267.87 271.333 1267.87 268C1267.87 264.667 1267.3 261.633 1266.17 258.9C1265.1 256.167 1263.57 253.8 1261.57 251.8C1259.64 249.8 1257.34 248.267 1254.67 247.2C1252 246.133 1249.1 245.6 1245.97 245.6C1242.84 245.6 1239.94 246.133 1237.27 247.2C1234.67 248.267 1232.37 249.8 1230.37 251.8C1228.37 253.8 1226.8 256.167 1225.67 258.9C1224.6 261.633 1224.07 264.667 1224.07 268C1224.07 271.267 1224.6 274.3 1225.67 277.1C1226.8 279.833 1228.34 282.2 1230.27 284.2C1232.27 286.2 1234.6 287.733 1237.27 288.8C1239.94 289.867 1242.84 290.4 1245.97 290.4ZM1319.44 304.2C1313.84 304.2 1308.48 303.467 1303.34 302C1298.21 300.467 1294.08 298.5 1290.94 296.1L1296.44 283.9C1299.44 286.033 1302.98 287.8 1307.04 289.2C1311.18 290.533 1315.34 291.2 1319.54 291.2C1322.74 291.2 1325.31 290.9 1327.24 290.3C1329.24 289.633 1330.71 288.733 1331.64 287.6C1332.58 286.467 1333.04 285.167 1333.04 283.7C1333.04 281.833 1332.31 280.367 1330.84 279.3C1329.38 278.167 1327.44 277.267 1325.04 276.6C1322.64 275.867 1319.98 275.2 1317.04 274.6C1314.18 273.933 1311.28 273.133 1308.34 272.2C1305.48 271.267 1302.84 270.067 1300.44 268.6C1298.04 267.133 1296.08 265.2 1294.54 262.8C1293.08 260.4 1292.34 257.333 1292.34 253.6C1292.34 249.6 1293.41 245.967 1295.54 242.7C1297.74 239.367 1301.01 236.733 1305.34 234.8C1309.74 232.8 1315.24 231.8 1321.84 231.8C1326.24 231.8 1330.58 232.333 1334.84 233.4C1339.11 234.4 1342.88 235.933 1346.14 238L1341.14 250.3C1337.88 248.433 1334.61 247.067 1331.34 246.2C1328.08 245.267 1324.88 244.8 1321.74 244.8C1318.61 244.8 1316.04 245.167 1314.04 245.9C1312.04 246.633 1310.61 247.6 1309.74 248.8C1308.88 249.933 1308.44 251.267 1308.44 252.8C1308.44 254.6 1309.18 256.067 1310.64 257.2C1312.11 258.267 1314.04 259.133 1316.44 259.8C1318.84 260.467 1321.48 261.133 1324.34 261.8C1327.28 262.467 1330.18 263.233 1333.04 264.1C1335.98 264.967 1338.64 266.133 1341.04 267.6C1343.44 269.067 1345.38 271 1346.84 273.4C1348.38 275.8 1349.14 278.833 1349.14 282.5C1349.14 286.433 1348.04 290.033 1345.84 293.3C1343.64 296.567 1340.34 299.2 1335.94 301.2C1331.61 303.2 1326.11 304.2 1319.44 304.2ZM1373.74 303V246.2H1351.34V233H1412.34V246.2H1389.94V303H1373.74Z" fill="#6F00FF"/>
</g>
<defs>
<filter id="filter0_d_3014_14786" x="525.9" y="213.8" width="904.438" height="108.4" filterUnits="userSpaceOnUse" color-interpolation-filters="sRGB">
<feFlood flood-opacity="0" result="BackgroundImageFix"/>
<feColorMatrix in="SourceAlpha" type="matrix" values="0 0 0 0 0 0 0 0 0 0 0 0 0 0 0 0 0 0 127 0" result="hardAlpha"/>
<feOffset/>
<feGaussianBlur stdDeviation="9"/>
<feComposite in2="hardAlpha" operator="out"/>
<feColorMatrix type="matrix" values="0 0 0 0 0 0 0 0 0 0 0 0 0 0 0 0 0 0 0.25 0"/>
<feBlend mode="normal" in2="BackgroundImageFix" result="effect1_dropShadow_3014_14786"/>
<feBlend mode="normal" in="SourceGraphic" in2="effect1_dropShadow_3014_14786" result="shape"/>
</filter>
<linearGradient id="paint0_linear_3014_14786" x1="950.5" y1="0" x2="950.5" y2="239.21" gradientUnits="userSpaceOnUse">
<stop stop-color="#6F00FF"/>
<stop offset="1" stop-color="#6F00FF" stop-opacity="0"/>
<stop offset="1" stop-color="#6F00FF" stop-opacity="0"/>
</linearGradient>
</defs>
</svg>
