<svg width="109" height="109" viewBox="0 0 109 109" fill="none" xmlns="http://www.w3.org/2000/svg">
<path d="M0.414062 94.2527C0.414062 101.935 6.64135 108.161 14.3228 108.161H94.3732C102.056 108.161 108.282 101.934 108.282 94.2527V14.2022C108.282 6.5195 102.055 0.29306 94.3737 0.29306H14.3232C6.64051 0.29306 0.414062 6.52035 0.414062 14.2017V94.2527Z" fill="#563D7C"/>
<path d="M45.1444 48.0072V32.7316H58.5905C59.8714 32.7316 61.106 32.8382 62.2951 33.0518C63.4841 33.265 64.5363 33.646 65.4511 34.195C66.3654 34.744 67.0973 35.5063 67.6464 36.4817C68.195 37.4576 68.4697 38.7078 68.4697 40.2318C68.4697 42.9761 67.6463 44.9582 65.9997 46.1776C64.3534 47.3975 62.2496 48.0072 59.6881 48.0072H45.1444ZM30.7832 21.5719V86.8827H62.4324C65.3596 86.8827 68.2106 86.517 70.9852 85.7851C73.7599 85.0532 76.2295 83.9252 78.3944 82.4007C80.5589 80.8763 82.2819 78.9093 83.5624 76.5008C84.8433 74.0919 85.4834 71.241 85.4834 67.9481C85.4834 63.8621 84.4923 60.3712 82.5107 57.4747C80.5286 54.5779 77.5251 52.5503 73.5003 51.3916C76.4275 49.9893 78.6384 48.1901 80.1325 45.9948C81.6262 43.7995 82.3733 41.0556 82.3733 37.7622C82.3733 34.7133 81.8702 32.1522 80.864 30.0787C79.8578 28.0056 78.4399 26.3438 76.6104 25.0936C74.7812 23.8434 72.586 22.9438 70.0245 22.3952C67.4635 21.8462 64.6277 21.5719 61.5177 21.5719H30.7832ZM45.1444 75.723V57.7945H60.7858C63.8958 57.7945 66.3962 58.5109 68.2868 59.9443C70.177 61.3774 71.1226 63.7707 71.1226 67.1247C71.1226 68.8325 70.8327 70.2348 70.2533 71.3324C69.6739 72.4301 68.8965 73.2993 67.9207 73.9394C66.9452 74.5799 65.8168 75.037 64.5363 75.3118C63.2553 75.5857 61.9142 75.723 60.5115 75.723H45.1444Z" fill="white"/>
</svg>
