<svg width="397" height="186" viewBox="0 0 397 186" fill="none" xmlns="http://www.w3.org/2000/svg">
<rect x="30" y="7" width="107.569" height="11.2385" rx="5.61927" fill="#6F00FF"/>
<rect x="147.202" y="7" width="35.3211" height="11.2385" rx="5.61927" fill="#6F00FF"/>
<rect x="188.945" y="7" width="16.055" height="11.2385" rx="5.61927" fill="#6F00FF"/>
<rect x="328" y="172.238" width="107.569" height="11.2385" rx="5.61927" transform="rotate(180 328 172.238)" fill="#6F00FF"/>
<rect x="210.798" y="172.238" width="35.3211" height="11.2385" rx="5.61927" transform="rotate(180 210.798 172.238)" fill="#6F00FF"/>
<rect x="169.055" y="172.238" width="16.055" height="11.2385" rx="5.61927" transform="rotate(180 169.055 172.238)" fill="#6F00FF"/>
<path d="M64.6708 76.72C61.4308 76.72 58.4108 76.2 55.6108 75.16C52.8508 74.08 50.4508 72.56 48.4108 70.6C46.3708 68.64 44.7708 66.34 43.6108 63.7C42.4908 61.06 41.9308 58.16 41.9308 55C41.9308 51.84 42.4908 48.94 43.6108 46.3C44.7708 43.66 46.3708 41.36 48.4108 39.4C50.4908 37.44 52.9108 35.94 55.6708 34.9C58.4308 33.82 61.4508 33.28 64.7308 33.28C68.3708 33.28 71.6508 33.92 74.5708 35.2C77.5308 36.44 80.0108 38.28 82.0108 40.72L75.7708 46.48C74.3308 44.84 72.7308 43.62 70.9708 42.82C69.2108 41.98 67.2908 41.56 65.2108 41.56C63.2508 41.56 61.4508 41.88 59.8108 42.52C58.1708 43.16 56.7508 44.08 55.5508 45.28C54.3508 46.48 53.4108 47.9 52.7308 49.54C52.0908 51.18 51.7708 53 51.7708 55C51.7708 57 52.0908 58.82 52.7308 60.46C53.4108 62.1 54.3508 63.52 55.5508 64.72C56.7508 65.92 58.1708 66.84 59.8108 67.48C61.4508 68.12 63.2508 68.44 65.2108 68.44C67.2908 68.44 69.2108 68.04 70.9708 67.24C72.7308 66.4 74.3308 65.14 75.7708 63.46L82.0108 69.22C80.0108 71.66 77.5308 73.52 74.5708 74.8C71.6508 76.08 68.3508 76.72 64.6708 76.72ZM108.096 76.72C104.776 76.72 101.696 76.18 98.8558 75.1C96.0558 74.02 93.6158 72.5 91.5358 70.54C89.4958 68.58 87.8958 66.28 86.7358 63.64C85.6158 61 85.0558 58.12 85.0558 55C85.0558 51.88 85.6158 49 86.7358 46.36C87.8958 43.72 89.5158 41.42 91.5958 39.46C93.6758 37.5 96.1158 35.98 98.9158 34.9C101.716 33.82 104.756 33.28 108.036 33.28C111.356 33.28 114.396 33.82 117.156 34.9C119.956 35.98 122.376 37.5 124.416 39.46C126.496 41.42 128.116 43.72 129.276 46.36C130.436 48.96 131.016 51.84 131.016 55C131.016 58.12 130.436 61.02 129.276 63.7C128.116 66.34 126.496 68.64 124.416 70.6C122.376 72.52 119.956 74.02 117.156 75.1C114.396 76.18 111.376 76.72 108.096 76.72ZM108.036 68.44C109.916 68.44 111.636 68.12 113.196 67.48C114.796 66.84 116.196 65.92 117.396 64.72C118.596 63.52 119.516 62.1 120.156 60.46C120.836 58.82 121.176 57 121.176 55C121.176 53 120.836 51.18 120.156 49.54C119.516 47.9 118.596 46.48 117.396 45.28C116.236 44.08 114.856 43.16 113.256 42.52C111.656 41.88 109.916 41.56 108.036 41.56C106.156 41.56 104.416 41.88 102.816 42.52C101.256 43.16 99.8758 44.08 98.6758 45.28C97.4758 46.48 96.5358 47.9 95.8558 49.54C95.2158 51.18 94.8958 53 94.8958 55C94.8958 56.96 95.2158 58.78 95.8558 60.46C96.5358 62.1 97.4558 63.52 98.6158 64.72C99.8158 65.92 101.216 66.84 102.816 67.48C104.416 68.12 106.156 68.44 108.036 68.44ZM138.321 76V34H157.401C161.961 34 165.981 34.88 169.461 36.64C172.941 38.36 175.661 40.78 177.621 43.9C179.581 47.02 180.561 50.72 180.561 55C180.561 59.24 179.581 62.94 177.621 66.1C175.661 69.22 172.941 71.66 169.461 73.42C165.981 75.14 161.961 76 157.401 76H138.321ZM148.041 68.02H156.921C159.721 68.02 162.141 67.5 164.181 66.46C166.261 65.38 167.861 63.86 168.981 61.9C170.141 59.94 170.721 57.64 170.721 55C170.721 52.32 170.141 50.02 168.981 48.1C167.861 46.14 166.261 44.64 164.181 43.6C162.141 42.52 159.721 41.98 156.921 41.98H148.041V68.02ZM196.831 50.92H217.051V58.48H196.831V50.92ZM197.551 68.2H220.411V76H187.891V34H219.631V41.8H197.551V68.2ZM64.6708 149.72C61.4308 149.72 58.4108 149.2 55.6108 148.16C52.8508 147.08 50.4508 145.56 48.4108 143.6C46.3708 141.64 44.7708 139.34 43.6108 136.7C42.4908 134.06 41.9308 131.16 41.9308 128C41.9308 124.84 42.4908 121.94 43.6108 119.3C44.7708 116.66 46.3708 114.36 48.4108 112.4C50.4908 110.44 52.9108 108.94 55.6708 107.9C58.4308 106.82 61.4508 106.28 64.7308 106.28C68.3708 106.28 71.6508 106.92 74.5708 108.2C77.5308 109.44 80.0108 111.28 82.0108 113.72L75.7708 119.48C74.3308 117.84 72.7308 116.62 70.9708 115.82C69.2108 114.98 67.2908 114.56 65.2108 114.56C63.2508 114.56 61.4508 114.88 59.8108 115.52C58.1708 116.16 56.7508 117.08 55.5508 118.28C54.3508 119.48 53.4108 120.9 52.7308 122.54C52.0908 124.18 51.7708 126 51.7708 128C51.7708 130 52.0908 131.82 52.7308 133.46C53.4108 135.1 54.3508 136.52 55.5508 137.72C56.7508 138.92 58.1708 139.84 59.8108 140.48C61.4508 141.12 63.2508 141.44 65.2108 141.44C67.2908 141.44 69.2108 141.04 70.9708 140.24C72.7308 139.4 74.3308 138.14 75.7708 136.46L82.0108 142.22C80.0108 144.66 77.5308 146.52 74.5708 147.8C71.6508 149.08 68.3508 149.72 64.6708 149.72ZM108.096 149.72C104.776 149.72 101.696 149.18 98.8558 148.1C96.0558 147.02 93.6158 145.5 91.5358 143.54C89.4958 141.58 87.8958 139.28 86.7358 136.64C85.6158 134 85.0558 131.12 85.0558 128C85.0558 124.88 85.6158 122 86.7358 119.36C87.8958 116.72 89.5158 114.42 91.5958 112.46C93.6758 110.5 96.1158 108.98 98.9158 107.9C101.716 106.82 104.756 106.28 108.036 106.28C111.356 106.28 114.396 106.82 117.156 107.9C119.956 108.98 122.376 110.5 124.416 112.46C126.496 114.42 128.116 116.72 129.276 119.36C130.436 121.96 131.016 124.84 131.016 128C131.016 131.12 130.436 134.02 129.276 136.7C128.116 139.34 126.496 141.64 124.416 143.6C122.376 145.52 119.956 147.02 117.156 148.1C114.396 149.18 111.376 149.72 108.096 149.72ZM108.036 141.44C109.916 141.44 111.636 141.12 113.196 140.48C114.796 139.84 116.196 138.92 117.396 137.72C118.596 136.52 119.516 135.1 120.156 133.46C120.836 131.82 121.176 130 121.176 128C121.176 126 120.836 124.18 120.156 122.54C119.516 120.9 118.596 119.48 117.396 118.28C116.236 117.08 114.856 116.16 113.256 115.52C111.656 114.88 109.916 114.56 108.036 114.56C106.156 114.56 104.416 114.88 102.816 115.52C101.256 116.16 99.8758 117.08 98.6758 118.28C97.4758 119.48 96.5358 120.9 95.8558 122.54C95.2158 124.18 94.8958 126 94.8958 128C94.8958 129.96 95.2158 131.78 95.8558 133.46C96.5358 135.1 97.4558 136.52 98.6158 137.72C99.8158 138.92 101.216 139.84 102.816 140.48C104.416 141.12 106.156 141.44 108.036 141.44ZM138.321 149V107H156.501C160.261 107 163.501 107.62 166.221 108.86C168.941 110.06 171.041 111.8 172.521 114.08C174.001 116.36 174.741 119.08 174.741 122.24C174.741 125.36 174.001 128.06 172.521 130.34C171.041 132.58 168.941 134.3 166.221 135.5C163.501 136.7 160.261 137.3 156.501 137.3H143.721L148.041 133.04V149H138.321ZM165.021 149L154.521 133.76H164.901L175.521 149H165.021ZM148.041 134.12L143.721 129.56H155.961C158.961 129.56 161.201 128.92 162.681 127.64C164.161 126.32 164.901 124.52 164.901 122.24C164.901 119.92 164.161 118.12 162.681 116.84C161.201 115.56 158.961 114.92 155.961 114.92H143.721L148.041 110.3V134.12ZM191.382 123.92H211.602V131.48H191.382V123.92ZM192.102 141.2H214.962V149H182.442V107H214.182V114.8H192.102V141.2Z" fill="#D8D9FF" fill-opacity="0.4"/>
<g style="mix-blend-mode:multiply" filter="url(#filter0_b_1937_25665)">
<rect x="86.105" y="87" width="262.692" height="62" rx="31" fill="#6F00FF" fill-opacity="0.2"/>
</g>
<g style="mix-blend-mode:multiply" filter="url(#filter1_b_1937_25665)">
<rect x="88.8364" y="94" width="253.803" height="46" rx="23" fill="#6F00FF" fill-opacity="0.01"/>
</g>
<g filter="url(#filter2_d_1937_25665)">
<path d="M27.7058 89V66.6H38.6498C41.4658 66.6 43.5778 67.1333 44.9858 68.2C46.4151 69.2667 47.1298 70.6747 47.1298 72.424C47.1298 73.5973 46.8418 74.6213 46.2658 75.496C45.6898 76.3493 44.9005 77.0107 43.8978 77.48C42.8951 77.9493 41.7431 78.184 40.4418 78.184L41.0498 76.872C42.4578 76.872 43.7058 77.1067 44.7938 77.576C45.8818 78.024 46.7245 78.696 47.3218 79.592C47.9405 80.488 48.2498 81.5867 48.2498 82.888C48.2498 84.808 47.4925 86.312 45.9778 87.4C44.4631 88.4667 42.2338 89 39.2898 89H27.7058ZM32.8578 85.096H38.9058C40.2498 85.096 41.2631 84.8827 41.9458 84.456C42.6498 84.008 43.0018 83.304 43.0018 82.344C43.0018 81.4053 42.6498 80.712 41.9458 80.264C41.2631 79.7947 40.2498 79.56 38.9058 79.56H32.4738V75.784H38.0098C39.2685 75.784 40.2285 75.5707 40.8898 75.144C41.5725 74.696 41.9138 74.024 41.9138 73.128C41.9138 72.2533 41.5725 71.6027 40.8898 71.176C40.2285 70.728 39.2685 70.504 38.0098 70.504H32.8578V85.096ZM59.0866 89.256C57.6572 89.256 56.3772 88.9787 55.2466 88.424C54.1372 87.8693 53.2732 87.0267 52.6546 85.896C52.0359 84.744 51.7266 83.2827 51.7266 81.512V71.784H56.7186V80.776C56.7186 82.2053 57.0172 83.2613 57.6146 83.944C58.2332 84.6053 59.0972 84.936 60.2066 84.936C60.9746 84.936 61.6572 84.776 62.2546 84.456C62.8519 84.1147 63.3212 83.6027 63.6626 82.92C64.0039 82.216 64.1746 81.3413 64.1746 80.296V71.784H69.1666V89H64.4306V84.264L65.2946 85.64C64.7186 86.8347 63.8652 87.7413 62.7346 88.36C61.6252 88.9573 60.4092 89.256 59.0866 89.256ZM73.7913 89V71.784H78.7833V89H73.7913ZM76.2873 69.384C75.37 69.384 74.6233 69.1173 74.0473 68.584C73.4713 68.0507 73.1833 67.3893 73.1833 66.6C73.1833 65.8107 73.4713 65.1493 74.0473 64.616C74.6233 64.0827 75.37 63.816 76.2873 63.816C77.2046 63.816 77.9513 64.072 78.5273 64.584C79.1033 65.0747 79.3913 65.7147 79.3913 66.504C79.3913 67.336 79.1033 68.0293 78.5273 68.584C77.9726 69.1173 77.226 69.384 76.2873 69.384ZM83.4163 89V65.256H88.4083V89H83.4163ZM100.433 89.256C98.812 89.256 97.3506 88.8933 96.0493 88.168C94.748 87.4213 93.7133 86.3867 92.9453 85.064C92.1986 83.7413 91.8253 82.184 91.8253 80.392C91.8253 78.5787 92.1986 77.0107 92.9453 75.688C93.7133 74.3653 94.748 73.3413 96.0493 72.616C97.3506 71.8907 98.812 71.528 100.433 71.528C101.884 71.528 103.153 71.848 104.241 72.488C105.329 73.128 106.172 74.0987 106.769 75.4C107.367 76.7013 107.665 78.3653 107.665 80.392C107.665 82.3973 107.377 84.0613 106.801 85.384C106.225 86.6853 105.393 87.656 104.305 88.296C103.239 88.936 101.948 89.256 100.433 89.256ZM101.297 85.16C102.108 85.16 102.844 84.968 103.505 84.584C104.167 84.2 104.689 83.656 105.073 82.952C105.479 82.2267 105.681 81.3733 105.681 80.392C105.681 79.3893 105.479 78.536 105.073 77.832C104.689 77.128 104.167 76.584 103.505 76.2C102.844 75.816 102.108 75.624 101.297 75.624C100.465 75.624 99.7186 75.816 99.0573 76.2C98.396 76.584 97.8626 77.128 97.4573 77.832C97.0733 78.536 96.8813 79.3893 96.8813 80.392C96.8813 81.3733 97.0733 82.2267 97.4573 82.952C97.8626 83.656 98.396 84.2 99.0573 84.584C99.7186 84.968 100.465 85.16 101.297 85.16ZM105.809 89V85.48L105.905 80.36L105.585 75.272V65.256H110.577V89H105.809ZM115.198 89V71.784H120.19V89H115.198ZM117.694 69.384C116.776 69.384 116.03 69.1173 115.454 68.584C114.878 68.0507 114.59 67.3893 114.59 66.6C114.59 65.8107 114.878 65.1493 115.454 64.616C116.03 64.0827 116.776 63.816 117.694 63.816C118.611 63.816 119.358 64.072 119.934 64.584C120.51 65.0747 120.798 65.7147 120.798 66.504C120.798 67.336 120.51 68.0293 119.934 68.584C119.379 69.1173 118.632 69.384 117.694 69.384ZM135.287 71.528C136.652 71.528 137.868 71.8053 138.935 72.36C140.023 72.8933 140.876 73.7253 141.495 74.856C142.113 75.9653 142.423 77.3947 142.423 79.144V89H137.431V79.912C137.431 78.5253 137.121 77.5013 136.503 76.84C135.905 76.1787 135.052 75.848 133.943 75.848C133.153 75.848 132.439 76.0187 131.799 76.36C131.18 76.68 130.689 77.1813 130.327 77.864C129.985 78.5467 129.815 79.4213 129.815 80.488V89H124.823V71.784H129.591V76.552L128.695 75.112C129.313 73.96 130.199 73.0747 131.351 72.456C132.503 71.8373 133.815 71.528 135.287 71.528ZM155.169 95.464C153.547 95.464 151.979 95.2613 150.465 94.856C148.971 94.472 147.723 93.8853 146.721 93.096L148.705 89.512C149.43 90.1093 150.347 90.5787 151.457 90.92C152.587 91.2827 153.697 91.464 154.785 91.464C156.555 91.464 157.835 91.0693 158.625 90.28C159.435 89.4907 159.841 88.3173 159.841 86.76V84.168L160.161 79.848L160.097 75.496V71.784H164.833V86.12C164.833 89.32 164.001 91.6773 162.337 93.192C160.673 94.7067 158.283 95.464 155.169 95.464ZM154.401 88.168C152.801 88.168 151.35 87.8267 150.049 87.144C148.769 86.44 147.734 85.4693 146.945 84.232C146.177 82.9733 145.793 81.512 145.793 79.848C145.793 78.1627 146.177 76.7013 146.945 75.464C147.734 74.2053 148.769 73.2347 150.049 72.552C151.35 71.8693 152.801 71.528 154.401 71.528C155.851 71.528 157.131 71.8267 158.241 72.424C159.35 73 160.214 73.9067 160.833 75.144C161.451 76.36 161.761 77.928 161.761 79.848C161.761 81.7467 161.451 83.3147 160.833 84.552C160.214 85.768 159.35 86.6747 158.241 87.272C157.131 87.8693 155.851 88.168 154.401 88.168ZM155.393 84.072C156.267 84.072 157.046 83.9013 157.729 83.56C158.411 83.1973 158.945 82.696 159.329 82.056C159.713 81.416 159.905 80.68 159.905 79.848C159.905 78.9947 159.713 78.2587 159.329 77.64C158.945 77 158.411 76.5093 157.729 76.168C157.046 75.8053 156.267 75.624 155.393 75.624C154.518 75.624 153.739 75.8053 153.057 76.168C152.374 76.5093 151.83 77 151.425 77.64C151.041 78.2587 150.849 78.9947 150.849 79.848C150.849 80.68 151.041 81.416 151.425 82.056C151.83 82.696 152.374 83.1973 153.057 83.56C153.739 83.9013 154.518 84.072 155.393 84.072ZM178.893 89V66.6H189.837C192.653 66.6 194.765 67.1333 196.173 68.2C197.603 69.2667 198.317 70.6747 198.317 72.424C198.317 73.5973 198.029 74.6213 197.453 75.496C196.877 76.3493 196.088 77.0107 195.085 77.48C194.083 77.9493 192.931 78.184 191.629 78.184L192.237 76.872C193.645 76.872 194.893 77.1067 195.981 77.576C197.069 78.024 197.912 78.696 198.509 79.592C199.128 80.488 199.437 81.5867 199.437 82.888C199.437 84.808 198.68 86.312 197.165 87.4C195.651 88.4667 193.421 89 190.477 89H178.893ZM184.045 85.096H190.093C191.437 85.096 192.451 84.8827 193.133 84.456C193.837 84.008 194.189 83.304 194.189 82.344C194.189 81.4053 193.837 80.712 193.133 80.264C192.451 79.7947 191.437 79.56 190.093 79.56H183.661V75.784H189.197C190.456 75.784 191.416 75.5707 192.077 75.144C192.76 74.696 193.101 74.024 193.101 73.128C193.101 72.2533 192.76 71.6027 192.077 71.176C191.416 70.728 190.456 70.504 189.197 70.504H184.045V85.096ZM203.01 89V71.784H207.778V76.648L207.106 75.24C207.618 74.024 208.439 73.1067 209.57 72.488C210.701 71.848 212.077 71.528 213.698 71.528V76.136C213.485 76.1147 213.293 76.104 213.122 76.104C212.951 76.0827 212.77 76.072 212.578 76.072C211.213 76.072 210.103 76.4667 209.25 77.256C208.418 78.024 208.002 79.2293 208.002 80.872V89H203.01ZM216.698 89V71.784H221.69V89H216.698ZM219.194 69.384C218.276 69.384 217.53 69.1173 216.954 68.584C216.378 68.0507 216.09 67.3893 216.09 66.6C216.09 65.8107 216.378 65.1493 216.954 64.616C217.53 64.0827 218.276 63.816 219.194 63.816C220.111 63.816 220.858 64.072 221.434 64.584C222.01 65.0747 222.298 65.7147 222.298 66.504C222.298 67.336 222.01 68.0293 221.434 68.584C220.879 69.1173 220.132 69.384 219.194 69.384ZM233.715 89.256C232.093 89.256 230.632 88.8933 229.331 88.168C228.029 87.4213 226.995 86.3867 226.227 85.064C225.48 83.7413 225.107 82.184 225.107 80.392C225.107 78.5787 225.48 77.0107 226.227 75.688C226.995 74.3653 228.029 73.3413 229.331 72.616C230.632 71.8907 232.093 71.528 233.715 71.528C235.165 71.528 236.435 71.848 237.523 72.488C238.611 73.128 239.453 74.0987 240.051 75.4C240.648 76.7013 240.947 78.3653 240.947 80.392C240.947 82.3973 240.659 84.0613 240.083 85.384C239.507 86.6853 238.675 87.656 237.587 88.296C236.52 88.936 235.229 89.256 233.715 89.256ZM234.579 85.16C235.389 85.16 236.125 84.968 236.787 84.584C237.448 84.2 237.971 83.656 238.355 82.952C238.76 82.2267 238.963 81.3733 238.963 80.392C238.963 79.3893 238.76 78.536 238.355 77.832C237.971 77.128 237.448 76.584 236.787 76.2C236.125 75.816 235.389 75.624 234.579 75.624C233.747 75.624 233 75.816 232.339 76.2C231.677 76.584 231.144 77.128 230.739 77.832C230.355 78.536 230.163 79.3893 230.163 80.392C230.163 81.3733 230.355 82.2267 230.739 82.952C231.144 83.656 231.677 84.2 232.339 84.584C233 84.968 233.747 85.16 234.579 85.16ZM239.091 89V85.48L239.187 80.36L238.867 75.272V65.256H243.859V89H239.091ZM256.575 95.464C254.953 95.464 253.385 95.2613 251.871 94.856C250.377 94.472 249.129 93.8853 248.127 93.096L250.111 89.512C250.836 90.1093 251.753 90.5787 252.863 90.92C253.993 91.2827 255.103 91.464 256.191 91.464C257.961 91.464 259.241 91.0693 260.031 90.28C260.841 89.4907 261.247 88.3173 261.247 86.76V84.168L261.567 79.848L261.503 75.496V71.784H266.239V86.12C266.239 89.32 265.407 91.6773 263.743 93.192C262.079 94.7067 259.689 95.464 256.575 95.464ZM255.807 88.168C254.207 88.168 252.756 87.8267 251.455 87.144C250.175 86.44 249.14 85.4693 248.351 84.232C247.583 82.9733 247.199 81.512 247.199 79.848C247.199 78.1627 247.583 76.7013 248.351 75.464C249.14 74.2053 250.175 73.2347 251.455 72.552C252.756 71.8693 254.207 71.528 255.807 71.528C257.257 71.528 258.537 71.8267 259.647 72.424C260.756 73 261.62 73.9067 262.239 75.144C262.857 76.36 263.167 77.928 263.167 79.848C263.167 81.7467 262.857 83.3147 262.239 84.552C261.62 85.768 260.756 86.6747 259.647 87.272C258.537 87.8693 257.257 88.168 255.807 88.168ZM256.799 84.072C257.673 84.072 258.452 83.9013 259.135 83.56C259.817 83.1973 260.351 82.696 260.735 82.056C261.119 81.416 261.311 80.68 261.311 79.848C261.311 78.9947 261.119 78.2587 260.735 77.64C260.351 77 259.817 76.5093 259.135 76.168C258.452 75.8053 257.673 75.624 256.799 75.624C255.924 75.624 255.145 75.8053 254.463 76.168C253.78 76.5093 253.236 77 252.831 77.64C252.447 78.2587 252.255 78.9947 252.255 79.848C252.255 80.68 252.447 81.416 252.831 82.056C253.236 82.696 253.78 83.1973 254.463 83.56C255.145 83.9013 255.924 84.072 256.799 84.072ZM279.429 89.256C277.466 89.256 275.738 88.872 274.245 88.104C272.773 87.336 271.632 86.2907 270.821 84.968C270.01 83.624 269.605 82.0987 269.605 80.392C269.605 78.664 270 77.1387 270.789 75.816C271.6 74.472 272.698 73.4267 274.085 72.68C275.472 71.912 277.04 71.528 278.789 71.528C280.474 71.528 281.989 71.8907 283.333 72.616C284.698 73.32 285.776 74.344 286.565 75.688C287.354 77.0107 287.749 78.6 287.749 80.456C287.749 80.648 287.738 80.872 287.717 81.128C287.696 81.3627 287.674 81.5867 287.653 81.8H273.669V78.888H285.029L283.109 79.752C283.109 78.856 282.928 78.0773 282.565 77.416C282.202 76.7547 281.701 76.2427 281.061 75.88C280.421 75.496 279.674 75.304 278.821 75.304C277.968 75.304 277.21 75.496 276.549 75.88C275.909 76.2427 275.408 76.7653 275.045 77.448C274.682 78.1093 274.501 78.8987 274.501 79.816V80.584C274.501 81.5227 274.704 82.3547 275.109 83.08C275.536 83.784 276.122 84.328 276.869 84.712C277.637 85.0747 278.533 85.256 279.557 85.256C280.474 85.256 281.274 85.1173 281.957 84.84C282.661 84.5627 283.301 84.1467 283.877 83.592L286.533 86.472C285.744 87.368 284.752 88.0613 283.557 88.552C282.362 89.0213 280.986 89.256 279.429 89.256ZM296.865 89.256C295.393 89.256 293.974 89.0853 292.609 88.744C291.265 88.3813 290.198 87.9333 289.409 87.4L291.073 83.816C291.862 84.3067 292.79 84.712 293.857 85.032C294.945 85.3307 296.011 85.48 297.057 85.48C298.209 85.48 299.019 85.3413 299.489 85.064C299.979 84.7867 300.225 84.4027 300.225 83.912C300.225 83.5067 300.033 83.208 299.649 83.016C299.286 82.8027 298.795 82.6427 298.177 82.536C297.558 82.4293 296.875 82.3227 296.129 82.216C295.403 82.1093 294.667 81.9707 293.921 81.8C293.174 81.608 292.491 81.3307 291.873 80.968C291.254 80.6053 290.753 80.1147 290.369 79.496C290.006 78.8773 289.825 78.0773 289.825 77.096C289.825 76.008 290.134 75.048 290.753 74.216C291.393 73.384 292.31 72.7333 293.505 72.264C294.699 71.7733 296.129 71.528 297.793 71.528C298.966 71.528 300.161 71.656 301.377 71.912C302.593 72.168 303.606 72.5413 304.417 73.032L302.753 76.584C301.921 76.0933 301.078 75.7627 300.225 75.592C299.393 75.4 298.582 75.304 297.793 75.304C296.683 75.304 295.873 75.4533 295.361 75.752C294.849 76.0507 294.593 76.4347 294.593 76.904C294.593 77.3307 294.774 77.6507 295.137 77.864C295.521 78.0773 296.022 78.248 296.641 78.376C297.259 78.504 297.931 78.6213 298.657 78.728C299.403 78.8133 300.15 78.952 300.897 79.144C301.643 79.336 302.315 79.6133 302.913 79.976C303.531 80.3173 304.033 80.7973 304.417 81.416C304.801 82.0133 304.993 82.8027 304.993 83.784C304.993 84.8507 304.673 85.8 304.033 86.632C303.393 87.4427 302.465 88.0827 301.249 88.552C300.054 89.0213 298.593 89.256 296.865 89.256ZM31.2898 128L25.0818 110.784H29.7858L34.9378 125.6H32.6978L38.0738 110.784H42.2978L47.5138 125.6H45.2738L50.5858 110.784H55.0018L48.7618 128H43.9298L39.3538 115.296H40.8258L36.0898 128H31.2898ZM57.3226 128V110.784H62.3146V128H57.3226ZM59.8186 108.384C58.9012 108.384 58.1546 108.117 57.5786 107.584C57.0026 107.051 56.7146 106.389 56.7146 105.6C56.7146 104.811 57.0026 104.149 57.5786 103.616C58.1546 103.083 58.9012 102.816 59.8186 102.816C60.7359 102.816 61.4826 103.072 62.0586 103.584C62.6346 104.075 62.9226 104.715 62.9226 105.504C62.9226 106.336 62.6346 107.029 62.0586 107.584C61.5039 108.117 60.7572 108.384 59.8186 108.384ZM73.9876 128.256C71.9609 128.256 70.3822 127.744 69.2516 126.72C68.1209 125.675 67.5556 124.128 67.5556 122.08V106.976H72.5476V122.016C72.5476 122.741 72.7396 123.307 73.1236 123.712C73.5076 124.096 74.0302 124.288 74.6916 124.288C75.4809 124.288 76.1529 124.075 76.7076 123.648L78.0516 127.168C77.5396 127.531 76.9209 127.808 76.1956 128C75.4916 128.171 74.7556 128.256 73.9876 128.256ZM64.8996 115.008V111.168H76.8356V115.008H64.8996ZM91.3178 110.528C92.6831 110.528 93.8991 110.805 94.9658 111.36C96.0538 111.893 96.9071 112.725 97.5258 113.856C98.1445 114.965 98.4538 116.395 98.4538 118.144V128H93.4618V118.912C93.4618 117.525 93.1525 116.501 92.5338 115.84C91.9365 115.179 91.0831 114.848 89.9738 114.848C89.1845 114.848 88.4698 115.019 87.8298 115.36C87.2111 115.68 86.7205 116.181 86.3578 116.864C86.0165 117.547 85.8458 118.421 85.8458 119.488V128H80.8538V104.256H85.8458V115.552L84.7258 114.112C85.3445 112.96 86.2298 112.075 87.3818 111.456C88.5338 110.837 89.8458 110.528 91.3178 110.528ZM117.161 114.624H127.945V118.656H117.161V114.624ZM117.545 123.84H129.737V128H112.393V105.6H129.321V109.76H117.545V123.84ZM138.026 128L130.794 110.784H135.946L141.962 125.6H139.402L145.642 110.784H150.442L143.178 128H138.026ZM160.554 128.256C158.591 128.256 156.863 127.872 155.37 127.104C153.898 126.336 152.757 125.291 151.946 123.968C151.135 122.624 150.73 121.099 150.73 119.392C150.73 117.664 151.125 116.139 151.914 114.816C152.725 113.472 153.823 112.427 155.21 111.68C156.597 110.912 158.165 110.528 159.914 110.528C161.599 110.528 163.114 110.891 164.458 111.616C165.823 112.32 166.901 113.344 167.69 114.688C168.479 116.011 168.874 117.6 168.874 119.456C168.874 119.648 168.863 119.872 168.842 120.128C168.821 120.363 168.799 120.587 168.778 120.8H154.794V117.888H166.154L164.234 118.752C164.234 117.856 164.053 117.077 163.69 116.416C163.327 115.755 162.826 115.243 162.186 114.88C161.546 114.496 160.799 114.304 159.946 114.304C159.093 114.304 158.335 114.496 157.674 114.88C157.034 115.243 156.533 115.765 156.17 116.448C155.807 117.109 155.626 117.899 155.626 118.816V119.584C155.626 120.523 155.829 121.355 156.234 122.08C156.661 122.784 157.247 123.328 157.994 123.712C158.762 124.075 159.658 124.256 160.682 124.256C161.599 124.256 162.399 124.117 163.082 123.84C163.786 123.563 164.426 123.147 165.002 122.592L167.658 125.472C166.869 126.368 165.877 127.061 164.682 127.552C163.487 128.021 162.111 128.256 160.554 128.256ZM172.198 128V110.784H176.966V115.648L176.294 114.24C176.806 113.024 177.627 112.107 178.758 111.488C179.888 110.848 181.264 110.528 182.886 110.528V115.136C182.672 115.115 182.48 115.104 182.31 115.104C182.139 115.083 181.958 115.072 181.766 115.072C180.4 115.072 179.291 115.467 178.438 116.256C177.606 117.024 177.19 118.229 177.19 119.872V128H172.198ZM188.624 134.464C187.728 134.464 186.842 134.325 185.968 134.048C185.093 133.771 184.378 133.387 183.824 132.896L185.648 129.344C186.032 129.685 186.469 129.952 186.96 130.144C187.472 130.336 187.973 130.432 188.464 130.432C189.168 130.432 189.722 130.261 190.128 129.92C190.554 129.6 190.938 129.056 191.28 128.288L192.176 126.176L192.56 125.632L198.736 110.784H203.536L195.76 129.056C195.205 130.443 194.565 131.531 193.84 132.32C193.136 133.109 192.346 133.664 191.472 133.984C190.618 134.304 189.669 134.464 188.624 134.464ZM191.568 128.672L183.888 110.784H189.04L194.992 125.184L191.568 128.672ZM214.987 128V105.6H220.171V123.776H231.403V128H214.987ZM233.948 128V110.784H238.94V128H233.948ZM236.444 108.384C235.526 108.384 234.78 108.117 234.204 107.584C233.628 107.051 233.34 106.389 233.34 105.6C233.34 104.811 233.628 104.149 234.204 103.616C234.78 103.083 235.526 102.816 236.444 102.816C237.361 102.816 238.108 103.072 238.684 103.584C239.26 104.075 239.548 104.715 239.548 105.504C239.548 106.336 239.26 107.029 238.684 107.584C238.129 108.117 237.382 108.384 236.444 108.384ZM254.037 110.528C255.402 110.528 256.618 110.805 257.685 111.36C258.773 111.893 259.626 112.725 260.245 113.856C260.863 114.965 261.173 116.395 261.173 118.144V128H256.181V118.912C256.181 117.525 255.871 116.501 255.253 115.84C254.655 115.179 253.802 114.848 252.693 114.848C251.903 114.848 251.189 115.019 250.549 115.36C249.93 115.68 249.439 116.181 249.077 116.864C248.735 117.547 248.565 118.421 248.565 119.488V128H243.573V110.784H248.341V115.552L247.445 114.112C248.063 112.96 248.949 112.075 250.101 111.456C251.253 110.837 252.565 110.528 254.037 110.528ZM274.367 128.256C272.404 128.256 270.676 127.872 269.183 127.104C267.711 126.336 266.569 125.291 265.759 123.968C264.948 122.624 264.543 121.099 264.543 119.392C264.543 117.664 264.937 116.139 265.727 114.816C266.537 113.472 267.636 112.427 269.023 111.68C270.409 110.912 271.977 110.528 273.727 110.528C275.412 110.528 276.927 110.891 278.271 111.616C279.636 112.32 280.713 113.344 281.503 114.688C282.292 116.011 282.687 117.6 282.687 119.456C282.687 119.648 282.676 119.872 282.655 120.128C282.633 120.363 282.612 120.587 282.591 120.8H268.607V117.888H279.967L278.047 118.752C278.047 117.856 277.865 117.077 277.503 116.416C277.14 115.755 276.639 115.243 275.999 114.88C275.359 114.496 274.612 114.304 273.759 114.304C272.905 114.304 272.148 114.496 271.487 114.88C270.847 115.243 270.345 115.765 269.983 116.448C269.62 117.109 269.439 117.899 269.439 118.816V119.584C269.439 120.523 269.641 121.355 270.047 122.08C270.473 122.784 271.06 123.328 271.807 123.712C272.575 124.075 273.471 124.256 274.495 124.256C275.412 124.256 276.212 124.117 276.895 123.84C277.599 123.563 278.239 123.147 278.815 122.592L281.471 125.472C280.681 126.368 279.689 127.061 278.495 127.552C277.3 128.021 275.924 128.256 274.367 128.256ZM303.265 128.256C301.43 128.256 299.798 127.872 298.369 127.104C296.961 126.336 295.841 125.291 295.009 123.968C294.198 122.624 293.793 121.099 293.793 119.392C293.793 117.664 294.198 116.139 295.009 114.816C295.841 113.472 296.961 112.427 298.369 111.68C299.798 110.912 301.43 110.528 303.265 110.528C305.078 110.528 306.699 110.912 308.129 111.68C309.558 112.427 310.678 113.461 311.489 114.784C312.299 116.107 312.705 117.643 312.705 119.392C312.705 121.099 312.299 122.624 311.489 123.968C310.678 125.291 309.558 126.336 308.129 127.104C306.699 127.872 305.078 128.256 303.265 128.256ZM303.265 124.16C304.097 124.16 304.843 123.968 305.505 123.584C306.166 123.2 306.689 122.656 307.073 121.952C307.457 121.227 307.649 120.373 307.649 119.392C307.649 118.389 307.457 117.536 307.073 116.832C306.689 116.128 306.166 115.584 305.505 115.2C304.843 114.816 304.097 114.624 303.265 114.624C302.433 114.624 301.686 114.816 301.025 115.2C300.363 115.584 299.83 116.128 299.425 116.832C299.041 117.536 298.849 118.389 298.849 119.392C298.849 120.373 299.041 121.227 299.425 121.952C299.83 122.656 300.363 123.2 301.025 123.584C301.686 123.968 302.433 124.16 303.265 124.16ZM316.649 128V110.4C316.649 108.459 317.225 106.912 318.377 105.76C319.529 104.587 321.172 104 323.305 104C324.031 104 324.724 104.075 325.385 104.224C326.068 104.373 326.644 104.608 327.113 104.928L325.801 108.544C325.524 108.352 325.215 108.203 324.873 108.096C324.532 107.989 324.169 107.936 323.785 107.936C323.06 107.936 322.495 108.149 322.089 108.576C321.705 108.981 321.513 109.6 321.513 110.432V112.032L321.641 114.176V128H316.649ZM313.993 115.008V111.168H325.929V115.008H313.993ZM38.4258 167.384C36.6978 167.384 35.0871 167.107 33.5938 166.552C32.1218 165.976 30.8418 165.165 29.7538 164.12C28.6658 163.075 27.8125 161.848 27.1938 160.44C26.5965 159.032 26.2978 157.485 26.2978 155.8C26.2978 154.115 26.5965 152.568 27.1938 151.16C27.8125 149.752 28.6658 148.525 29.7538 147.48C30.8631 146.435 32.1538 145.635 33.6258 145.08C35.0978 144.504 36.7085 144.216 38.4578 144.216C40.3991 144.216 42.1485 144.557 43.7058 145.24C45.2845 145.901 46.6071 146.883 47.6738 148.184L44.3458 151.256C43.5778 150.381 42.7245 149.731 41.7858 149.304C40.8471 148.856 39.8231 148.632 38.7138 148.632C37.6685 148.632 36.7085 148.803 35.8338 149.144C34.9591 149.485 34.2018 149.976 33.5618 150.616C32.9218 151.256 32.4205 152.013 32.0578 152.888C31.7165 153.763 31.5458 154.733 31.5458 155.8C31.5458 156.867 31.7165 157.837 32.0578 158.712C32.4205 159.587 32.9218 160.344 33.5618 160.984C34.2018 161.624 34.9591 162.115 35.8338 162.456C36.7085 162.797 37.6685 162.968 38.7138 162.968C39.8231 162.968 40.8471 162.755 41.7858 162.328C42.7245 161.88 43.5778 161.208 44.3458 160.312L47.6738 163.384C46.6071 164.685 45.2845 165.677 43.7058 166.36C42.1485 167.043 40.3885 167.384 38.4258 167.384ZM58.4208 167.256C56.5861 167.256 54.9541 166.872 53.5248 166.104C52.1168 165.336 50.9968 164.291 50.1648 162.968C49.3541 161.624 48.9488 160.099 48.9488 158.392C48.9488 156.664 49.3541 155.139 50.1648 153.816C50.9968 152.472 52.1168 151.427 53.5248 150.68C54.9541 149.912 56.5861 149.528 58.4208 149.528C60.2341 149.528 61.8555 149.912 63.2848 150.68C64.7141 151.427 65.8341 152.461 66.6448 153.784C67.4555 155.107 67.8608 156.643 67.8608 158.392C67.8608 160.099 67.4555 161.624 66.6448 162.968C65.8341 164.291 64.7141 165.336 63.2848 166.104C61.8555 166.872 60.2341 167.256 58.4208 167.256ZM58.4208 163.16C59.2528 163.16 59.9995 162.968 60.6608 162.584C61.3221 162.2 61.8448 161.656 62.2288 160.952C62.6128 160.227 62.8048 159.373 62.8048 158.392C62.8048 157.389 62.6128 156.536 62.2288 155.832C61.8448 155.128 61.3221 154.584 60.6608 154.2C59.9995 153.816 59.2528 153.624 58.4208 153.624C57.5888 153.624 56.8421 153.816 56.1808 154.2C55.5195 154.584 54.9861 155.128 54.5808 155.832C54.1968 156.536 54.0048 157.389 54.0048 158.392C54.0048 159.373 54.1968 160.227 54.5808 160.952C54.9861 161.656 55.5195 162.2 56.1808 162.584C56.8421 162.968 57.5888 163.16 58.4208 163.16ZM78.5896 167.256C76.9682 167.256 75.5069 166.893 74.2056 166.168C72.9042 165.421 71.8696 164.387 71.1016 163.064C70.3549 161.741 69.9816 160.184 69.9816 158.392C69.9816 156.579 70.3549 155.011 71.1016 153.688C71.8696 152.365 72.9042 151.341 74.2056 150.616C75.5069 149.891 76.9682 149.528 78.5896 149.528C80.0402 149.528 81.3096 149.848 82.3976 150.488C83.4856 151.128 84.3282 152.099 84.9256 153.4C85.5229 154.701 85.8216 156.365 85.8216 158.392C85.8216 160.397 85.5336 162.061 84.9576 163.384C84.3816 164.685 83.5496 165.656 82.4616 166.296C81.3949 166.936 80.1042 167.256 78.5896 167.256ZM79.4536 163.16C80.2642 163.16 81.0002 162.968 81.6616 162.584C82.3229 162.2 82.8456 161.656 83.2296 160.952C83.6349 160.227 83.8376 159.373 83.8376 158.392C83.8376 157.389 83.6349 156.536 83.2296 155.832C82.8456 155.128 82.3229 154.584 81.6616 154.2C81.0002 153.816 80.2642 153.624 79.4536 153.624C78.6216 153.624 77.8749 153.816 77.2136 154.2C76.5522 154.584 76.0189 155.128 75.6136 155.832C75.2296 156.536 75.0376 157.389 75.0376 158.392C75.0376 159.373 75.2296 160.227 75.6136 160.952C76.0189 161.656 76.5522 162.2 77.2136 162.584C77.8749 162.968 78.6216 163.16 79.4536 163.16ZM83.9656 167V163.48L84.0616 158.36L83.7416 153.272V143.256H88.7336V167H83.9656ZM101.898 167.256C99.9351 167.256 98.2071 166.872 96.7138 166.104C95.2418 165.336 94.1005 164.291 93.2898 162.968C92.4791 161.624 92.0738 160.099 92.0738 158.392C92.0738 156.664 92.4685 155.139 93.2578 153.816C94.0685 152.472 95.1671 151.427 96.5538 150.68C97.9405 149.912 99.5085 149.528 101.258 149.528C102.943 149.528 104.458 149.891 105.802 150.616C107.167 151.32 108.244 152.344 109.034 153.688C109.823 155.011 110.218 156.6 110.218 158.456C110.218 158.648 110.207 158.872 110.186 159.128C110.164 159.363 110.143 159.587 110.122 159.8H96.1378V156.888H107.498L105.578 157.752C105.578 156.856 105.396 156.077 105.034 155.416C104.671 154.755 104.17 154.243 103.53 153.88C102.89 153.496 102.143 153.304 101.29 153.304C100.436 153.304 99.6791 153.496 99.0178 153.88C98.3778 154.243 97.8765 154.765 97.5138 155.448C97.1511 156.109 96.9698 156.899 96.9698 157.816V158.584C96.9698 159.523 97.1725 160.355 97.5778 161.08C98.0045 161.784 98.5911 162.328 99.3378 162.712C100.106 163.075 101.002 163.256 102.026 163.256C102.943 163.256 103.743 163.117 104.426 162.84C105.13 162.563 105.77 162.147 106.346 161.592L109.002 164.472C108.212 165.368 107.22 166.061 106.026 166.552C104.831 167.021 103.455 167.256 101.898 167.256Z" fill="black"/>
</g>
<defs>
<filter id="filter0_b_1937_25665" x="6.10498" y="7" width="422.691" height="222" filterUnits="userSpaceOnUse" color-interpolation-filters="sRGB">
<feFlood flood-opacity="0" result="BackgroundImageFix"/>
<feGaussianBlur in="BackgroundImageFix" stdDeviation="40"/>
<feComposite in2="SourceAlpha" operator="in" result="effect1_backgroundBlur_1937_25665"/>
<feBlend mode="normal" in="SourceGraphic" in2="effect1_backgroundBlur_1937_25665" result="shape"/>
</filter>
<filter id="filter1_b_1937_25665" x="8.83643" y="14" width="413.804" height="206" filterUnits="userSpaceOnUse" color-interpolation-filters="sRGB">
<feFlood flood-opacity="0" result="BackgroundImageFix"/>
<feGaussianBlur in="BackgroundImageFix" stdDeviation="40"/>
<feComposite in2="SourceAlpha" operator="in" result="effect1_backgroundBlur_1937_25665"/>
<feBlend mode="normal" in="SourceGraphic" in2="effect1_backgroundBlur_1937_25665" result="shape"/>
</filter>
<filter id="filter2_d_1937_25665" x="7.08203" y="45.8164" width="338.031" height="139.567" filterUnits="userSpaceOnUse" color-interpolation-filters="sRGB">
<feFlood flood-opacity="0" result="BackgroundImageFix"/>
<feColorMatrix in="SourceAlpha" type="matrix" values="0 0 0 0 0 0 0 0 0 0 0 0 0 0 0 0 0 0 127 0" result="hardAlpha"/>
<feOffset/>
<feGaussianBlur stdDeviation="9"/>
<feComposite in2="hardAlpha" operator="out"/>
<feColorMatrix type="matrix" values="0 0 0 0 0 0 0 0 0 0 0 0 0 0 0 0 0 0 0.25 0"/>
<feBlend mode="normal" in2="BackgroundImageFix" result="effect1_dropShadow_1937_25665"/>
<feBlend mode="normal" in="SourceGraphic" in2="effect1_dropShadow_1937_25665" result="shape"/>
</filter>
</defs>
</svg>
