<svg width="1316" height="182" viewBox="0 0 1316 182" fill="none" xmlns="http://www.w3.org/2000/svg">
<rect x="386.943" y="8" width="107.569" height="11.2385" rx="5.61927" fill="#6F00FF"/>
<rect x="504.145" y="8.00012" width="35.3211" height="11.2385" rx="5.61927" fill="#6F00FF"/>
<rect x="545.889" y="8.00012" width="16.055" height="11.2385" rx="5.61927" fill="#6F00FF"/>
<rect x="1004.94" y="173.239" width="107.569" height="11.2385" rx="5.61927" transform="rotate(180 1004.94 173.239)" fill="#6F00FF"/>
<rect x="887.742" y="173.238" width="35.3211" height="11.2385" rx="5.61927" transform="rotate(180 887.742 173.238)" fill="#6F00FF"/>
<rect x="845.998" y="173.238" width="16.055" height="11.2385" rx="5.61927" transform="rotate(180 845.998 173.238)" fill="#6F00FF"/>
<path d="M236.129 145.785C228.096 145.785 220.608 144.496 213.665 141.917C206.822 139.239 200.871 135.47 195.813 130.611C190.754 125.751 186.787 120.048 183.911 113.502C181.134 106.956 179.745 99.7656 179.745 91.9303C179.745 84.0951 181.134 76.9045 183.911 70.3586C186.787 63.8127 190.754 58.1099 195.813 53.25C200.97 48.3902 206.97 44.6709 213.814 42.0922C220.657 39.4144 228.145 38.0755 236.278 38.0755C245.304 38.0755 253.436 39.6623 260.677 42.8361C268.016 45.9107 274.165 50.473 279.124 56.523L263.652 70.8049C260.081 66.7386 256.114 63.7136 251.75 61.7299C247.386 59.6472 242.626 58.6058 237.468 58.6058C232.609 58.6058 228.145 59.3992 224.079 60.9861C220.013 62.573 216.492 64.8541 213.516 67.8295C210.541 70.8049 208.21 74.3258 206.524 78.3922C204.937 82.4586 204.144 86.9713 204.144 91.9303C204.144 96.8894 204.937 101.402 206.524 105.468C208.21 109.535 210.541 113.056 213.516 116.031C216.492 119.007 220.013 121.288 224.079 122.875C228.145 124.461 232.609 125.255 237.468 125.255C242.626 125.255 247.386 124.263 251.75 122.28C256.114 120.197 260.081 117.073 263.652 112.907L279.124 127.189C274.165 133.239 268.016 137.851 260.677 141.025C253.436 144.198 245.254 145.785 236.129 145.785ZM343.802 145.785C335.57 145.785 327.933 144.446 320.891 141.768C313.949 139.091 307.899 135.322 302.741 130.462C297.683 125.602 293.716 119.899 290.84 113.353C288.063 106.807 286.674 99.6664 286.674 91.9303C286.674 84.1943 288.063 77.0533 290.84 70.5074C293.716 63.9615 297.733 58.2586 302.89 53.3988C308.048 48.539 314.098 44.7701 321.04 42.0922C327.983 39.4144 335.52 38.0755 343.653 38.0755C351.885 38.0755 359.423 39.4144 366.266 42.0922C373.209 44.7701 379.209 48.539 384.268 53.3988C389.425 58.2586 393.442 63.9615 396.318 70.5074C399.194 76.9541 400.632 84.0951 400.632 91.9303C400.632 99.6664 399.194 106.857 396.318 113.502C393.442 120.048 389.425 125.751 384.268 130.611C379.209 135.371 373.209 139.091 366.266 141.768C359.423 144.446 351.935 145.785 343.802 145.785ZM343.653 125.255C348.315 125.255 352.579 124.461 356.447 122.875C360.415 121.288 363.886 119.007 366.861 116.031C369.837 113.056 372.118 109.535 373.705 105.468C375.391 101.402 376.234 96.8894 376.234 91.9303C376.234 86.9713 375.391 82.4586 373.705 78.3922C372.118 74.3258 369.837 70.8049 366.861 67.8295C363.985 64.8541 360.563 62.573 356.596 60.9861C352.629 59.3992 348.315 58.6058 343.653 58.6058C338.992 58.6058 334.677 59.3992 330.71 60.9861C326.842 62.573 323.42 64.8541 320.445 67.8295C317.47 70.8049 315.139 74.3258 313.453 78.3922C311.866 82.4586 311.073 86.9713 311.073 91.9303C311.073 96.7902 311.866 101.303 313.453 105.468C315.139 109.535 317.42 113.056 320.296 116.031C323.272 119.007 326.743 121.288 330.71 122.875C334.677 124.461 338.992 125.255 343.653 125.255ZM418.745 144V39.8607H466.054C477.361 39.8607 487.328 42.0427 495.957 46.4066C504.586 50.6713 511.33 56.6718 516.19 64.4078C521.05 72.1439 523.479 81.3181 523.479 91.9303C523.479 102.443 521.05 111.618 516.19 119.453C511.33 127.189 504.586 133.239 495.957 137.603C487.328 141.868 477.361 144 466.054 144H418.745ZM442.846 124.214H464.864C471.807 124.214 477.807 122.924 482.865 120.346C488.023 117.668 491.99 113.899 494.767 109.039C497.643 104.179 499.081 98.4762 499.081 91.9303C499.081 85.2853 497.643 79.5824 494.767 74.8217C491.99 69.9619 488.023 66.2427 482.865 63.664C477.807 60.9861 471.807 59.6472 464.864 59.6472H442.846V124.214ZM563.822 81.814H613.957V100.559H563.822V81.814ZM565.607 124.66H622.289V144H541.655V39.8607H620.355V59.2008H565.607V124.66ZM733.435 145.785C725.402 145.785 717.914 144.496 710.971 141.917C704.127 139.239 698.177 135.47 693.118 130.611C688.06 125.751 684.093 120.048 681.217 113.502C678.44 106.956 677.051 99.7656 677.051 91.9303C677.051 84.0951 678.44 76.9045 681.217 70.3586C684.093 63.8127 688.06 58.1099 693.118 53.25C698.276 48.3902 704.276 44.6709 711.12 42.0922C717.963 39.4144 725.451 38.0755 733.584 38.0755C742.609 38.0755 750.742 39.6623 757.982 42.8361C765.322 45.9107 771.471 50.473 776.43 56.523L760.958 70.8049C757.387 66.7386 753.42 63.7136 749.056 61.7299C744.692 59.6472 739.932 58.6058 734.774 58.6058C729.914 58.6058 725.451 59.3992 721.385 60.9861C717.318 62.573 713.798 64.8541 710.822 67.8295C707.847 70.8049 705.516 74.3258 703.83 78.3922C702.243 82.4586 701.45 86.9713 701.45 91.9303C701.45 96.8894 702.243 101.402 703.83 105.468C705.516 109.535 707.847 113.056 710.822 116.031C713.798 119.007 717.318 121.288 721.385 122.875C725.451 124.461 729.914 125.255 734.774 125.255C739.932 125.255 744.692 124.263 749.056 122.28C753.42 120.197 757.387 117.073 760.958 112.907L776.43 127.189C771.471 133.239 765.322 137.851 757.982 141.025C750.742 144.198 742.56 145.785 733.435 145.785ZM841.108 145.785C832.876 145.785 825.239 144.446 818.197 141.768C811.255 139.091 805.205 135.322 800.047 130.462C794.989 125.602 791.022 119.899 788.146 113.353C785.369 106.807 783.98 99.6664 783.98 91.9303C783.98 84.1943 785.369 77.0533 788.146 70.5074C791.022 63.9615 795.039 58.2586 800.196 53.3988C805.353 48.539 811.403 44.7701 818.346 42.0922C825.289 39.4144 832.826 38.0755 840.959 38.0755C849.191 38.0755 856.729 39.4144 863.572 42.0922C870.515 44.7701 876.515 48.539 881.573 53.3988C886.731 58.2586 890.748 63.9615 893.624 70.5074C896.5 76.9541 897.938 84.0951 897.938 91.9303C897.938 99.6664 896.5 106.857 893.624 113.502C890.748 120.048 886.731 125.751 881.573 130.611C876.515 135.371 870.515 139.091 863.572 141.768C856.729 144.446 849.241 145.785 841.108 145.785ZM840.959 125.255C845.621 125.255 849.885 124.461 853.753 122.875C857.721 121.288 861.192 119.007 864.167 116.031C867.143 113.056 869.424 109.535 871.011 105.468C872.697 101.402 873.54 96.8894 873.54 91.9303C873.54 86.9713 872.697 82.4586 871.011 78.3922C869.424 74.3258 867.143 70.8049 864.167 67.8295C861.291 64.8541 857.869 62.573 853.902 60.9861C849.935 59.3992 845.621 58.6058 840.959 58.6058C836.298 58.6058 831.983 59.3992 828.016 60.9861C824.148 62.573 820.726 64.8541 817.751 67.8295C814.776 70.8049 812.445 74.3258 810.759 78.3922C809.172 82.4586 808.378 86.9713 808.378 91.9303C808.378 96.7902 809.172 101.303 810.759 105.468C812.445 109.535 814.726 113.056 817.602 116.031C820.578 119.007 824.049 121.288 828.016 122.875C831.983 124.461 836.298 125.255 840.959 125.255ZM916.051 144V39.8607H961.128C970.451 39.8607 978.485 41.398 985.229 44.4726C991.973 47.448 997.18 51.7623 1000.85 57.4156C1004.52 63.0689 1006.35 69.8131 1006.35 77.6484C1006.35 85.3844 1004.52 92.0791 1000.85 97.7324C997.18 103.286 991.973 107.551 985.229 110.527C978.485 113.502 970.451 114.99 961.128 114.99H929.44L940.152 104.427V144H916.051ZM982.254 144L956.219 106.212H981.956L1008.29 144H982.254ZM940.152 107.105L929.44 95.7984H959.789C967.228 95.7984 972.782 94.2115 976.452 91.0377C980.121 87.7648 981.956 83.3017 981.956 77.6484C981.956 71.8959 980.121 67.4328 976.452 64.259C972.782 61.0853 967.228 59.4984 959.789 59.4984H929.44L940.152 48.0431V107.105ZM1047.62 81.814H1097.75V100.559H1047.62V81.814ZM1049.4 124.66H1106.08V144H1025.45V39.8607H1104.15V59.2008H1049.4V124.66Z" fill="#D8D9FF" fill-opacity="0.4"/>
<g style="mix-blend-mode:multiply" filter="url(#filter0_b_1821_16026)">
<rect x="683.943" y="54" width="550" height="78" rx="39" fill="#6F00FF" fill-opacity="0.2"/>
</g>
<g style="mix-blend-mode:multiply" filter="url(#filter1_b_1821_16026)">
<rect x="692.943" y="61" width="532" height="62" rx="31" fill="#6F00FF" fill-opacity="0.01"/>
</g>
<g filter="url(#filter2_d_1821_16026)">
<path d="M88.2682 110V73.5253H106.089C110.674 73.5253 114.113 74.3937 116.406 76.1306C118.733 77.8675 119.897 80.1602 119.897 83.0087C119.897 84.9193 119.428 86.5867 118.49 88.011C117.552 89.4005 116.267 90.4773 114.634 91.2416C113.002 92.0058 111.126 92.3879 109.007 92.3879L109.997 90.2516C112.289 90.2516 114.322 90.6337 116.093 91.3979C117.865 92.1274 119.237 93.2216 120.21 94.6806C121.217 96.1396 121.721 97.9286 121.721 100.048C121.721 103.174 120.488 105.623 118.021 107.395C115.555 109.132 111.925 110 107.131 110H88.2682ZM96.6574 103.643H106.506C108.694 103.643 110.344 103.296 111.456 102.601C112.602 101.871 113.175 100.725 113.175 99.1618C113.175 97.6333 112.602 96.5044 111.456 95.7749C110.344 95.0106 108.694 94.6285 106.506 94.6285H96.0321V88.4799H105.047C107.096 88.4799 108.659 88.1325 109.736 87.4378C110.848 86.7083 111.404 85.6141 111.404 84.1551C111.404 82.7308 110.848 81.6713 109.736 80.9766C108.659 80.2471 107.096 79.8823 105.047 79.8823H96.6574V103.643ZM139.367 110.417C137.039 110.417 134.955 109.965 133.114 109.062C131.307 108.159 129.901 106.787 128.893 104.946C127.886 103.07 127.382 100.69 127.382 97.807V81.9666H135.511V96.6086C135.511 98.936 135.997 100.656 136.97 101.767C137.977 102.844 139.384 103.382 141.19 103.382C142.441 103.382 143.553 103.122 144.525 102.601C145.498 102.045 146.262 101.211 146.818 100.1C147.374 98.9534 147.652 97.5291 147.652 95.827V81.9666H155.78V110H148.068V102.288L149.475 104.529C148.537 106.474 147.148 107.95 145.307 108.958C143.5 109.931 141.52 110.417 139.367 110.417ZM163.311 110V81.9666H171.44V110H163.311ZM167.375 78.0586C165.881 78.0586 164.666 77.6244 163.728 76.7559C162.79 75.8875 162.321 74.8106 162.321 73.5253C162.321 72.24 162.79 71.1631 163.728 70.2947C164.666 69.4262 165.881 68.992 167.375 68.992C168.869 68.992 170.085 69.4089 171.023 70.2426C171.961 71.0415 172.43 72.0837 172.43 73.369C172.43 74.7237 171.961 75.8527 171.023 76.7559C170.119 77.6244 168.904 78.0586 167.375 78.0586ZM178.984 110V71.3368H187.112V110H178.984ZM206.693 110.417C204.053 110.417 201.673 109.826 199.554 108.645C197.435 107.429 195.751 105.745 194.5 103.591C193.284 101.437 192.676 98.9013 192.676 95.9833C192.676 93.0306 193.284 90.4773 194.5 88.3236C195.751 86.1699 197.435 84.5024 199.554 83.3214C201.673 82.1403 204.053 81.5497 206.693 81.5497C209.055 81.5497 211.122 82.0708 212.894 83.1129C214.665 84.1551 216.037 85.7356 217.01 87.8546C217.983 89.9736 218.469 92.6832 218.469 95.9833C218.469 99.2486 218 101.958 217.062 104.112C216.124 106.231 214.77 107.812 212.998 108.854C211.261 109.896 209.159 110.417 206.693 110.417ZM208.1 103.747C209.42 103.747 210.618 103.435 211.695 102.809C212.772 102.184 213.623 101.298 214.248 100.152C214.908 98.9707 215.238 97.5812 215.238 95.9833C215.238 94.3506 214.908 92.9611 214.248 91.8148C213.623 90.6684 212.772 89.7826 211.695 89.1573C210.618 88.532 209.42 88.2194 208.1 88.2194C206.745 88.2194 205.529 88.532 204.452 89.1573C203.376 89.7826 202.507 90.6684 201.847 91.8148C201.222 92.9611 200.909 94.3506 200.909 95.9833C200.909 97.5812 201.222 98.9707 201.847 100.152C202.507 101.298 203.376 102.184 204.452 102.809C205.529 103.435 206.745 103.747 208.1 103.747ZM215.447 110V104.268L215.603 95.9312L215.082 87.6462V71.3368H223.211V110H215.447ZM230.734 110V81.9666H238.863V110H230.734ZM234.798 78.0586C233.305 78.0586 232.089 77.6244 231.151 76.7559C230.213 75.8875 229.744 74.8106 229.744 73.5253C229.744 72.24 230.213 71.1631 231.151 70.2947C232.089 69.4262 233.305 68.992 234.798 68.992C236.292 68.992 237.508 69.4089 238.446 70.2426C239.384 71.0415 239.853 72.0837 239.853 73.369C239.853 74.7237 239.384 75.8527 238.446 76.7559C237.543 77.6244 236.327 78.0586 234.798 78.0586ZM263.446 81.5497C265.669 81.5497 267.649 82.0013 269.386 82.9045C271.158 83.7729 272.547 85.1277 273.554 86.9688C274.562 88.7752 275.066 91.1026 275.066 93.9511V110H266.937V95.2017C266.937 92.9437 266.433 91.2763 265.426 90.1994C264.453 89.1226 263.064 88.5841 261.257 88.5841C259.972 88.5841 258.808 88.862 257.766 89.4178C256.759 89.9389 255.96 90.7552 255.369 91.8669C254.813 92.9785 254.535 94.4027 254.535 96.1396V110H246.407V81.9666H254.171V89.7305L252.712 87.3857C253.719 85.5098 255.161 84.0682 257.037 83.0608C258.912 82.0534 261.049 81.5497 263.446 81.5497ZM295.82 120.526C293.18 120.526 290.627 120.196 288.161 119.536C285.729 118.91 283.697 117.955 282.064 116.67L285.295 110.834C286.476 111.806 287.97 112.571 289.776 113.126C291.617 113.717 293.423 114.012 295.195 114.012C298.078 114.012 300.163 113.37 301.448 112.084C302.768 110.799 303.428 108.888 303.428 106.353V102.132L303.949 95.0975L303.845 88.011V81.9666H311.557V105.31C311.557 110.521 310.202 114.36 307.492 116.826C304.783 119.292 300.892 120.526 295.82 120.526ZM294.57 108.645C291.964 108.645 289.602 108.089 287.483 106.978C285.399 105.831 283.714 104.251 282.429 102.236C281.178 100.187 280.553 97.807 280.553 95.0975C280.553 92.3532 281.178 89.9736 282.429 87.9589C283.714 85.9093 285.399 84.3288 287.483 83.2171C289.602 82.1055 291.964 81.5497 294.57 81.5497C296.932 81.5497 299.016 82.0361 300.823 83.0087C302.629 83.9466 304.036 85.423 305.043 87.4378C306.051 89.4178 306.554 91.9711 306.554 95.0975C306.554 98.1891 306.051 100.742 305.043 102.757C304.036 104.737 302.629 106.214 300.823 107.186C299.016 108.159 296.932 108.645 294.57 108.645ZM296.185 101.976C297.609 101.976 298.877 101.698 299.989 101.142C301.1 100.551 301.969 99.735 302.594 98.6928C303.219 97.6507 303.532 96.4523 303.532 95.0975C303.532 93.708 303.219 92.5095 302.594 91.5021C301.969 90.46 301.1 89.661 299.989 89.1052C298.877 88.5147 297.609 88.2194 296.185 88.2194C294.761 88.2194 293.493 88.5147 292.381 89.1052C291.27 89.661 290.384 90.46 289.724 91.5021C289.099 92.5095 288.786 93.708 288.786 95.0975C288.786 96.4523 289.099 97.6507 289.724 98.6928C290.384 99.735 291.27 100.551 292.381 101.142C293.493 101.698 294.761 101.976 296.185 101.976ZM334.452 110V73.5253H352.273C356.858 73.5253 360.297 74.3937 362.59 76.1306C364.917 77.8675 366.081 80.1602 366.081 83.0087C366.081 84.9193 365.612 86.5867 364.674 88.011C363.736 89.4005 362.451 90.4773 360.818 91.2416C359.185 92.0058 357.31 92.3879 355.191 92.3879L356.181 90.2516C358.473 90.2516 360.505 90.6337 362.277 91.3979C364.049 92.1274 365.421 93.2216 366.394 94.6806C367.401 96.1396 367.905 97.9286 367.905 100.048C367.905 103.174 366.671 105.623 364.205 107.395C361.739 109.132 358.109 110 353.315 110H334.452ZM342.841 103.643H352.689C354.878 103.643 356.528 103.296 357.64 102.601C358.786 101.871 359.359 100.725 359.359 99.1618C359.359 97.6333 358.786 96.5044 357.64 95.7749C356.528 95.0106 354.878 94.6285 352.689 94.6285H342.216V88.4799H351.23C353.28 88.4799 354.843 88.1325 355.92 87.4378C357.032 86.7083 357.588 85.6141 357.588 84.1551C357.588 82.7308 357.032 81.6713 355.92 80.9766C354.843 80.2471 353.28 79.8823 351.23 79.8823H342.841V103.643ZM373.722 110V81.9666H381.486V89.8868L380.392 87.5941C381.226 85.6141 382.563 84.1203 384.404 83.1129C386.245 82.0708 388.486 81.5497 391.126 81.5497V89.0531C390.779 89.0184 390.466 89.001 390.188 89.001C389.91 88.9663 389.615 88.9489 389.302 88.9489C387.079 88.9489 385.273 89.5915 383.883 90.8768C382.528 92.1274 381.851 94.0901 381.851 96.7649V110H373.722ZM396.01 110V81.9666H404.139V110H396.01ZM400.074 78.0586C398.581 78.0586 397.365 77.6244 396.427 76.7559C395.489 75.8875 395.02 74.8106 395.02 73.5253C395.02 72.24 395.489 71.1631 396.427 70.2947C397.365 69.4262 398.581 68.992 400.074 68.992C401.568 68.992 402.784 69.4089 403.722 70.2426C404.66 71.0415 405.129 72.0837 405.129 73.369C405.129 74.7237 404.66 75.8527 403.722 76.7559C402.819 77.6244 401.603 78.0586 400.074 78.0586ZM423.719 110.417C421.079 110.417 418.7 109.826 416.581 108.645C414.462 107.429 412.777 105.745 411.527 103.591C410.311 101.437 409.703 98.9013 409.703 95.9833C409.703 93.0306 410.311 90.4773 411.527 88.3236C412.777 86.1699 414.462 84.5024 416.581 83.3214C418.7 82.1403 421.079 81.5497 423.719 81.5497C426.082 81.5497 428.149 82.0708 429.92 83.1129C431.692 84.1551 433.064 85.7356 434.037 87.8546C435.009 89.9736 435.496 92.6832 435.496 95.9833C435.496 99.2486 435.027 101.958 434.089 104.112C433.151 106.231 431.796 107.812 430.024 108.854C428.288 109.896 426.186 110.417 423.719 110.417ZM425.126 103.747C426.446 103.747 427.645 103.435 428.722 102.809C429.799 102.184 430.65 101.298 431.275 100.152C431.935 98.9707 432.265 97.5812 432.265 95.9833C432.265 94.3506 431.935 92.9611 431.275 91.8148C430.65 90.6684 429.799 89.7826 428.722 89.1573C427.645 88.532 426.446 88.2194 425.126 88.2194C423.772 88.2194 422.556 88.532 421.479 89.1573C420.402 89.7826 419.534 90.6684 418.874 91.8148C418.248 92.9611 417.936 94.3506 417.936 95.9833C417.936 97.5812 418.248 98.9707 418.874 100.152C419.534 101.298 420.402 102.184 421.479 102.809C422.556 103.435 423.772 103.747 425.126 103.747ZM432.473 110V104.268L432.63 95.9312L432.109 87.6462V71.3368H440.237V110H432.473ZM460.944 120.526C458.304 120.526 455.75 120.196 453.284 119.536C450.852 118.91 448.82 117.955 447.187 116.67L450.418 110.834C451.599 111.806 453.093 112.571 454.899 113.126C456.74 113.717 458.547 114.012 460.318 114.012C463.202 114.012 465.286 113.37 466.571 112.084C467.891 110.799 468.551 108.888 468.551 106.353V102.132L469.072 95.0975L468.968 88.011V81.9666H476.68V105.31C476.68 110.521 475.325 114.36 472.616 116.826C469.906 119.292 466.015 120.526 460.944 120.526ZM459.693 108.645C457.088 108.645 454.726 108.089 452.607 106.978C450.522 105.831 448.838 104.251 447.552 102.236C446.302 100.187 445.676 97.807 445.676 95.0975C445.676 92.3532 446.302 89.9736 447.552 87.9589C448.838 85.9093 450.522 84.3288 452.607 83.2171C454.726 82.1055 457.088 81.5497 459.693 81.5497C462.055 81.5497 464.14 82.0361 465.946 83.0087C467.752 83.9466 469.159 85.423 470.167 87.4378C471.174 89.4178 471.678 91.9711 471.678 95.0975C471.678 98.1891 471.174 100.742 470.167 102.757C469.159 104.737 467.752 106.214 465.946 107.186C464.14 108.159 462.055 108.645 459.693 108.645ZM461.308 101.976C462.733 101.976 464.001 101.698 465.112 101.142C466.224 100.551 467.092 99.735 467.718 98.6928C468.343 97.6507 468.655 96.4523 468.655 95.0975C468.655 93.708 468.343 92.5095 467.718 91.5021C467.092 90.46 466.224 89.661 465.112 89.1052C464.001 88.5147 462.733 88.2194 461.308 88.2194C459.884 88.2194 458.616 88.5147 457.505 89.1052C456.393 89.661 455.507 90.46 454.847 91.5021C454.222 92.5095 453.909 93.708 453.909 95.0975C453.909 96.4523 454.222 97.6507 454.847 98.6928C455.507 99.735 456.393 100.551 457.505 101.142C458.616 101.698 459.884 101.976 461.308 101.976ZM498.158 110.417C494.962 110.417 492.148 109.792 489.717 108.541C487.32 107.29 485.461 105.588 484.141 103.435C482.821 101.246 482.161 98.7623 482.161 95.9833C482.161 93.1695 482.804 90.6858 484.089 88.532C485.409 86.3435 487.198 84.6414 489.456 83.4256C491.714 82.175 494.267 81.5497 497.116 81.5497C499.86 81.5497 502.327 82.1403 504.515 83.3214C506.738 84.4677 508.493 86.1351 509.778 88.3236C511.063 90.4773 511.706 93.0653 511.706 96.0875C511.706 96.4001 511.688 96.7649 511.654 97.1817C511.619 97.5639 511.584 97.9286 511.549 98.276H488.779V93.5343H507.277L504.15 94.9412C504.15 93.4822 503.855 92.2142 503.264 91.1374C502.674 90.0605 501.858 89.2268 500.815 88.6362C499.773 88.011 498.558 87.6983 497.168 87.6983C495.778 87.6983 494.545 88.011 493.468 88.6362C492.426 89.2268 491.61 90.0779 491.019 91.1895C490.429 92.2663 490.134 93.5516 490.134 95.0454V96.2959C490.134 97.8244 490.464 99.1792 491.124 100.36C491.818 101.507 492.774 102.392 493.989 103.018C495.24 103.608 496.699 103.904 498.366 103.904C499.86 103.904 501.163 103.678 502.274 103.226C503.421 102.775 504.463 102.097 505.401 101.194L509.726 105.884C508.44 107.343 506.825 108.472 504.88 109.271C502.934 110.035 500.694 110.417 498.158 110.417ZM526.549 110.417C524.152 110.417 521.842 110.139 519.619 109.583C517.43 108.993 515.693 108.263 514.408 107.395L517.118 101.559C518.403 102.358 519.914 103.018 521.651 103.539C523.422 104.025 525.159 104.268 526.862 104.268C528.737 104.268 530.057 104.042 530.822 103.591C531.621 103.139 532.02 102.514 532.02 101.715C532.02 101.055 531.707 100.569 531.082 100.256C530.492 99.9087 529.693 99.6481 528.685 99.4744C527.678 99.3008 526.566 99.1271 525.35 98.9534C524.169 98.7797 522.971 98.5539 521.755 98.276C520.539 97.9633 519.428 97.5118 518.42 96.9212C517.413 96.3307 516.596 95.5317 515.971 94.5243C515.381 93.5169 515.085 92.2142 515.085 90.6163C515.085 88.8447 515.589 87.2815 516.596 85.9267C517.639 84.5719 519.132 83.5124 521.078 82.7482C523.023 81.9492 525.35 81.5497 528.06 81.5497C529.971 81.5497 531.916 81.7582 533.896 82.175C535.876 82.5919 537.526 83.1998 538.846 83.9987L536.137 89.7826C534.782 88.9836 533.41 88.4452 532.02 88.1673C530.665 87.8546 529.345 87.6983 528.06 87.6983C526.254 87.6983 524.934 87.9415 524.1 88.4278C523.266 88.9141 522.849 89.5394 522.849 90.3037C522.849 90.9984 523.145 91.5195 523.735 91.8669C524.36 92.2142 525.177 92.4921 526.184 92.7006C527.192 92.909 528.286 93.1001 529.467 93.2737C530.683 93.4127 531.899 93.6385 533.114 93.9511C534.33 94.2638 535.424 94.7154 536.397 95.3059C537.404 95.8617 538.221 96.6433 538.846 97.6507C539.471 98.6234 539.784 99.9087 539.784 101.507C539.784 103.243 539.263 104.789 538.221 106.144C537.179 107.464 535.668 108.506 533.687 109.271C531.742 110.035 529.363 110.417 526.549 110.417ZM565.965 110L555.856 81.9666H563.516L571.905 106.092H568.258L577.012 81.9666H583.89L592.383 106.092H588.736L597.386 81.9666H604.576L594.415 110H586.547L579.096 89.3136H581.493L573.781 110H565.965ZM608.355 110V81.9666H616.484V110H608.355ZM612.42 78.0586C610.926 78.0586 609.71 77.6244 608.772 76.7559C607.834 75.8875 607.365 74.8106 607.365 73.5253C607.365 72.24 607.834 71.1631 608.772 70.2947C609.71 69.4262 610.926 68.992 612.42 68.992C613.913 68.992 615.129 69.4089 616.067 70.2426C617.005 71.0415 617.474 72.0837 617.474 73.369C617.474 74.7237 617.005 75.8527 616.067 76.7559C615.164 77.6244 613.948 78.0586 612.42 78.0586ZM635.491 110.417C632.191 110.417 629.621 109.583 627.78 107.916C625.939 106.214 625.018 103.695 625.018 100.36V75.7659H633.147V100.256C633.147 101.437 633.459 102.358 634.085 103.018C634.71 103.643 635.561 103.956 636.638 103.956C637.923 103.956 639.017 103.608 639.92 102.913L642.109 108.645C641.275 109.236 640.268 109.687 639.087 110C637.94 110.278 636.742 110.417 635.491 110.417ZM620.693 88.8447V82.5919H640.129V88.8447H620.693ZM663.711 81.5497C665.934 81.5497 667.914 82.0013 669.651 82.9045C671.423 83.7729 672.812 85.1277 673.82 86.9688C674.827 88.7752 675.331 91.1026 675.331 93.9511V110H667.202V95.2017C667.202 92.9437 666.698 91.2763 665.691 90.1994C664.718 89.1226 663.329 88.5841 661.522 88.5841C660.237 88.5841 659.073 88.862 658.031 89.4178C657.024 89.9389 656.225 90.7552 655.634 91.8669C655.079 92.9785 654.801 94.4027 654.801 96.1396V110H646.672V71.3368H654.801V89.7305L652.977 87.3857C653.984 85.5098 655.426 84.0682 657.302 83.0608C659.178 82.0534 661.314 81.5497 663.711 81.5497ZM705.793 88.2194H723.353V94.7848H705.793V88.2194ZM706.418 103.226H726.271V110H698.029V73.5253H725.593V80.2992H706.418V103.226ZM739.767 110L727.991 81.9666H736.38L746.176 106.092H742.008L752.169 81.9666H759.985L748.156 110H739.767ZM776.451 110.417C773.255 110.417 770.441 109.792 768.009 108.541C765.612 107.29 763.754 105.588 762.434 103.435C761.114 101.246 760.454 98.7623 760.454 95.9833C760.454 93.1695 761.097 90.6858 762.382 88.532C763.702 86.3435 765.491 84.6414 767.749 83.4256C770.007 82.175 772.56 81.5497 775.409 81.5497C778.153 81.5497 780.619 82.1403 782.808 83.3214C785.031 84.4677 786.785 86.1351 788.07 88.3236C789.356 90.4773 789.998 93.0653 789.998 96.0875C789.998 96.4001 789.981 96.7649 789.946 97.1817C789.912 97.5639 789.877 97.9286 789.842 98.276H767.071V93.5343H785.569L782.443 94.9412C782.443 93.4822 782.148 92.2142 781.557 91.1374C780.967 90.0605 780.15 89.2268 779.108 88.6362C778.066 88.011 776.85 87.6983 775.461 87.6983C774.071 87.6983 772.838 88.011 771.761 88.6362C770.719 89.2268 769.903 90.0779 769.312 91.1895C768.722 92.2663 768.426 93.5516 768.426 95.0454V96.2959C768.426 97.8244 768.756 99.1792 769.416 100.36C770.111 101.507 771.066 102.392 772.282 103.018C773.533 103.608 774.992 103.904 776.659 103.904C778.153 103.904 779.455 103.678 780.567 103.226C781.713 102.775 782.756 102.097 783.694 101.194L788.018 105.884C786.733 107.343 785.118 108.472 783.172 109.271C781.227 110.035 778.987 110.417 776.451 110.417ZM795.41 110V81.9666H803.174V89.8868L802.08 87.5941C802.914 85.6141 804.251 84.1203 806.092 83.1129C807.933 82.0708 810.174 81.5497 812.814 81.5497V89.0531C812.466 89.0184 812.154 89.001 811.876 89.001C811.598 88.9663 811.303 88.9489 810.99 88.9489C808.767 88.9489 806.961 89.5915 805.571 90.8768C804.216 92.1274 803.539 94.0901 803.539 96.7649V110H795.41ZM822.157 120.526C820.698 120.526 819.257 120.3 817.832 119.848C816.408 119.397 815.244 118.771 814.341 117.972L817.311 112.188C817.937 112.744 818.649 113.179 819.448 113.491C820.281 113.804 821.098 113.96 821.897 113.96C823.043 113.96 823.946 113.682 824.606 113.126C825.301 112.605 825.926 111.72 826.482 110.469L827.941 107.03L828.566 106.144L838.623 81.9666H846.439L833.777 111.72C832.874 113.977 831.832 115.749 830.651 117.034C829.504 118.32 828.219 119.223 826.795 119.744C825.405 120.265 823.859 120.526 822.157 120.526ZM826.951 111.094L814.445 81.9666H822.835L832.526 105.415L826.951 111.094ZM865.086 110V73.5253H873.527V103.122H891.817V110H865.086ZM895.96 110V81.9666H904.089V110H895.96ZM900.024 78.0586C898.53 78.0586 897.315 77.6244 896.377 76.7559C895.439 75.8875 894.97 74.8106 894.97 73.5253C894.97 72.24 895.439 71.1631 896.377 70.2947C897.315 69.4262 898.53 68.992 900.024 68.992C901.518 68.992 902.734 69.4089 903.672 70.2426C904.61 71.0415 905.079 72.0837 905.079 73.369C905.079 74.7237 904.61 75.8527 903.672 76.7559C902.768 77.6244 901.553 78.0586 900.024 78.0586ZM928.672 81.5497C930.895 81.5497 932.875 82.0013 934.612 82.9045C936.383 83.7729 937.773 85.1277 938.78 86.9688C939.788 88.7752 940.291 91.1026 940.291 93.9511V110H932.163V95.2017C932.163 92.9437 931.659 91.2763 930.652 90.1994C929.679 89.1226 928.289 88.5841 926.483 88.5841C925.198 88.5841 924.034 88.862 922.992 89.4178C921.984 89.9389 921.186 90.7552 920.595 91.8669C920.039 92.9785 919.761 94.4027 919.761 96.1396V110H911.633V81.9666H919.397V89.7305L917.938 87.3857C918.945 85.5098 920.387 84.0682 922.262 83.0608C924.138 82.0534 926.275 81.5497 928.672 81.5497ZM961.776 110.417C958.58 110.417 955.766 109.792 953.334 108.541C950.937 107.29 949.079 105.588 947.759 103.435C946.439 101.246 945.779 98.7623 945.779 95.9833C945.779 93.1695 946.421 90.6858 947.707 88.532C949.027 86.3435 950.816 84.6414 953.074 83.4256C955.332 82.175 957.885 81.5497 960.733 81.5497C963.478 81.5497 965.944 82.1403 968.133 83.3214C970.356 84.4677 972.11 86.1351 973.395 88.3236C974.681 90.4773 975.323 93.0653 975.323 96.0875C975.323 96.4001 975.306 96.7649 975.271 97.1817C975.236 97.5639 975.202 97.9286 975.167 98.276H952.396V93.5343H970.894L967.768 94.9412C967.768 93.4822 967.473 92.2142 966.882 91.1374C966.291 90.0605 965.475 89.2268 964.433 88.6362C963.391 88.011 962.175 87.6983 960.786 87.6983C959.396 87.6983 958.163 88.011 957.086 88.6362C956.044 89.2268 955.227 90.0779 954.637 91.1895C954.046 92.2663 953.751 93.5516 953.751 95.0454V96.2959C953.751 97.8244 954.081 99.1792 954.741 100.36C955.436 101.507 956.391 102.392 957.607 103.018C958.858 103.608 960.317 103.904 961.984 103.904C963.478 103.904 964.78 103.678 965.892 103.226C967.038 102.775 968.08 102.097 969.018 101.194L973.343 105.884C972.058 107.343 970.443 108.472 968.497 109.271C966.552 110.035 964.311 110.417 961.776 110.417ZM1008.83 110.417C1005.84 110.417 1003.19 109.792 1000.86 108.541C998.566 107.29 996.742 105.588 995.388 103.435C994.068 101.246 993.408 98.7623 993.408 95.9833C993.408 93.1695 994.068 90.6858 995.388 88.532C996.742 86.3435 998.566 84.6414 1000.86 83.4256C1003.19 82.175 1005.84 81.5497 1008.83 81.5497C1011.78 81.5497 1014.42 82.175 1016.75 83.4256C1019.08 84.6414 1020.9 86.3262 1022.22 88.4799C1023.54 90.6337 1024.2 93.1348 1024.2 95.9833C1024.2 98.7623 1023.54 101.246 1022.22 103.435C1020.9 105.588 1019.08 107.29 1016.75 108.541C1014.42 109.792 1011.78 110.417 1008.83 110.417ZM1008.83 103.747C1010.19 103.747 1011.4 103.435 1012.48 102.809C1013.56 102.184 1014.41 101.298 1015.03 100.152C1015.66 98.9707 1015.97 97.5812 1015.97 95.9833C1015.97 94.3506 1015.66 92.9611 1015.03 91.8148C1014.41 90.6684 1013.56 89.7826 1012.48 89.1573C1011.4 88.532 1010.19 88.2194 1008.83 88.2194C1007.48 88.2194 1006.26 88.532 1005.18 89.1573C1004.11 89.7826 1003.24 90.6684 1002.58 91.8148C1001.95 92.9611 1001.64 94.3506 1001.64 95.9833C1001.64 97.5812 1001.95 98.9707 1002.58 100.152C1003.24 101.298 1004.11 102.184 1005.18 102.809C1006.26 103.435 1007.48 103.747 1008.83 103.747ZM1030.63 110V81.3413C1030.63 78.1802 1031.56 75.6617 1033.44 73.7858C1035.32 71.8752 1037.99 70.92 1041.46 70.92C1042.65 70.92 1043.77 71.0415 1044.85 71.2847C1045.96 71.5279 1046.9 71.91 1047.66 72.4311L1045.53 78.3191C1045.08 78.0065 1044.57 77.7633 1044.02 77.5896C1043.46 77.4159 1042.87 77.3291 1042.25 77.3291C1041.06 77.3291 1040.14 77.6765 1039.48 78.3712C1038.86 79.0312 1038.55 80.0386 1038.55 81.3934V83.9987L1038.75 87.4899V110H1030.63ZM1026.3 88.8447V82.5919H1045.74V88.8447H1026.3ZM1082.57 110.625C1079.76 110.625 1077.14 110.174 1074.7 109.271C1072.31 108.333 1070.22 107.013 1068.45 105.31C1066.68 103.608 1065.29 101.611 1064.28 99.3181C1063.31 97.0254 1062.82 94.5069 1062.82 91.7626C1062.82 89.0184 1063.31 86.4999 1064.28 84.2072C1065.29 81.9145 1066.68 79.917 1068.45 78.2149C1070.26 76.5127 1072.36 75.2101 1074.76 74.3069C1077.15 73.369 1079.78 72.9 1082.62 72.9C1085.79 72.9 1088.63 73.4558 1091.17 74.5674C1093.74 75.6443 1095.89 77.2422 1097.63 79.3612L1092.21 84.3635C1090.96 82.9392 1089.57 81.8797 1088.04 81.185C1086.52 80.4555 1084.85 80.0907 1083.04 80.0907C1081.34 80.0907 1079.78 80.3686 1078.35 80.9244C1076.93 81.4803 1075.69 82.2792 1074.65 83.3214C1073.61 84.3635 1072.79 85.5967 1072.2 87.0209C1071.65 88.4452 1071.37 90.0258 1071.37 91.7626C1071.37 93.4995 1071.65 95.0801 1072.2 96.5044C1072.79 97.9286 1073.61 99.1618 1074.65 100.204C1075.69 101.246 1076.93 102.045 1078.35 102.601C1079.78 103.157 1081.34 103.435 1083.04 103.435C1084.85 103.435 1086.52 103.087 1088.04 102.392C1089.57 101.663 1090.96 100.569 1092.21 99.1097L1097.63 104.112C1095.89 106.231 1093.74 107.846 1091.17 108.958C1088.63 110.069 1085.77 110.625 1082.57 110.625ZM1115.13 110.417C1112.14 110.417 1109.49 109.792 1107.16 108.541C1104.87 107.29 1103.04 105.588 1101.69 103.435C1100.37 101.246 1099.71 98.7623 1099.71 95.9833C1099.71 93.1695 1100.37 90.6858 1101.69 88.532C1103.04 86.3435 1104.87 84.6414 1107.16 83.4256C1109.49 82.175 1112.14 81.5497 1115.13 81.5497C1118.08 81.5497 1120.72 82.175 1123.05 83.4256C1125.38 84.6414 1127.2 86.3262 1128.52 88.4799C1129.84 90.6337 1130.5 93.1348 1130.5 95.9833C1130.5 98.7623 1129.84 101.246 1128.52 103.435C1127.2 105.588 1125.38 107.29 1123.05 108.541C1120.72 109.792 1118.08 110.417 1115.13 110.417ZM1115.13 103.747C1116.49 103.747 1117.7 103.435 1118.78 102.809C1119.86 102.184 1120.71 101.298 1121.33 100.152C1121.96 98.9707 1122.27 97.5812 1122.27 95.9833C1122.27 94.3506 1121.96 92.9611 1121.33 91.8148C1120.71 90.6684 1119.86 89.7826 1118.78 89.1573C1117.7 88.532 1116.49 88.2194 1115.13 88.2194C1113.78 88.2194 1112.56 88.532 1111.48 89.1573C1110.41 89.7826 1109.54 90.6684 1108.88 91.8148C1108.25 92.9611 1107.94 94.3506 1107.94 95.9833C1107.94 97.5812 1108.25 98.9707 1108.88 100.152C1109.54 101.298 1110.41 102.184 1111.48 102.809C1112.56 103.435 1113.78 103.747 1115.13 103.747ZM1147.97 110.417C1145.33 110.417 1142.95 109.826 1140.83 108.645C1138.71 107.429 1137.03 105.745 1135.78 103.591C1134.56 101.437 1133.96 98.9013 1133.96 95.9833C1133.96 93.0306 1134.56 90.4773 1135.78 88.3236C1137.03 86.1699 1138.71 84.5024 1140.83 83.3214C1142.95 82.1403 1145.33 81.5497 1147.97 81.5497C1150.33 81.5497 1152.4 82.0708 1154.17 83.1129C1155.94 84.1551 1157.32 85.7356 1158.29 87.8546C1159.26 89.9736 1159.75 92.6832 1159.75 95.9833C1159.75 99.2486 1159.28 101.958 1158.34 104.112C1157.4 106.231 1156.05 107.812 1154.28 108.854C1152.54 109.896 1150.44 110.417 1147.97 110.417ZM1149.38 103.747C1150.7 103.747 1151.9 103.435 1152.97 102.809C1154.05 102.184 1154.9 101.298 1155.53 100.152C1156.19 98.9707 1156.52 97.5812 1156.52 95.9833C1156.52 94.3506 1156.19 92.9611 1155.53 91.8148C1154.9 90.6684 1154.05 89.7826 1152.97 89.1573C1151.9 88.532 1150.7 88.2194 1149.38 88.2194C1148.02 88.2194 1146.81 88.532 1145.73 89.1573C1144.65 89.7826 1143.79 90.6684 1143.13 91.8148C1142.5 92.9611 1142.19 94.3506 1142.19 95.9833C1142.19 97.5812 1142.5 98.9707 1143.13 100.152C1143.79 101.298 1144.65 102.184 1145.73 102.809C1146.81 103.435 1148.02 103.747 1149.38 103.747ZM1156.73 110V104.268L1156.88 95.9312L1156.36 87.6462V71.3368H1164.49V110H1156.73ZM1185.93 110.417C1182.73 110.417 1179.92 109.792 1177.48 108.541C1175.09 107.29 1173.23 105.588 1171.91 103.435C1170.59 101.246 1169.93 98.7623 1169.93 95.9833C1169.93 93.1695 1170.57 90.6858 1171.86 88.532C1173.18 86.3435 1174.97 84.6414 1177.22 83.4256C1179.48 82.175 1182.04 81.5497 1184.88 81.5497C1187.63 81.5497 1190.09 82.1403 1192.28 83.3214C1194.51 84.4677 1196.26 86.1351 1197.55 88.3236C1198.83 90.4773 1199.47 93.0653 1199.47 96.0875C1199.47 96.4001 1199.46 96.7649 1199.42 97.1817C1199.39 97.5639 1199.35 97.9286 1199.32 98.276H1176.55V93.5343H1195.04L1191.92 94.9412C1191.92 93.4822 1191.62 92.2142 1191.03 91.1374C1190.44 90.0605 1189.63 89.2268 1188.58 88.6362C1187.54 88.011 1186.33 87.6983 1184.94 87.6983C1183.55 87.6983 1182.31 88.011 1181.24 88.6362C1180.19 89.2268 1179.38 90.0779 1178.79 91.1895C1178.2 92.2663 1177.9 93.5516 1177.9 95.0454V96.2959C1177.9 97.8244 1178.23 99.1792 1178.89 100.36C1179.59 101.507 1180.54 102.392 1181.76 103.018C1183.01 103.608 1184.47 103.904 1186.13 103.904C1187.63 103.904 1188.93 103.678 1190.04 103.226C1191.19 102.775 1192.23 102.097 1193.17 101.194L1197.49 105.884C1196.21 107.343 1194.59 108.472 1192.65 109.271C1190.7 110.035 1188.46 110.417 1185.93 110.417Z" fill="black"/>
</g>
<defs>
<filter id="filter0_b_1821_16026" x="603.943" y="-26" width="710" height="238" filterUnits="userSpaceOnUse" color-interpolation-filters="sRGB">
<feFlood flood-opacity="0" result="BackgroundImageFix"/>
<feGaussianBlur in="BackgroundImageFix" stdDeviation="40"/>
<feComposite in2="SourceAlpha" operator="in" result="effect1_backgroundBlur_1821_16026"/>
<feBlend mode="normal" in="SourceGraphic" in2="effect1_backgroundBlur_1821_16026" result="shape"/>
</filter>
<filter id="filter1_b_1821_16026" x="612.943" y="-19" width="692" height="222" filterUnits="userSpaceOnUse" color-interpolation-filters="sRGB">
<feFlood flood-opacity="0" result="BackgroundImageFix"/>
<feGaussianBlur in="BackgroundImageFix" stdDeviation="40"/>
<feComposite in2="SourceAlpha" operator="in" result="effect1_backgroundBlur_1821_16026"/>
<feBlend mode="normal" in="SourceGraphic" in2="effect1_backgroundBlur_1821_16026" result="shape"/>
</filter>
<filter id="filter2_d_1821_16026" x="70.2676" y="50.992" width="1147.21" height="87.5336" filterUnits="userSpaceOnUse" color-interpolation-filters="sRGB">
<feFlood flood-opacity="0" result="BackgroundImageFix"/>
<feColorMatrix in="SourceAlpha" type="matrix" values="0 0 0 0 0 0 0 0 0 0 0 0 0 0 0 0 0 0 127 0" result="hardAlpha"/>
<feOffset/>
<feGaussianBlur stdDeviation="9"/>
<feComposite in2="hardAlpha" operator="out"/>
<feColorMatrix type="matrix" values="0 0 0 0 0 0 0 0 0 0 0 0 0 0 0 0 0 0 0.25 0"/>
<feBlend mode="normal" in2="BackgroundImageFix" result="effect1_dropShadow_1821_16026"/>
<feBlend mode="normal" in="SourceGraphic" in2="effect1_dropShadow_1821_16026" result="shape"/>
</filter>
</defs>
</svg>
