<svg width="32" height="32" viewBox="0 0 32 32" fill="none" xmlns="http://www.w3.org/2000/svg">
<rect width="32" height="32" rx="16" fill="#E2E8FF"/>
<path d="M22.4734 13.8068C23.3068 12.9734 22.9268 12.0001 22.4734 11.5268L20.4734 9.52678C19.6334 8.69345 18.6668 9.07345 18.1934 9.52678L17.0601 10.6668H15.3334C14.0668 10.6668 13.3334 11.3334 12.9601 12.1001L10.0001 15.0601V17.7268L9.52678 18.1934C8.69345 19.0334 9.07345 20.0001 9.52678 20.4734L11.5268 22.4734C11.8868 22.8334 12.2734 22.9668 12.6401 22.9668C13.1134 22.9668 13.5468 22.7334 13.8068 22.4734L15.6068 20.6668H18.0001C19.1334 20.6668 19.7068 19.9601 19.9134 19.2668C20.6668 19.0668 21.0801 18.4934 21.2468 17.9334C22.2801 17.6668 22.6668 16.6868 22.6668 16.0001V14.0001H22.2734L22.4734 13.8068ZM21.3334 16.0001C21.3334 16.3001 21.2068 16.6668 20.6668 16.6668H20.0001V17.3334C20.0001 17.6334 19.8734 18.0001 19.3334 18.0001H18.6668V18.6668C18.6668 18.9668 18.5401 19.3334 18.0001 19.3334H15.0601L12.8734 21.5201C12.6668 21.7134 12.5468 21.6001 12.4734 21.5268L10.4801 19.5401C10.2868 19.3334 10.4001 19.2134 10.4734 19.1401L11.3334 18.2734V15.6068L12.6668 14.2734V15.3334C12.6668 16.1401 13.2001 17.3334 14.6668 17.3334C16.1334 17.3334 16.6668 16.1401 16.6668 15.3334H21.3334V16.0001ZM21.5268 12.8601L20.3934 14.0001H15.3334V15.3334C15.3334 15.6334 15.2068 16.0001 14.6668 16.0001C14.1268 16.0001 14.0001 15.6334 14.0001 15.3334V13.3334C14.0001 13.0268 14.1134 12.0001 15.3334 12.0001H17.6068L19.1268 10.4801C19.3334 10.2868 19.4534 10.4001 19.5268 10.4734L21.5201 12.4601C21.7134 12.6668 21.6001 12.7868 21.5268 12.8601Z" fill="black"/>
</svg>
