<svg width="91" height="102" viewBox="0 0 91 102" fill="none" xmlns="http://www.w3.org/2000/svg">
<path d="M90.9226 29.8985C90.9219 28.1942 90.5574 26.6882 89.8202 25.396C89.0962 24.1247 88.0118 23.0594 86.5573 22.2171C74.5512 15.2943 62.5335 8.39272 50.5312 1.46288C47.2955 -0.405169 44.1582 -0.336714 40.9465 1.55815C36.1677 4.3761 12.2419 18.0837 5.11237 22.2132C2.17622 23.9133 0.74748 26.5146 0.746775 29.8954C0.742188 43.8175 0.746775 57.7396 0.742188 71.6618C0.742188 73.3287 1.09187 74.8058 1.79654 76.0785C2.52096 77.388 3.62048 78.4826 5.10849 79.3439C12.2384 83.4734 36.1673 97.18 40.9451 99.999C44.1582 101.895 47.2955 101.963 50.5323 100.094C62.5349 93.1641 74.5533 86.2625 86.5612 79.3397C88.0492 78.4787 89.1487 77.3834 89.8732 76.075C90.5768 74.8019 90.9271 73.3252 90.9271 71.6579C90.9271 71.6579 90.9271 43.821 90.9226 29.8985Z" fill="#A179DC"/>
<path d="M45.973 50.6431L1.79688 76.0788C2.5213 77.3882 3.62081 78.4828 5.10883 79.3441C12.2387 83.4737 36.1677 97.1802 40.9454 99.9992C44.1586 101.895 47.2958 101.963 50.5326 100.095C62.5352 93.1643 74.5537 86.2627 86.5615 79.3399C88.0495 78.4789 89.1491 77.3837 89.8735 76.0752L45.973 50.6431Z" fill="#280068"/>
<path d="M90.9226 29.8987C90.9219 28.1944 90.5574 26.6884 89.8202 25.3962L45.9727 50.6435L89.8732 76.0752C90.5768 74.8021 90.9265 73.3254 90.9272 71.6581C90.9272 71.6581 90.9272 43.8212 90.9226 29.8987Z" fill="#390091"/>
<path d="M71.9809 41.1345V45.889H76.7354V41.1345H79.1126V45.889H83.8671V48.2662H79.1126V53.0203H83.8671V55.3975H79.1126V60.152H76.7354V55.3975H71.9809V60.152H69.6037V55.3975H64.8496V53.0203H69.6037V48.2662H64.8496V45.889H69.6037V41.1345H71.9809ZM76.7354 48.2658H71.9809V53.0203H76.7354V48.2658Z" fill="white"/>
<path d="M46.069 17.2571C58.47 17.2571 69.2968 23.9918 75.0961 34.0025L75.0396 33.9062L60.4488 42.3071C57.5744 37.4401 52.3048 34.1553 46.2592 34.0875L46.0687 34.0865C36.8502 34.0865 29.3766 41.5601 29.3766 50.7786C29.3736 53.6842 30.1326 56.5397 31.5781 59.0602C34.4553 64.0832 39.8643 67.471 46.069 67.471C52.3122 67.471 57.7519 64.0402 60.6143 58.9635L60.5448 59.0853L75.1134 67.525C69.3776 77.451 58.699 84.1649 46.4424 84.2986L46.069 84.3007C33.6289 84.3007 22.7714 77.5244 16.9866 67.4608C14.1626 62.5479 12.5469 56.8524 12.5469 50.7786C12.5469 32.2654 27.5548 17.2568 46.0687 17.2568L46.069 17.2571Z" fill="white"/>
</svg>
