<svg width="16" height="17" viewBox="0 0 16 17" fill="none" xmlns="http://www.w3.org/2000/svg">
<g clip-path="url(#clip0_1707_20518)">
<path fill-rule="evenodd" clip-rule="evenodd" d="M0 8.19402C0 6.07454 0.826649 4.04188 2.29809 2.54318C3.76954 1.04449 5.76525 0.20253 7.84619 0.20253C9.92713 0.20253 11.9228 1.04449 13.3943 2.54318C14.8657 4.04188 15.6924 6.07454 15.6924 8.19402C15.6924 10.3135 14.8657 12.3462 13.3943 13.8449C11.9228 15.3435 9.92713 16.1855 7.84619 16.1855C5.76525 16.1855 3.76954 15.3435 2.29809 13.8449C0.826649 12.3462 0 10.3135 0 8.19402H0ZM7.39843 11.6144L11.9157 5.86263L11.0997 5.19774L7.24778 10.1003L4.5194 7.78485L3.84986 8.60318L7.39843 11.6154V11.6144Z" fill="#6F00FF"/>
</g>
<defs>
<clipPath id="clip0_1707_20518">
<rect width="15.6924" height="15.983" fill="white" transform="translate(0 0.20253)"/>
</clipPath>
</defs>
</svg>
