<svg width="996" height="168" viewBox="0 0 996 168" fill="none" xmlns="http://www.w3.org/2000/svg">
<path d="M465.911 88.4935C464.311 88.4935 462.821 88.2335 461.441 87.7135C460.081 87.1735 458.891 86.4235 457.871 85.4635C456.871 84.4835 456.091 83.3335 455.531 82.0135C454.971 80.6935 454.691 79.2535 454.691 77.6935C454.691 76.1335 454.971 74.6935 455.531 73.3735C456.091 72.0535 456.881 70.9135 457.901 69.9535C458.921 68.9735 460.111 68.2235 461.471 67.7035C462.831 67.1635 464.321 66.8935 465.941 66.8935C467.661 66.8935 469.231 67.1935 470.651 67.7935C472.071 68.3735 473.271 69.2435 474.251 70.4035L471.731 72.7735C470.971 71.9535 470.121 71.3435 469.181 70.9435C468.241 70.5235 467.221 70.3135 466.121 70.3135C465.021 70.3135 464.011 70.4935 463.091 70.8535C462.191 71.2135 461.401 71.7235 460.721 72.3835C460.061 73.0435 459.541 73.8235 459.161 74.7235C458.801 75.6235 458.621 76.6135 458.621 77.6935C458.621 78.7735 458.801 79.7635 459.161 80.6635C459.541 81.5635 460.061 82.3435 460.721 83.0035C461.401 83.6635 462.191 84.1735 463.091 84.5335C464.011 84.8935 465.021 85.0735 466.121 85.0735C467.221 85.0735 468.241 84.8735 469.181 84.4735C470.121 84.0535 470.971 83.4235 471.731 82.5835L474.251 84.9835C473.271 86.1235 472.071 86.9935 470.651 87.5935C469.231 88.1935 467.651 88.4935 465.911 88.4935ZM487.389 88.4935C485.749 88.4935 484.239 88.2235 482.859 87.6835C481.479 87.1435 480.279 86.3935 479.259 85.4335C478.239 84.4535 477.449 83.3135 476.889 82.0135C476.329 80.6935 476.049 79.2535 476.049 77.6935C476.049 76.1335 476.329 74.7035 476.889 73.4035C477.449 72.0835 478.239 70.9435 479.259 69.9835C480.279 69.0035 481.479 68.2435 482.859 67.7035C484.239 67.1635 485.739 66.8935 487.359 66.8935C488.999 66.8935 490.499 67.1635 491.859 67.7035C493.239 68.2435 494.439 69.0035 495.459 69.9835C496.479 70.9435 497.269 72.0835 497.829 73.4035C498.389 74.7035 498.669 76.1335 498.669 77.6935C498.669 79.2535 498.389 80.6935 497.829 82.0135C497.269 83.3335 496.479 84.4735 495.459 85.4335C494.439 86.3935 493.239 87.1435 491.859 87.6835C490.499 88.2235 489.009 88.4935 487.389 88.4935ZM487.359 85.0735C488.419 85.0735 489.399 84.8935 490.299 84.5335C491.199 84.1735 491.979 83.6635 492.639 83.0035C493.299 82.3235 493.809 81.5435 494.169 80.6635C494.549 79.7635 494.739 78.7735 494.739 77.6935C494.739 76.6135 494.549 75.6335 494.169 74.7535C493.809 73.8535 493.299 73.0735 492.639 72.4135C491.979 71.7335 491.199 71.2135 490.299 70.8535C489.399 70.4935 488.419 70.3135 487.359 70.3135C486.299 70.3135 485.319 70.4935 484.419 70.8535C483.539 71.2135 482.759 71.7335 482.079 72.4135C481.419 73.0735 480.899 73.8535 480.519 74.7535C480.159 75.6335 479.979 76.6135 479.979 77.6935C479.979 78.7535 480.159 79.7335 480.519 80.6335C480.899 81.5335 481.419 82.3235 482.079 83.0035C482.739 83.6635 483.519 84.1735 484.419 84.5335C485.319 84.8935 486.299 85.0735 487.359 85.0735ZM502.802 88.1935V67.1935H506.012L515.192 82.5235H513.512L522.542 67.1935H525.752L525.782 88.1935H522.092L522.062 72.9835H522.842L515.162 85.7935H513.422L505.622 72.9835H506.522V88.1935H502.802ZM531.455 88.1935V67.1935H535.355V88.1935H531.455ZM541.035 88.1935V67.1935H544.245L557.415 83.3635H555.825V67.1935H559.695V88.1935H556.485L543.315 72.0235H544.905V88.1935H541.035ZM575.132 88.4935C573.492 88.4935 571.982 88.2335 570.602 87.7135C569.242 87.1735 568.052 86.4235 567.032 85.4635C566.012 84.4835 565.222 83.3335 564.662 82.0135C564.102 80.6935 563.822 79.2535 563.822 77.6935C563.822 76.1335 564.102 74.6935 564.662 73.3735C565.222 72.0535 566.012 70.9135 567.032 69.9535C568.072 68.9735 569.282 68.2235 570.662 67.7035C572.042 67.1635 573.552 66.8935 575.192 66.8935C576.972 66.8935 578.572 67.1835 579.992 67.7635C581.432 68.3435 582.642 69.1935 583.622 70.3135L581.162 72.7135C580.342 71.8935 579.452 71.2935 578.492 70.9135C577.552 70.5135 576.512 70.3135 575.372 70.3135C574.272 70.3135 573.252 70.4935 572.312 70.8535C571.372 71.2135 570.562 71.7235 569.882 72.3835C569.202 73.0435 568.672 73.8235 568.292 74.7235C567.932 75.6235 567.752 76.6135 567.752 77.6935C567.752 78.7535 567.932 79.7335 568.292 80.6335C568.672 81.5335 569.202 82.3235 569.882 83.0035C570.562 83.6635 571.362 84.1735 572.282 84.5335C573.202 84.8935 574.222 85.0735 575.342 85.0735C576.382 85.0735 577.382 84.9135 578.342 84.5935C579.322 84.2535 580.252 83.6935 581.132 82.9135L583.352 85.8235C582.252 86.7035 580.972 87.3735 579.512 87.8335C578.072 88.2735 576.612 88.4935 575.132 88.4935ZM579.662 85.3135V77.4535H583.352V85.8235L579.662 85.3135ZM603.297 88.4935C601.657 88.4935 600.087 88.2635 598.587 87.8035C597.087 87.3235 595.897 86.7135 595.017 85.9735L596.367 82.9435C597.207 83.6035 598.247 84.1535 599.487 84.5935C600.727 85.0335 601.997 85.2535 603.297 85.2535C604.397 85.2535 605.287 85.1335 605.967 84.8935C606.647 84.6535 607.147 84.3335 607.467 83.9335C607.787 83.5135 607.947 83.0435 607.947 82.5235C607.947 81.8835 607.717 81.3735 607.257 80.9935C606.797 80.5935 606.197 80.2835 605.457 80.0635C604.737 79.8235 603.927 79.6035 603.027 79.4035C602.147 79.2035 601.257 78.9735 600.357 78.7135C599.477 78.4335 598.667 78.0835 597.927 77.6635C597.207 77.2235 596.617 76.6435 596.157 75.9235C595.697 75.2035 595.467 74.2835 595.467 73.1635C595.467 72.0235 595.767 70.9835 596.367 70.0435C596.987 69.0835 597.917 68.3235 599.157 67.7635C600.417 67.1835 602.007 66.8935 603.927 66.8935C605.187 66.8935 606.437 67.0535 607.677 67.3735C608.917 67.6935 609.997 68.1535 610.917 68.7535L609.687 71.7835C608.747 71.2235 607.777 70.8135 606.777 70.5535C605.777 70.2735 604.817 70.1335 603.897 70.1335C602.817 70.1335 601.937 70.2635 601.257 70.5235C600.597 70.7835 600.107 71.1235 599.787 71.5435C599.487 71.9635 599.337 72.4435 599.337 72.9835C599.337 73.6235 599.557 74.1435 599.997 74.5435C600.457 74.9235 601.047 75.2235 601.767 75.4435C602.507 75.6635 603.327 75.8835 604.227 76.1035C605.127 76.3035 606.017 76.5335 606.897 76.7935C607.797 77.0535 608.607 77.3935 609.327 77.8135C610.067 78.2335 610.657 78.8035 611.097 79.5235C611.557 80.2435 611.787 81.1535 611.787 82.2535C611.787 83.3735 611.477 84.4135 610.857 85.3735C610.257 86.3135 609.327 87.0735 608.067 87.6535C606.807 88.2135 605.217 88.4935 603.297 88.4935ZM625.494 88.4935C623.854 88.4935 622.344 88.2235 620.964 87.6835C619.584 87.1435 618.384 86.3935 617.364 85.4335C616.344 84.4535 615.554 83.3135 614.994 82.0135C614.434 80.6935 614.154 79.2535 614.154 77.6935C614.154 76.1335 614.434 74.7035 614.994 73.4035C615.554 72.0835 616.344 70.9435 617.364 69.9835C618.384 69.0035 619.584 68.2435 620.964 67.7035C622.344 67.1635 623.844 66.8935 625.464 66.8935C627.104 66.8935 628.604 67.1635 629.964 67.7035C631.344 68.2435 632.544 69.0035 633.564 69.9835C634.584 70.9435 635.374 72.0835 635.934 73.4035C636.494 74.7035 636.774 76.1335 636.774 77.6935C636.774 79.2535 636.494 80.6935 635.934 82.0135C635.374 83.3335 634.584 84.4735 633.564 85.4335C632.544 86.3935 631.344 87.1435 629.964 87.6835C628.604 88.2235 627.114 88.4935 625.494 88.4935ZM625.464 85.0735C626.524 85.0735 627.504 84.8935 628.404 84.5335C629.304 84.1735 630.084 83.6635 630.744 83.0035C631.404 82.3235 631.914 81.5435 632.274 80.6635C632.654 79.7635 632.844 78.7735 632.844 77.6935C632.844 76.6135 632.654 75.6335 632.274 74.7535C631.914 73.8535 631.404 73.0735 630.744 72.4135C630.084 71.7335 629.304 71.2135 628.404 70.8535C627.504 70.4935 626.524 70.3135 625.464 70.3135C624.404 70.3135 623.424 70.4935 622.524 70.8535C621.644 71.2135 620.864 71.7335 620.184 72.4135C619.524 73.0735 619.004 73.8535 618.624 74.7535C618.264 75.6335 618.084 76.6135 618.084 77.6935C618.084 78.7535 618.264 79.7335 618.624 80.6335C619.004 81.5335 619.524 82.3235 620.184 83.0035C620.844 83.6635 621.624 84.1735 622.524 84.5335C623.424 84.8935 624.404 85.0735 625.464 85.0735ZM650.748 88.4935C649.108 88.4935 647.598 88.2235 646.218 87.6835C644.838 87.1435 643.638 86.3935 642.618 85.4335C641.598 84.4535 640.808 83.3135 640.248 82.0135C639.688 80.6935 639.408 79.2535 639.408 77.6935C639.408 76.1335 639.688 74.7035 640.248 73.4035C640.808 72.0835 641.598 70.9435 642.618 69.9835C643.638 69.0035 644.838 68.2435 646.218 67.7035C647.598 67.1635 649.098 66.8935 650.718 66.8935C652.358 66.8935 653.858 67.1635 655.218 67.7035C656.598 68.2435 657.798 69.0035 658.818 69.9835C659.838 70.9435 660.628 72.0835 661.188 73.4035C661.748 74.7035 662.028 76.1335 662.028 77.6935C662.028 79.2535 661.748 80.6935 661.188 82.0135C660.628 83.3335 659.838 84.4735 658.818 85.4335C657.798 86.3935 656.598 87.1435 655.218 87.6835C653.858 88.2235 652.368 88.4935 650.748 88.4935ZM650.718 85.0735C651.778 85.0735 652.758 84.8935 653.658 84.5335C654.558 84.1735 655.338 83.6635 655.998 83.0035C656.658 82.3235 657.168 81.5435 657.528 80.6635C657.908 79.7635 658.098 78.7735 658.098 77.6935C658.098 76.6135 657.908 75.6335 657.528 74.7535C657.168 73.8535 656.658 73.0735 655.998 72.4135C655.338 71.7335 654.558 71.2135 653.658 70.8535C652.758 70.4935 651.778 70.3135 650.718 70.3135C649.658 70.3135 648.678 70.4935 647.778 70.8535C646.898 71.2135 646.118 71.7335 645.438 72.4135C644.778 73.0735 644.258 73.8535 643.878 74.7535C643.518 75.6335 643.338 76.6135 643.338 77.6935C643.338 78.7535 643.518 79.7335 643.878 80.6335C644.258 81.5335 644.778 82.3235 645.438 83.0035C646.098 83.6635 646.878 84.1735 647.778 84.5335C648.678 84.8935 649.658 85.0735 650.718 85.0735ZM666.162 88.1935V67.1935H669.372L682.542 83.3635H680.952V67.1935H684.822V88.1935H681.612L668.442 72.0235H670.032V88.1935H666.162Z" fill="#EE3248"/>
<path d="M358.427 95.0909C380.214 44.5631 716.321 5.47157 741.892 43.7801C782.19 104.152 480.59 154.556 431.846 141.468C430.041 140.983 436.043 139.322 437.455 139.384C561.02 144.817 767.16 88.0716 736.33 45.809C705.848 14.9266 354.897 53.5944 367.113 101.696C375.156 133.367 534.793 134.671 641.492 104.692C644.873 104.469 642.783 106.661 639.3 107.697C524.871 139.796 344.482 142.015 358.427 95.0909Z" fill="#6F00FF"/>
</svg>
