<svg width="32" height="32" viewBox="0 0 32 32" fill="none" xmlns="http://www.w3.org/2000/svg">
<rect width="32" height="32" rx="16" fill="#FFE2E2"/>
<path d="M22 10H10C9.44772 10 9 10.4477 9 11V19C9 19.5523 9.44772 20 10 20H22C22.5523 20 23 19.5523 23 19V11C23 10.4477 22.5523 10 22 10Z" stroke="black" stroke-width="1.5" stroke-linejoin="round"/>
<path d="M17.5 22L17.25 20H14.75L14.5 22H17.5Z" fill="black" stroke="black" stroke-width="1.5" stroke-linecap="round" stroke-linejoin="round"/>
<path d="M19.5 22H12.5" stroke="black" stroke-width="1.5" stroke-linecap="round" stroke-linejoin="round"/>
<path d="M9 17.5V19C9.00074 19.265 9.10634 19.5189 9.29371 19.7063C9.48109 19.8937 9.73501 19.9993 10 20H22C22.265 19.9993 22.5189 19.8937 22.7063 19.7063C22.8937 19.5189 22.9993 19.265 23 19V17.5H9ZM16 19.5C15.9011 19.5 15.8044 19.4707 15.7222 19.4157C15.64 19.3608 15.5759 19.2827 15.5381 19.1913C15.5002 19.1 15.4903 18.9994 15.5096 18.9025C15.5289 18.8055 15.5765 18.7164 15.6464 18.6464C15.7164 18.5765 15.8055 18.5289 15.9025 18.5096C15.9994 18.4903 16.1 18.5002 16.1913 18.5381C16.2827 18.5759 16.3608 18.64 16.4157 18.7222C16.4707 18.8044 16.5 18.9011 16.5 19C16.5 19.1326 16.4473 19.2598 16.3536 19.3536C16.2598 19.4473 16.1326 19.5 16 19.5Z" fill="black"/>
</svg>
