<svg width="96" height="86" viewBox="0 0 96 86" fill="none" xmlns="http://www.w3.org/2000/svg">
<rect y="0.284668" width="95.9999" height="85" rx="30" fill="white"/>
<g clip-path="url(#clip0_3025_15490)">
<path d="M37.3522 29.653C37.3516 30.6455 36.9058 31.5971 36.1128 32.2985C35.3198 33 34.2446 33.3938 33.1237 33.3933C32.0028 33.3928 30.928 32.998 30.1358 32.2959C29.3436 31.5938 28.8989 30.6418 28.8994 29.6493C28.9 28.6568 29.3458 27.7052 30.1388 27.0038C30.9318 26.3023 32.007 25.9086 33.1279 25.9091C34.2488 25.9096 35.3236 26.3043 36.1158 27.0064C36.908 27.7085 37.3527 28.6606 37.3522 29.653ZM37.4789 36.1643H29.0262V59.5898H37.4789V36.1643ZM50.8343 36.1643H42.4238V59.5898H50.7497V47.297C50.7497 40.449 60.8296 39.8128 60.8296 47.297V59.5898H69.1767V44.7524C69.1767 33.208 54.2576 33.6384 50.7497 39.3077L50.8343 36.1643Z" fill="#6F00FF"/>
</g>
<defs>
<clipPath id="clip0_3025_15490">
<rect width="42.3529" height="37.5" fill="white" transform="translate(26.8237 24.0347)"/>
</clipPath>
</defs>
</svg>
