<svg width="96" height="88" viewBox="0 0 96 88" fill="none" xmlns="http://www.w3.org/2000/svg">
<rect y="0.284668" width="95.9999" height="87" rx="30" fill="white"/>
<g clip-path="url(#clip0_1741_13770)">
<path d="M50.6906 44C50.6906 50.5231 45.3881 55.8125 38.844 55.8125C37.2907 55.8146 35.7522 55.5107 34.3163 54.9182C32.8805 54.3256 31.5754 53.4561 30.4755 52.3592C29.3757 51.2623 28.5027 49.9596 27.9064 48.5253C27.3101 47.091 27.0021 45.5533 27 44C27 37.4742 32.3025 32.1875 38.844 32.1875C40.3975 32.1851 41.9363 32.4887 43.3725 33.0811C44.8086 33.6734 46.1141 34.5429 47.2141 35.6398C48.3142 36.7368 49.1875 38.0397 49.784 39.4741C50.3805 40.9086 50.6886 42.4465 50.6906 44ZM63.6844 44C63.6844 50.1425 61.0331 55.1195 57.7624 55.1195C54.4916 55.1195 51.8404 50.1399 51.8404 44C51.8404 37.8575 54.4916 32.8805 57.7624 32.8805C61.0331 32.8805 63.6844 37.8601 63.6844 44ZM69 44C69 49.502 68.0681 53.9619 66.9158 53.9619C65.766 53.9619 64.8341 49.4994 64.8341 44C64.8341 38.498 65.766 34.0381 66.9184 34.0381C68.0681 34.0381 69 38.498 69 44Z" fill="#6F00FF"/>
</g>
<defs>
<clipPath id="clip0_1741_13770">
<rect width="42" height="42" fill="white" transform="translate(27 23)"/>
</clipPath>
</defs>
</svg>
