<svg width="1567" height="227" viewBox="0 0 1567 227" fill="none" xmlns="http://www.w3.org/2000/svg">
<mask id="path-1-outside-1_1669_20219" maskUnits="userSpaceOnUse" x="-1" y="-1" width="1569" height="229" fill="black">
<rect fill="white" x="-1" y="-1" width="1569" height="229"/>
<path d="M118.704 226.752C101.818 226.752 86.0798 224.042 71.4877 218.622C57.104 212.994 44.5965 205.073 33.9651 194.858C23.3337 184.644 14.9954 172.657 8.95009 158.899C3.11325 145.141 0.194829 130.027 0.194829 113.559C0.194829 97.091 3.11325 81.9777 8.95009 68.2195C14.9954 54.4612 23.3337 42.4748 33.9651 32.2604C44.805 22.0459 57.4167 14.2287 71.8004 8.80875C86.184 3.18038 101.923 0.366192 119.016 0.366192C137.986 0.366192 155.08 3.70153 170.297 10.3722C185.723 16.8344 198.647 26.4235 209.07 39.1395L176.551 69.1575C169.046 60.6107 160.708 54.2527 151.536 50.0836C142.364 45.7059 132.358 43.5171 121.518 43.5171C111.303 43.5171 101.923 45.1848 93.3758 48.5201C84.829 51.8555 77.4287 56.65 71.175 62.9038C64.9212 69.1575 60.0225 76.5578 56.4787 85.1046C53.1433 93.6514 51.4757 103.136 51.4757 113.559C51.4757 123.982 53.1433 133.467 56.4787 142.014C60.0225 150.561 64.9212 157.961 71.175 164.215C77.4287 170.468 84.829 175.263 93.3758 178.598C101.923 181.934 111.303 183.601 121.518 183.601C132.358 183.601 142.364 181.517 151.536 177.348C160.708 172.97 169.046 166.403 176.551 157.648L209.07 187.666C198.647 200.382 185.723 210.076 170.297 216.746C155.08 223.417 137.882 226.752 118.704 226.752ZM345.011 226.752C327.709 226.752 311.658 223.938 296.858 218.31C282.265 212.681 269.549 204.76 258.71 194.545C248.078 184.331 239.74 172.345 233.695 158.586C227.858 144.828 224.939 129.819 224.939 113.559C224.939 97.2994 227.858 82.2904 233.695 68.5322C239.74 54.7739 248.182 42.7875 259.022 32.573C269.862 22.3586 282.578 14.4371 297.17 8.80875C311.762 3.18038 327.605 0.366192 344.699 0.366192C362.001 0.366192 377.844 3.18038 392.227 8.80875C406.819 14.4371 419.431 22.3586 430.063 32.573C440.902 42.7875 449.345 54.7739 455.39 68.5322C461.436 82.082 464.458 97.091 464.458 113.559C464.458 129.819 461.436 144.932 455.39 158.899C449.345 172.657 440.902 184.644 430.063 194.858C419.431 204.864 406.819 212.681 392.227 218.31C377.844 223.938 362.105 226.752 345.011 226.752ZM344.699 183.601C354.496 183.601 363.46 181.934 371.59 178.598C379.928 175.263 387.224 170.468 393.478 164.215C399.732 157.961 404.526 150.561 407.862 142.014C411.406 133.467 413.177 123.982 413.177 113.559C413.177 103.136 411.406 93.6514 407.862 85.1046C404.526 76.5578 399.732 69.1575 393.478 62.9038C387.433 56.65 380.241 51.8555 371.903 48.5201C363.564 45.1848 354.496 43.5171 344.699 43.5171C334.901 43.5171 325.833 45.1848 317.495 48.5201C309.365 51.8555 302.173 56.65 295.919 62.9038C289.666 69.1575 284.767 76.5578 281.223 85.1046C277.888 93.6514 276.22 103.136 276.22 113.559C276.22 123.774 277.888 133.259 281.223 142.014C284.767 150.561 289.561 157.961 295.607 164.215C301.861 170.468 309.157 175.263 317.495 178.598C325.833 181.934 334.901 183.601 344.699 183.601ZM502.528 223V4.11844H544.428L673.568 161.713H653.244V4.11844H703.274V223H661.686L532.233 65.4053H552.558V223H502.528ZM800.4 223V45.3933H730.358V4.11844H921.097V45.3933H851.055V223H800.4ZM908.592 223L1006.15 4.11844H1056.18L1154.05 223H1100.9L1020.85 29.7589H1040.86L960.499 223H908.592ZM957.372 176.097L970.817 137.636H1083.38L1097.14 176.097H957.372ZM1278.46 226.752C1261.57 226.752 1245.83 224.042 1231.24 218.622C1216.86 212.994 1204.35 205.073 1193.72 194.858C1183.09 184.644 1174.75 172.657 1168.7 158.899C1162.87 145.141 1159.95 130.027 1159.95 113.559C1159.95 97.091 1162.87 81.9777 1168.7 68.2195C1174.75 54.4612 1183.09 42.4748 1193.72 32.2604C1204.56 22.0459 1217.17 14.2287 1231.56 8.80875C1245.94 3.18038 1261.68 0.366192 1278.77 0.366192C1297.74 0.366192 1314.83 3.70153 1330.05 10.3722C1345.48 16.8344 1358.4 26.4235 1368.83 39.1395L1336.31 69.1575C1328.8 60.6107 1320.46 54.2527 1311.29 50.0836C1302.12 45.7059 1292.11 43.5171 1281.27 43.5171C1271.06 43.5171 1261.68 45.1848 1253.13 48.5201C1244.58 51.8555 1237.18 56.65 1230.93 62.9038C1224.68 69.1575 1219.78 76.5578 1216.23 85.1046C1212.9 93.6514 1211.23 103.136 1211.23 113.559C1211.23 123.982 1212.9 133.467 1216.23 142.014C1219.78 150.561 1224.68 157.961 1230.93 164.215C1237.18 170.468 1244.58 175.263 1253.13 178.598C1261.68 181.934 1271.06 183.601 1281.27 183.601C1292.11 183.601 1302.12 181.517 1311.29 177.348C1320.46 172.97 1328.8 166.403 1336.31 157.648L1368.83 187.666C1358.4 200.382 1345.48 210.076 1330.05 216.746C1314.83 223.417 1297.64 226.752 1278.46 226.752ZM1446.23 223V45.3933H1376.19V4.11844H1566.93V45.3933H1496.89V223H1446.23Z"/>
</mask>
<path d="M71.4877 218.622L71.1233 219.554L71.1314 219.557L71.1395 219.56L71.4877 218.622ZM33.9651 194.858L33.2723 195.579L33.9651 194.858ZM8.95009 158.899L8.02943 159.29L8.03457 159.301L8.95009 158.899ZM8.95009 68.2195L8.0345 67.8172L8.02951 67.8289L8.95009 68.2195ZM33.9651 32.2604L33.2793 31.5325L33.2723 31.5393L33.9651 32.2604ZM71.8004 8.80875L72.153 9.7446L72.1648 9.73999L71.8004 8.80875ZM170.297 10.3722L169.896 11.2881L169.903 11.2914L169.911 11.2945L170.297 10.3722ZM209.07 39.1395L209.749 39.8743L210.441 39.2348L209.844 38.5056L209.07 39.1395ZM176.551 69.1575L175.799 69.8173L176.476 70.5877L177.229 69.8923L176.551 69.1575ZM151.536 50.0836L151.105 50.9861L151.113 50.9901L151.122 50.9939L151.536 50.0836ZM71.175 62.9038L71.8821 63.6109L71.175 62.9038ZM56.4787 85.1046L55.5549 84.7216L55.5509 84.7313L55.5471 84.7411L56.4787 85.1046ZM56.4787 142.014L55.5471 142.377L55.5509 142.387L55.5549 142.397L56.4787 142.014ZM71.175 164.215L70.4679 164.922L71.175 164.215ZM151.536 177.348L151.95 178.258L151.958 178.254L151.967 178.25L151.536 177.348ZM176.551 157.648L177.229 156.913L176.467 156.21L175.792 156.997L176.551 157.648ZM209.07 187.666L209.844 188.3L210.441 187.571L209.749 186.931L209.07 187.666ZM170.297 216.746L169.9 215.828L169.896 215.83L170.297 216.746ZM118.704 225.752C101.927 225.752 86.3075 223.06 71.8359 217.685L71.1395 219.56C85.8521 225.024 101.71 227.752 118.704 227.752V225.752ZM71.8521 217.691C57.5847 212.108 45.1902 204.256 34.658 194.137L33.2723 195.579C44.0028 205.889 56.6234 213.88 71.1233 219.554L71.8521 217.691ZM34.658 194.137C24.1228 184.015 15.8593 172.138 9.86561 158.497L8.03457 159.301C14.1315 173.177 22.5447 185.272 33.2723 195.579L34.658 194.137ZM9.87067 158.508C4.09135 144.886 1.19483 129.907 1.19483 113.559H-0.805171C-0.805171 130.148 2.13515 145.396 8.02951 159.29L9.87067 158.508ZM1.19483 113.559C1.19483 97.2114 4.09135 82.2327 9.87067 68.61L8.02951 67.8289C2.13515 81.7228 -0.805171 96.9705 -0.805171 113.559H1.19483ZM9.86561 68.6217C15.8593 54.9809 24.1228 43.1035 34.658 32.9815L33.2723 31.5393C22.5447 41.8462 14.1315 53.9415 8.03457 67.8172L9.86561 68.6217ZM34.6509 32.9882C45.3915 22.8673 57.889 15.1194 72.153 9.74452L71.4478 7.87298C56.9444 13.338 44.2185 21.2245 33.2793 31.5326L34.6509 32.9882ZM72.1648 9.73999C86.4205 4.16167 102.034 1.3662 119.016 1.3662V-0.633804C101.811 -0.633804 85.9475 2.1991 71.436 7.87751L72.1648 9.73999ZM119.016 1.3662C137.867 1.3662 154.821 4.68021 169.896 11.2881L170.699 9.45634C155.338 2.72285 138.105 -0.633804 119.016 -0.633804V1.3662ZM169.911 11.2945C185.189 17.6948 197.979 27.186 208.297 39.7734L209.844 38.5056C199.315 25.661 186.257 15.974 170.683 9.44987L169.911 11.2945ZM208.392 38.4047L175.873 68.4227L177.229 69.8923L209.749 39.8743L208.392 38.4047ZM177.302 68.4977C169.716 59.8582 161.266 53.4081 151.95 49.1732L151.122 50.9939C160.149 55.0973 168.376 61.3633 175.799 69.8173L177.302 68.4977ZM151.967 49.1811C142.651 44.735 132.497 42.5171 121.518 42.5171V44.5171C132.219 44.5171 142.076 46.6768 151.105 50.9861L151.967 49.1811ZM121.518 42.5171C111.193 42.5171 101.687 44.2032 93.0123 47.5885L93.7394 49.4517C102.158 46.1664 111.414 44.5171 121.518 44.5171V42.5171ZM93.0123 47.5885C84.3416 50.9722 76.8231 55.8415 70.4679 62.1967L71.8821 63.6109C78.0344 57.4586 85.3165 52.7387 93.7394 49.4517L93.0123 47.5885ZM70.4679 62.1967C64.1171 68.5475 59.1466 76.0593 55.5549 84.7216L57.4024 85.4876C60.8983 77.0563 65.7254 69.7676 71.8821 63.6109L70.4679 62.1967ZM55.5471 84.7411C52.1608 93.4184 50.4757 103.029 50.4757 113.559H52.4757C52.4757 103.244 54.1258 93.8844 57.4102 85.4682L55.5471 84.7411ZM50.4757 113.559C50.4757 124.09 52.1608 133.7 55.5471 142.377L57.4102 141.65C54.1258 133.234 52.4757 123.875 52.4757 113.559H50.4757ZM55.5549 142.397C59.1466 151.059 64.1171 158.571 70.4679 164.922L71.8821 163.508C65.7254 157.351 60.8983 150.062 57.4024 141.631L55.5549 142.397ZM70.4679 164.922C76.8231 171.277 84.3416 176.146 93.0123 179.53L93.7394 177.667C85.3165 174.38 78.0344 169.66 71.8821 163.508L70.4679 164.922ZM93.0123 179.53C101.687 182.915 111.193 184.601 121.518 184.601V182.601C111.414 182.601 102.158 180.952 93.7394 177.667L93.0123 179.53ZM121.518 184.601C132.489 184.601 142.638 182.491 151.95 178.258L151.122 176.437C142.089 180.543 132.226 182.601 121.518 182.601V184.601ZM151.967 178.25C161.28 173.805 169.727 167.146 177.31 158.299L175.792 156.997C168.366 165.661 160.135 172.135 151.105 176.445L151.967 178.25ZM175.873 158.383L208.392 188.401L209.749 186.931L177.229 156.913L175.873 158.383ZM208.297 187.032C197.977 199.622 185.183 209.22 169.9 215.828L170.694 217.664C186.263 210.932 199.317 201.142 209.844 188.3L208.297 187.032ZM169.896 215.83C154.823 222.438 137.765 225.752 118.704 225.752V227.752C137.999 227.752 155.336 224.396 170.699 217.662L169.896 215.83ZM296.858 218.31L296.498 219.243L296.502 219.244L296.858 218.31ZM258.71 194.545L258.017 195.267L258.024 195.273L258.71 194.545ZM233.695 158.586L232.774 158.977L232.779 158.989L233.695 158.586ZM233.695 68.5322L232.779 68.1299L232.774 68.1416L233.695 68.5322ZM297.17 8.80875L296.81 7.87575L297.17 8.80875ZM392.227 8.80875L391.863 9.74001L391.867 9.74175L392.227 8.80875ZM430.063 32.573L429.37 33.2942L429.377 33.3008L430.063 32.573ZM455.39 68.5322L454.475 68.9344L454.477 68.9396L455.39 68.5322ZM455.39 158.899L456.306 159.301L456.308 159.296L455.39 158.899ZM430.063 194.858L430.748 195.586L430.748 195.586L430.063 194.858ZM392.227 218.31L391.867 217.377L391.863 217.378L392.227 218.31ZM371.59 178.598L371.219 177.67L371.21 177.673L371.59 178.598ZM393.478 164.215L392.771 163.508L393.478 164.215ZM407.862 142.014L406.938 141.631L406.934 141.641L406.93 141.65L407.862 142.014ZM407.862 85.1046L406.93 85.4682L406.934 85.4779L406.938 85.4876L407.862 85.1046ZM393.478 62.9038L392.759 63.5988L392.765 63.6049L392.771 63.6109L393.478 62.9038ZM371.903 48.5201L371.531 49.4486L371.903 48.5201ZM317.495 48.5201L317.124 47.5916L317.115 47.595L317.495 48.5201ZM295.919 62.9038L296.627 63.6109L295.919 62.9038ZM281.223 85.1046L280.299 84.7216L280.295 84.7313L280.292 84.7411L281.223 85.1046ZM281.223 142.014L280.289 142.37L280.294 142.383L280.299 142.397L281.223 142.014ZM295.607 164.215L294.888 164.91L294.894 164.916L294.9 164.922L295.607 164.215ZM317.495 178.598L317.124 179.527L317.495 178.598ZM345.011 225.752C327.82 225.752 311.89 222.956 297.213 217.375L296.502 219.244C311.426 224.92 327.599 227.752 345.011 227.752V225.752ZM297.217 217.377C282.74 211.793 270.136 203.939 259.395 193.818L258.024 195.273C268.963 205.581 281.791 213.57 296.498 219.243L297.217 217.377ZM259.402 193.824C248.867 183.702 240.604 171.825 234.61 158.184L232.779 158.989C238.876 172.864 247.289 184.96 258.017 195.267L259.402 193.824ZM234.615 158.196C228.835 144.572 225.939 129.697 225.939 113.559H223.939C223.939 129.941 226.88 145.085 232.774 158.977L234.615 158.196ZM225.939 113.559C225.939 97.4217 228.835 82.5469 234.615 68.9227L232.774 68.1416C226.88 82.0339 223.939 97.1772 223.939 113.559H225.939ZM234.61 68.9344C240.602 55.2979 248.967 43.4225 259.708 33.3008L258.336 31.8453C247.398 42.1526 238.878 54.2499 232.779 68.1299L234.61 68.9344ZM259.708 33.3008C270.449 23.1796 283.053 15.3259 297.53 9.74175L296.81 7.87575C282.103 13.5484 269.275 21.5375 258.336 31.8453L259.708 33.3008ZM297.53 9.74175C311.997 4.16161 327.717 1.3662 344.699 1.3662V-0.633804C327.494 -0.633804 311.527 2.19914 296.81 7.87575L297.53 9.74175ZM344.699 1.3662C361.891 1.3662 377.609 4.16219 391.863 9.73999L392.592 7.87751C378.079 2.19856 362.111 -0.633804 344.699 -0.633804V1.3662ZM391.867 9.74175C406.343 15.3253 418.84 23.1772 429.37 33.2942L430.755 31.8519C420.022 21.5399 407.296 13.549 392.587 7.87575L391.867 9.74175ZM429.377 33.3008C440.118 43.4225 448.483 55.2979 454.475 68.9344L456.306 68.1299C450.207 54.2499 441.687 42.1526 430.748 31.8453L429.377 33.3008ZM454.477 68.9396C460.459 82.3477 463.458 97.2159 463.458 113.559H465.458C465.458 96.9661 462.412 81.8162 456.304 68.1247L454.477 68.9396ZM463.458 113.559C463.458 129.692 460.46 144.669 454.473 158.502L456.308 159.296C462.411 145.196 465.458 129.946 465.458 113.559H463.458ZM454.475 158.497C448.483 172.133 440.118 184.009 429.377 194.13L430.748 195.586C441.687 185.279 450.207 173.181 456.306 159.301L454.475 158.497ZM429.377 194.13C418.847 204.041 406.348 211.792 391.867 217.377L392.587 219.243C407.291 213.571 420.016 205.687 430.748 195.586L429.377 194.13ZM391.863 217.378C377.607 222.957 361.994 225.752 345.011 225.752V227.752C362.216 227.752 378.08 224.919 392.592 219.241L391.863 217.378ZM344.699 184.601C354.612 184.601 363.706 182.914 371.969 179.523L371.21 177.673C363.214 180.954 354.381 182.601 344.699 182.601V184.601ZM371.961 179.527C380.423 176.142 387.834 171.273 394.185 164.922L392.771 163.508C386.614 169.664 379.433 174.384 371.219 177.67L371.961 179.527ZM394.185 164.922C400.54 158.567 405.41 151.048 408.793 142.377L406.93 141.65C403.643 150.073 398.923 157.355 392.771 163.508L394.185 164.922ZM408.785 142.397C412.386 133.714 414.177 124.097 414.177 113.559H412.177C412.177 123.867 410.425 133.22 406.938 141.631L408.785 142.397ZM414.177 113.559C414.177 103.021 412.386 93.4043 408.785 84.7216L406.938 85.4876C410.425 93.8986 412.177 103.251 412.177 113.559H414.177ZM408.793 84.7411C405.41 76.0704 400.54 68.5519 394.185 62.1967L392.771 63.6109C398.923 69.7632 403.643 77.0452 406.93 85.4682L408.793 84.7411ZM394.197 62.2088C388.05 55.8502 380.739 50.9776 372.274 47.5917L371.531 49.4486C379.743 52.7333 386.815 57.4498 392.759 63.5988L394.197 62.2088ZM372.274 47.5917C363.807 44.2049 354.612 42.5171 344.699 42.5171V44.5171C354.381 44.5171 363.321 46.1646 371.531 49.4486L372.274 47.5917ZM344.699 42.5171C334.786 42.5171 325.59 44.2049 317.124 47.5917L317.866 49.4486C326.076 46.1646 335.017 44.5171 344.699 44.5171V42.5171ZM317.115 47.595C308.862 50.9809 301.559 55.8499 295.212 62.1967L296.627 63.6109C302.787 57.4502 309.868 52.73 317.874 49.4453L317.115 47.595ZM295.212 62.1967C288.862 68.5475 283.891 76.0593 280.299 84.7216L282.147 85.4876C285.643 77.0563 290.47 69.7676 296.627 63.6109L295.212 62.1967ZM280.292 84.7411C276.905 93.4184 275.22 103.029 275.22 113.559H277.22C277.22 103.244 278.87 93.8844 282.155 85.4682L280.292 84.7411ZM275.22 113.559C275.22 123.884 276.906 133.491 280.289 142.37L282.158 141.658C278.869 133.026 277.22 123.663 277.22 113.559H275.22ZM280.299 142.397C283.888 151.052 288.75 158.56 294.888 164.91L296.326 163.52C290.373 157.362 285.646 150.069 282.147 141.631L280.299 142.397ZM294.9 164.922C301.251 171.273 308.661 176.142 317.124 179.527L317.866 177.67C309.652 174.384 302.47 169.664 296.314 163.508L294.9 164.922ZM317.124 179.527C325.59 182.914 334.786 184.601 344.699 184.601V182.601C335.017 182.601 326.076 180.954 317.866 177.67L317.124 179.527ZM502.528 223H501.528V224H502.528V223ZM502.528 4.11844V3.11844H501.528V4.11844H502.528ZM544.428 4.11844L545.202 3.48461L544.902 3.11844H544.428V4.11844ZM673.568 161.713V162.713H675.681L674.342 161.079L673.568 161.713ZM653.244 161.713H652.244V162.713H653.244V161.713ZM653.244 4.11844V3.11844H652.244V4.11844H653.244ZM703.274 4.11844H704.274V3.11844H703.274V4.11844ZM703.274 223V224H704.274V223H703.274ZM661.686 223L660.913 223.635L661.213 224H661.686V223ZM532.233 65.4053V64.4053H530.118L531.461 66.04L532.233 65.4053ZM552.558 65.4053H553.558V64.4053H552.558V65.4053ZM552.558 223V224H553.558V223H552.558ZM503.528 223V4.11844H501.528V223H503.528ZM502.528 5.11844H544.428V3.11844H502.528V5.11844ZM543.655 4.75226L672.795 162.347L674.342 161.079L545.202 3.48461L543.655 4.75226ZM673.568 160.713H653.244V162.713H673.568V160.713ZM654.244 161.713V4.11844H652.244V161.713H654.244ZM653.244 5.11844H703.274V3.11844H653.244V5.11844ZM702.274 4.11844V223H704.274V4.11844H702.274ZM703.274 222H661.686V224H703.274V222ZM662.459 222.365L533.006 64.7705L531.461 66.04L660.913 223.635L662.459 222.365ZM532.233 66.4053H552.558V64.4053H532.233V66.4053ZM551.558 65.4053V223H553.558V65.4053H551.558ZM552.558 222H502.528V224H552.558V222ZM800.4 223H799.4V224H800.4V223ZM800.4 45.3932H801.4V44.3932H800.4V45.3932ZM730.358 45.3932H729.358V46.3932H730.358V45.3932ZM730.358 4.11844V3.11844H729.358V4.11844H730.358ZM921.097 4.11844H922.097V3.11844H921.097V4.11844ZM921.097 45.3932V46.3932H922.097V45.3932H921.097ZM851.055 45.3932V44.3932H850.055V45.3932H851.055ZM851.055 223V224H852.055V223H851.055ZM801.4 223V45.3932H799.4V223H801.4ZM800.4 44.3932H730.358V46.3932H800.4V44.3932ZM731.358 45.3932V4.11844H729.358V45.3932H731.358ZM730.358 5.11844H921.097V3.11844H730.358V5.11844ZM920.097 4.11844V45.3932H922.097V4.11844H920.097ZM921.097 44.3932H851.055V46.3932H921.097V44.3932ZM850.055 45.3932V223H852.055V45.3932H850.055ZM851.055 222H800.4V224H851.055V222ZM908.592 223L907.679 222.593L907.052 224H908.592V223ZM1006.15 4.11844V3.11844H1005.5L1005.24 3.71133L1006.15 4.11844ZM1056.18 4.11844L1057.09 3.71024L1056.83 3.11844H1056.18V4.11844ZM1154.05 223V224H1155.59L1154.97 222.592L1154.05 223ZM1100.9 223L1099.97 223.383L1100.23 224H1100.9V223ZM1020.85 29.7589V28.7589H1019.35L1019.92 30.1416L1020.85 29.7589ZM1040.86 29.7589L1041.78 30.1428L1042.36 28.7589H1040.86V29.7589ZM960.499 223V224H961.166L961.422 223.384L960.499 223ZM957.372 176.097L956.428 175.767L955.963 177.097H957.372V176.097ZM970.817 137.636V136.636H970.107L969.873 137.306L970.817 137.636ZM1083.38 137.636L1084.33 137.299L1084.09 136.636H1083.38V137.636ZM1097.14 176.097V177.097H1098.56L1098.08 175.76L1097.14 176.097ZM909.506 223.407L1007.06 4.52554L1005.24 3.71133L907.679 222.593L909.506 223.407ZM1006.15 5.11844H1056.18V3.11844H1006.15V5.11844ZM1055.27 4.52663L1153.14 223.408L1154.97 222.592L1057.09 3.71024L1055.27 4.52663ZM1154.05 222H1100.9V224H1154.05V222ZM1101.82 222.617L1021.77 29.3761L1019.92 30.1416L1099.97 223.383L1101.82 222.617ZM1020.85 30.7589H1040.86V28.7589H1020.85V30.7589ZM1039.94 29.3749L959.575 222.616L961.422 223.384L1041.78 30.1428L1039.94 29.3749ZM960.499 222H908.592V224H960.499V222ZM958.316 176.427L971.761 137.966L969.873 137.306L956.428 175.767L958.316 176.427ZM970.817 138.636H1083.38V136.636H970.817V138.636ZM1082.44 137.973L1096.2 176.434L1098.08 175.76L1084.33 137.299L1082.44 137.973ZM1097.14 175.097H957.372V177.097H1097.14V175.097ZM1231.24 218.622L1230.88 219.554L1230.89 219.557L1230.89 219.56L1231.24 218.622ZM1193.72 194.858L1193.03 195.579L1193.72 194.858ZM1168.7 158.899L1167.78 159.29L1167.79 159.301L1168.7 158.899ZM1168.7 68.2195L1167.79 67.8172L1167.78 67.8289L1168.7 68.2195ZM1193.72 32.2604L1193.03 31.5325L1193.03 31.5393L1193.72 32.2604ZM1231.56 8.80875L1231.91 9.7446L1231.92 9.73999L1231.56 8.80875ZM1330.05 10.3722L1329.65 11.2881L1329.66 11.2914L1329.67 11.2945L1330.05 10.3722ZM1368.82 39.1395L1369.5 39.8743L1370.2 39.2348L1369.6 38.5056L1368.82 39.1395ZM1336.31 69.1575L1335.55 69.8173L1336.23 70.5877L1336.98 69.8923L1336.31 69.1575ZM1311.29 50.0836L1310.86 50.9861L1310.87 50.9901L1310.88 50.9939L1311.29 50.0836ZM1230.93 62.9038L1231.64 63.6109L1230.93 62.9038ZM1216.23 85.1046L1215.31 84.7216L1215.31 84.7313L1215.3 84.7411L1216.23 85.1046ZM1216.23 142.014L1215.3 142.377L1215.31 142.387L1215.31 142.397L1216.23 142.014ZM1230.93 164.215L1230.22 164.922L1230.93 164.215ZM1311.29 177.348L1311.7 178.258L1311.71 178.254L1311.72 178.25L1311.29 177.348ZM1336.31 157.648L1336.98 156.913L1336.22 156.21L1335.55 156.997L1336.31 157.648ZM1368.82 187.666L1369.6 188.3L1370.2 187.571L1369.5 186.931L1368.82 187.666ZM1330.05 216.746L1329.65 215.828L1329.65 215.83L1330.05 216.746ZM1278.46 225.752C1261.68 225.752 1246.06 223.06 1231.59 217.685L1230.89 219.56C1245.61 225.024 1261.46 227.752 1278.46 227.752V225.752ZM1231.61 217.691C1217.34 212.108 1204.94 204.256 1194.41 194.137L1193.03 195.579C1203.76 205.889 1216.38 213.88 1230.88 219.554L1231.61 217.691ZM1194.41 194.137C1183.88 184.015 1175.61 172.138 1169.62 158.497L1167.79 159.301C1173.89 173.177 1182.3 185.272 1193.03 195.579L1194.41 194.137ZM1169.63 158.508C1163.85 144.886 1160.95 129.907 1160.95 113.559H1158.95C1158.95 130.148 1161.89 145.396 1167.78 159.29L1169.63 158.508ZM1160.95 113.559C1160.95 97.2114 1163.85 82.2327 1169.63 68.61L1167.78 67.8289C1161.89 81.7228 1158.95 96.9705 1158.95 113.559H1160.95ZM1169.62 68.6217C1175.61 54.9809 1183.88 43.1035 1194.41 32.9815L1193.03 31.5393C1182.3 41.8462 1173.89 53.9415 1167.79 67.8172L1169.62 68.6217ZM1194.41 32.9882C1205.15 22.8673 1217.64 15.1194 1231.91 9.74452L1231.2 7.87298C1216.7 13.338 1203.97 21.2245 1193.03 31.5326L1194.41 32.9882ZM1231.92 9.73999C1246.18 4.16167 1261.79 1.3662 1278.77 1.3662V-0.633804C1261.57 -0.633804 1245.7 2.1991 1231.19 7.87751L1231.92 9.73999ZM1278.77 1.3662C1297.62 1.3662 1314.58 4.68021 1329.65 11.2881L1330.45 9.45634C1315.09 2.72285 1297.86 -0.633804 1278.77 -0.633804V1.3662ZM1329.67 11.2945C1344.94 17.6948 1357.73 27.186 1368.05 39.7734L1369.6 38.5056C1359.07 25.661 1346.01 15.974 1330.44 9.44987L1329.67 11.2945ZM1368.15 38.4047L1335.63 68.4227L1336.98 69.8923L1369.5 39.8743L1368.15 38.4047ZM1337.06 68.4977C1329.47 59.8582 1321.02 53.4081 1311.7 49.1732L1310.88 50.9939C1319.9 55.0973 1328.13 61.3633 1335.55 69.8173L1337.06 68.4977ZM1311.72 49.1811C1302.41 44.735 1292.25 42.5171 1281.27 42.5171V44.5171C1291.97 44.5171 1301.83 46.6768 1310.86 50.9861L1311.72 49.1811ZM1281.27 42.5171C1270.95 42.5171 1261.44 44.2032 1252.77 47.5885L1253.49 49.4517C1261.91 46.1664 1271.17 44.5171 1281.27 44.5171V42.5171ZM1252.77 47.5885C1244.1 50.9722 1236.58 55.8415 1230.22 62.1967L1231.64 63.6109C1237.79 57.4586 1245.07 52.7387 1253.49 49.4517L1252.77 47.5885ZM1230.22 62.1967C1223.87 68.5475 1218.9 76.0593 1215.31 84.7216L1217.16 85.4876C1220.65 77.0563 1225.48 69.7676 1231.64 63.6109L1230.22 62.1967ZM1215.3 84.7411C1211.92 93.4184 1210.23 103.029 1210.23 113.559H1212.23C1212.23 103.244 1213.88 93.8844 1217.16 85.4682L1215.3 84.7411ZM1210.23 113.559C1210.23 124.09 1211.92 133.7 1215.3 142.377L1217.16 141.65C1213.88 133.234 1212.23 123.875 1212.23 113.559H1210.23ZM1215.31 142.397C1218.9 151.059 1223.87 158.571 1230.22 164.922L1231.64 163.508C1225.48 157.351 1220.65 150.062 1217.16 141.631L1215.31 142.397ZM1230.22 164.922C1236.58 171.277 1244.1 176.146 1252.77 179.53L1253.49 177.667C1245.07 174.38 1237.79 169.66 1231.64 163.508L1230.22 164.922ZM1252.77 179.53C1261.44 182.915 1270.95 184.601 1281.27 184.601V182.601C1271.17 182.601 1261.91 180.952 1253.49 177.667L1252.77 179.53ZM1281.27 184.601C1292.24 184.601 1302.39 182.491 1311.7 178.258L1310.88 176.437C1301.84 180.543 1291.98 182.601 1281.27 182.601V184.601ZM1311.72 178.25C1321.04 173.805 1329.48 167.146 1337.06 158.299L1335.55 156.997C1328.12 165.661 1319.89 172.135 1310.86 176.445L1311.72 178.25ZM1335.63 158.383L1368.15 188.401L1369.5 186.931L1336.98 156.913L1335.63 158.383ZM1368.05 187.032C1357.73 199.622 1344.94 209.22 1329.65 215.828L1330.45 217.664C1346.02 210.932 1359.07 201.142 1369.6 188.3L1368.05 187.032ZM1329.65 215.83C1314.58 222.438 1297.52 225.752 1278.46 225.752V227.752C1297.75 227.752 1315.09 224.396 1330.45 217.662L1329.65 215.83ZM1446.23 223H1445.23V224H1446.23V223ZM1446.23 45.3932H1447.23V44.3932H1446.23V45.3932ZM1376.19 45.3932H1375.19V46.3932H1376.19V45.3932ZM1376.19 4.11844V3.11844H1375.19V4.11844H1376.19ZM1566.93 4.11844H1567.93V3.11844H1566.93V4.11844ZM1566.93 45.3932V46.3932H1567.93V45.3932H1566.93ZM1496.89 45.3932V44.3932H1495.89V45.3932H1496.89ZM1496.89 223V224H1497.89V223H1496.89ZM1447.23 223V45.3932H1445.23V223H1447.23ZM1446.23 44.3932H1376.19V46.3932H1446.23V44.3932ZM1377.19 45.3932V4.11844H1375.19V45.3932H1377.19ZM1376.19 5.11844H1566.93V3.11844H1376.19V5.11844ZM1565.93 4.11844V45.3932H1567.93V4.11844H1565.93ZM1566.93 44.3932H1496.89V46.3932H1566.93V44.3932ZM1495.89 45.3932V223H1497.89V45.3932H1495.89ZM1496.89 222H1446.23V224H1496.89V222Z" fill="url(#paint0_linear_1669_20219)" mask="url(#path-1-outside-1_1669_20219)"/>
<defs>
<linearGradient id="paint0_linear_1669_20219" x1="778.5" y1="-80" x2="778.5" y2="159.21" gradientUnits="userSpaceOnUse">
<stop stop-color="#6F00FF"/>
<stop offset="1" stop-color="#6F00FF" stop-opacity="0"/>
<stop offset="1" stop-color="#6F00FF" stop-opacity="0"/>
</linearGradient>
</defs>
</svg>
