<svg width="32" height="32" viewBox="0 0 32 32" fill="none" xmlns="http://www.w3.org/2000/svg">
<rect width="32" height="32" rx="16" fill="#E2FFF3"/>
<path d="M21.4409 18.8719C21.2347 18.6812 20.9315 18.6344 20.6722 18.5906C20.3128 18.5312 20.1753 18.4656 19.9659 18.2781C19.519 17.8812 19.519 17.3063 19.9659 16.9094L20.9128 16.0688C22.3628 14.7875 22.3628 12.6875 20.9128 11.4062C19.844 10.4656 18.4097 10 16.919 10C15.1784 10 13.3597 10.6344 11.9565 11.8781C9.34717 14.1844 9.34717 17.9625 11.9565 20.2688C13.2534 21.4156 15.0034 21.9875 16.7347 22H16.7878C18.519 22 20.2253 21.4406 21.4378 20.3625C21.8878 19.9656 21.8125 19.2187 21.4409 18.8719Z" stroke="black" stroke-width="1.5" stroke-miterlimit="10"/>
<path d="M12.5 15.5C13.0523 15.5 13.5 15.0523 13.5 14.5C13.5 13.9477 13.0523 13.5 12.5 13.5C11.9477 13.5 11.5 13.9477 11.5 14.5C11.5 15.0523 11.9477 15.5 12.5 15.5Z" fill="black"/>
<path d="M12.75 18.7188C13.3023 18.7188 13.75 18.271 13.75 17.7188C13.75 17.1665 13.3023 16.7188 12.75 16.7188C12.1977 16.7188 11.75 17.1665 11.75 17.7188C11.75 18.271 12.1977 18.7188 12.75 18.7188Z" fill="black"/>
<path d="M15 13.5C15.5523 13.5 16 13.0523 16 12.5C16 11.9477 15.5523 11.5 15 11.5C14.4477 11.5 14 11.9477 14 12.5C14 13.0523 14.4477 13.5 15 13.5Z" fill="black"/>
<path d="M16 20.9688C16.8284 20.9688 17.5 20.2972 17.5 19.4688C17.5 18.6403 16.8284 17.9688 16 17.9688C15.1716 17.9688 14.5 18.6403 14.5 19.4688C14.5 20.2972 15.1716 20.9688 16 20.9688Z" fill="black"/>
<path d="M18.25 13.5C18.8023 13.5 19.25 13.0523 19.25 12.5C19.25 11.9477 18.8023 11.5 18.25 11.5C17.6977 11.5 17.25 11.9477 17.25 12.5C17.25 13.0523 17.6977 13.5 18.25 13.5Z" fill="black"/>
</svg>
