<svg width="382" height="181" viewBox="0 0 382 181" fill="none" xmlns="http://www.w3.org/2000/svg">
<rect x="30" y="7" width="107.569" height="11.2385" rx="5.61927" fill="#6F00FF"/>
<rect x="147.202" y="7" width="35.3211" height="11.2385" rx="5.61927" fill="#6F00FF"/>
<rect x="188.945" y="7" width="16.055" height="11.2385" rx="5.61927" fill="#6F00FF"/>
<rect x="328" y="172.238" width="107.569" height="11.2385" rx="5.61927" transform="rotate(180 328 172.238)" fill="#6F00FF"/>
<rect x="210.798" y="172.238" width="35.3211" height="11.2385" rx="5.61927" transform="rotate(180 210.798 172.238)" fill="#6F00FF"/>
<rect x="169.055" y="172.238" width="16.055" height="11.2385" rx="5.61927" transform="rotate(180 169.055 172.238)" fill="#6F00FF"/>
<path d="M51.7747 76V41.92H38.3347V34H74.9347V41.92H61.4947V76H51.7747ZM89.1046 50.92H109.325V58.48H89.1046V50.92ZM89.8246 68.2H112.685V76H80.1646V34H111.905V41.8H89.8246V68.2ZM140.518 76.72C137.278 76.72 134.258 76.2 131.458 75.16C128.698 74.08 126.298 72.56 124.258 70.6C122.218 68.64 120.618 66.34 119.458 63.7C118.338 61.06 117.778 58.16 117.778 55C117.778 51.84 118.338 48.94 119.458 46.3C120.618 43.66 122.218 41.36 124.258 39.4C126.338 37.44 128.758 35.94 131.518 34.9C134.278 33.82 137.298 33.28 140.578 33.28C144.218 33.28 147.498 33.92 150.418 35.2C153.378 36.44 155.858 38.28 157.858 40.72L151.618 46.48C150.178 44.84 148.578 43.62 146.818 42.82C145.058 41.98 143.138 41.56 141.058 41.56C139.098 41.56 137.298 41.88 135.658 42.52C134.018 43.16 132.598 44.08 131.398 45.28C130.198 46.48 129.258 47.9 128.578 49.54C127.938 51.18 127.618 53 127.618 55C127.618 57 127.938 58.82 128.578 60.46C129.258 62.1 130.198 63.52 131.398 64.72C132.598 65.92 134.018 66.84 135.658 67.48C137.298 68.12 139.098 68.44 141.058 68.44C143.138 68.44 145.058 68.04 146.818 67.24C148.578 66.4 150.178 65.14 151.618 63.46L157.858 69.22C155.858 71.66 153.378 73.52 150.418 74.8C147.498 76.08 144.198 76.72 140.518 76.72ZM193.222 34H202.942V76H193.222V34ZM174.142 76H164.422V34H174.142V76ZM193.942 58.78H173.422V50.56H193.942V58.78ZM212.879 76V34H220.919L245.699 64.24H241.799V34H251.399V76H243.419L218.579 45.76H222.479V76H212.879ZM281.736 76.72C278.416 76.72 275.336 76.18 272.496 75.1C269.696 74.02 267.256 72.5 265.176 70.54C263.136 68.58 261.536 66.28 260.376 63.64C259.256 61 258.696 58.12 258.696 55C258.696 51.88 259.256 49 260.376 46.36C261.536 43.72 263.156 41.42 265.236 39.46C267.316 37.5 269.756 35.98 272.556 34.9C275.356 33.82 278.396 33.28 281.676 33.28C284.996 33.28 288.036 33.82 290.796 34.9C293.596 35.98 296.016 37.5 298.056 39.46C300.136 41.42 301.756 43.72 302.916 46.36C304.076 48.96 304.656 51.84 304.656 55C304.656 58.12 304.076 61.02 302.916 63.7C301.756 66.34 300.136 68.64 298.056 70.6C296.016 72.52 293.596 74.02 290.796 75.1C288.036 76.18 285.016 76.72 281.736 76.72ZM281.676 68.44C283.556 68.44 285.276 68.12 286.836 67.48C288.436 66.84 289.836 65.92 291.036 64.72C292.236 63.52 293.156 62.1 293.796 60.46C294.476 58.82 294.816 57 294.816 55C294.816 53 294.476 51.18 293.796 49.54C293.156 47.9 292.236 46.48 291.036 45.28C289.876 44.08 288.496 43.16 286.896 42.52C285.296 41.88 283.556 41.56 281.676 41.56C279.796 41.56 278.056 41.88 276.456 42.52C274.896 43.16 273.516 44.08 272.316 45.28C271.116 46.48 270.176 47.9 269.496 49.54C268.856 51.18 268.536 53 268.536 55C268.536 56.96 268.856 58.78 269.496 60.46C270.176 62.1 271.096 63.52 272.256 64.72C273.456 65.92 274.856 66.84 276.456 67.48C278.056 68.12 279.796 68.44 281.676 68.44ZM311.961 76V34H321.681V68.08H342.741V76H311.961ZM63.4747 149.72C60.1547 149.72 57.0747 149.18 54.2347 148.1C51.4347 147.02 48.9947 145.5 46.9147 143.54C44.8747 141.58 43.2747 139.28 42.1147 136.64C40.9947 134 40.4347 131.12 40.4347 128C40.4347 124.88 40.9947 122 42.1147 119.36C43.2747 116.72 44.8947 114.42 46.9747 112.46C49.0547 110.5 51.4947 108.98 54.2947 107.9C57.0947 106.82 60.1347 106.28 63.4147 106.28C66.7347 106.28 69.7747 106.82 72.5347 107.9C75.3347 108.98 77.7547 110.5 79.7947 112.46C81.8747 114.42 83.4947 116.72 84.6547 119.36C85.8147 121.96 86.3947 124.84 86.3947 128C86.3947 131.12 85.8147 134.02 84.6547 136.7C83.4947 139.34 81.8747 141.64 79.7947 143.6C77.7547 145.52 75.3347 147.02 72.5347 148.1C69.7747 149.18 66.7547 149.72 63.4747 149.72ZM63.4147 141.44C65.2947 141.44 67.0147 141.12 68.5747 140.48C70.1747 139.84 71.5747 138.92 72.7747 137.72C73.9747 136.52 74.8947 135.1 75.5347 133.46C76.2147 131.82 76.5547 130 76.5547 128C76.5547 126 76.2147 124.18 75.5347 122.54C74.8947 120.9 73.9747 119.48 72.7747 118.28C71.6147 117.08 70.2347 116.16 68.6347 115.52C67.0347 114.88 65.2947 114.56 63.4147 114.56C61.5347 114.56 59.7947 114.88 58.1947 115.52C56.6347 116.16 55.2547 117.08 54.0547 118.28C52.8547 119.48 51.9147 120.9 51.2347 122.54C50.5947 124.18 50.2747 126 50.2747 128C50.2747 129.96 50.5947 131.78 51.2347 133.46C51.9147 135.1 52.8347 136.52 53.9947 137.72C55.1947 138.92 56.5947 139.84 58.1947 140.48C59.7947 141.12 61.5347 141.44 63.4147 141.44ZM113.98 149.72C110.66 149.72 107.6 149.2 104.8 148.16C102.04 147.08 99.6197 145.56 97.5397 143.6C95.4997 141.64 93.8997 139.34 92.7397 136.7C91.6197 134.06 91.0597 131.16 91.0597 128C91.0597 124.84 91.6197 121.94 92.7397 119.3C93.8997 116.66 95.5197 114.36 97.5997 112.4C99.6797 110.44 102.12 108.94 104.92 107.9C107.72 106.82 110.8 106.28 114.16 106.28C117.88 106.28 121.22 106.9 124.18 108.14C127.18 109.38 129.7 111.18 131.74 113.54L125.5 119.3C123.98 117.7 122.32 116.52 120.52 115.76C118.72 114.96 116.76 114.56 114.64 114.56C112.6 114.56 110.74 114.88 109.06 115.52C107.38 116.16 105.92 117.08 104.68 118.28C103.48 119.48 102.54 120.9 101.86 122.54C101.22 124.18 100.9 126 100.9 128C100.9 129.96 101.22 131.76 101.86 133.4C102.54 135.04 103.48 136.48 104.68 137.72C105.92 138.92 107.36 139.84 109 140.48C110.68 141.12 112.52 141.44 114.52 141.44C116.44 141.44 118.3 141.14 120.1 140.54C121.94 139.9 123.72 138.84 125.44 137.36L130.96 144.38C128.68 146.1 126.02 147.42 122.98 148.34C119.98 149.26 116.98 149.72 113.98 149.72ZM122.08 143.12V127.34H130.96V144.38L122.08 143.12ZM139.989 149V107H149.709V149H139.989ZM168.616 123.92H188.836V131.48H168.616V123.92ZM169.336 141.2H192.196V149H159.676V107H191.416V114.8H169.336V141.2ZM213.73 149.72C210.37 149.72 207.15 149.28 204.07 148.4C200.99 147.48 198.51 146.3 196.63 144.86L199.93 137.54C201.73 138.82 203.85 139.88 206.29 140.72C208.77 141.52 211.27 141.92 213.79 141.92C215.71 141.92 217.25 141.74 218.41 141.38C219.61 140.98 220.49 140.44 221.05 139.76C221.61 139.08 221.89 138.3 221.89 137.42C221.89 136.3 221.45 135.42 220.57 134.78C219.69 134.1 218.53 133.56 217.09 133.16C215.65 132.72 214.05 132.32 212.29 131.96C210.57 131.56 208.83 131.08 207.07 130.52C205.35 129.96 203.77 129.24 202.33 128.36C200.89 127.48 199.71 126.32 198.79 124.88C197.91 123.44 197.47 121.6 197.47 119.36C197.47 116.96 198.11 114.78 199.39 112.82C200.71 110.82 202.67 109.24 205.27 108.08C207.91 106.88 211.21 106.28 215.17 106.28C217.81 106.28 220.41 106.6 222.97 107.24C225.53 107.84 227.79 108.76 229.75 110L226.75 117.38C224.79 116.26 222.83 115.44 220.87 114.92C218.91 114.36 216.99 114.08 215.11 114.08C213.23 114.08 211.69 114.3 210.49 114.74C209.29 115.18 208.43 115.76 207.91 116.48C207.39 117.16 207.13 117.96 207.13 118.88C207.13 119.96 207.57 120.84 208.45 121.52C209.33 122.16 210.49 122.68 211.93 123.08C213.37 123.48 214.95 123.88 216.67 124.28C218.43 124.68 220.17 125.14 221.89 125.66C223.65 126.18 225.25 126.88 226.69 127.76C228.13 128.64 229.29 129.8 230.17 131.24C231.09 132.68 231.55 134.5 231.55 136.7C231.55 139.06 230.89 141.22 229.57 143.18C228.25 145.14 226.27 146.72 223.63 147.92C221.03 149.12 217.73 149.72 213.73 149.72Z" fill="#D8D9FF" fill-opacity="0.4"/>
<g style="mix-blend-mode:multiply" filter="url(#filter0_b_1905_20655)">
<rect x="92.4736" y="47" width="252.766" height="62" rx="31" fill="#6F00FF" fill-opacity="0.2"/>
</g>
<g style="mix-blend-mode:multiply" filter="url(#filter1_b_1905_20655)">
<rect x="95.1021" y="54" width="244.214" height="46" rx="23" fill="#6F00FF" fill-opacity="0.01"/>
</g>
<g filter="url(#filter2_d_1905_20655)">
<path d="M26.7595 89V66.6H36.9355C39.3675 66.6 41.5115 67.0693 43.3675 68.008C45.2235 68.9253 46.6742 70.216 47.7195 71.88C48.7649 73.544 49.2875 75.5173 49.2875 77.8C49.2875 80.0613 48.7649 82.0347 47.7195 83.72C46.6742 85.384 45.2235 86.6853 43.3675 87.624C41.5115 88.5413 39.3675 89 36.9355 89H26.7595ZM31.9435 84.744H36.6795C38.1728 84.744 39.4635 84.4667 40.5515 83.912C41.6608 83.336 42.5142 82.5253 43.1115 81.48C43.7302 80.4347 44.0395 79.208 44.0395 77.8C44.0395 76.3707 43.7302 75.144 43.1115 74.12C42.5142 73.0747 41.6608 72.2747 40.5515 71.72C39.4635 71.144 38.1728 70.856 36.6795 70.856H31.9435V84.744ZM61.389 89.256C59.4263 89.256 57.6983 88.872 56.205 88.104C54.733 87.336 53.5917 86.2907 52.781 84.968C51.9703 83.624 51.565 82.0987 51.565 80.392C51.565 78.664 51.9597 77.1387 52.749 75.816C53.5597 74.472 54.6583 73.4267 56.045 72.68C57.4317 71.912 58.9997 71.528 60.749 71.528C62.4343 71.528 63.949 71.8907 65.293 72.616C66.6583 73.32 67.7357 74.344 68.525 75.688C69.3144 77.0107 69.709 78.6 69.709 80.456C69.709 80.648 69.6984 80.872 69.677 81.128C69.6557 81.3627 69.6343 81.5867 69.613 81.8H55.629V78.888H66.989L65.069 79.752C65.069 78.856 64.8877 78.0773 64.525 77.416C64.1623 76.7547 63.661 76.2427 63.021 75.88C62.381 75.496 61.6343 75.304 60.781 75.304C59.9277 75.304 59.1703 75.496 58.509 75.88C57.869 76.2427 57.3677 76.7653 57.005 77.448C56.6423 78.1093 56.461 78.8987 56.461 79.816V80.584C56.461 81.5227 56.6637 82.3547 57.069 83.08C57.4957 83.784 58.0823 84.328 58.829 84.712C59.597 85.0747 60.493 85.256 61.517 85.256C62.4343 85.256 63.2343 85.1173 63.917 84.84C64.621 84.5627 65.261 84.1467 65.837 83.592L68.493 86.472C67.7037 87.368 66.7117 88.0613 65.517 88.552C64.3223 89.0213 62.9463 89.256 61.389 89.256ZM81.3525 89.256C79.4965 89.256 77.8432 88.8827 76.3925 88.136C74.9418 87.368 73.8005 86.312 72.9685 84.968C72.1578 83.624 71.7525 82.0987 71.7525 80.392C71.7525 78.664 72.1578 77.1387 72.9685 75.816C73.8005 74.472 74.9418 73.4267 76.3925 72.68C77.8432 71.912 79.4965 71.528 81.3525 71.528C83.1658 71.528 84.7445 71.912 86.0885 72.68C87.4325 73.4267 88.4245 74.504 89.0645 75.912L85.1925 77.992C84.7445 77.1813 84.1792 76.584 83.4965 76.2C82.8352 75.816 82.1098 75.624 81.3205 75.624C80.4672 75.624 79.6992 75.816 79.0165 76.2C78.3338 76.584 77.7898 77.128 77.3845 77.832C77.0005 78.536 76.8085 79.3893 76.8085 80.392C76.8085 81.3947 77.0005 82.248 77.3845 82.952C77.7898 83.656 78.3338 84.2 79.0165 84.584C79.6992 84.968 80.4672 85.16 81.3205 85.16C82.1098 85.16 82.8352 84.9787 83.4965 84.616C84.1792 84.232 84.7445 83.624 85.1925 82.792L89.0645 84.904C88.4245 86.2907 87.4325 87.368 86.0885 88.136C84.7445 88.8827 83.1658 89.256 81.3525 89.256ZM91.845 89V71.784H96.837V89H91.845ZM94.341 69.384C93.4237 69.384 92.677 69.1173 92.101 68.584C91.525 68.0507 91.237 67.3893 91.237 66.6C91.237 65.8107 91.525 65.1493 92.101 64.616C92.677 64.0827 93.4237 63.816 94.341 63.816C95.2583 63.816 96.005 64.072 96.581 64.584C97.157 65.0747 97.445 65.7147 97.445 66.504C97.445 67.336 97.157 68.0293 96.581 68.584C96.0263 69.1173 95.2797 69.384 94.341 69.384ZM111.646 89.256C110.195 89.256 108.926 88.936 107.838 88.296C106.75 87.656 105.897 86.6853 105.278 85.384C104.681 84.0613 104.382 82.3973 104.382 80.392C104.382 78.3653 104.67 76.7013 105.246 75.4C105.822 74.0987 106.654 73.128 107.742 72.488C108.83 71.848 110.131 71.528 111.646 71.528C113.267 71.528 114.718 71.9013 115.998 72.648C117.299 73.3733 118.323 74.3973 119.07 75.72C119.838 77.0427 120.222 78.6 120.222 80.392C120.222 82.2053 119.838 83.7733 119.07 85.096C118.323 86.4187 117.299 87.4427 115.998 88.168C114.718 88.8933 113.267 89.256 111.646 89.256ZM101.47 95.208V71.784H106.238V75.304L106.142 80.424L106.462 85.512V95.208H101.47ZM110.782 85.16C111.614 85.16 112.35 84.968 112.99 84.584C113.651 84.2 114.174 83.656 114.558 82.952C114.963 82.2267 115.166 81.3733 115.166 80.392C115.166 79.3893 114.963 78.536 114.558 77.832C114.174 77.128 113.651 76.584 112.99 76.2C112.35 75.816 111.614 75.624 110.782 75.624C109.95 75.624 109.203 75.816 108.542 76.2C107.881 76.584 107.358 77.128 106.974 77.832C106.59 78.536 106.398 79.3893 106.398 80.392C106.398 81.3733 106.59 82.2267 106.974 82.952C107.358 83.656 107.881 84.2 108.542 84.584C109.203 84.968 109.95 85.16 110.782 85.16ZM134.028 71.528C135.393 71.528 136.609 71.8053 137.676 72.36C138.764 72.8933 139.617 73.7253 140.236 74.856C140.854 75.9653 141.164 77.3947 141.164 79.144V89H136.172V79.912C136.172 78.5253 135.862 77.5013 135.244 76.84C134.646 76.1787 133.793 75.848 132.684 75.848C131.894 75.848 131.18 76.0187 130.54 76.36C129.921 76.68 129.43 77.1813 129.068 77.864C128.726 78.5467 128.556 79.4213 128.556 80.488V89H123.564V65.256H128.556V76.552L127.436 75.112C128.054 73.96 128.94 73.0747 130.092 72.456C131.244 71.8373 132.556 71.528 134.028 71.528ZM154.358 89.256C152.395 89.256 150.667 88.872 149.174 88.104C147.702 87.336 146.56 86.2907 145.75 84.968C144.939 83.624 144.534 82.0987 144.534 80.392C144.534 78.664 144.928 77.1387 145.718 75.816C146.528 74.472 147.627 73.4267 149.014 72.68C150.4 71.912 151.968 71.528 153.718 71.528C155.403 71.528 156.918 71.8907 158.262 72.616C159.627 73.32 160.704 74.344 161.494 75.688C162.283 77.0107 162.678 78.6 162.678 80.456C162.678 80.648 162.667 80.872 162.646 81.128C162.624 81.3627 162.603 81.5867 162.582 81.8H148.598V78.888H159.958L158.038 79.752C158.038 78.856 157.856 78.0773 157.494 77.416C157.131 76.7547 156.63 76.2427 155.99 75.88C155.35 75.496 154.603 75.304 153.75 75.304C152.896 75.304 152.139 75.496 151.478 75.88C150.838 76.2427 150.336 76.7653 149.974 77.448C149.611 78.1093 149.43 78.8987 149.43 79.816V80.584C149.43 81.5227 149.632 82.3547 150.038 83.08C150.464 83.784 151.051 84.328 151.798 84.712C152.566 85.0747 153.462 85.256 154.486 85.256C155.403 85.256 156.203 85.1173 156.886 84.84C157.59 84.5627 158.23 84.1467 158.806 83.592L161.462 86.472C160.672 87.368 159.68 88.0613 158.486 88.552C157.291 89.0213 155.915 89.256 154.358 89.256ZM166.001 89V71.784H170.769V76.648L170.097 75.24C170.609 74.024 171.431 73.1067 172.561 72.488C173.692 71.848 175.068 71.528 176.689 71.528V76.136C176.476 76.1147 176.284 76.104 176.113 76.104C175.943 76.0827 175.761 76.072 175.569 76.072C174.204 76.072 173.095 76.4667 172.241 77.256C171.409 78.024 170.993 79.2293 170.993 80.872V89H166.001ZM179.689 89V71.784H184.681V89H179.689ZM182.185 69.384C181.267 69.384 180.521 69.1173 179.945 68.584C179.369 68.0507 179.081 67.3893 179.081 66.6C179.081 65.8107 179.369 65.1493 179.945 64.616C180.521 64.0827 181.267 63.816 182.185 63.816C183.102 63.816 183.849 64.072 184.425 64.584C185.001 65.0747 185.289 65.7147 185.289 66.504C185.289 67.336 185.001 68.0293 184.425 68.584C183.87 69.1173 183.123 69.384 182.185 69.384ZM199.778 71.528C201.143 71.528 202.359 71.8053 203.426 72.36C204.514 72.8933 205.367 73.7253 205.986 74.856C206.604 75.9653 206.914 77.3947 206.914 79.144V89H201.922V79.912C201.922 78.5253 201.612 77.5013 200.994 76.84C200.396 76.1787 199.543 75.848 198.434 75.848C197.644 75.848 196.93 76.0187 196.29 76.36C195.671 76.68 195.18 77.1813 194.818 77.864C194.476 78.5467 194.306 79.4213 194.306 80.488V89H189.314V71.784H194.082V76.552L193.186 75.112C193.804 73.96 194.69 73.0747 195.842 72.456C196.994 71.8373 198.306 71.528 199.778 71.528ZM219.66 95.464C218.038 95.464 216.47 95.2613 214.956 94.856C213.462 94.472 212.214 93.8853 211.212 93.096L213.196 89.512C213.921 90.1093 214.838 90.5787 215.948 90.92C217.078 91.2827 218.188 91.464 219.276 91.464C221.046 91.464 222.326 91.0693 223.116 90.28C223.926 89.4907 224.332 88.3173 224.332 86.76V84.168L224.652 79.848L224.588 75.496V71.784H229.324V86.12C229.324 89.32 228.492 91.6773 226.828 93.192C225.164 94.7067 222.774 95.464 219.66 95.464ZM218.892 88.168C217.292 88.168 215.841 87.8267 214.54 87.144C213.26 86.44 212.225 85.4693 211.436 84.232C210.668 82.9733 210.284 81.512 210.284 79.848C210.284 78.1627 210.668 76.7013 211.436 75.464C212.225 74.2053 213.26 73.2347 214.54 72.552C215.841 71.8693 217.292 71.528 218.892 71.528C220.342 71.528 221.622 71.8267 222.732 72.424C223.841 73 224.705 73.9067 225.324 75.144C225.942 76.36 226.252 77.928 226.252 79.848C226.252 81.7467 225.942 83.3147 225.324 84.552C224.705 85.768 223.841 86.6747 222.732 87.272C221.622 87.8693 220.342 88.168 218.892 88.168ZM219.884 84.072C220.758 84.072 221.537 83.9013 222.22 83.56C222.902 83.1973 223.436 82.696 223.82 82.056C224.204 81.416 224.396 80.68 224.396 79.848C224.396 78.9947 224.204 78.2587 223.82 77.64C223.436 77 222.902 76.5093 222.22 76.168C221.537 75.8053 220.758 75.624 219.884 75.624C219.009 75.624 218.23 75.8053 217.548 76.168C216.865 76.5093 216.321 77 215.916 77.64C215.532 78.2587 215.34 78.9947 215.34 79.848C215.34 80.68 215.532 81.416 215.916 82.056C216.321 82.696 216.865 83.1973 217.548 83.56C218.23 83.9013 219.009 84.072 219.884 84.072ZM248.025 89V70.824H240.857V66.6H260.377V70.824H253.209V89H248.025ZM273.278 71.528C274.643 71.528 275.859 71.8053 276.926 72.36C278.014 72.8933 278.867 73.7253 279.486 74.856C280.104 75.9653 280.414 77.3947 280.414 79.144V89H275.422V79.912C275.422 78.5253 275.112 77.5013 274.494 76.84C273.896 76.1787 273.043 75.848 271.934 75.848C271.144 75.848 270.43 76.0187 269.79 76.36C269.171 76.68 268.68 77.1813 268.318 77.864C267.976 78.5467 267.806 79.4213 267.806 80.488V89H262.814V65.256H267.806V76.552L266.686 75.112C267.304 73.96 268.19 73.0747 269.342 72.456C270.494 71.8373 271.806 71.528 273.278 71.528ZM293.608 89.256C291.645 89.256 289.917 88.872 288.424 88.104C286.952 87.336 285.81 86.2907 285 84.968C284.189 83.624 283.784 82.0987 283.784 80.392C283.784 78.664 284.178 77.1387 284.968 75.816C285.778 74.472 286.877 73.4267 288.264 72.68C289.65 71.912 291.218 71.528 292.968 71.528C294.653 71.528 296.168 71.8907 297.512 72.616C298.877 73.32 299.954 74.344 300.744 75.688C301.533 77.0107 301.928 78.6 301.928 80.456C301.928 80.648 301.917 80.872 301.896 81.128C301.874 81.3627 301.853 81.5867 301.832 81.8H287.848V78.888H299.208L297.288 79.752C297.288 78.856 297.106 78.0773 296.744 77.416C296.381 76.7547 295.88 76.2427 295.24 75.88C294.6 75.496 293.853 75.304 293 75.304C292.146 75.304 291.389 75.496 290.728 75.88C290.088 76.2427 289.586 76.7653 289.224 77.448C288.861 78.1093 288.68 78.8987 288.68 79.816V80.584C288.68 81.5227 288.882 82.3547 289.288 83.08C289.714 83.784 290.301 84.328 291.048 84.712C291.816 85.0747 292.712 85.256 293.736 85.256C294.653 85.256 295.453 85.1173 296.136 84.84C296.84 84.5627 297.48 84.1467 298.056 83.592L300.712 86.472C299.922 87.368 298.93 88.0613 297.736 88.552C296.541 89.0213 295.165 89.256 293.608 89.256ZM311.722 89L321.706 66.6H326.826L336.842 89H331.402L323.21 69.224H325.258L317.034 89H311.722ZM316.714 84.2L318.09 80.264H329.61L331.018 84.2H316.714ZM339.166 89V66.6H344.35V89H339.166ZM33.4795 128L23.8155 105.6H29.4155L37.8635 125.44H34.5675L43.1435 105.6H48.2955L38.5995 128H33.4795ZM50.095 128V110.784H55.087V128H50.095ZM52.591 108.384C51.6737 108.384 50.927 108.117 50.351 107.584C49.775 107.051 49.487 106.389 49.487 105.6C49.487 104.811 49.775 104.149 50.351 103.616C50.927 103.083 51.6737 102.816 52.591 102.816C53.5083 102.816 54.255 103.072 54.831 103.584C55.407 104.075 55.695 104.715 55.695 105.504C55.695 106.336 55.407 107.029 54.831 107.584C54.2763 108.117 53.5297 108.384 52.591 108.384ZM59.72 128V110.784H64.488V115.648L63.816 114.24C64.328 113.024 65.1493 112.107 66.28 111.488C67.4107 110.848 68.7867 110.528 70.408 110.528V115.136C70.1947 115.115 70.0027 115.104 69.832 115.104C69.6613 115.083 69.48 115.072 69.288 115.072C67.9227 115.072 66.8133 115.467 65.96 116.256C65.128 117.024 64.712 118.229 64.712 119.872V128H59.72ZM81.01 128.256C78.9833 128.256 77.4047 127.744 76.274 126.72C75.1433 125.675 74.578 124.128 74.578 122.08V106.976H79.57V122.016C79.57 122.741 79.762 123.307 80.146 123.712C80.53 124.096 81.0527 124.288 81.714 124.288C82.5033 124.288 83.1753 124.075 83.73 123.648L85.074 127.168C84.562 127.531 83.9433 127.808 83.218 128C82.514 128.171 81.778 128.256 81.01 128.256ZM71.922 115.008V111.168H83.858V115.008H71.922ZM95.1403 128.256C93.7109 128.256 92.4309 127.979 91.3003 127.424C90.1909 126.869 89.3269 126.027 88.7083 124.896C88.0896 123.744 87.7803 122.283 87.7803 120.512V110.784H92.7723V119.776C92.7723 121.205 93.0709 122.261 93.6683 122.944C94.2869 123.605 95.1509 123.936 96.2603 123.936C97.0283 123.936 97.7109 123.776 98.3083 123.456C98.9056 123.115 99.3749 122.603 99.7163 121.92C100.058 121.216 100.228 120.341 100.228 119.296V110.784H105.22V128H100.484V123.264L101.348 124.64C100.772 125.835 99.9189 126.741 98.7883 127.36C97.6789 127.957 96.4629 128.256 95.1403 128.256ZM118.037 128.256C116.202 128.256 114.57 127.872 113.141 127.104C111.733 126.336 110.613 125.291 109.781 123.968C108.97 122.624 108.565 121.099 108.565 119.392C108.565 117.664 108.97 116.139 109.781 114.816C110.613 113.472 111.733 112.427 113.141 111.68C114.57 110.912 116.202 110.528 118.037 110.528C119.85 110.528 121.472 110.912 122.901 111.68C124.33 112.427 125.45 113.461 126.261 114.784C127.072 116.107 127.477 117.643 127.477 119.392C127.477 121.099 127.072 122.624 126.261 123.968C125.45 125.291 124.33 126.336 122.901 127.104C121.472 127.872 119.85 128.256 118.037 128.256ZM118.037 124.16C118.869 124.16 119.616 123.968 120.277 123.584C120.938 123.2 121.461 122.656 121.845 121.952C122.229 121.227 122.421 120.373 122.421 119.392C122.421 118.389 122.229 117.536 121.845 116.832C121.461 116.128 120.938 115.584 120.277 115.2C119.616 114.816 118.869 114.624 118.037 114.624C117.205 114.624 116.458 114.816 115.797 115.2C115.136 115.584 114.602 116.128 114.197 116.832C113.813 117.536 113.621 118.389 113.621 119.392C113.621 120.373 113.813 121.227 114.197 121.952C114.602 122.656 115.136 123.2 115.797 123.584C116.458 123.968 117.205 124.16 118.037 124.16ZM136.606 128.256C135.134 128.256 133.715 128.085 132.35 127.744C131.006 127.381 129.939 126.933 129.15 126.4L130.814 122.816C131.603 123.307 132.531 123.712 133.598 124.032C134.686 124.331 135.752 124.48 136.798 124.48C137.95 124.48 138.76 124.341 139.23 124.064C139.72 123.787 139.966 123.403 139.966 122.912C139.966 122.507 139.774 122.208 139.39 122.016C139.027 121.803 138.536 121.643 137.918 121.536C137.299 121.429 136.616 121.323 135.87 121.216C135.144 121.109 134.408 120.971 133.662 120.8C132.915 120.608 132.232 120.331 131.614 119.968C130.995 119.605 130.494 119.115 130.11 118.496C129.747 117.877 129.566 117.077 129.566 116.096C129.566 115.008 129.875 114.048 130.494 113.216C131.134 112.384 132.051 111.733 133.246 111.264C134.44 110.773 135.87 110.528 137.534 110.528C138.707 110.528 139.902 110.656 141.118 110.912C142.334 111.168 143.347 111.541 144.158 112.032L142.494 115.584C141.662 115.093 140.819 114.763 139.966 114.592C139.134 114.4 138.323 114.304 137.534 114.304C136.424 114.304 135.614 114.453 135.102 114.752C134.59 115.051 134.334 115.435 134.334 115.904C134.334 116.331 134.515 116.651 134.878 116.864C135.262 117.077 135.763 117.248 136.382 117.376C137 117.504 137.672 117.621 138.398 117.728C139.144 117.813 139.891 117.952 140.638 118.144C141.384 118.336 142.056 118.613 142.654 118.976C143.272 119.317 143.774 119.797 144.158 120.416C144.542 121.013 144.734 121.803 144.734 122.784C144.734 123.851 144.414 124.8 143.774 125.632C143.134 126.443 142.206 127.083 140.99 127.552C139.795 128.021 138.334 128.256 136.606 128.256ZM156.006 128.256C154.171 128.256 152.539 127.872 151.11 127.104C149.702 126.336 148.582 125.291 147.75 123.968C146.939 122.624 146.534 121.099 146.534 119.392C146.534 117.664 146.939 116.139 147.75 114.816C148.582 113.472 149.702 112.427 151.11 111.68C152.539 110.912 154.171 110.528 156.006 110.528C157.819 110.528 159.44 110.912 160.87 111.68C162.299 112.427 163.419 113.461 164.23 114.784C165.04 116.107 165.446 117.643 165.446 119.392C165.446 121.099 165.04 122.624 164.23 123.968C163.419 125.291 162.299 126.336 160.87 127.104C159.44 127.872 157.819 128.256 156.006 128.256ZM156.006 124.16C156.838 124.16 157.584 123.968 158.246 123.584C158.907 123.2 159.43 122.656 159.814 121.952C160.198 121.227 160.39 120.373 160.39 119.392C160.39 118.389 160.198 117.536 159.814 116.832C159.43 116.128 158.907 115.584 158.246 115.2C157.584 114.816 156.838 114.624 156.006 114.624C155.174 114.624 154.427 114.816 153.766 115.2C153.104 115.584 152.571 116.128 152.166 116.832C151.782 117.536 151.59 118.389 151.59 119.392C151.59 120.373 151.782 121.227 152.166 121.952C152.571 122.656 153.104 123.2 153.766 123.584C154.427 123.968 155.174 124.16 156.006 124.16Z" fill="black"/>
</g>
<defs>
<filter id="filter0_b_1905_20655" x="12.4736" y="-33" width="412.766" height="222" filterUnits="userSpaceOnUse" color-interpolation-filters="sRGB">
<feFlood flood-opacity="0" result="BackgroundImageFix"/>
<feGaussianBlur in="BackgroundImageFix" stdDeviation="40"/>
<feComposite in2="SourceAlpha" operator="in" result="effect1_backgroundBlur_1905_20655"/>
<feBlend mode="normal" in="SourceGraphic" in2="effect1_backgroundBlur_1905_20655" result="shape"/>
</filter>
<filter id="filter1_b_1905_20655" x="15.1021" y="-26" width="404.214" height="206" filterUnits="userSpaceOnUse" color-interpolation-filters="sRGB">
<feFlood flood-opacity="0" result="BackgroundImageFix"/>
<feGaussianBlur in="BackgroundImageFix" stdDeviation="40"/>
<feComposite in2="SourceAlpha" operator="in" result="effect1_backgroundBlur_1905_20655"/>
<feBlend mode="normal" in="SourceGraphic" in2="effect1_backgroundBlur_1905_20655" result="shape"/>
</filter>
<filter id="filter2_d_1905_20655" x="5.81543" y="45.8164" width="356.534" height="100.439" filterUnits="userSpaceOnUse" color-interpolation-filters="sRGB">
<feFlood flood-opacity="0" result="BackgroundImageFix"/>
<feColorMatrix in="SourceAlpha" type="matrix" values="0 0 0 0 0 0 0 0 0 0 0 0 0 0 0 0 0 0 127 0" result="hardAlpha"/>
<feOffset/>
<feGaussianBlur stdDeviation="9"/>
<feComposite in2="hardAlpha" operator="out"/>
<feColorMatrix type="matrix" values="0 0 0 0 0 0 0 0 0 0 0 0 0 0 0 0 0 0 0.25 0"/>
<feBlend mode="normal" in2="BackgroundImageFix" result="effect1_dropShadow_1905_20655"/>
<feBlend mode="normal" in="SourceGraphic" in2="effect1_dropShadow_1905_20655" result="shape"/>
</filter>
</defs>
</svg>
