<svg width="1719" height="181" viewBox="0 0 1719 181" fill="none" xmlns="http://www.w3.org/2000/svg">
<path d="M209.92 144V59.4984H176.595V39.8607H267.345V59.4984H234.02V144H209.92ZM302.479 81.814H352.615V100.559H302.479V81.814ZM304.265 124.66H360.946V144H280.312V39.8607H359.012V59.2008H304.265V124.66ZM429.96 145.785C421.927 145.785 414.439 144.496 407.496 141.917C400.653 139.239 394.702 135.47 389.644 130.611C384.585 125.751 380.618 120.048 377.742 113.502C374.965 106.956 373.576 99.7656 373.576 91.9303C373.576 84.0951 374.965 76.9045 377.742 70.3586C380.618 63.8127 384.585 58.1099 389.644 53.25C394.801 48.3902 400.801 44.6709 407.645 42.0922C414.488 39.4144 421.976 38.0755 430.109 38.0755C439.135 38.0755 447.267 39.6623 454.508 42.8361C461.847 45.9107 467.996 50.473 472.955 56.523L457.483 70.8049C453.912 66.7386 449.945 63.7136 445.581 61.7299C441.217 59.6472 436.457 58.6058 431.299 58.6058C426.44 58.6058 421.976 59.3992 417.91 60.9861C413.844 62.573 410.323 64.8541 407.347 67.8295C404.372 70.8049 402.041 74.3258 400.355 78.3922C398.768 82.4586 397.975 86.9713 397.975 91.9303C397.975 96.8894 398.768 101.402 400.355 105.468C402.041 109.535 404.372 113.056 407.347 116.031C410.323 119.007 413.844 121.288 417.91 122.875C421.976 124.461 426.44 125.255 431.299 125.255C436.457 125.255 441.217 124.263 445.581 122.28C449.945 120.197 453.912 117.073 457.483 112.907L472.955 127.189C467.996 133.239 461.847 137.851 454.508 141.025C447.267 144.198 439.085 145.785 429.96 145.785ZM560.64 39.8607H584.741V144H560.64V39.8607ZM513.331 144H489.23V39.8607H513.331V144ZM562.425 101.303H511.546V80.9213H562.425V101.303ZM609.38 144V39.8607H629.315L690.757 114.841H681.087V39.8607H704.891V144H685.104L623.513 69.0197H633.183V144H609.38ZM780.111 145.785C771.879 145.785 764.243 144.446 757.201 141.768C750.258 139.091 744.208 135.322 739.051 130.462C733.993 125.602 730.025 119.899 727.149 113.353C724.372 106.807 722.984 99.6664 722.984 91.9303C722.984 84.1943 724.372 77.0533 727.149 70.5074C730.025 63.9615 734.042 58.2586 739.2 53.3988C744.357 48.539 750.407 44.7701 757.35 42.0922C764.292 39.4144 771.83 38.0755 779.963 38.0755C788.195 38.0755 795.732 39.4144 802.576 42.0922C809.518 44.7701 815.519 48.539 820.577 53.3988C825.734 58.2586 829.751 63.9615 832.627 70.5074C835.504 76.9541 836.942 84.0951 836.942 91.9303C836.942 99.6664 835.504 106.857 832.627 113.502C829.751 120.048 825.734 125.751 820.577 130.611C815.519 135.371 809.518 139.091 802.576 141.768C795.732 144.446 788.244 145.785 780.111 145.785ZM779.963 125.255C784.624 125.255 788.889 124.461 792.757 122.875C796.724 121.288 800.195 119.007 803.171 116.031C806.146 113.056 808.427 109.535 810.014 105.468C811.7 101.402 812.543 96.8894 812.543 91.9303C812.543 86.9713 811.7 82.4586 810.014 78.3922C808.427 74.3258 806.146 70.8049 803.171 67.8295C800.295 64.8541 796.873 62.573 792.906 60.9861C788.938 59.3992 784.624 58.6058 779.963 58.6058C775.301 58.6058 770.987 59.3992 767.02 60.9861C763.152 62.573 759.73 64.8541 756.754 67.8295C753.779 70.8049 751.448 74.3258 749.762 78.3922C748.175 82.4586 747.382 86.9713 747.382 91.9303C747.382 96.7902 748.175 101.303 749.762 105.468C751.448 109.535 753.729 113.056 756.606 116.031C759.581 119.007 763.052 121.288 767.02 122.875C770.987 124.461 775.301 125.255 779.963 125.255ZM855.054 144V39.8607H879.155V124.362H931.374V144H855.054ZM993.678 145.785C985.446 145.785 977.809 144.446 970.768 141.768C963.825 139.091 957.775 135.322 952.618 130.462C947.559 125.602 943.592 119.899 940.716 113.353C937.939 106.807 936.55 99.6664 936.55 91.9303C936.55 84.1943 937.939 77.0533 940.716 70.5074C943.592 63.9615 947.609 58.2586 952.766 53.3988C957.924 48.539 963.974 44.7701 970.916 42.0922C977.859 39.4144 985.397 38.0755 993.53 38.0755C1001.76 38.0755 1009.3 39.4144 1016.14 42.0922C1023.09 44.7701 1029.09 48.539 1034.14 53.3988C1039.3 58.2586 1043.32 63.9615 1046.19 70.5074C1049.07 76.9541 1050.51 84.0951 1050.51 91.9303C1050.51 99.6664 1049.07 106.857 1046.19 113.502C1043.32 120.048 1039.3 125.751 1034.14 130.611C1029.09 135.371 1023.09 139.091 1016.14 141.768C1009.3 144.446 1001.81 145.785 993.678 145.785ZM993.53 125.255C998.191 125.255 1002.46 124.461 1006.32 122.875C1010.29 121.288 1013.76 119.007 1016.74 116.031C1019.71 113.056 1021.99 109.535 1023.58 105.468C1025.27 101.402 1026.11 96.8894 1026.11 91.9303C1026.11 86.9713 1025.27 82.4586 1023.58 78.3922C1021.99 74.3258 1019.71 70.8049 1016.74 67.8295C1013.86 64.8541 1010.44 62.573 1006.47 60.9861C1002.51 59.3992 998.191 58.6058 993.53 58.6058C988.868 58.6058 984.554 59.3992 980.587 60.9861C976.718 62.573 973.297 64.8541 970.321 67.8295C967.346 70.8049 965.015 74.3258 963.329 78.3922C961.742 82.4586 960.949 86.9713 960.949 91.9303C960.949 96.7902 961.742 101.303 963.329 105.468C965.015 109.535 967.296 113.056 970.173 116.031C973.148 119.007 976.619 121.288 980.587 122.875C984.554 124.461 988.868 125.255 993.53 125.255ZM1118.91 145.785C1110.67 145.785 1103.09 144.496 1096.14 141.917C1089.3 139.239 1083.3 135.47 1078.14 130.611C1073.08 125.751 1069.12 120.048 1066.24 113.502C1063.46 106.956 1062.08 99.7656 1062.08 91.9303C1062.08 84.0951 1063.46 76.9045 1066.24 70.3586C1069.12 63.8127 1073.13 58.1099 1078.29 53.25C1083.45 48.3902 1089.5 44.6709 1096.44 42.0922C1103.38 39.4144 1111.02 38.0755 1119.35 38.0755C1128.58 38.0755 1136.86 39.6127 1144.2 42.6873C1151.64 45.7619 1157.88 50.225 1162.94 56.0767L1147.47 70.3586C1143.7 66.3914 1139.58 63.4656 1135.12 61.5812C1130.66 59.5976 1125.8 58.6058 1120.54 58.6058C1115.48 58.6058 1110.87 59.3992 1106.71 60.9861C1102.54 62.573 1098.92 64.8541 1095.85 67.8295C1092.87 70.8049 1090.54 74.3258 1088.85 78.3922C1087.27 82.4586 1086.47 86.9713 1086.47 91.9303C1086.47 96.7902 1087.27 101.253 1088.85 105.32C1090.54 109.386 1092.87 112.957 1095.85 116.031C1098.92 119.007 1102.49 121.288 1106.56 122.875C1110.72 124.461 1115.29 125.255 1120.24 125.255C1125.01 125.255 1129.62 124.511 1134.08 123.023C1138.64 121.436 1143.06 118.808 1147.32 115.139L1161.01 132.545C1155.35 136.809 1148.76 140.082 1141.22 142.364C1133.78 144.645 1126.34 145.785 1118.91 145.785ZM1138.99 129.42V90.2939H1161.01V132.545L1138.99 129.42ZM1233.98 145.785C1225.75 145.785 1218.11 144.446 1211.07 141.768C1204.12 139.091 1198.07 135.322 1192.92 130.462C1187.86 125.602 1183.89 119.899 1181.02 113.353C1178.24 106.807 1176.85 99.6664 1176.85 91.9303C1176.85 84.1943 1178.24 77.0533 1181.02 70.5074C1183.89 63.9615 1187.91 58.2586 1193.07 53.3988C1198.22 48.539 1204.27 44.7701 1211.22 42.0922C1218.16 39.4144 1225.7 38.0755 1233.83 38.0755C1242.06 38.0755 1249.6 39.4144 1256.44 42.0922C1263.38 44.7701 1269.38 48.539 1274.44 53.3988C1279.6 58.2586 1283.62 63.9615 1286.49 70.5074C1289.37 76.9541 1290.81 84.0951 1290.81 91.9303C1290.81 99.6664 1289.37 106.857 1286.49 113.502C1283.62 120.048 1279.6 125.751 1274.44 130.611C1269.38 135.371 1263.38 139.091 1256.44 141.768C1249.6 144.446 1242.11 145.785 1233.98 145.785ZM1233.83 125.255C1238.49 125.255 1242.75 124.461 1246.62 122.875C1250.59 121.288 1254.06 119.007 1257.04 116.031C1260.01 113.056 1262.29 109.535 1263.88 105.468C1265.57 101.402 1266.41 96.8894 1266.41 91.9303C1266.41 86.9713 1265.57 82.4586 1263.88 78.3922C1262.29 74.3258 1260.01 70.8049 1257.04 67.8295C1254.16 64.8541 1250.74 62.573 1246.77 60.9861C1242.8 59.3992 1238.49 58.6058 1233.83 58.6058C1229.17 58.6058 1224.85 59.3992 1220.89 60.9861C1217.02 62.573 1213.6 64.8541 1210.62 67.8295C1207.65 70.8049 1205.31 74.3258 1203.63 78.3922C1202.04 82.4586 1201.25 86.9713 1201.25 91.9303C1201.25 96.7902 1202.04 101.303 1203.63 105.468C1205.31 109.535 1207.6 113.056 1210.47 116.031C1213.45 119.007 1216.92 121.288 1220.89 122.875C1224.85 124.461 1229.17 125.255 1233.83 125.255ZM1331.09 81.814H1381.22V100.559H1331.09V81.814ZM1332.87 124.66H1389.55V144H1308.92V39.8607H1387.62V59.2008H1332.87V124.66ZM1442.95 145.785C1434.62 145.785 1426.63 144.694 1419 142.512C1411.36 140.231 1405.21 137.305 1400.55 133.735L1408.73 115.585C1413.19 118.759 1418.45 121.387 1424.5 123.47C1430.65 125.453 1436.85 126.445 1443.1 126.445C1447.86 126.445 1451.68 125.999 1454.55 125.106C1457.53 124.114 1459.71 122.775 1461.1 121.089C1462.49 119.403 1463.18 117.469 1463.18 115.287C1463.18 112.51 1462.09 110.328 1459.91 108.741C1457.73 107.055 1454.85 105.716 1451.28 104.725C1447.71 103.634 1443.74 102.642 1439.38 101.749C1435.11 100.757 1430.8 99.5672 1426.43 98.1787C1422.17 96.7902 1418.25 95.0049 1414.68 92.823C1411.11 90.641 1408.18 87.7648 1405.9 84.1943C1403.72 80.6238 1402.63 76.0615 1402.63 70.5074C1402.63 64.5566 1404.22 59.1513 1407.39 54.2914C1410.66 49.3324 1415.52 45.4148 1421.97 42.5386C1428.52 39.5632 1436.7 38.0755 1446.52 38.0755C1453.06 38.0755 1459.51 38.8689 1465.86 40.4558C1472.21 41.9435 1477.81 44.2246 1482.67 47.2992L1475.23 65.598C1470.37 62.8209 1465.51 60.7877 1460.65 59.4984C1455.79 58.1099 1451.03 57.4156 1446.37 57.4156C1441.71 57.4156 1437.89 57.9611 1434.91 59.0521C1431.94 60.1431 1429.81 61.5812 1428.52 63.3664C1427.23 65.0525 1426.58 67.0361 1426.58 69.3172C1426.58 71.9951 1427.67 74.1771 1429.86 75.8631C1432.04 77.45 1434.91 78.7394 1438.48 79.7312C1442.05 80.723 1445.97 81.7148 1450.24 82.7066C1454.6 83.6984 1458.92 84.839 1463.18 86.1283C1467.54 87.4176 1471.51 89.1533 1475.08 91.3353C1478.65 93.5172 1481.53 96.3935 1483.71 99.964C1485.99 103.534 1487.13 108.047 1487.13 113.502C1487.13 119.354 1485.5 124.709 1482.22 129.569C1478.95 134.429 1474.04 138.347 1467.49 141.322C1461.05 144.298 1452.87 145.785 1442.95 145.785Z" fill="#D8D9FF" fill-opacity="0.4"/>
<rect x="562" y="7" width="107.569" height="11.2385" rx="5.61927" fill="#6F00FF"/>
<rect x="679.202" y="7.00012" width="35.3211" height="11.2385" rx="5.61927" fill="#6F00FF"/>
<rect x="720.945" y="7.00012" width="16.055" height="11.2385" rx="5.61927" fill="#6F00FF"/>
<rect x="1180" y="172.239" width="107.569" height="11.2385" rx="5.61927" transform="rotate(180 1180 172.239)" fill="#6F00FF"/>
<rect x="1062.8" y="172.238" width="35.3211" height="11.2385" rx="5.61927" transform="rotate(180 1062.8 172.238)" fill="#6F00FF"/>
<rect x="1021.05" y="172.238" width="16.055" height="11.2385" rx="5.61927" transform="rotate(180 1021.05 172.238)" fill="#6F00FF"/>
<g style="mix-blend-mode:multiply" filter="url(#filter0_b_3028_15504)">
<rect x="782" y="54" width="454" height="78" rx="39" fill="#6F00FF" fill-opacity="0.2"/>
</g>
<g style="mix-blend-mode:multiply" filter="url(#filter1_b_3028_15504)">
<rect x="790" y="61" width="438" height="62" rx="31" fill="#6F00FF" fill-opacity="0.01"/>
</g>
<g filter="url(#filter2_d_3028_15504)">
<path d="M18.3 131.715V61.7153H50.1C57.7 61.7153 64.4 63.182 70.2 66.1153C76 68.982 80.5333 73.0153 83.8 78.2153C87.0667 83.4153 88.7 89.582 88.7 96.7153C88.7 103.782 87.0667 109.949 83.8 115.215C80.5333 120.415 76 124.482 70.2 127.415C64.4 130.282 57.7 131.715 50.1 131.715H18.3ZM34.5 118.415H49.3C53.9667 118.415 58 117.549 61.4 115.815C64.8667 114.015 67.5333 111.482 69.4 108.215C71.3333 104.949 72.3 101.115 72.3 96.7153C72.3 92.2487 71.3333 88.4153 69.4 85.2153C67.5333 81.9487 64.8667 79.4487 61.4 77.7153C58 75.9153 53.9667 75.0153 49.3 75.0153H34.5V118.415ZM115.817 89.9153H149.517V102.515H115.817V89.9153ZM117.017 118.715H155.117V131.715H100.917V61.7153H153.817V74.7153H117.017V118.715ZM201.507 132.915C196.107 132.915 191.074 132.049 186.407 130.315C181.807 128.515 177.807 125.982 174.407 122.715C171.007 119.449 168.34 115.615 166.407 111.215C164.54 106.815 163.607 101.982 163.607 96.7153C163.607 91.4487 164.54 86.6153 166.407 82.2153C168.34 77.8153 171.007 73.982 174.407 70.7153C177.874 67.4487 181.907 64.9487 186.507 63.2153C191.107 61.4153 196.14 60.5153 201.607 60.5153C207.674 60.5153 213.14 61.582 218.007 63.7153C222.94 65.782 227.074 68.8487 230.407 72.9153L220.007 82.5153C217.607 79.782 214.94 77.7487 212.007 76.4153C209.074 75.0153 205.874 74.3153 202.407 74.3153C199.14 74.3153 196.14 74.8487 193.407 75.9153C190.674 76.982 188.307 78.5153 186.307 80.5153C184.307 82.5153 182.74 84.882 181.607 87.6153C180.54 90.3487 180.007 93.382 180.007 96.7153C180.007 100.049 180.54 103.082 181.607 105.815C182.74 108.549 184.307 110.915 186.307 112.915C188.307 114.915 190.674 116.449 193.407 117.515C196.14 118.582 199.14 119.115 202.407 119.115C205.874 119.115 209.074 118.449 212.007 117.115C214.94 115.715 217.607 113.615 220.007 110.815L230.407 120.415C227.074 124.482 222.94 127.582 218.007 129.715C213.14 131.849 207.64 132.915 201.507 132.915ZM241.347 131.715V61.7153H257.547V131.715H241.347ZM274.159 131.715V61.7153H304.459C310.726 61.7153 316.126 62.7487 320.659 64.8153C325.193 66.8153 328.693 69.7153 331.159 73.5153C333.626 77.3153 334.859 81.8487 334.859 87.1153C334.859 92.3153 333.626 96.8153 331.159 100.615C328.693 104.415 325.193 107.349 320.659 109.415C316.126 111.415 310.726 112.415 304.459 112.415H283.159L290.359 105.115V131.715H274.159ZM290.359 106.915L283.159 99.2153H303.559C308.559 99.2153 312.293 98.1487 314.759 96.0153C317.226 93.882 318.459 90.9153 318.459 87.1153C318.459 83.2487 317.226 80.2487 314.759 78.1153C312.293 75.982 308.559 74.9153 303.559 74.9153H283.159L290.359 67.2153V106.915ZM394.425 61.7153H410.625V131.715H394.425V61.7153ZM362.625 131.715H346.425V61.7153H362.625V131.715ZM395.625 103.015H361.425V89.3153H395.625V103.015ZM442.087 89.9153H475.787V102.515H442.087V89.9153ZM443.287 118.715H481.387V131.715H427.187V61.7153H480.087V74.7153H443.287V118.715ZM494.277 131.715V61.7153H524.577C530.843 61.7153 536.243 62.7487 540.777 64.8153C545.31 66.8153 548.81 69.7153 551.277 73.5153C553.743 77.3153 554.977 81.8487 554.977 87.1153C554.977 92.3153 553.743 96.8153 551.277 100.615C548.81 104.349 545.31 107.215 540.777 109.215C536.243 111.215 530.843 112.215 524.577 112.215H503.277L510.477 105.115V131.715H494.277ZM538.777 131.715L521.277 106.315H538.577L556.277 131.715H538.777ZM510.477 106.915L503.277 99.3153H523.677C528.677 99.3153 532.41 98.2487 534.877 96.1153C537.343 93.9153 538.577 90.9153 538.577 87.1153C538.577 83.2487 537.343 80.2487 534.877 78.1153C532.41 75.982 528.677 74.9153 523.677 74.9153H503.277L510.477 67.2153V106.915ZM567.812 131.715V61.7153H584.012V131.715H567.812ZM600.624 131.715V61.7153H614.024L655.324 112.115H648.824V61.7153H664.824V131.715H651.524L610.124 81.3153H616.624V131.715H600.624ZM715.186 132.915C709.653 132.915 704.553 132.049 699.886 130.315C695.286 128.515 691.253 125.982 687.786 122.715C684.386 119.449 681.719 115.615 679.786 111.215C677.919 106.815 676.986 101.982 676.986 96.7153C676.986 91.4487 677.919 86.6153 679.786 82.2153C681.719 77.8153 684.419 73.982 687.886 70.7153C691.353 67.4487 695.419 64.9487 700.086 63.2153C704.753 61.4153 709.886 60.5153 715.486 60.5153C721.686 60.5153 727.253 61.5487 732.186 63.6153C737.186 65.682 741.386 68.682 744.786 72.6153L734.386 82.2153C731.853 79.5487 729.086 77.582 726.086 76.3153C723.086 74.982 719.819 74.3153 716.286 74.3153C712.886 74.3153 709.786 74.8487 706.986 75.9153C704.186 76.982 701.753 78.5153 699.686 80.5153C697.686 82.5153 696.119 84.882 694.986 87.6153C693.919 90.3487 693.386 93.382 693.386 96.7153C693.386 99.982 693.919 102.982 694.986 105.715C696.119 108.449 697.686 110.849 699.686 112.915C701.753 114.915 704.153 116.449 706.886 117.515C709.686 118.582 712.753 119.115 716.086 119.115C719.286 119.115 722.386 118.615 725.386 117.615C728.453 116.549 731.419 114.782 734.286 112.315L743.486 124.015C739.686 126.882 735.253 129.082 730.186 130.615C725.186 132.149 720.186 132.915 715.186 132.915ZM728.686 121.915V95.6153H743.486V124.015L728.686 121.915ZM801.355 131.715V74.9153H778.955V61.7153H839.955V74.9153H817.555V131.715H801.355ZM896.671 61.7153H912.871V131.715H896.671V61.7153ZM864.871 131.715H848.671V61.7153H864.871V131.715ZM897.871 103.015H863.671V89.3153H897.871V103.015ZM944.333 89.9153H978.033V102.515H944.333V89.9153ZM945.533 118.715H983.633V131.715H929.433V61.7153H982.333V74.7153H945.533V118.715ZM1015.64 131.715L1046.84 61.7153H1062.84L1094.14 131.715H1077.14L1051.54 69.9153H1057.94L1032.24 131.715H1015.64ZM1031.24 116.715L1035.54 104.415H1071.54L1075.94 116.715H1031.24ZM1101.41 131.715V61.7153H1117.61V131.715H1101.41ZM1183.54 131.715L1153.34 61.7153H1170.84L1197.24 123.715H1186.94L1213.74 61.7153H1229.84L1199.54 131.715H1183.54ZM1235.68 131.715V61.7153H1251.88V131.715H1235.68ZM1268.5 131.715V61.7153H1298.8C1305.06 61.7153 1310.46 62.7487 1315 64.8153C1319.53 66.8153 1323.03 69.7153 1325.5 73.5153C1327.96 77.3153 1329.2 81.8487 1329.2 87.1153C1329.2 92.3153 1327.96 96.8153 1325.5 100.615C1323.03 104.349 1319.53 107.215 1315 109.215C1310.46 111.215 1305.06 112.215 1298.8 112.215H1277.5L1284.7 105.115V131.715H1268.5ZM1313 131.715L1295.5 106.315H1312.8L1330.5 131.715H1313ZM1284.7 106.915L1277.5 99.3153H1297.9C1302.9 99.3153 1306.63 98.2487 1309.1 96.1153C1311.56 93.9153 1312.8 90.9153 1312.8 87.1153C1312.8 83.2487 1311.56 80.2487 1309.1 78.1153C1306.63 75.982 1302.9 74.9153 1297.9 74.9153H1277.5L1284.7 67.2153V106.915ZM1355.55 131.715V74.9153H1333.15V61.7153H1394.15V74.9153H1371.75V131.715H1355.55ZM1432.8 132.915C1422.87 132.915 1415.1 130.149 1409.5 124.615C1403.9 119.082 1401.1 111.182 1401.1 100.915V61.7153H1417.3V100.315C1417.3 106.982 1418.67 111.782 1421.4 114.715C1424.13 117.649 1427.97 119.115 1432.9 119.115C1437.83 119.115 1441.67 117.649 1444.4 114.715C1447.13 111.782 1448.5 106.982 1448.5 100.315V61.7153H1464.5V100.915C1464.5 111.182 1461.7 119.082 1456.1 124.615C1450.5 130.149 1442.73 132.915 1432.8 132.915ZM1514.51 132.915C1508.97 132.915 1503.84 132.015 1499.11 130.215C1494.44 128.415 1490.37 125.882 1486.91 122.615C1483.51 119.349 1480.84 115.515 1478.91 111.115C1477.04 106.715 1476.11 101.915 1476.11 96.7153C1476.11 91.5153 1477.04 86.7153 1478.91 82.3153C1480.84 77.9153 1483.54 74.082 1487.01 70.8153C1490.47 67.5487 1494.54 65.0153 1499.21 63.2153C1503.87 61.4153 1508.94 60.5153 1514.41 60.5153C1519.94 60.5153 1525.01 61.4153 1529.61 63.2153C1534.27 65.0153 1538.31 67.5487 1541.71 70.8153C1545.17 74.082 1547.87 77.9153 1549.81 82.3153C1551.74 86.6487 1552.71 91.4487 1552.71 96.7153C1552.71 101.915 1551.74 106.749 1549.81 111.215C1547.87 115.615 1545.17 119.449 1541.71 122.715C1538.31 125.915 1534.27 128.415 1529.61 130.215C1525.01 132.015 1519.97 132.915 1514.51 132.915ZM1514.41 119.115C1517.54 119.115 1520.41 118.582 1523.01 117.515C1525.67 116.449 1528.01 114.915 1530.01 112.915C1532.01 110.915 1533.54 108.549 1534.61 105.815C1535.74 103.082 1536.31 100.049 1536.31 96.7153C1536.31 93.382 1535.74 90.3487 1534.61 87.6153C1533.54 84.882 1532.01 82.5153 1530.01 80.5153C1528.07 78.5153 1525.77 76.982 1523.11 75.9153C1520.44 74.8487 1517.54 74.3153 1514.41 74.3153C1511.27 74.3153 1508.37 74.8487 1505.71 75.9153C1503.11 76.982 1500.81 78.5153 1498.81 80.5153C1496.81 82.5153 1495.24 84.882 1494.11 87.6153C1493.04 90.3487 1492.51 93.382 1492.51 96.7153C1492.51 99.982 1493.04 103.015 1494.11 105.815C1495.24 108.549 1496.77 110.915 1498.71 112.915C1500.71 114.915 1503.04 116.449 1505.71 117.515C1508.37 118.582 1511.27 119.115 1514.41 119.115ZM1587.88 132.915C1582.28 132.915 1576.92 132.182 1571.78 130.715C1566.65 129.182 1562.52 127.215 1559.38 124.815L1564.88 112.615C1567.88 114.749 1571.42 116.515 1575.48 117.915C1579.62 119.249 1583.78 119.915 1587.98 119.915C1591.18 119.915 1593.75 119.615 1595.68 119.015C1597.68 118.349 1599.15 117.449 1600.08 116.315C1601.02 115.182 1601.48 113.882 1601.48 112.415C1601.48 110.549 1600.75 109.082 1599.28 108.015C1597.82 106.882 1595.88 105.982 1593.48 105.315C1591.08 104.582 1588.42 103.915 1585.48 103.315C1582.62 102.649 1579.72 101.849 1576.78 100.915C1573.92 99.982 1571.28 98.782 1568.88 97.3153C1566.48 95.8487 1564.52 93.9153 1562.98 91.5153C1561.52 89.1153 1560.78 86.0487 1560.78 82.3153C1560.78 78.3153 1561.85 74.682 1563.98 71.4153C1566.18 68.082 1569.45 65.4487 1573.78 63.5153C1578.18 61.5153 1583.68 60.5153 1590.28 60.5153C1594.68 60.5153 1599.02 61.0487 1603.28 62.1153C1607.55 63.1153 1611.32 64.6487 1614.58 66.7153L1609.58 79.0153C1606.32 77.1487 1603.05 75.782 1599.78 74.9153C1596.52 73.982 1593.32 73.5153 1590.18 73.5153C1587.05 73.5153 1584.48 73.882 1582.48 74.6153C1580.48 75.3487 1579.05 76.3153 1578.18 77.5153C1577.32 78.6487 1576.88 79.982 1576.88 81.5153C1576.88 83.3153 1577.62 84.782 1579.08 85.9153C1580.55 86.982 1582.48 87.8487 1584.88 88.5153C1587.28 89.182 1589.92 89.8487 1592.78 90.5153C1595.72 91.182 1598.62 91.9487 1601.48 92.8153C1604.42 93.682 1607.08 94.8487 1609.48 96.3153C1611.88 97.782 1613.82 99.7153 1615.28 102.115C1616.82 104.515 1617.58 107.549 1617.58 111.215C1617.58 115.149 1616.48 118.749 1614.28 122.015C1612.08 125.282 1608.78 127.915 1604.38 129.915C1600.05 131.915 1594.55 132.915 1587.88 132.915ZM1662.65 132.915C1657.12 132.915 1651.98 132.015 1647.25 130.215C1642.58 128.415 1638.52 125.882 1635.05 122.615C1631.65 119.349 1628.98 115.515 1627.05 111.115C1625.18 106.715 1624.25 101.915 1624.25 96.7153C1624.25 91.5153 1625.18 86.7153 1627.05 82.3153C1628.98 77.9153 1631.68 74.082 1635.15 70.8153C1638.62 67.5487 1642.68 65.0153 1647.35 63.2153C1652.02 61.4153 1657.08 60.5153 1662.55 60.5153C1668.08 60.5153 1673.15 61.4153 1677.75 63.2153C1682.42 65.0153 1686.45 67.5487 1689.85 70.8153C1693.32 74.082 1696.02 77.9153 1697.95 82.3153C1699.88 86.6487 1700.85 91.4487 1700.85 96.7153C1700.85 101.915 1699.88 106.749 1697.95 111.215C1696.02 115.615 1693.32 119.449 1689.85 122.715C1686.45 125.915 1682.42 128.415 1677.75 130.215C1673.15 132.015 1668.12 132.915 1662.65 132.915ZM1662.55 119.115C1665.68 119.115 1668.55 118.582 1671.15 117.515C1673.82 116.449 1676.15 114.915 1678.15 112.915C1680.15 110.915 1681.68 108.549 1682.75 105.815C1683.88 103.082 1684.45 100.049 1684.45 96.7153C1684.45 93.382 1683.88 90.3487 1682.75 87.6153C1681.68 84.882 1680.15 82.5153 1678.15 80.5153C1676.22 78.5153 1673.92 76.982 1671.25 75.9153C1668.58 74.8487 1665.68 74.3153 1662.55 74.3153C1659.42 74.3153 1656.52 74.8487 1653.85 75.9153C1651.25 76.982 1648.95 78.5153 1646.95 80.5153C1644.95 82.5153 1643.38 84.882 1642.25 87.6153C1641.18 90.3487 1640.65 93.382 1640.65 96.7153C1640.65 99.982 1641.18 103.015 1642.25 105.815C1643.38 108.549 1644.92 110.915 1646.85 112.915C1648.85 114.915 1651.18 116.449 1653.85 117.515C1656.52 118.582 1659.42 119.115 1662.55 119.115Z" fill="#6F00FF"/>
</g>
<defs>
<filter id="filter0_b_3028_15504" x="702" y="-26" width="614" height="238" filterUnits="userSpaceOnUse" color-interpolation-filters="sRGB">
<feFlood flood-opacity="0" result="BackgroundImageFix"/>
<feGaussianBlur in="BackgroundImageFix" stdDeviation="40"/>
<feComposite in2="SourceAlpha" operator="in" result="effect1_backgroundBlur_3028_15504"/>
<feBlend mode="normal" in="SourceGraphic" in2="effect1_backgroundBlur_3028_15504" result="shape"/>
</filter>
<filter id="filter1_b_3028_15504" x="710" y="-19" width="598" height="222" filterUnits="userSpaceOnUse" color-interpolation-filters="sRGB">
<feFlood flood-opacity="0" result="BackgroundImageFix"/>
<feGaussianBlur in="BackgroundImageFix" stdDeviation="40"/>
<feComposite in2="SourceAlpha" operator="in" result="effect1_backgroundBlur_3028_15504"/>
<feBlend mode="normal" in="SourceGraphic" in2="effect1_backgroundBlur_3028_15504" result="shape"/>
</filter>
<filter id="filter2_d_3028_15504" x="0.299805" y="42.5153" width="1718.55" height="108.4" filterUnits="userSpaceOnUse" color-interpolation-filters="sRGB">
<feFlood flood-opacity="0" result="BackgroundImageFix"/>
<feColorMatrix in="SourceAlpha" type="matrix" values="0 0 0 0 0 0 0 0 0 0 0 0 0 0 0 0 0 0 127 0" result="hardAlpha"/>
<feOffset/>
<feGaussianBlur stdDeviation="9"/>
<feComposite in2="hardAlpha" operator="out"/>
<feColorMatrix type="matrix" values="0 0 0 0 0 0 0 0 0 0 0 0 0 0 0 0 0 0 0.25 0"/>
<feBlend mode="normal" in2="BackgroundImageFix" result="effect1_dropShadow_3028_15504"/>
<feBlend mode="normal" in="SourceGraphic" in2="effect1_dropShadow_3028_15504" result="shape"/>
</filter>
</defs>
</svg>
