<svg width="51" height="54" viewBox="0 0 51 54" fill="none" xmlns="http://www.w3.org/2000/svg">
<path d="M1.7905 32.9587H7.3929C8.37787 32.9587 9.18326 33.77 9.18326 34.7617V42.1739C9.18326 43.1657 8.37773 43.9769 7.3929 43.9769H1.7905C0.80553 43.9769 0 43.1657 0 42.1739V34.7617C0 33.77 0.80553 32.9587 1.79036 32.9587H1.7905Z" fill="#10A831"/>
<path d="M15.7298 23.5814H21.3321C22.3171 23.5814 23.1226 24.3927 23.1226 25.3844V33.1035C19.5539 33.678 16.4087 35.5221 13.9392 38.1231V25.3843C13.9392 24.3925 14.7447 23.5813 15.7297 23.5813L15.7298 23.5814Z" fill="#10A831"/>
<path d="M29.6682 28.6975H35.2706C36.2556 28.6975 37.061 29.5087 37.061 30.5005V38.1231C34.5916 35.5221 31.4463 33.678 27.8777 33.1035V30.5005C27.8777 29.5087 28.6832 28.6975 29.668 28.6975H29.6682Z" fill="#10A831"/>
<path d="M43.6071 18.1643H49.2094C50.1944 18.1643 50.9999 18.9755 50.9999 19.9673V42.174C50.9999 43.1657 50.1944 43.977 49.2094 43.977H43.6071C42.6222 43.977 41.8167 43.1658 41.8167 42.174V19.9673C41.8167 18.9755 42.6222 18.1643 43.6071 18.1643Z" fill="#10A831"/>
<path fill-rule="evenodd" clip-rule="evenodd" d="M0.568508 23.1791L17.1888 9.13746C18.6148 7.93892 20.6845 8.05547 21.9649 9.41189L28.6659 16.4377L39.6768 6.40459L39.3817 6.10734L37.7107 4.42453C37.4109 4.12265 37.3085 3.70661 37.4337 3.29841C37.559 2.89007 37.8762 2.60514 38.2934 2.52627L47.3667 0.810681C47.7399 0.740079 48.093 0.849764 48.3613 1.12012C48.6298 1.39048 48.7384 1.74615 48.6686 2.12171L46.965 11.2592C46.887 11.6791 46.6038 11.9986 46.1983 12.125C45.7931 12.2509 45.38 12.1478 45.0802 11.8461L43.3456 10.0996L43.0461 9.79795L30.9409 20.8282C30.2339 21.472 29.3375 21.7739 28.4565 21.7407C27.5819 21.7075 26.716 21.3393 26.0612 20.6454L19.3276 13.5844L3.61787 26.8573C3.28027 27.1425 2.88801 27.2662 2.44901 27.226C2.00987 27.1858 1.64667 26.9927 1.36541 26.6506L0.364448 25.4313C-0.192232 24.7532 -0.100982 23.7447 0.568369 23.1792L0.568508 23.1791Z" fill="#10A831"/>
<path fill-rule="evenodd" clip-rule="evenodd" d="M25.5004 34.9844C30.98 34.9844 35.7908 38.4649 38.5216 43.7075C38.7429 44.1323 38.7429 44.6418 38.5216 45.0667C35.7908 50.3093 30.98 53.7897 25.5004 53.7897C20.0208 53.7897 15.21 50.3093 12.4792 45.0667C12.2579 44.6418 12.2579 44.1323 12.4792 43.7075C15.21 38.4649 20.0208 34.9844 25.5004 34.9844ZM25.5004 37.4839C30.302 37.4839 34.5334 39.9032 37.0239 43.5797C37.3446 44.0533 37.3446 44.7208 37.0239 45.1944C34.5334 48.8709 30.302 51.2903 25.5004 51.2903C20.6988 51.2903 16.4674 48.8709 13.9769 45.1944C13.6561 44.7208 13.6561 44.0533 13.9769 43.5797C16.4674 39.9032 20.6988 37.4839 25.5004 37.4839Z" fill="#10A831"/>
<path fill-rule="evenodd" clip-rule="evenodd" d="M25.5006 38.2952C28.8414 38.2952 31.5498 41.0227 31.5498 44.3871C31.5498 47.7514 28.8414 50.479 25.5006 50.479C22.1598 50.479 19.4514 47.7514 19.4514 44.3871C19.4514 41.0227 22.1598 38.2952 25.5006 38.2952ZM25.5006 40.2465C27.7714 40.2465 29.6121 42.1002 29.6121 44.3871C29.6121 46.6739 27.7714 48.5276 25.5006 48.5276C23.2298 48.5276 21.3891 46.6739 21.3891 44.3871C21.3891 42.1002 23.2298 40.2465 25.5006 40.2465Z" fill="#10A831"/>
<path fill-rule="evenodd" clip-rule="evenodd" d="M25.5005 41.4592C27.1063 41.4592 28.408 42.7701 28.408 44.3871C28.408 46.0041 27.1063 47.3151 25.5005 47.3151C23.8947 47.3151 22.593 46.0042 22.593 44.3871C22.593 44.0636 22.6452 43.7525 22.7414 43.4616C22.9662 43.7604 23.3223 43.9535 23.7232 43.9535C24.4031 43.9535 24.9542 43.3987 24.9542 42.7138C24.9542 42.2803 24.7329 41.8987 24.3981 41.6772C24.7382 41.5367 25.1103 41.4592 25.5005 41.4592Z" fill="#10A831"/>
</svg>
