<svg width="86" height="69" viewBox="0 0 86 69" fill="none" xmlns="http://www.w3.org/2000/svg">
<path d="M85.989 13.3516C85.9001 12.664 85.3149 12.1712 84.6498 12.1588H84.5986C84.5542 12.1595 84.5098 12.1625 84.4646 12.1676C68.911 14.1885 62.3421 28.2398 59.8916 35.8962C57.6369 29.7735 54.5186 26.9245 54.3568 26.7795C53.7956 26.2778 52.9405 26.3287 52.4404 26.8908C51.9402 27.4535 51.9871 28.3187 52.5435 28.8247C52.5862 28.862 56.809 32.7836 58.6303 41.3487C58.7648 41.9827 59.3205 42.4323 59.9602 42.4323H59.9953C60.6498 42.4148 61.1999 41.9318 61.3048 41.2816C61.3425 41.0428 65.3691 17.4124 84.8128 14.8867C85.5586 14.7891 86.0846 14.1027 85.9888 13.3518L85.989 13.3516Z" fill="#6F00FF"/>
<path d="M58.2599 18.2779C57.8793 18.2779 57.4987 18.4074 57.1866 18.6728C56.4885 19.2637 56.4044 20.3098 56.998 21.0052C58.5058 22.7772 59.6772 24.7884 60.4911 26.9355C61.0594 25.6755 61.6951 24.388 62.3667 23.0935C61.5726 21.5955 60.6343 20.1678 59.5221 18.8614C59.1933 18.4747 58.7283 18.2779 58.2602 18.2779H58.2599Z" fill="#6F00FF"/>
<path d="M48.7135 15.166C49.5695 15.4905 50.526 15.0566 50.8496 14.2009C51.1732 13.3465 50.7399 12.3899 49.8849 12.0675C47.2258 11.0647 44.4244 10.5558 41.5576 10.5558C40.7583 10.5558 39.9739 10.6265 39.1904 10.7054V14.0157C39.9705 13.9261 40.7583 13.8673 41.5576 13.8673C44.0237 13.8673 46.4298 14.3045 48.7135 15.1663V15.166Z" fill="#6F00FF"/>
<path d="M64.0132 20.0918C64.6142 19.052 65.2523 18.0163 65.9257 16.9817C60.5223 9.32788 51.6224 4.30597 41.5576 4.30597C40.7668 4.30597 39.9772 4.35442 39.1904 4.41537V7.83715C39.9812 7.76646 40.7604 7.61592 41.5576 7.61592C51.0224 7.61592 59.3223 12.6138 64.0132 20.0915V20.0918Z" fill="#6F00FF"/>
<path d="M52.2773 15.8045C52.2773 16.9856 53.2357 17.9431 54.4178 17.9431C55.5998 17.9431 56.5582 16.9853 56.5582 15.8045C56.5582 14.6237 55.5998 13.6659 54.4178 13.6659C53.2357 13.6659 52.2773 14.6237 52.2773 15.8045Z" fill="#6F00FF"/>
<path d="M68.0447 34.5357C67.9182 42.3842 64.3831 49.7062 58.2656 54.6745C57.5559 55.2508 57.4487 56.2938 58.0252 57.0026C58.6008 57.7117 59.6436 57.8211 60.3555 57.2428C67.3636 51.5538 71.3817 43.1195 71.3817 34.1066C71.3817 32.1302 71.1782 30.2003 70.8092 28.3302C69.7201 30.4804 68.8101 32.5735 68.0447 34.5354V34.5357Z" fill="#6F00FF"/>
<path d="M39.5827 60.5238C39.4498 60.5144 39.3234 60.4775 39.1914 60.4669V63.8024C39.242 63.8067 39.2904 63.8213 39.341 63.8247C40.2214 63.8932 41.0469 63.2085 41.1133 62.2949C41.181 61.3835 40.4966 60.5903 39.5824 60.5238H39.5827Z" fill="#6F00FF"/>
<path d="M44.6499 19.9531C44.7322 19.8446 44.7965 19.7276 44.8891 19.6243C45.8274 18.5772 47.1749 17.9766 48.5837 17.9766C48.7778 17.9766 48.9685 18.0062 49.1593 18.0281C46.8504 16.9335 44.2788 16.3024 41.5576 16.3024C40.7467 16.3024 39.973 16.4362 39.1904 16.5416V19.8528C39.9654 19.7242 40.7467 19.6136 41.5576 19.6136C42.6192 19.6136 43.6526 19.7358 44.6499 19.9528V19.9531Z" fill="#6F00FF"/>
<path d="M49.2948 58.602C47.826 58.602 46.6357 59.7913 46.6357 61.2589C46.6357 62.7265 47.826 63.9149 49.2948 63.9149C50.7636 63.9149 51.9526 62.7256 51.9526 61.2589C51.9526 59.7923 50.7624 58.602 49.2948 58.602Z" fill="#6F00FF"/>
<path d="M33.1281 2.56683V6.06663C31.0057 4.5244 28.3192 3.62576 25.7656 3.62576C21.5649 3.62576 17.9106 6.22052 16.4863 10.0689C11.0543 10.1037 6.64729 14.5295 6.64729 19.9647C6.64729 20.462 6.6863 20.9593 6.76004 21.4523C2.60355 23.3346 -0.110352 27.4674 -0.110352 32.1166C-0.110352 35.4055 1.24233 38.4714 3.63262 40.6846C3.25628 41.8478 3.0643 43.0551 3.0643 44.2908C3.0643 50.4938 7.91526 55.5843 14.0241 55.9795C14.0918 56.2059 14.1969 56.3881 14.3447 56.5219C16.3385 60.3597 20.3101 62.86 24.7195 62.86C28.0206 62.86 30.995 61.4786 33.1278 59.2779V65.8518C33.1278 67.0664 34.1136 68.0516 35.3295 68.0516V0.367004C34.1139 0.367004 33.1278 1.35188 33.1278 2.56683H33.1281ZM33.1281 16.7376V16.8555C31.9031 17.0451 30.6504 16.9798 29.5424 16.3329C27.9621 15.4111 27.2396 13.5474 26.5503 11.946C25.8165 10.2435 23.3345 11.7205 24.0597 13.4042C25.0583 15.7241 26.2538 17.9985 28.6526 19.1142C30.0687 19.7715 31.6091 19.9095 33.1284 19.7474V29.0909C31.4393 28.242 29.3391 28.2219 27.3685 28.4736C25.5666 28.7055 23.8248 29.2774 22.1969 30.0706C20.8665 30.7197 16.728 33.8011 15.0243 33.0606C15.3028 30.3617 13.582 27.4972 10.7943 27.0758C8.9681 26.7997 8.33335 29.6136 10.1742 29.8918C11.5753 30.1036 12.5392 31.6869 12.0763 33.0859C11.6314 34.4313 9.69883 34.331 8.77307 33.423C7.44446 32.1187 5.49176 34.2427 6.8152 35.5414C8.63503 37.3283 12.1735 37.5337 13.9446 35.6511C14.9325 36.0134 16.0396 36.0345 17.1519 35.7691C18.7925 35.3772 20.2537 34.392 21.7152 33.5881C24.1865 32.2302 30.616 29.1296 32.8798 32.6325C32.9526 32.7452 33.0443 32.8053 33.1287 32.8854V47.804C30.0467 47.4069 27.0473 48.553 25.1558 51.1593C24.0634 52.6638 26.4455 54.2904 27.5367 52.7881C28.8345 51.0003 30.9865 50.1912 33.129 50.6504V53.5655C32.0683 57.2265 28.7209 59.9276 24.7207 59.9276C21.2224 59.9276 18.0941 57.8246 16.7024 54.6549C16.6137 54.1103 16.5104 53.6109 16.4632 53.1263L16.4769 52.7134L16.4623 52.7156C16.4687 52.2804 16.5308 51.8294 16.7975 51.2995C18.5329 47.8421 22.0629 48.0727 25.2744 48.6182C26.2212 48.7782 26.9464 47.7869 26.819 46.9346C26.4436 44.4166 26.972 40.4198 30.6242 41.7807C32.3627 42.4286 33.3445 39.7168 31.6005 39.0659C29.3526 38.2285 26.8675 38.7718 25.1238 40.4491C23.6151 41.9008 23.5097 43.6655 23.709 45.5091C21.4095 45.2942 19.3578 45.5206 17.5127 46.6238C15.7846 46.667 14.2664 45.9811 13.3732 44.4346C12.4496 42.8333 9.87923 44.1481 10.8111 45.762C11.7338 47.3624 13.1697 48.5012 14.8335 49.0817C13.7941 50.4703 13.5914 51.6249 13.6643 52.9271C9.35815 52.3654 6.00005 48.7447 6.00005 44.2905C6.00005 43.0874 6.24139 41.9169 6.71799 40.8138L7.16929 39.7668L6.26669 39.0726C4.07905 37.3911 2.82631 34.8543 2.82631 32.1163C2.82631 28.2898 5.27571 24.9323 8.91934 23.7579L10.2827 23.3185L9.87466 21.9436C9.68055 21.2966 9.58365 20.6308 9.58365 19.964C9.58365 16.3862 12.3079 13.4639 15.7873 13.0784C15.7419 14.5344 16.1405 16.0102 16.8343 17.3397C14.1732 18.2762 12.4661 20.888 12.9268 23.8947C13.2062 25.7194 16.0847 25.4961 15.8019 23.6576C15.4813 21.5611 16.6677 20.0158 18.773 19.8565C20.4179 21.3472 22.5675 22.1575 24.8926 21.5041C26.6682 21.0047 26.1389 18.1686 24.3486 18.6723C21.2374 19.5457 18.539 16.1787 18.6499 13.2067L18.6868 13.211L18.9851 11.932C19.7262 8.76835 22.5151 6.55694 25.7668 6.55694C28.524 6.55694 31.5679 8.03091 33.1293 10.2146V16.737L33.1281 16.7376Z" fill="#6F00FF"/>
<path d="M52.2791 48.3258C53.0086 47.7758 53.1543 46.7382 52.6027 46.0081C52.0533 45.2801 51.0139 45.1326 50.2822 45.6848C47.7548 47.5905 44.7383 48.5977 41.5576 48.5977C40.7552 48.5977 39.9675 48.5093 39.1904 48.3795V51.7498C39.9696 51.854 40.7604 51.9088 41.5576 51.9088C45.4651 51.9088 49.1709 50.671 52.2794 48.3258H52.2791Z" fill="#6F00FF"/>
<path d="M58.6839 50.2363H58.6829C58.3992 50.1763 58.1253 50.0919 57.8605 49.9846C57.8541 49.9816 57.8489 49.9782 57.8425 49.9761C57.5811 49.8697 57.3333 49.7433 57.0959 49.5946C57.0917 49.5924 57.0886 49.5894 57.0853 49.5882C56.6023 49.2859 56.1763 48.9044 55.8209 48.4589V48.4579C52.1572 52.0937 47.1161 54.345 41.5576 54.345C40.7467 54.345 39.976 54.1984 39.1904 54.1058V57.5349C39.9684 57.6138 40.7583 57.6549 41.5576 57.6549C48.3054 57.6549 54.3826 54.7914 58.6833 50.236L58.6839 50.2363Z" fill="#6F00FF"/>
</svg>
