<svg width="1761" height="372" viewBox="0 0 1761 372" fill="none" xmlns="http://www.w3.org/2000/svg">
<mask id="path-1-outside-1_3010_14745" maskUnits="userSpaceOnUse" x="556" y="70" width="668" height="276" fill="black">
<rect fill="white" x="556" y="70" width="668" height="276"/>
<path d="M604.856 173.615H709.919V214.265H604.856V173.615ZM608.609 294H557.953V75.1184H723.365V115.768H608.609V294ZM720.035 294L817.594 75.1184H867.624L965.495 294H912.338L832.29 100.759H852.302L771.942 294H720.035ZM768.815 247.097L782.26 208.636H894.828L908.586 247.097H768.815ZM1091.15 297.752C1074.06 297.752 1058.11 294.938 1043.31 289.31C1028.72 283.681 1016 275.76 1005.16 265.545C994.531 255.331 986.193 243.345 980.148 229.586C974.311 215.828 971.392 200.819 971.392 184.559C971.392 168.299 974.311 153.29 980.148 139.532C986.193 125.774 994.636 113.788 1005.48 103.573C1016.32 93.3586 1029.03 85.4371 1043.62 79.8088C1058.22 74.1804 1074.06 71.3662 1091.15 71.3662C1108.45 71.3662 1124.3 74.1804 1138.68 79.8088C1153.27 85.4371 1165.88 93.3586 1176.52 103.573C1187.36 113.579 1195.8 125.461 1201.84 139.219C1207.89 152.978 1210.91 168.091 1210.91 184.559C1210.91 200.819 1207.89 215.932 1201.84 229.899C1195.8 243.657 1187.36 255.644 1176.52 265.858C1165.88 275.864 1153.27 283.681 1138.68 289.31C1124.3 294.938 1108.45 297.752 1091.15 297.752ZM1162.76 344.343C1154.21 344.343 1146.08 343.405 1138.37 341.529C1130.86 339.652 1123.36 336.63 1115.85 332.461C1108.56 328.291 1100.85 322.663 1092.72 315.575C1084.79 308.488 1076.14 299.733 1066.76 289.31L1119.92 275.864C1125.55 283.577 1130.76 289.727 1135.55 294.313C1140.35 298.899 1144.93 302.13 1149.31 304.006C1153.9 305.882 1158.69 306.82 1163.7 306.82C1177.04 306.82 1188.92 301.4 1199.34 290.56L1221.86 317.452C1207.05 335.379 1187.36 344.343 1162.76 344.343ZM1091.15 254.601C1100.95 254.601 1109.91 252.934 1118.04 249.598C1126.38 246.263 1133.68 241.468 1139.93 235.215C1146.19 228.961 1150.98 221.561 1154.31 213.014C1157.86 204.259 1159.63 194.774 1159.63 184.559C1159.63 174.136 1157.86 164.651 1154.31 156.105C1150.98 147.558 1146.19 140.158 1139.93 133.904C1133.68 127.65 1126.38 122.855 1118.04 119.52C1109.91 116.185 1100.95 114.517 1091.15 114.517C1081.35 114.517 1072.29 116.185 1063.95 119.52C1055.61 122.855 1048.31 127.65 1042.06 133.904C1036.01 140.158 1031.22 147.558 1027.68 156.105C1024.34 164.651 1022.67 174.136 1022.67 184.559C1022.67 194.774 1024.34 204.259 1027.68 213.014C1031.22 221.561 1036.01 228.961 1042.06 235.215C1048.31 241.468 1055.61 246.263 1063.95 249.598C1072.29 252.934 1081.35 254.601 1091.15 254.601Z"/>
</mask>
<path d="M604.856 173.615V172.615H603.856V173.615H604.856ZM709.919 173.615H710.919V172.615H709.919V173.615ZM709.919 214.265V215.265H710.919V214.265H709.919ZM604.856 214.265H603.856V215.265H604.856V214.265ZM608.609 294V295H609.609V294H608.609ZM557.953 294H556.953V295H557.953V294ZM557.953 75.1184V74.1184H556.953V75.1184H557.953ZM723.365 75.1184H724.365V74.1184H723.365V75.1184ZM723.365 115.768V116.768H724.365V115.768H723.365ZM608.609 115.768V114.768H607.609V115.768H608.609ZM604.856 174.615H709.919V172.615H604.856V174.615ZM708.919 173.615V214.265H710.919V173.615H708.919ZM709.919 213.265H604.856V215.265H709.919V213.265ZM605.856 214.265V173.615H603.856V214.265H605.856ZM608.609 293H557.953V295H608.609V293ZM558.953 294V75.1184H556.953V294H558.953ZM557.953 76.1184H723.365V74.1184H557.953V76.1184ZM722.365 75.1184V115.768H724.365V75.1184H722.365ZM723.365 114.768H608.609V116.768H723.365V114.768ZM607.609 115.768V294H609.609V115.768H607.609ZM720.035 294L719.122 293.593L718.495 295H720.035V294ZM817.594 75.1184V74.1184H816.945L816.681 74.7113L817.594 75.1184ZM867.624 75.1184L868.537 74.7102L868.272 74.1184H867.624V75.1184ZM965.495 294V295H967.038L966.408 293.592L965.495 294ZM912.338 294L911.415 294.383L911.67 295H912.338V294ZM832.29 100.759V99.7589H830.794L831.366 101.142L832.29 100.759ZM852.302 100.759L853.226 101.143L853.801 99.7589H852.302V100.759ZM771.942 294V295H772.609L772.865 294.384L771.942 294ZM768.815 247.097L767.871 246.767L767.406 248.097H768.815V247.097ZM782.26 208.636V207.636H781.551L781.316 208.306L782.26 208.636ZM894.828 208.636L895.77 208.299L895.532 207.636H894.828V208.636ZM908.586 247.097V248.097H910.006L909.528 246.76L908.586 247.097ZM720.949 294.407L818.507 75.5255L816.681 74.7113L719.122 293.593L720.949 294.407ZM817.594 76.1184H867.624V74.1184H817.594V76.1184ZM866.711 75.5266L964.583 294.408L966.408 293.592L868.537 74.7102L866.711 75.5266ZM965.495 293H912.338V295H965.495V293ZM913.262 293.617L833.214 100.376L831.366 101.142L911.415 294.383L913.262 293.617ZM832.29 101.759H852.302V99.7589H832.29V101.759ZM851.379 100.375L771.018 293.616L772.865 294.384L853.226 101.143L851.379 100.375ZM771.942 293H720.035V295H771.942V293ZM769.759 247.427L783.204 208.966L781.316 208.306L767.871 246.767L769.759 247.427ZM782.26 209.636H894.828V207.636H782.26V209.636ZM893.886 208.973L907.645 247.434L909.528 246.76L895.77 208.299L893.886 208.973ZM908.586 246.097H768.815V248.097H908.586V246.097ZM1043.31 289.31L1042.95 290.243L1042.96 290.244L1043.31 289.31ZM1005.16 265.545L1004.47 266.267L1004.48 266.273L1005.16 265.545ZM980.148 229.586L979.227 229.977L979.232 229.989L980.148 229.586ZM980.148 139.532L979.232 139.13L979.227 139.142L980.148 139.532ZM1043.62 79.8088L1043.26 78.8757L1043.62 79.8088ZM1138.68 79.8088L1138.32 80.74L1138.32 80.7418L1138.68 79.8088ZM1176.52 103.573L1175.82 104.294L1175.83 104.301L1175.84 104.308L1176.52 103.573ZM1201.84 139.219L1200.93 139.622L1201.84 139.219ZM1201.84 229.899L1202.76 230.301L1202.76 230.296L1201.84 229.899ZM1176.52 265.858L1177.2 266.586L1177.2 266.586L1176.52 265.858ZM1138.68 289.31L1138.32 288.377L1138.32 288.378L1138.68 289.31ZM1138.37 341.529L1138.13 342.499L1138.13 342.5L1138.37 341.529ZM1115.85 332.461L1115.36 333.329L1115.37 333.335L1115.85 332.461ZM1092.72 315.575L1092.05 316.321L1092.06 316.329L1092.72 315.575ZM1066.76 289.31L1066.52 288.34L1064.91 288.747L1066.02 289.979L1066.76 289.31ZM1119.92 275.864L1120.73 275.275L1120.33 274.729L1119.67 274.895L1119.92 275.864ZM1135.55 294.313L1136.24 293.59L1135.55 294.313ZM1149.31 304.006L1148.92 304.925L1148.93 304.928L1148.93 304.932L1149.31 304.006ZM1199.34 290.56L1200.11 289.918L1199.39 289.064L1198.62 289.867L1199.34 290.56ZM1221.86 317.452L1222.63 318.088L1223.16 317.447L1222.62 316.81L1221.86 317.452ZM1118.04 249.598L1117.67 248.67L1117.66 248.673L1118.04 249.598ZM1139.93 235.215L1139.22 234.508L1139.93 235.215ZM1154.31 213.014L1153.39 212.639L1153.38 212.65L1154.31 213.014ZM1154.31 156.105L1153.38 156.468L1153.39 156.478L1153.39 156.488L1154.31 156.105ZM1139.93 133.904L1139.22 134.611L1139.93 133.904ZM1118.04 119.52L1117.66 120.445L1117.67 120.449L1118.04 119.52ZM1063.95 119.52L1063.58 118.592L1063.95 119.52ZM1042.06 133.904L1041.35 133.197L1041.35 133.203L1041.34 133.209L1042.06 133.904ZM1027.68 156.105L1026.75 155.722L1026.75 155.731L1026.74 155.741L1027.68 156.105ZM1027.68 213.014L1026.74 213.37L1026.75 213.383L1026.75 213.397L1027.68 213.014ZM1042.06 235.215L1041.34 235.91L1041.35 235.916L1041.35 235.922L1042.06 235.215ZM1063.95 249.598L1063.58 250.527L1063.95 249.598ZM1091.15 296.752C1074.17 296.752 1058.34 293.957 1043.67 288.375L1042.96 290.244C1057.88 295.919 1073.95 298.752 1091.15 298.752V296.752ZM1043.67 288.377C1029.19 282.793 1016.59 274.939 1005.85 264.818L1004.48 266.273C1015.42 276.581 1028.24 284.57 1042.95 290.243L1043.67 288.377ZM1005.86 264.824C995.32 254.702 987.057 242.825 981.063 229.184L979.232 229.989C985.329 243.864 993.742 255.96 1004.47 266.267L1005.86 264.824ZM981.068 229.196C975.288 215.572 972.392 200.697 972.392 184.559H970.392C970.392 200.941 973.333 216.085 979.227 229.977L981.068 229.196ZM972.392 184.559C972.392 168.422 975.288 153.547 981.068 139.923L979.227 139.142C973.333 153.034 970.392 168.177 970.392 184.559H972.392ZM981.063 139.934C987.055 126.298 995.42 114.422 1006.16 104.301L1004.79 102.845C993.851 113.153 985.331 125.25 979.232 139.13L981.063 139.934ZM1006.16 104.301C1016.9 94.1796 1029.51 86.3259 1043.98 80.7418L1043.26 78.8757C1028.56 84.5484 1015.73 92.5375 1004.79 102.845L1006.16 104.301ZM1043.98 80.7418C1058.45 75.1616 1074.17 72.3662 1091.15 72.3662V70.3662C1073.95 70.3662 1057.98 73.1991 1043.26 78.8757L1043.98 80.7418ZM1091.15 72.3662C1108.34 72.3662 1124.06 75.1622 1138.32 80.74L1139.04 78.8775C1124.53 73.1986 1108.56 70.3662 1091.15 70.3662V72.3662ZM1138.32 80.7418C1152.8 86.3253 1165.29 94.1772 1175.82 104.294L1177.21 102.852C1166.48 92.5399 1153.75 84.549 1139.04 78.8757L1138.32 80.7418ZM1175.84 104.308C1186.57 114.219 1194.94 125.987 1200.93 139.622L1202.76 138.817C1196.66 124.935 1188.14 112.939 1177.19 102.838L1175.84 104.308ZM1200.93 139.622C1206.91 153.242 1209.91 168.216 1209.91 184.559H1211.91C1211.91 167.966 1208.87 152.714 1202.76 138.817L1200.93 139.622ZM1209.91 184.559C1209.91 200.692 1206.91 215.669 1200.93 229.502L1202.76 230.296C1208.86 216.196 1211.91 200.946 1211.91 184.559H1209.91ZM1200.93 229.497C1194.94 243.133 1186.57 255.009 1175.83 265.13L1177.2 266.586C1188.14 256.279 1196.66 244.181 1202.76 230.301L1200.93 229.497ZM1175.83 265.13C1165.3 275.041 1152.8 282.792 1138.32 288.377L1139.04 290.243C1153.74 284.571 1166.47 276.687 1177.2 266.586L1175.83 265.13ZM1138.32 288.378C1124.06 293.956 1108.34 296.752 1091.15 296.752V298.752C1108.56 298.752 1124.53 295.92 1139.04 290.241L1138.32 288.378ZM1162.76 343.343C1154.28 343.343 1146.23 342.413 1138.6 340.557L1138.13 342.5C1145.93 344.397 1154.14 345.343 1162.76 345.343V343.343ZM1138.61 340.558C1131.2 338.706 1123.78 335.718 1116.34 331.586L1115.37 333.335C1122.94 337.542 1130.53 340.599 1138.13 342.499L1138.61 340.558ZM1116.35 331.592C1109.13 327.464 1101.47 321.877 1093.37 314.822L1092.06 316.329C1100.22 323.449 1107.99 329.119 1115.36 333.329L1116.35 331.592ZM1093.38 314.83C1085.49 307.773 1076.87 299.045 1067.51 288.641L1066.02 289.979C1075.42 300.42 1084.09 309.203 1092.05 316.321L1093.38 314.83ZM1067.01 290.279L1120.16 276.834L1119.67 274.895L1066.52 288.34L1067.01 290.279ZM1119.11 276.454C1124.76 284.195 1130.01 290.395 1134.86 295.035L1136.24 293.59C1131.51 289.058 1126.33 282.959 1120.73 275.275L1119.11 276.454ZM1134.86 295.035C1139.71 299.674 1144.4 302.987 1148.92 304.925L1149.71 303.087C1145.47 301.272 1140.98 298.124 1136.24 293.59L1134.86 295.035ZM1148.93 304.932C1153.64 306.857 1158.56 307.82 1163.7 307.82V305.82C1158.82 305.82 1154.16 304.907 1149.69 303.08L1148.93 304.932ZM1163.7 307.82C1177.34 307.82 1189.48 302.262 1200.06 291.254L1198.62 289.867C1188.36 300.538 1176.73 305.82 1163.7 305.82V307.82ZM1198.58 291.202L1221.09 318.094L1222.62 316.81L1200.11 289.918L1198.58 291.202ZM1221.08 316.815C1206.49 334.497 1187.08 343.343 1162.76 343.343V345.343C1187.63 345.343 1207.62 336.261 1222.63 318.088L1221.08 316.815ZM1091.15 255.601C1101.06 255.601 1110.16 253.914 1118.42 250.523L1117.66 248.673C1109.67 251.954 1100.83 253.601 1091.15 253.601V255.601ZM1118.41 250.527C1126.88 247.142 1134.29 242.273 1140.64 235.922L1139.22 234.508C1133.07 240.664 1125.89 245.384 1117.67 248.67L1118.41 250.527ZM1140.64 235.922C1146.99 229.567 1151.86 222.048 1155.25 213.377L1153.38 212.65C1150.1 221.073 1145.38 228.355 1139.22 234.508L1140.64 235.922ZM1155.24 213.389C1158.84 204.505 1160.63 194.892 1160.63 184.559H1158.63C1158.63 194.656 1156.88 204.012 1153.39 212.639L1155.24 213.389ZM1160.63 184.559C1160.63 174.021 1158.84 164.404 1155.24 155.722L1153.39 156.488C1156.88 164.899 1158.63 174.251 1158.63 184.559H1160.63ZM1155.25 155.741C1151.86 147.07 1146.99 139.552 1140.64 133.197L1139.22 134.611C1145.38 140.763 1150.1 148.045 1153.38 156.468L1155.25 155.741ZM1140.64 133.197C1134.29 126.846 1126.88 121.976 1118.41 118.592L1117.67 120.449C1125.89 123.734 1133.07 128.454 1139.22 134.611L1140.64 133.197ZM1118.42 118.595C1110.16 115.205 1101.06 113.517 1091.15 113.517V115.517C1100.83 115.517 1109.67 117.165 1117.66 120.445L1118.42 118.595ZM1091.15 113.517C1081.24 113.517 1072.04 115.205 1063.58 118.592L1064.32 120.449C1072.53 117.165 1081.47 115.517 1091.15 115.517V113.517ZM1063.58 118.592C1055.11 121.976 1047.7 126.846 1041.35 133.197L1042.77 134.611C1048.92 128.454 1056.1 123.734 1064.32 120.449L1063.58 118.592ZM1041.34 133.209C1035.2 139.558 1030.34 147.066 1026.75 155.722L1028.6 156.488C1032.1 148.049 1036.83 140.757 1042.78 134.599L1041.34 133.209ZM1026.74 155.741C1023.36 164.418 1021.67 174.029 1021.67 184.559H1023.67C1023.67 174.244 1025.32 164.884 1028.61 156.468L1026.74 155.741ZM1021.67 184.559C1021.67 194.884 1023.36 204.491 1026.74 213.37L1028.61 212.658C1025.32 204.026 1023.67 194.663 1023.67 184.559H1021.67ZM1026.75 213.397C1030.34 222.052 1035.2 229.56 1041.34 235.91L1042.78 234.52C1036.83 228.362 1032.1 221.069 1028.6 212.631L1026.75 213.397ZM1041.35 235.922C1047.7 242.273 1055.11 247.142 1063.58 250.527L1064.32 248.67C1056.1 245.384 1048.92 240.664 1042.77 234.508L1041.35 235.922ZM1063.58 250.527C1072.04 253.914 1081.24 255.601 1091.15 255.601V253.601C1081.47 253.601 1072.53 251.954 1064.32 248.67L1063.58 250.527Z" fill="url(#paint0_linear_3010_14745)" mask="url(#path-1-outside-1_3010_14745)"/>
<g filter="url(#filter0_d_3010_14745)">
<path d="M33.3 230.5H66.9V243.5H33.3V230.5ZM34.5 269H18.3V199H71.2V212H34.5V269ZM82.1672 269V199H112.467C118.734 199 124.134 200.033 128.667 202.1C133.201 204.1 136.701 207 139.167 210.8C141.634 214.6 142.867 219.133 142.867 224.4C142.867 229.6 141.634 234.1 139.167 237.9C136.701 241.633 133.201 244.5 128.667 246.5C124.134 248.5 118.734 249.5 112.467 249.5H91.1672L98.3672 242.4V269H82.1672ZM126.667 269L109.167 243.6H126.467L144.167 269H126.667ZM98.3672 244.2L91.1672 236.6H111.567C116.567 236.6 120.301 235.533 122.767 233.4C125.234 231.2 126.467 228.2 126.467 224.4C126.467 220.533 125.234 217.533 122.767 215.4C120.301 213.267 116.567 212.2 111.567 212.2H91.1672L98.3672 204.5V244.2ZM170.602 227.2H204.302V239.8H170.602V227.2ZM171.802 256H209.902V269H155.702V199H208.602V212H171.802V256ZM256.692 270.2C251.226 270.2 246.126 269.3 241.392 267.5C236.726 265.7 232.659 263.167 229.192 259.9C225.792 256.633 223.126 252.8 221.192 248.4C219.326 244 218.392 239.2 218.392 234C218.392 228.8 219.326 224 221.192 219.6C223.126 215.2 225.826 211.367 229.292 208.1C232.759 204.833 236.826 202.3 241.492 200.5C246.159 198.7 251.226 197.8 256.692 197.8C262.226 197.8 267.292 198.7 271.892 200.5C276.559 202.3 280.592 204.833 283.992 208.1C287.459 211.3 290.159 215.1 292.092 219.5C294.026 223.9 294.992 228.733 294.992 234C294.992 239.2 294.026 244.033 292.092 248.5C290.159 252.9 287.459 256.733 283.992 260C280.592 263.2 276.559 265.7 271.892 267.5C267.292 269.3 262.226 270.2 256.692 270.2ZM279.592 285.1C276.859 285.1 274.259 284.8 271.792 284.2C269.392 283.6 266.992 282.633 264.592 281.3C262.259 279.967 259.792 278.167 257.192 275.9C254.659 273.633 251.892 270.833 248.892 267.5L265.892 263.2C267.692 265.667 269.359 267.633 270.892 269.1C272.426 270.567 273.892 271.6 275.292 272.2C276.759 272.8 278.292 273.1 279.892 273.1C284.159 273.1 287.959 271.367 291.292 267.9L298.492 276.5C293.759 282.233 287.459 285.1 279.592 285.1ZM256.692 256.4C259.826 256.4 262.692 255.867 265.292 254.8C267.959 253.733 270.292 252.2 272.292 250.2C274.292 248.2 275.826 245.833 276.892 243.1C278.026 240.3 278.592 237.267 278.592 234C278.592 230.667 278.026 227.633 276.892 224.9C275.826 222.167 274.292 219.8 272.292 217.8C270.292 215.8 267.959 214.267 265.292 213.2C262.692 212.133 259.826 211.6 256.692 211.6C253.559 211.6 250.659 212.133 247.992 213.2C245.326 214.267 242.992 215.8 240.992 217.8C239.059 219.8 237.526 222.167 236.392 224.9C235.326 227.633 234.792 230.667 234.792 234C234.792 237.267 235.326 240.3 236.392 243.1C237.526 245.833 239.059 248.2 240.992 250.2C242.992 252.2 245.326 253.733 247.992 254.8C250.659 255.867 253.559 256.4 256.692 256.4ZM338.267 270.2C328.334 270.2 320.567 267.433 314.967 261.9C309.367 256.367 306.567 248.467 306.567 238.2V199H322.767V237.6C322.767 244.267 324.134 249.067 326.867 252C329.601 254.933 333.434 256.4 338.367 256.4C343.301 256.4 347.134 254.933 349.867 252C352.601 249.067 353.967 244.267 353.967 237.6V199H369.967V238.2C369.967 248.467 367.167 256.367 361.567 261.9C355.967 267.433 348.201 270.2 338.267 270.2ZM400.876 227.2H434.576V239.8H400.876V227.2ZM402.076 256H440.176V269H385.976V199H438.876V212H402.076V256ZM453.066 269V199H466.466L507.766 249.4H501.266V199H517.266V269H503.966L462.566 218.6H469.066V269H453.066ZM548.327 269V212.2H525.927V199H586.927V212.2H564.527V269H548.327ZM595.644 269V199H611.844V255.8H646.944V269H595.644ZM666.169 269V240.4L669.869 250.2L639.069 199H656.269L679.869 238.3H669.969L693.669 199H709.569L678.769 250.2L682.369 240.4V269H666.169ZM735.467 269L766.667 199H782.667L813.967 269H796.967L771.367 207.2H777.767L752.067 269H735.467ZM751.067 254L755.367 241.7H791.367L795.767 254H751.067ZM844.23 270.2C838.63 270.2 833.263 269.467 828.13 268C822.996 266.467 818.863 264.5 815.73 262.1L821.23 249.9C824.23 252.033 827.763 253.8 831.83 255.2C835.963 256.533 840.13 257.2 844.33 257.2C847.53 257.2 850.096 256.9 852.03 256.3C854.03 255.633 855.496 254.733 856.43 253.6C857.363 252.467 857.83 251.167 857.83 249.7C857.83 247.833 857.096 246.367 855.63 245.3C854.163 244.167 852.23 243.267 849.83 242.6C847.43 241.867 844.763 241.2 841.83 240.6C838.963 239.933 836.063 239.133 833.13 238.2C830.263 237.267 827.63 236.067 825.23 234.6C822.83 233.133 820.863 231.2 819.33 228.8C817.863 226.4 817.13 223.333 817.13 219.6C817.13 215.6 818.196 211.967 820.33 208.7C822.53 205.367 825.796 202.733 830.13 200.8C834.53 198.8 840.03 197.8 846.63 197.8C851.03 197.8 855.363 198.333 859.63 199.4C863.896 200.4 867.663 201.933 870.93 204L865.93 216.3C862.663 214.433 859.396 213.067 856.13 212.2C852.863 211.267 849.663 210.8 846.53 210.8C843.396 210.8 840.83 211.167 838.83 211.9C836.83 212.633 835.396 213.6 834.53 214.8C833.663 215.933 833.23 217.267 833.23 218.8C833.23 220.6 833.963 222.067 835.43 223.2C836.896 224.267 838.83 225.133 841.23 225.8C843.63 226.467 846.263 227.133 849.13 227.8C852.063 228.467 854.963 229.233 857.83 230.1C860.763 230.967 863.43 232.133 865.83 233.6C868.23 235.067 870.163 237 871.63 239.4C873.163 241.8 873.93 244.833 873.93 248.5C873.93 252.433 872.83 256.033 870.63 259.3C868.43 262.567 865.13 265.2 860.73 267.2C856.396 269.2 850.896 270.2 844.23 270.2ZM899.499 253L898.599 234.3L932.099 199H950.099L919.899 231.5L910.899 241.1L899.499 253ZM884.999 269V199H901.099V269H884.999ZM932.899 269L907.999 238.5L918.599 227L951.799 269H932.899ZM973.923 227.2H1007.62V239.8H973.923V227.2ZM975.123 256H1013.22V269H959.023V199H1011.92V212H975.123V256ZM1026.11 269V199H1057.91C1065.51 199 1072.21 200.467 1078.01 203.4C1083.81 206.267 1088.35 210.3 1091.61 215.5C1094.88 220.7 1096.51 226.867 1096.51 234C1096.51 241.067 1094.88 247.233 1091.61 252.5C1088.35 257.7 1083.81 261.767 1078.01 264.7C1072.21 267.567 1065.51 269 1057.91 269H1026.11ZM1042.31 255.7H1057.11C1061.78 255.7 1065.81 254.833 1069.21 253.1C1072.68 251.3 1075.35 248.767 1077.21 245.5C1079.15 242.233 1080.11 238.4 1080.11 234C1080.11 229.533 1079.15 225.7 1077.21 222.5C1075.35 219.233 1072.68 216.733 1069.21 215C1065.81 213.2 1061.78 212.3 1057.11 212.3H1042.31V255.7ZM1170.95 270.2C1165.48 270.2 1160.38 269.3 1155.65 267.5C1150.98 265.7 1146.92 263.167 1143.45 259.9C1140.05 256.633 1137.38 252.8 1135.45 248.4C1133.58 244 1132.65 239.2 1132.65 234C1132.65 228.8 1133.58 224 1135.45 219.6C1137.38 215.2 1140.08 211.367 1143.55 208.1C1147.02 204.833 1151.08 202.3 1155.75 200.5C1160.42 198.7 1165.48 197.8 1170.95 197.8C1176.48 197.8 1181.55 198.7 1186.15 200.5C1190.82 202.3 1194.85 204.833 1198.25 208.1C1201.72 211.3 1204.42 215.1 1206.35 219.5C1208.28 223.9 1209.25 228.733 1209.25 234C1209.25 239.2 1208.28 244.033 1206.35 248.5C1204.42 252.9 1201.72 256.733 1198.25 260C1194.85 263.2 1190.82 265.7 1186.15 267.5C1181.55 269.3 1176.48 270.2 1170.95 270.2ZM1193.85 285.1C1191.12 285.1 1188.52 284.8 1186.05 284.2C1183.65 283.6 1181.25 282.633 1178.85 281.3C1176.52 279.967 1174.05 278.167 1171.45 275.9C1168.92 273.633 1166.15 270.833 1163.15 267.5L1180.15 263.2C1181.95 265.667 1183.62 267.633 1185.15 269.1C1186.68 270.567 1188.15 271.6 1189.55 272.2C1191.02 272.8 1192.55 273.1 1194.15 273.1C1198.42 273.1 1202.22 271.367 1205.55 267.9L1212.75 276.5C1208.02 282.233 1201.72 285.1 1193.85 285.1ZM1170.95 256.4C1174.08 256.4 1176.95 255.867 1179.55 254.8C1182.22 253.733 1184.55 252.2 1186.55 250.2C1188.55 248.2 1190.08 245.833 1191.15 243.1C1192.28 240.3 1192.85 237.267 1192.85 234C1192.85 230.667 1192.28 227.633 1191.15 224.9C1190.08 222.167 1188.55 219.8 1186.55 217.8C1184.55 215.8 1182.22 214.267 1179.55 213.2C1176.95 212.133 1174.08 211.6 1170.95 211.6C1167.82 211.6 1164.92 212.133 1162.25 213.2C1159.58 214.267 1157.25 215.8 1155.25 217.8C1153.32 219.8 1151.78 222.167 1150.65 224.9C1149.58 227.633 1149.05 230.667 1149.05 234C1149.05 237.267 1149.58 240.3 1150.65 243.1C1151.78 245.833 1153.32 248.2 1155.25 250.2C1157.25 252.2 1159.58 253.733 1162.25 254.8C1164.92 255.867 1167.82 256.4 1170.95 256.4ZM1252.53 270.2C1242.59 270.2 1234.83 267.433 1229.23 261.9C1223.63 256.367 1220.83 248.467 1220.83 238.2V199H1237.03V237.6C1237.03 244.267 1238.39 249.067 1241.13 252C1243.86 254.933 1247.69 256.4 1252.63 256.4C1257.56 256.4 1261.39 254.933 1264.13 252C1266.86 249.067 1268.22 244.267 1268.22 237.6V199H1284.23V238.2C1284.23 248.467 1281.43 256.367 1275.83 261.9C1270.23 267.433 1262.46 270.2 1252.53 270.2ZM1315.13 227.2H1348.83V239.8H1315.13V227.2ZM1316.33 256H1354.43V269H1300.23V199H1353.13V212H1316.33V256ZM1390.32 270.2C1384.72 270.2 1379.36 269.467 1374.22 268C1369.09 266.467 1364.96 264.5 1361.82 262.1L1367.32 249.9C1370.32 252.033 1373.86 253.8 1377.92 255.2C1382.06 256.533 1386.22 257.2 1390.42 257.2C1393.62 257.2 1396.19 256.9 1398.12 256.3C1400.12 255.633 1401.59 254.733 1402.52 253.6C1403.46 252.467 1403.92 251.167 1403.92 249.7C1403.92 247.833 1403.19 246.367 1401.72 245.3C1400.26 244.167 1398.32 243.267 1395.92 242.6C1393.52 241.867 1390.86 241.2 1387.92 240.6C1385.06 239.933 1382.16 239.133 1379.22 238.2C1376.36 237.267 1373.72 236.067 1371.32 234.6C1368.92 233.133 1366.96 231.2 1365.42 228.8C1363.96 226.4 1363.22 223.333 1363.22 219.6C1363.22 215.6 1364.29 211.967 1366.42 208.7C1368.62 205.367 1371.89 202.733 1376.22 200.8C1380.62 198.8 1386.12 197.8 1392.72 197.8C1397.12 197.8 1401.46 198.333 1405.72 199.4C1409.99 200.4 1413.76 201.933 1417.02 204L1412.02 216.3C1408.76 214.433 1405.49 213.067 1402.22 212.2C1398.96 211.267 1395.76 210.8 1392.62 210.8C1389.49 210.8 1386.92 211.167 1384.92 211.9C1382.92 212.633 1381.49 213.6 1380.62 214.8C1379.76 215.933 1379.32 217.267 1379.32 218.8C1379.32 220.6 1380.06 222.067 1381.52 223.2C1382.99 224.267 1384.92 225.133 1387.32 225.8C1389.72 226.467 1392.36 227.133 1395.22 227.8C1398.16 228.467 1401.06 229.233 1403.92 230.1C1406.86 230.967 1409.52 232.133 1411.92 233.6C1414.32 235.067 1416.26 237 1417.72 239.4C1419.26 241.8 1420.02 244.833 1420.02 248.5C1420.02 252.433 1418.92 256.033 1416.72 259.3C1414.52 262.567 1411.22 265.2 1406.82 267.2C1402.49 269.2 1396.99 270.2 1390.32 270.2ZM1444.62 269V212.2H1422.22V199H1483.22V212.2H1460.82V269H1444.62ZM1491.93 269V199H1508.13V269H1491.93ZM1558.75 270.2C1553.21 270.2 1548.08 269.3 1543.35 267.5C1538.68 265.7 1534.61 263.167 1531.15 259.9C1527.75 256.633 1525.08 252.8 1523.15 248.4C1521.28 244 1520.35 239.2 1520.35 234C1520.35 228.8 1521.28 224 1523.15 219.6C1525.08 215.2 1527.78 211.367 1531.25 208.1C1534.71 204.833 1538.78 202.3 1543.45 200.5C1548.11 198.7 1553.18 197.8 1558.65 197.8C1564.18 197.8 1569.25 198.7 1573.85 200.5C1578.51 202.3 1582.55 204.833 1585.95 208.1C1589.41 211.367 1592.11 215.2 1594.05 219.6C1595.98 223.933 1596.95 228.733 1596.95 234C1596.95 239.2 1595.98 244.033 1594.05 248.5C1592.11 252.9 1589.41 256.733 1585.95 260C1582.55 263.2 1578.51 265.7 1573.85 267.5C1569.25 269.3 1564.21 270.2 1558.75 270.2ZM1558.65 256.4C1561.78 256.4 1564.65 255.867 1567.25 254.8C1569.91 253.733 1572.25 252.2 1574.25 250.2C1576.25 248.2 1577.78 245.833 1578.85 243.1C1579.98 240.367 1580.55 237.333 1580.55 234C1580.55 230.667 1579.98 227.633 1578.85 224.9C1577.78 222.167 1576.25 219.8 1574.25 217.8C1572.31 215.8 1570.01 214.267 1567.35 213.2C1564.68 212.133 1561.78 211.6 1558.65 211.6C1555.51 211.6 1552.61 212.133 1549.95 213.2C1547.35 214.267 1545.05 215.8 1543.05 217.8C1541.05 219.8 1539.48 222.167 1538.35 224.9C1537.28 227.633 1536.75 230.667 1536.75 234C1536.75 237.267 1537.28 240.3 1538.35 243.1C1539.48 245.833 1541.01 248.2 1542.95 250.2C1544.95 252.2 1547.28 253.733 1549.95 254.8C1552.61 255.867 1555.51 256.4 1558.65 256.4ZM1609.12 269V199H1622.52L1663.82 249.4H1657.32V199H1673.32V269H1660.02L1618.62 218.6H1625.12V269H1609.12ZM1712.88 270.2C1707.28 270.2 1701.92 269.467 1696.78 268C1691.65 266.467 1687.52 264.5 1684.38 262.1L1689.88 249.9C1692.88 252.033 1696.42 253.8 1700.48 255.2C1704.62 256.533 1708.78 257.2 1712.98 257.2C1716.18 257.2 1718.75 256.9 1720.68 256.3C1722.68 255.633 1724.15 254.733 1725.08 253.6C1726.02 252.467 1726.48 251.167 1726.48 249.7C1726.48 247.833 1725.75 246.367 1724.28 245.3C1722.82 244.167 1720.88 243.267 1718.48 242.6C1716.08 241.867 1713.42 241.2 1710.48 240.6C1707.62 239.933 1704.72 239.133 1701.78 238.2C1698.92 237.267 1696.28 236.067 1693.88 234.6C1691.48 233.133 1689.52 231.2 1687.98 228.8C1686.52 226.4 1685.78 223.333 1685.78 219.6C1685.78 215.6 1686.85 211.967 1688.98 208.7C1691.18 205.367 1694.45 202.733 1698.78 200.8C1703.18 198.8 1708.68 197.8 1715.28 197.8C1719.68 197.8 1724.02 198.333 1728.28 199.4C1732.55 200.4 1736.32 201.933 1739.58 204L1734.58 216.3C1731.32 214.433 1728.05 213.067 1724.78 212.2C1721.52 211.267 1718.32 210.8 1715.18 210.8C1712.05 210.8 1709.48 211.167 1707.48 211.9C1705.48 212.633 1704.05 213.6 1703.18 214.8C1702.32 215.933 1701.88 217.267 1701.88 218.8C1701.88 220.6 1702.62 222.067 1704.08 223.2C1705.55 224.267 1707.48 225.133 1709.88 225.8C1712.28 226.467 1714.92 227.133 1717.78 227.8C1720.72 228.467 1723.62 229.233 1726.48 230.1C1729.42 230.967 1732.08 232.133 1734.48 233.6C1736.88 235.067 1738.82 237 1740.28 239.4C1741.82 241.8 1742.58 244.833 1742.58 248.5C1742.58 252.433 1741.48 256.033 1739.28 259.3C1737.08 262.567 1733.78 265.2 1729.38 267.2C1725.05 269.2 1719.55 270.2 1712.88 270.2Z" fill="#6F00FF"/>
</g>
<defs>
<filter id="filter0_d_3010_14745" x="0.299988" y="179.8" width="1760.28" height="123.3" filterUnits="userSpaceOnUse" color-interpolation-filters="sRGB">
<feFlood flood-opacity="0" result="BackgroundImageFix"/>
<feColorMatrix in="SourceAlpha" type="matrix" values="0 0 0 0 0 0 0 0 0 0 0 0 0 0 0 0 0 0 127 0" result="hardAlpha"/>
<feOffset/>
<feGaussianBlur stdDeviation="9"/>
<feComposite in2="hardAlpha" operator="out"/>
<feColorMatrix type="matrix" values="0 0 0 0 0 0 0 0 0 0 0 0 0 0 0 0 0 0 0.25 0"/>
<feBlend mode="normal" in2="BackgroundImageFix" result="effect1_dropShadow_3010_14745"/>
<feBlend mode="normal" in="SourceGraphic" in2="effect1_dropShadow_3010_14745" result="shape"/>
</filter>
<linearGradient id="paint0_linear_3010_14745" x1="878" y1="-9" x2="878" y2="230.21" gradientUnits="userSpaceOnUse">
<stop stop-color="#6F00FF"/>
<stop offset="1" stop-color="#6F00FF" stop-opacity="0"/>
<stop offset="1" stop-color="#6F00FF" stop-opacity="0"/>
</linearGradient>
</defs>
</svg>
