<svg width="714" height="257" viewBox="0 0 714 257" fill="none" xmlns="http://www.w3.org/2000/svg">
<path d="M85.5627 148.255H99.5227V152.655H85.5627V148.255ZM86.0027 163.375H80.8027V135.375H101.243V139.735H86.0027V163.375ZM106.271 163.375V135.375H111.471V158.975H126.111V163.375H106.271ZM135.017 147.015H148.937V151.295H135.017V147.015ZM135.417 159.015H151.217V163.375H130.217V135.375H150.657V139.735H135.417V159.015ZM153.301 163.375L165.101 147.135V151.055L153.861 135.375H159.741L168.101 146.975L165.701 147.015L173.981 135.375H179.621L168.461 150.775V147.015L180.341 163.375H174.341L165.541 151.055H167.901L159.221 163.375H153.301ZM183.498 163.375V135.375H188.698V163.375H183.498ZM196.271 163.375V135.375H209.391C212.751 135.375 215.311 136.041 217.071 137.375C218.831 138.681 219.711 140.441 219.711 142.655C219.711 144.148 219.365 145.428 218.671 146.495C217.978 147.535 217.045 148.348 215.871 148.935C214.725 149.495 213.471 149.775 212.111 149.775L212.831 148.335C214.405 148.335 215.818 148.628 217.071 149.215C218.325 149.775 219.311 150.601 220.031 151.695C220.778 152.788 221.151 154.148 221.151 155.775C221.151 158.175 220.231 160.041 218.391 161.375C216.551 162.708 213.818 163.375 210.191 163.375H196.271ZM201.471 159.295H209.871C211.818 159.295 213.311 158.975 214.351 158.335C215.391 157.695 215.911 156.668 215.911 155.255C215.911 153.868 215.391 152.855 214.351 152.215C213.311 151.548 211.818 151.215 209.871 151.215H201.071V147.175H208.831C210.645 147.175 212.031 146.855 212.991 146.215C213.978 145.575 214.471 144.615 214.471 143.335C214.471 142.028 213.978 141.055 212.991 140.415C212.031 139.775 210.645 139.455 208.831 139.455H201.471V159.295ZM226.701 163.375V135.375H231.901V158.975H246.541V163.375H226.701ZM255.446 147.015H269.366V151.295H255.446V147.015ZM255.846 159.015H271.646V163.375H250.646V135.375H271.086V139.735H255.846V159.015ZM288.498 163.375V135.375H300.018C302.498 135.375 304.618 135.775 306.378 136.575C308.165 137.375 309.538 138.521 310.498 140.015C311.458 141.508 311.938 143.281 311.938 145.335C311.938 147.388 311.458 149.161 310.498 150.655C309.538 152.148 308.165 153.295 306.378 154.095C304.618 154.895 302.498 155.295 300.018 155.295H291.378L293.698 152.855V163.375H288.498ZM293.698 153.415L291.378 150.895H299.778C302.071 150.895 303.791 150.415 304.938 149.455C306.111 148.468 306.698 147.095 306.698 145.335C306.698 143.548 306.111 142.175 304.938 141.215C303.791 140.255 302.071 139.775 299.778 139.775H291.378L293.698 137.215V153.415ZM311.765 163.375L324.365 135.375H329.485L342.125 163.375H336.685L325.845 138.135H327.925L317.125 163.375H311.765ZM317.565 156.895L318.965 152.815H334.085L335.485 156.895H317.565ZM350.886 163.375V152.295L352.046 155.495L339.886 135.375H345.446L355.206 151.575H352.086L361.926 135.375H367.046L354.886 155.495L356.086 152.295V163.375H350.886ZM370.1 163.375V135.375H374.38L386.62 155.815H384.38L396.42 135.375H400.7L400.74 163.375H395.82L395.78 143.095H396.82L386.58 160.175H384.26L373.86 143.095H375.06V163.375H370.1ZM413.103 147.015H427.023V151.295H413.103V147.015ZM413.503 159.015H429.303V163.375H408.303V135.375H428.743V139.735H413.503V159.015ZM435.1 163.375V135.375H439.38L456.94 156.935H454.82V135.375H459.98V163.375H455.7L438.14 141.815H440.26V163.375H435.1ZM473.162 163.375V139.775H463.882V135.375H487.642V139.775H478.362V163.375H473.162ZM502.6 163.375V135.375H514.12C516.6 135.375 518.72 135.775 520.48 136.575C522.266 137.375 523.64 138.521 524.6 140.015C525.56 141.508 526.04 143.281 526.04 145.335C526.04 147.388 525.56 149.161 524.6 150.655C523.64 152.148 522.266 153.295 520.48 154.095C518.72 154.895 516.6 155.295 514.12 155.295H505.48L507.8 152.855V163.375H502.6ZM507.8 153.415L505.48 150.895H513.88C516.173 150.895 517.893 150.415 519.04 149.455C520.213 148.468 520.8 147.095 520.8 145.335C520.8 143.548 520.213 142.175 519.04 141.215C517.893 140.255 516.173 139.775 513.88 139.775H505.48L507.8 137.215V153.415ZM531.232 163.375V135.375H536.432V158.975H551.072V163.375H531.232ZM551.257 163.375L563.857 135.375H568.977L581.617 163.375H576.177L565.337 138.135H567.417L556.617 163.375H551.257ZM557.057 156.895L558.457 152.815H573.577L574.977 156.895H557.057ZM585.178 163.375V135.375H589.458L607.018 156.935H604.898V135.375H610.058V163.375H605.778L588.218 141.815H590.338V163.375H585.178ZM626.241 163.775C624.054 163.775 621.961 163.468 619.961 162.855C617.961 162.215 616.374 161.401 615.201 160.415L617.001 156.375C618.121 157.255 619.507 157.988 621.161 158.575C622.814 159.161 624.507 159.455 626.241 159.455C627.707 159.455 628.894 159.295 629.801 158.975C630.707 158.655 631.374 158.228 631.801 157.695C632.227 157.135 632.441 156.508 632.441 155.815C632.441 154.961 632.134 154.281 631.521 153.775C630.907 153.241 630.107 152.828 629.121 152.535C628.161 152.215 627.081 151.921 625.881 151.655C624.707 151.388 623.521 151.081 622.321 150.735C621.147 150.361 620.067 149.895 619.081 149.335C618.121 148.748 617.334 147.975 616.721 147.015C616.107 146.055 615.801 144.828 615.801 143.335C615.801 141.815 616.201 140.428 617.001 139.175C617.827 137.895 619.067 136.881 620.721 136.135C622.401 135.361 624.521 134.975 627.081 134.975C628.761 134.975 630.427 135.188 632.081 135.615C633.734 136.041 635.174 136.655 636.401 137.455L634.761 141.495C633.507 140.748 632.214 140.201 630.881 139.855C629.547 139.481 628.267 139.295 627.041 139.295C625.601 139.295 624.427 139.468 623.521 139.815C622.641 140.161 621.987 140.615 621.561 141.175C621.161 141.735 620.961 142.375 620.961 143.095C620.961 143.948 621.254 144.641 621.841 145.175C622.454 145.681 623.241 146.081 624.201 146.375C625.187 146.668 626.281 146.961 627.481 147.255C628.681 147.521 629.867 147.828 631.041 148.175C632.241 148.521 633.321 148.975 634.281 149.535C635.267 150.095 636.054 150.855 636.641 151.815C637.254 152.775 637.561 153.988 637.561 155.455C637.561 156.948 637.147 158.335 636.321 159.615C635.521 160.868 634.281 161.881 632.601 162.655C630.921 163.401 628.801 163.775 626.241 163.775Z" fill="#EE3248"/>
<path d="M38.6577 120.308C82.2434 108.918 205.523 81.9761 349.937 65.3262C555.589 41.6158 686.222 49.8908 693.43 83.0031C700.639 116.115 566.176 165.562 376.969 189.497C167.259 216.026 29.6769 218.931 21.5673 181.679C13.4576 144.428 225.88 54.9777 398.512 73.2607" stroke="#FEFEFE" stroke-width="3" stroke-linecap="round" stroke-dasharray="1 1"/>
</svg>
