<svg width="90" height="88" viewBox="0 0 90 88" fill="none" xmlns="http://www.w3.org/2000/svg">
<path d="M5.85864 55.9322C1.25885 31.4763 13.4154 7.88999 41.3178 4.75205C37.4698 0.640712 32.2133 0.609855 29.7952 1.11023C25.5247 2.47074 25.6586 5.23419 20.8148 8.80343C15.9994 11.5536 13.5809 9.44757 10.0734 12.2987C6.57291 15.1284 9.01551 21.6248 7.54735 22.8882C6.09006 25.4139 1.56987 27.664 0.746902 30.8542C0.0666459 34.9344 2.59271 37.8489 2.49558 41.3463C2.78732 44.2605 -0.405676 45.9086 0.0529706 48.2709C1.42716 52.1297 4.0756 54.4524 5.32425 55.523C5.61038 55.7249 5.91299 56.2218 5.85864 55.9322Z" fill="#FF0090"/>
<path d="M55.5079 22.0787C55.2655 22.0787 55.0254 22.0309 54.8014 21.9381C54.5774 21.8453 54.3739 21.7093 54.2025 21.5378C54.0311 21.3664 53.8951 21.1629 53.8024 20.9389C53.7096 20.7149 53.6619 20.4748 53.6619 20.2323C53.6619 19.9899 53.7097 19.7498 53.8025 19.5259C53.8953 19.3019 54.0313 19.0984 54.2028 18.927C54.3742 18.7556 54.5777 18.6196 54.8017 18.5268C55.0257 18.4341 55.2658 18.3863 55.5082 18.3864C55.9979 18.3864 56.4675 18.5809 56.8137 18.9271C57.1599 19.2733 57.3544 19.7429 57.3544 20.2325C57.3544 20.7222 57.1599 21.1917 56.8137 21.538C56.4675 21.8842 55.9979 22.0787 55.5082 22.0787H55.5079ZM6.93694 58.6C2.51633 37.3452 16.1951 19.5852 42.6844 28.3286C58.2275 37.4216 77.7807 36.8294 78.6618 30.9515C80.8383 23.9052 68.7525 9.38455 50.683 5.59581C14.8349 -1.39925 -4.491 37.3452 6.93694 58.5996V58.6Z" fill="url(#paint0_radial_1821_16087)"/>
<path d="M65.7414 60.9704C71.0642 61.5472 76.117 60.2698 80.7992 56.453C73.7253 64.3436 64.8798 68.3108 54.7311 69.3901C59.577 73.5099 64.2501 75.3655 68.7205 74.5713C56.2985 77.9992 45.8909 74.2262 33.2304 61.6184C32.5677 65.0123 36.1524 70.3004 39.8471 73.6757C18.4093 64.3818 16.5298 35.4296 42.6709 28.3079C15.5729 15.2884 0.249951 40.5855 7.778 61.3186C15.144 77.287 34.7726 89.5807 56.2855 86.8772C66.7348 85.5974 82.3393 78.3926 88.714 61.3186C84.2212 65.3503 76.1903 68.8617 72.6067 69.131C84.7356 63.0693 91.2836 52.7691 89.4455 38.6913C86.9331 44.6726 83.6181 49.2665 79.4717 52.4212C88.2799 38.6909 86.7686 31.5942 80.2491 23.7947C84.912 36.6186 78.8798 50.851 65.7414 60.9704Z" fill="url(#paint1_radial_1821_16087)"/>
<path d="M59.5163 75.744C58.5958 75.5722 61.6026 76.9618 55.7896 75.4228C49.9769 73.8842 44.0584 72.4013 33.23 61.6179C32.5673 65.0121 36.152 70.2999 39.8467 73.6756C49.8206 80.6317 43.0376 77.3784 58.2347 82.6318C59.4542 80.2046 59.5163 78.0474 59.5163 75.744Z" fill="url(#paint2_linear_1821_16087)"/>
<path d="M40.1934 21.122C40.1934 21.122 41.5147 19.1717 42.0291 18.2923C42.6595 17.2144 43.6273 15.2501 43.6273 15.2501C43.6273 15.2501 33.4571 11.9319 30.9612 11.5269C23.2025 13.541 23.1744 16.7915 27.5119 21.7669C27.9944 22.3209 40.1934 21.122 40.1934 21.122Z" fill="url(#paint3_linear_1821_16087)"/>
<defs>
<radialGradient id="paint0_radial_1821_16087" cx="0" cy="0" r="1" gradientUnits="userSpaceOnUse" gradientTransform="translate(5931.47 2042.4) scale(6763.88 4838.52)">
<stop stop-color="#F80090"/>
<stop offset="1" stop-color="#4D008E"/>
</radialGradient>
<radialGradient id="paint1_radial_1821_16087" cx="0" cy="0" r="1" gradientUnits="userSpaceOnUse" gradientTransform="translate(5772.12 302.877) scale(6855.85 5186.19)">
<stop stop-color="#57008E"/>
<stop offset="0.29175" stop-color="#5C008E"/>
<stop offset="1" stop-color="#F80090"/>
</radialGradient>
<linearGradient id="paint2_linear_1821_16087" x1="514.038" y1="61.6179" x2="1725.91" y2="2099.7" gradientUnits="userSpaceOnUse">
<stop stop-color="#F70090"/>
<stop offset="0.66971" stop-color="#E50090"/>
<stop offset="0.82715" stop-color="#D6008F" stop-opacity="0.2"/>
<stop offset="1" stop-color="#C10090" stop-opacity="0"/>
</linearGradient>
<linearGradient id="paint3_linear_1821_16087" x1="1259.24" y1="754.751" x2="1083.36" y2="417.91" gradientUnits="userSpaceOnUse">
<stop stop-color="#B2008F" stop-opacity="0.151"/>
<stop offset="0.40035" stop-color="#F70090" stop-opacity="0.4"/>
<stop offset="0.649" stop-color="#F60090" stop-opacity="0.892"/>
<stop offset="1" stop-color="#FF0090"/>
</linearGradient>
</defs>
</svg>
