<svg width="387" height="108" viewBox="0 0 387 108" fill="none" xmlns="http://www.w3.org/2000/svg">
<rect x="278" y="101" width="67" height="7" rx="3.5" fill="#6F00FF"/>
<rect x="351" y="101" width="22" height="7" rx="3.5" fill="#6F00FF"/>
<rect x="377" y="101" width="10" height="7" rx="3.5" fill="#6F00FF"/>
<rect width="103" height="105.368" rx="51.5" fill="#6F00FF"/>
<path d="M26.84 67.664C24.6267 67.664 22.5867 67.3173 20.72 66.624C18.88 65.904 17.2667 64.8906 15.88 63.584C14.52 62.2773 13.4533 60.744 12.68 58.984C11.9333 57.224 11.56 55.2906 11.56 53.184C11.56 51.0773 11.9333 49.144 12.68 47.384C13.4533 45.624 14.5333 44.0906 15.92 42.784C17.3067 41.4773 18.9333 40.4773 20.8 39.784C22.6667 39.064 24.72 38.704 26.96 38.704C29.44 38.704 31.6667 39.1173 33.64 39.944C35.64 40.7706 37.32 41.9706 38.68 43.544L34.52 47.384C33.5067 46.3173 32.4 45.5306 31.2 45.024C30 44.4906 28.6933 44.224 27.28 44.224C25.92 44.224 24.68 44.4373 23.56 44.864C22.44 45.2906 21.4667 45.904 20.64 46.704C19.84 47.504 19.2133 48.4506 18.76 49.544C18.3333 50.6373 18.12 51.8506 18.12 53.184C18.12 54.4906 18.3333 55.6906 18.76 56.784C19.2133 57.8773 19.84 58.8373 20.64 59.664C21.4667 60.464 22.4267 61.0773 23.52 61.504C24.64 61.9306 25.8667 62.144 27.2 62.144C28.48 62.144 29.72 61.944 30.92 61.544C32.1467 61.1173 33.3333 60.4106 34.48 59.424L38.16 64.104C36.64 65.2506 34.8667 66.1306 32.84 66.744C30.84 67.3573 28.84 67.664 26.84 67.664ZM32.24 63.264V52.744H38.16V64.104L32.24 63.264ZM50.1394 50.464H63.6194V55.504H50.1394V50.464ZM50.6194 61.984H65.8594V67.184H44.1794V39.184H65.3394V44.384H50.6194V61.984ZM76.8153 67.184V44.464H67.8553V39.184H92.2553V44.464H83.2953V67.184H76.8153Z" fill="white"/>
<path d="M116.448 67.184V44.464H107.488V39.184H131.888V44.464H122.928V67.184H116.448ZM148.544 67.664C139.704 67.664 133.224 61.504 133.224 53.184C133.224 44.864 139.704 38.704 148.544 38.704C157.344 38.704 163.864 44.824 163.864 53.184C163.864 61.544 157.344 67.664 148.544 67.664ZM148.544 62.144C153.544 62.144 157.304 58.504 157.304 53.184C157.304 47.864 153.544 44.224 148.544 44.224C143.544 44.224 139.784 47.864 139.784 53.184C139.784 58.504 143.544 62.144 148.544 62.144ZM199.222 67.184L190.262 56.184L186.502 60.104V67.184H180.062V39.184H186.502V52.264L198.902 39.184H206.102L194.502 51.664L206.782 67.184H199.222ZM228.952 39.184H235.352V67.184H230.032L216.072 50.184V67.184H209.672V39.184H215.032L228.952 56.184V39.184ZM255.536 67.664C246.696 67.664 240.216 61.504 240.216 53.184C240.216 44.864 246.696 38.704 255.536 38.704C264.336 38.704 270.856 44.824 270.856 53.184C270.856 61.544 264.336 67.664 255.536 67.664ZM255.536 62.144C260.536 62.144 264.296 58.504 264.296 53.184C264.296 47.864 260.536 44.224 255.536 44.224C250.536 44.224 246.776 47.864 246.776 53.184C246.776 58.504 250.536 62.144 255.536 62.144ZM310.909 39.184H317.109L307.949 67.184H300.989L294.829 48.224L288.469 67.184H281.549L272.349 39.184H279.069L285.389 58.864L291.989 39.184H297.989L304.389 59.024L310.909 39.184ZM345.08 67.664C337.12 67.664 332.4 63.104 332.4 54.864V39.184H338.88V54.624C338.88 59.944 341.2 62.144 345.12 62.144C349.08 62.144 351.36 59.944 351.36 54.624V39.184H357.76V54.864C357.76 63.104 353.04 67.664 345.08 67.664ZM373.364 67.664C368.924 67.664 364.444 66.344 361.964 64.424L364.164 59.544C366.524 61.264 370.044 62.464 373.404 62.464C377.244 62.464 378.804 61.184 378.804 59.464C378.804 54.224 362.524 57.824 362.524 47.424C362.524 42.664 366.364 38.704 374.324 38.704C377.844 38.704 381.444 39.544 384.044 41.184L382.044 46.104C379.444 44.624 376.764 43.904 374.284 43.904C370.444 43.904 368.964 45.344 368.964 47.104C368.964 52.264 385.244 48.704 385.244 58.984C385.244 63.664 381.364 67.664 373.364 67.664Z" fill="#9498FF"/>
<rect x="210" y="13.4312" width="42.4128" height="4.43119" rx="2.2156" transform="rotate(-180 210 13.4312)" fill="#6F00FF"/>
<rect x="163.789" y="13.4312" width="13.9266" height="4.43119" rx="2.2156" transform="rotate(-180 163.789 13.4312)" fill="#6F00FF"/>
<rect x="147.33" y="13.4312" width="6.33028" height="4.43119" rx="2.2156" transform="rotate(-180 147.33 13.4312)" fill="#6F00FF"/>
</svg>
