<svg width="108" height="41" viewBox="0 0 108 41" fill="none" xmlns="http://www.w3.org/2000/svg">
<path d="M8.85312 12.899C8.70513 12.899 8.55715 12.751 8.70513 12.603L9.74101 11.1232C9.88899 10.9752 10.037 10.8272 10.3329 10.8272H28.9787C29.1267 10.8272 29.2747 10.9752 29.1267 11.1232L28.2388 12.4551C28.0908 12.603 27.9428 12.751 27.6469 12.751L8.85312 12.899ZM1.01006 17.6344C0.862078 17.6344 0.714095 17.4864 0.862077 17.3385L1.89795 15.8586C2.04594 15.7107 2.19392 15.5627 2.48988 15.5627H26.315C26.463 15.5627 26.611 15.7107 26.611 15.8586L26.167 17.3385C26.167 17.4864 25.8711 17.6344 25.7231 17.6344H1.01006ZM13.5885 22.5178C13.4406 22.5178 13.2926 22.3699 13.4406 22.2219L14.1805 20.89C14.3285 20.7421 14.4764 20.5941 14.7724 20.5941H25.1312C25.2791 20.5941 25.4271 20.7421 25.4271 20.89L25.2791 22.0739C25.2791 22.2219 25.1312 22.3699 24.9832 22.3699L13.5885 22.5178ZM67.75 11.8631L59.0191 14.0829C58.2792 14.2308 58.1312 14.3788 57.5393 13.4909C56.7993 12.603 56.2074 12.0111 55.0236 11.5672C51.7679 9.93935 48.5123 10.3833 45.5527 12.3071C42.0011 14.5268 40.2253 17.9304 40.2253 22.2219C40.2253 26.3654 43.185 29.769 47.3285 30.3609C50.8801 30.8048 53.8397 29.621 56.2074 26.9573C56.6514 26.3654 57.0953 25.7734 57.6872 25.0335H47.6244C46.5886 25.0335 46.2926 24.2936 46.5886 23.4057C47.3285 21.7779 48.5123 19.1143 49.2523 17.7824C49.4002 17.4864 49.8442 16.8945 50.5841 16.8945H69.5258C69.3778 18.3743 69.3778 19.7062 69.2298 21.186C68.6379 24.8856 67.3061 28.4371 64.9384 31.3968C61.2388 36.2802 56.3554 39.3878 50.1401 40.2757C44.9608 41.0156 40.2253 39.9797 36.0818 36.8721C32.2343 33.9125 30.0146 30.0649 29.4226 25.3295C28.6827 19.7062 30.4585 14.5268 33.8621 10.0873C37.5617 5.20393 42.4451 2.0963 48.5123 1.06043C53.3958 0.172536 58.1312 0.764463 62.2747 3.57612C65.0863 5.35191 67.0101 7.86761 68.3419 10.9752C68.4899 11.5672 68.3419 11.7151 67.75 11.8631Z" fill="#00ACD7"/>
<path d="M84.9163 40.7193C80.1809 40.5713 75.8894 39.2395 72.1898 36.1319C69.0822 33.4682 67.1584 30.0646 66.5665 26.0691C65.6786 20.1498 67.3064 14.9704 70.858 10.383C74.7055 5.35157 79.293 2.83587 85.5082 1.65201C90.8356 0.764121 95.867 1.20807 100.306 4.31569C104.45 7.12735 106.966 10.9749 107.706 16.0063C108.593 23.1094 106.522 28.7328 101.786 33.6162C98.3827 37.1677 94.0912 39.2395 89.3558 40.2754C87.728 40.5713 86.2481 40.5713 84.9163 40.7193ZM97.3468 19.7058C97.3468 18.9659 97.3468 18.522 97.1988 17.9301C96.3109 12.7507 91.5755 9.79103 86.5441 10.9749C81.6607 12.0108 78.5531 15.1184 77.3692 20.0018C76.4813 23.9973 78.4051 28.1408 82.1046 29.9166C84.9163 31.1005 87.8759 30.9525 90.5396 29.6206C94.8311 27.5489 97.0508 24.1453 97.3468 19.7058Z" fill="#00ACD7"/>
</svg>
