<svg width="26" height="12" viewBox="0 0 26 12" fill="none" xmlns="http://www.w3.org/2000/svg">
<path fill-rule="evenodd" clip-rule="evenodd" d="M19.5942 0.189332C19.7977 0.185648 20.0015 0.193831 20.2049 0.214552L20.2036 0.2132C21.1254 0.306869 21.983 0.630129 22.7213 1.12158C23.3867 1.556 23.9649 2.12885 24.4011 2.8115C24.9783 3.71454 25.2866 4.77575 25.2866 5.84778C25.2866 6.00189 25.2798 6.156 25.2676 6.31011C25.0946 8.42848 23.6941 10.3157 21.7217 11.1038C19.3749 12.042 17.2822 11.143 15.4396 9.63299C15.0002 9.27204 14.2256 8.6272 13.4781 8.00264C13.2456 7.80889 13.0156 7.61685 12.7992 7.43608C12.7438 7.38982 12.6893 7.3443 12.6358 7.29968C12.1381 7.70219 11.6406 8.1047 11.1501 8.51526C11.1115 8.54831 11.0733 8.5804 11.0366 8.61096C10.6352 8.94879 10.2384 9.29215 9.85001 9.64632C9.76748 9.72161 9.68534 9.79736 9.60362 9.87362C8.40587 10.9916 6.72686 11.6446 5.08164 11.4769C2.23463 11.1876 0 8.70831 0 5.84778C0 5.84777 0 5.84776 0 5.84776C0 5.31107 0.0770592 4.77708 0.227116 4.26337C0.227116 4.26338 0.227115 4.26339 0.227116 4.2634C0.377172 3.75239 0.597525 3.26167 0.885471 2.8115C2.08052 0.939171 4.34624 -0.107169 6.54842 0.26324C7.91098 0.491464 8.944 1.37499 9.96077 2.24463C10.1606 2.41554 10.3598 2.58591 10.5607 2.75066C10.7246 2.88346 11.0336 3.13696 11.4052 3.44182C11.4534 3.48144 11.5028 3.52193 11.553 3.56313C11.7514 3.72664 11.964 3.90081 12.1793 4.07723C12.3364 4.20592 12.4949 4.33581 12.6505 4.46364C13.9168 3.3778 15.2163 2.25361 15.6829 1.81786C16.3448 1.20006 17.1536 0.724269 18.0225 0.450479C18.2513 0.368967 18.4892 0.305196 18.7381 0.26324C19.0233 0.21528 19.3095 0.191071 19.5942 0.189332ZM10.9594 5.90309C10.6646 5.65951 10.3567 5.40556 10.0583 5.15954C9.93945 5.06151 9.8221 4.96474 9.70772 4.87038C9.44443 4.65301 9.19801 4.44979 8.98712 4.27588C8.77571 4.10154 8.60001 3.95665 8.47887 3.85649C7.64612 3.16839 6.66603 2.5587 5.65213 2.47218C5.06137 2.42081 4.45979 2.54789 3.86903 2.93857C2.91056 3.57395 2.23057 4.68247 2.23057 5.84778C2.23057 7.48215 3.38097 8.85157 4.91394 9.19226C4.91397 9.19226 4.91399 9.19226 4.91401 9.19226C5.15329 9.24633 5.40204 9.27472 5.65754 9.27472C6.89179 9.27472 8.00166 8.44468 8.87632 7.67006C9.03441 7.52954 9.91371 6.7853 10.9594 5.90309ZM18.3222 2.85408C17.8587 3.07658 17.4145 3.37505 17.0024 3.69967C16.9361 3.75104 16.8712 3.80376 16.8077 3.85649C15.9993 4.52566 15.1936 5.19618 14.3879 5.86806C14.6866 6.1195 15.0124 6.39393 15.3463 6.67647C16.2264 7.41864 17.1524 8.19731 17.7256 8.64207C18.4002 9.1666 19.2586 9.37884 20.1022 9.24095V9.2396C21.7285 8.97328 23.056 7.51057 23.056 5.84643C23.056 4.68247 22.376 3.5726 21.4175 2.93857C20.8268 2.54789 20.2252 2.42081 19.6344 2.47218C19.4499 2.48791 19.2665 2.521 19.0848 2.56876C18.8164 2.64139 18.559 2.74225 18.3222 2.85408Z" fill="white"/>
</svg>
