<svg width="700" height="208" viewBox="0 0 700 208" fill="none" xmlns="http://www.w3.org/2000/svg">
<path d="M19.7991 124V96H24.9991V124H19.7991ZM32.5725 124V96H36.8525L54.4125 117.56H52.2925V96H57.4525V124H53.1725L35.6125 102.44H37.7325V124H32.5725ZM64.9553 124V96H69.2353L86.7953 117.56H84.6753V96H89.8353V124H85.5553L67.9953 102.44H70.1153V124H64.9553ZM110.458 124.4C108.271 124.4 106.258 124.04 104.418 123.32C102.578 122.6 100.978 121.6 99.6181 120.32C98.2581 119.013 97.2048 117.493 96.4581 115.76C95.7115 114 95.3381 112.08 95.3381 110C95.3381 107.92 95.7115 106.013 96.4581 104.28C97.2048 102.52 98.2581 101 99.6181 99.72C100.978 98.4133 102.578 97.4 104.418 96.68C106.258 95.96 108.258 95.6 110.418 95.6C112.605 95.6 114.605 95.96 116.418 96.68C118.258 97.4 119.858 98.4133 121.218 99.72C122.578 101 123.631 102.52 124.378 104.28C125.125 106.013 125.498 107.92 125.498 110C125.498 112.08 125.125 114 124.378 115.76C123.631 117.52 122.578 119.04 121.218 120.32C119.858 121.6 118.258 122.6 116.418 123.32C114.605 124.04 112.618 124.4 110.458 124.4ZM110.418 119.84C111.831 119.84 113.138 119.6 114.338 119.12C115.538 118.64 116.578 117.96 117.458 117.08C118.338 116.173 119.018 115.133 119.498 113.96C120.005 112.76 120.258 111.44 120.258 110C120.258 108.56 120.005 107.253 119.498 106.08C119.018 104.88 118.338 103.84 117.458 102.96C116.578 102.053 115.538 101.36 114.338 100.88C113.138 100.4 111.831 100.16 110.418 100.16C109.005 100.16 107.698 100.4 106.498 100.88C105.325 101.36 104.285 102.053 103.378 102.96C102.498 103.84 101.805 104.88 101.298 106.08C100.818 107.253 100.578 108.56 100.578 110C100.578 111.413 100.818 112.72 101.298 113.92C101.805 115.12 102.498 116.173 103.378 117.08C104.258 117.96 105.298 118.64 106.498 119.12C107.698 119.6 109.005 119.84 110.418 119.84ZM138.431 124L126.191 96H131.831L142.751 121.32H139.511L150.551 96H155.751L143.551 124H138.431ZM153.847 124L166.447 96H171.567L184.207 124H178.767L167.927 98.76H170.007L159.207 124H153.847ZM159.647 117.52L161.047 113.44H176.167L177.567 117.52H159.647ZM192.042 124V100.4H182.762V96H206.522V100.4H197.242V124H192.042ZM215.224 107.64H229.144V111.92H215.224V107.64ZM215.624 119.64H231.424V124H210.424V96H230.864V100.36H215.624V119.64ZM248.276 124V96H252.556L270.116 117.56H267.996V96H273.156V124H268.876L251.316 102.44H253.436V124H248.276ZM293.778 124.4C291.592 124.4 289.578 124.04 287.738 123.32C285.898 122.6 284.298 121.6 282.938 120.32C281.578 119.013 280.525 117.493 279.778 115.76C279.032 114 278.658 112.08 278.658 110C278.658 107.92 279.032 106.013 279.778 104.28C280.525 102.52 281.578 101 282.938 99.72C284.298 98.4133 285.898 97.4 287.738 96.68C289.578 95.96 291.578 95.6 293.738 95.6C295.925 95.6 297.925 95.96 299.738 96.68C301.578 97.4 303.178 98.4133 304.538 99.72C305.898 101 306.952 102.52 307.698 104.28C308.445 106.013 308.818 107.92 308.818 110C308.818 112.08 308.445 114 307.698 115.76C306.952 117.52 305.898 119.04 304.538 120.32C303.178 121.6 301.578 122.6 299.738 123.32C297.925 124.04 295.938 124.4 293.778 124.4ZM293.738 119.84C295.152 119.84 296.458 119.6 297.658 119.12C298.858 118.64 299.898 117.96 300.778 117.08C301.658 116.173 302.338 115.133 302.818 113.96C303.325 112.76 303.578 111.44 303.578 110C303.578 108.56 303.325 107.253 302.818 106.08C302.338 104.88 301.658 103.84 300.778 102.96C299.898 102.053 298.858 101.36 297.658 100.88C296.458 100.4 295.152 100.16 293.738 100.16C292.325 100.16 291.018 100.4 289.818 100.88C288.645 101.36 287.605 102.053 286.698 102.96C285.818 103.84 285.125 104.88 284.618 106.08C284.138 107.253 283.898 108.56 283.898 110C283.898 111.413 284.138 112.72 284.618 113.92C285.125 115.12 285.818 116.173 286.698 117.08C287.578 117.96 288.618 118.64 289.818 119.12C291.018 119.6 292.325 119.84 293.738 119.84ZM320.071 124L310.791 96H316.191L324.471 121.32H321.791L330.391 96H335.191L343.551 121.32H340.951L349.431 96H354.391L345.111 124H339.591L331.951 101.16H333.391L325.631 124H320.071ZM359.357 109.04C358.45 109.04 357.677 108.733 357.037 108.12C356.397 107.48 356.077 106.68 356.077 105.72C356.077 104.707 356.397 103.907 357.037 103.32C357.677 102.707 358.45 102.4 359.357 102.4C360.263 102.4 361.037 102.707 361.677 103.32C362.317 103.907 362.637 104.707 362.637 105.72C362.637 106.68 362.317 107.48 361.677 108.12C361.037 108.733 360.263 109.04 359.357 109.04ZM356.437 130.04L358.757 121.2L359.437 124.16C358.503 124.16 357.717 123.88 357.077 123.32C356.463 122.733 356.157 121.947 356.157 120.96C356.157 119.947 356.463 119.147 357.077 118.56C357.717 117.947 358.49 117.64 359.397 117.64C360.33 117.64 361.103 117.947 361.717 118.56C362.33 119.173 362.637 119.973 362.637 120.96C362.637 121.227 362.61 121.52 362.557 121.84C362.503 122.133 362.41 122.48 362.277 122.88C362.17 123.28 361.983 123.787 361.717 124.4L359.677 130.04H356.437ZM379.057 124V96H390.577C393.057 96 395.177 96.4 396.937 97.2C398.724 98 400.097 99.1467 401.057 100.64C402.017 102.133 402.497 103.907 402.497 105.96C402.497 108.013 402.017 109.787 401.057 111.28C400.097 112.773 398.724 113.92 396.937 114.72C395.177 115.52 393.057 115.92 390.577 115.92H381.937L384.257 113.48V124H379.057ZM384.257 114.04L381.937 111.52H390.337C392.63 111.52 394.35 111.04 395.497 110.08C396.67 109.093 397.257 107.72 397.257 105.96C397.257 104.173 396.67 102.8 395.497 101.84C394.35 100.88 392.63 100.4 390.337 100.4H381.937L384.257 97.84V114.04ZM402.323 124L414.923 96H420.043L432.683 124H427.243L416.403 98.76H418.483L407.683 124H402.323ZM408.123 117.52L409.523 113.44H424.643L426.043 117.52H408.123ZM441.445 124V112.92L442.605 116.12L430.445 96H436.005L445.765 112.2H442.645L452.485 96H457.605L445.445 116.12L446.645 112.92V124H441.445ZM472.065 124V96H477.265V119.6H491.905V124H472.065ZM492.089 124L504.689 96H509.809L522.449 124H517.009L506.169 98.76H508.249L497.449 124H492.089ZM497.889 117.52L499.289 113.44H514.409L515.809 117.52H497.889ZM530.284 124V100.4H521.004V96H544.764V100.4H535.484V124H530.284ZM553.466 107.64H567.386V111.92H553.466V107.64ZM553.866 119.64H569.666V124H548.666V96H569.106V100.36H553.866V119.64ZM575.463 124V96H586.983C589.463 96 591.583 96.4 593.343 97.2C595.13 98 596.503 99.1467 597.463 100.64C598.423 102.133 598.903 103.907 598.903 105.96C598.903 108.013 598.423 109.787 597.463 111.28C596.503 112.747 595.13 113.88 593.343 114.68C591.583 115.453 589.463 115.84 586.983 115.84H578.343L580.663 113.48V124H575.463ZM593.783 124L586.703 113.84H592.263L599.383 124H593.783ZM580.663 114.04L578.343 111.56H586.743C589.036 111.56 590.756 111.067 591.903 110.08C593.076 109.093 593.663 107.72 593.663 105.96C593.663 104.173 593.076 102.8 591.903 101.84C590.756 100.88 589.036 100.4 586.743 100.4H578.343L580.663 97.84V114.04Z" fill="#EE3248"/>
<path d="M353.866 109.708C371.243 46.9291 661.311 6.49265 684.606 55.1617C721.316 131.861 461.484 187.356 418.859 169.709C417.281 169.056 417.106 167.181 418.331 167.295C525.559 177.253 702.489 111.377 674.52 57.6181C647.191 18.1321 349.574 57.6044 361.588 118.208C369.499 158.11 507.859 163.813 599.42 128.953C602.344 128.76 600.598 131.455 597.61 132.664C499.414 169.984 343.177 168.17 353.866 109.708Z" fill="#FEFEFE"/>
<path d="M353.866 117.094C371.243 54.3156 661.311 13.8791 684.606 62.5481C721.316 139.248 461.484 194.743 418.859 177.096C417.281 176.442 417.106 174.567 418.331 174.681C525.559 184.639 702.489 118.764 674.52 65.0045C647.191 25.5186 349.574 64.9908 361.588 125.594C369.499 165.497 507.859 171.199 599.42 136.339C602.344 136.146 600.598 138.841 597.61 140.05C499.414 177.37 343.177 175.556 353.866 117.094Z" fill="#EE3248"/>
</svg>
