<svg width="88" height="97" viewBox="0 0 88 97" fill="none" xmlns="http://www.w3.org/2000/svg">
<path d="M39.793 1.37285C42.1654 0.0149328 45.2554 0.00879923 47.6257 1.37285C59.5505 8.11101 71.4791 14.8386 83.4019 21.5808C85.6444 22.844 87.1444 25.3397 87.1216 27.9237V68.463C87.1383 71.154 85.49 73.7094 83.1242 74.9439C71.2385 81.6449 59.359 88.3541 47.4754 95.0551C45.054 96.4396 41.902 96.333 39.5562 94.835C35.9929 92.7693 32.4234 90.7139 28.8598 88.6502C28.1316 88.2161 27.3107 87.8706 26.7965 87.1645C27.2511 86.5518 28.0638 86.4755 28.7242 86.208C30.2116 85.735 31.5777 84.9758 32.9441 84.2391C33.2896 84.0026 33.7115 84.0933 34.0427 84.3049C37.0898 86.052 40.1099 87.8498 43.1672 89.5802C43.8194 89.9567 44.4798 89.4568 45.0373 89.146C56.7007 82.5541 68.3785 75.987 80.04 69.393C80.472 69.1851 80.7109 68.7264 80.6758 68.2531C80.684 54.8801 80.6779 41.5046 80.6799 28.1316C80.7293 27.5945 80.4185 27.1008 79.933 26.881C68.0885 20.2106 56.2503 13.5301 44.4079 6.85804C44.2027 6.71698 43.9597 6.6413 43.7107 6.64093C43.4617 6.64057 43.2184 6.71554 43.0128 6.856C31.1705 13.5301 19.3342 20.2168 7.49185 26.8868C7.00797 27.1069 6.68323 27.5925 6.74081 28.1316C6.74286 41.5046 6.74081 54.8801 6.74081 68.2552C6.72028 68.4861 6.771 68.7178 6.88615 68.919C7.0013 69.1203 7.17534 69.2814 7.38485 69.3807C10.545 71.1727 13.7093 72.9522 16.8716 74.7381C18.653 75.697 20.8404 76.2667 22.8031 75.5321C24.5352 74.9109 25.7493 73.1433 25.7163 71.3043C25.7326 58.0093 25.7081 44.7122 25.7285 31.4192C25.6853 30.829 26.2451 30.3414 26.819 30.3969C28.3374 30.3867 29.8579 30.3765 31.3763 30.401C32.0101 30.3867 32.4463 31.0222 32.3679 31.6169C32.3617 44.996 32.3842 58.3756 32.3577 71.7548C32.3617 75.3205 30.8968 79.2003 27.5986 80.945C23.5354 83.0499 18.5133 82.6035 14.4992 80.5852C11.0241 78.8507 7.70789 76.8038 4.29451 74.9456C1.92249 73.7179 0.282424 71.1523 0.299121 68.4634V27.9237C0.274246 25.2862 1.8339 22.7452 4.14628 21.5004C16.0299 14.794 27.9114 8.08238 39.793 1.37285Z" fill="#8CC84B"/>
<path d="M50.1595 29.4544C55.3425 29.1208 60.891 29.2567 65.555 31.81C69.166 33.7667 71.168 37.8731 71.2317 41.8849C71.1308 42.426 70.5652 42.7245 70.0486 42.6874C68.5448 42.6853 67.0407 42.7078 65.5369 42.6772C64.899 42.7017 64.5283 42.1135 64.4482 41.5496C64.0161 39.6301 62.9693 37.729 61.1626 36.8032C58.3892 35.4146 55.1735 35.4844 52.1492 35.5134C49.9415 35.6306 47.5674 35.8218 45.697 37.1201C44.261 38.1035 43.8248 40.0888 44.3373 41.6876C44.8205 42.8356 46.1457 43.206 47.23 43.5475C53.4761 45.181 60.095 45.0185 66.2219 47.1684C68.7585 48.0448 71.2399 49.7486 72.1081 52.4044C73.2439 55.964 72.746 60.2187 70.2135 63.0763C68.1598 65.4279 65.1686 66.7078 62.1852 67.4029C58.2164 68.2879 54.0977 68.3104 50.0672 67.9175C46.2773 67.4854 42.3333 66.4897 39.4076 63.9074C36.9057 61.7351 35.6838 58.3503 35.8051 55.0835C35.8341 54.5318 36.3834 54.1471 36.9119 54.1924C38.4262 54.1801 39.9405 54.176 41.4549 54.1944C42.0597 54.1512 42.5082 54.6739 42.5392 55.244C42.8186 57.0728 43.5059 58.9923 45.1006 60.0766C48.1784 62.0622 52.0402 61.9263 55.5643 61.9818C58.4839 61.8523 61.7613 61.8131 64.1439 59.8834C65.401 58.7828 65.7734 56.9413 65.4337 55.3571C65.0657 54.0196 63.6665 53.3964 62.465 52.9888C56.299 51.0383 49.6061 51.7461 43.4998 49.5404C41.0207 48.6643 38.6235 47.0079 37.6711 44.461C36.3421 40.8565 36.9511 36.398 39.749 33.6368C42.4771 30.8903 46.4153 29.833 50.1595 29.4544Z" fill="#8CC84B"/>
</svg>
