<svg width="86" height="86" viewBox="0 0 86 86" fill="none" xmlns="http://www.w3.org/2000/svg">
<g clip-path="url(#clip0_2028_6608)">
<path d="M39.417 28.6666H46.5837V32.25H39.417V28.6666ZM39.417 14.3333H46.5837V17.9166H39.417V14.3333ZM39.417 35.8333H46.5837V39.4166H39.417V35.8333Z" fill="#6F00FF"/>
<path d="M75.2503 43V32.25C64.3262 32.2477 53.7421 36.0486 45.3152 43H40.6855C32.2585 36.0486 21.6744 32.2477 10.7503 32.25V43C9.79997 43 8.88853 43.3775 8.21653 44.0495C7.54452 44.7215 7.16699 45.633 7.16699 46.5833V53.75C7.16699 54.7004 7.54452 55.6118 8.21653 56.2838C8.88853 56.9558 9.79997 57.3333 10.7503 57.3333V71.6667C22.7261 71.6557 34.2569 76.204 43.0003 84.3875C51.753 76.2185 63.2778 71.6726 75.2503 71.6667V57.3333C76.2007 57.3333 77.1121 56.9558 77.7841 56.2838C78.4561 55.6118 78.8337 54.7004 78.8337 53.75V46.5833C78.8337 45.633 78.4561 44.7215 77.7841 44.0495C77.1121 43.3775 76.2007 43 75.2503 43Z" fill="#6F00FF"/>
<path d="M32.2503 17.9167C34.2293 17.9167 35.8337 16.3124 35.8337 14.3333C35.8337 12.3543 34.2293 10.75 32.2503 10.75C30.2713 10.75 28.667 12.3543 28.667 14.3333C28.667 16.3124 30.2713 17.9167 32.2503 17.9167Z" fill="#6F00FF"/>
<path d="M53.7503 17.9167C55.7293 17.9167 57.3337 16.3124 57.3337 14.3333C57.3337 12.3543 55.7293 10.75 53.7503 10.75C51.7713 10.75 50.167 12.3543 50.167 14.3333C50.167 16.3124 51.7713 17.9167 53.7503 17.9167Z" fill="#6F00FF"/>
<path d="M57.3337 28.6667H28.667C25.8168 28.6638 23.0841 27.5303 21.0687 25.5149C19.0533 23.4995 17.9198 20.7669 17.917 17.9167V10.75C17.9198 7.8998 19.0533 5.16714 21.0687 3.15175C23.0841 1.13635 25.8168 0.00284594 28.667 0L57.3337 0C60.1839 0.00284594 62.9165 1.13635 64.9319 3.15175C66.9473 5.16714 68.0808 7.8998 68.0837 10.75V17.9167C68.0808 20.7669 66.9473 23.4995 64.9319 25.5149C62.9165 27.5303 60.1839 28.6638 57.3337 28.6667ZM28.667 7.16667C27.7169 7.16761 26.806 7.54545 26.1342 8.21725C25.4624 8.88905 25.0846 9.79993 25.0837 10.75V17.9167C25.0846 18.8667 25.4624 19.7776 26.1342 20.4494C26.806 21.1212 27.7169 21.4991 28.667 21.5H57.3337C58.2837 21.4991 59.1946 21.1212 59.8664 20.4494C60.5382 19.7776 60.916 18.8667 60.917 17.9167V10.75C60.916 9.79993 60.5382 8.88905 59.8664 8.21725C59.1946 7.54545 58.2837 7.16761 57.3337 7.16667H28.667Z" fill="#6F00FF"/>
</g>
<defs>
<clipPath id="clip0_2028_6608">
<rect width="86" height="86" fill="white"/>
</clipPath>
</defs>
</svg>
