<svg width="1920" height="242" viewBox="0 0 1920 242" fill="none" xmlns="http://www.w3.org/2000/svg">
<rect x="1" width="1920" height="242" fill="#6F00FF"/>
<rect width="47" height="29" fill="white"/>
<rect y="213" width="47" height="29" fill="white"/>
<rect x="98" width="60" height="29" fill="white"/>
<rect x="98" y="213" width="60" height="29" fill="white"/>
<rect x="209" width="60" height="29" fill="white"/>
<rect x="209" y="213" width="60" height="29" fill="white"/>
<rect x="320" width="60" height="29" fill="white"/>
<rect x="320" y="213" width="60" height="29" fill="white"/>
<rect x="431" width="60" height="29" fill="white"/>
<rect x="431" y="213" width="60" height="29" fill="white"/>
<rect x="542" width="60" height="29" fill="white"/>
<rect x="542" y="213" width="60" height="29" fill="white"/>
<rect x="653" width="60" height="29" fill="white"/>
<rect x="653" y="213" width="60" height="29" fill="white"/>
<rect x="764" width="60" height="29" fill="white"/>
<rect x="764" y="213" width="60" height="29" fill="white"/>
<rect x="875" width="60" height="29" fill="white"/>
<rect x="875" y="213" width="60" height="29" fill="white"/>
<rect x="986" width="60" height="29" fill="white"/>
<rect x="986" y="213" width="60" height="29" fill="white"/>
<rect x="1097" width="60" height="29" fill="white"/>
<rect x="1097" y="213" width="60" height="29" fill="white"/>
<rect x="1208" width="60" height="29" fill="white"/>
<rect x="1208" y="213" width="60" height="29" fill="white"/>
<rect x="1319" width="60" height="29" fill="white"/>
<rect x="1319" y="213" width="60" height="29" fill="white"/>
<rect x="1430" width="60" height="29" fill="white"/>
<rect x="1430" y="213" width="60" height="29" fill="white"/>
<rect x="1541" width="60" height="29" fill="white"/>
<rect x="1541" y="213" width="60" height="29" fill="white"/>
<rect x="1652" width="60" height="29" fill="white"/>
<rect x="1652" y="213" width="60" height="29" fill="white"/>
<rect x="1763" width="60" height="29" fill="white"/>
<rect x="1763" y="213" width="60" height="29" fill="white"/>
<rect x="1874" width="46" height="29" fill="white"/>
<rect x="1874" y="213" width="46" height="29" fill="white"/>
</svg>
