<svg width="64" height="66" viewBox="0 0 64 66" fill="none" xmlns="http://www.w3.org/2000/svg">
<path d="M6.47806 5.40771H56.6921C60.2659 5.40771 63.1702 8.31147 63.1702 11.8846V54.8077C63.1702 58.3809 60.2659 61.2846 56.6921 61.2846H6.47806C2.90427 61.2846 0 58.3809 0 54.8077V11.8846C0 8.31147 2.90427 5.40771 6.47806 5.40771Z" fill="#EC1E4F"/>
<path d="M16.2856 16.3531C16.2856 18.8588 14.259 20.8851 11.7528 20.8851C9.24663 20.8851 7.21997 18.8588 7.21997 16.3531C7.21997 13.8473 9.24663 11.821 11.7528 11.821C14.259 11.821 16.2856 13.8473 16.2856 16.3531Z" fill="white"/>
<path d="M11.7618 19.1845C10.1966 19.1845 8.92993 17.9181 8.92993 16.3531C8.92993 14.7882 10.2056 13.5217 11.7618 13.5217C13.318 13.5217 14.5937 14.7882 14.5937 16.3531C14.5937 17.9181 13.318 19.1845 11.7618 19.1845Z" fill="white"/>
<path d="M36.1179 16.3531C36.1179 18.8588 34.0913 20.8851 31.5851 20.8851C29.0789 20.8851 27.0522 18.8588 27.0522 16.3531C27.0522 13.8473 29.0789 11.821 31.5851 11.821C34.0913 11.821 36.1179 13.8473 36.1179 16.3531Z" fill="white"/>
<path d="M31.5851 19.1845C30.0198 19.1845 28.7532 17.9181 28.7532 16.3531C28.7532 14.7882 30.0198 13.5217 31.5851 13.5217C33.1503 13.5217 34.417 14.7882 34.417 16.3531C34.417 17.9181 33.1503 19.1845 31.5851 19.1845Z" fill="white"/>
<path d="M55.9502 16.3531C55.9502 18.8588 53.9235 20.8851 51.4174 20.8851C48.9112 20.8851 46.8845 18.8588 46.8845 16.3531C46.8845 13.8473 48.9112 11.821 51.4174 11.821C53.9235 11.821 55.9502 13.8473 55.9502 16.3531Z" fill="white"/>
<path d="M51.4173 19.1845C49.8521 19.1845 48.5854 17.9181 48.5854 16.3531C48.5854 14.7882 49.8612 13.5217 51.4173 13.5217C52.9735 13.5217 54.2492 14.7882 54.2492 16.3531C54.2492 17.9181 52.9735 19.1845 51.4173 19.1845Z" fill="#EC1E4F"/>
<path d="M16.2856 33.3411C16.2856 35.8468 14.259 37.8731 11.7528 37.8731C9.24663 37.8731 7.21997 35.8468 7.21997 33.3411C7.21997 30.8354 9.24663 28.8091 11.7528 28.8091C14.259 28.8091 16.2856 30.8354 16.2856 33.3411Z" fill="white"/>
<path d="M11.7618 36.1816C10.1966 36.1816 8.92993 34.9061 8.92993 33.3502C8.92993 31.7943 10.2056 30.5188 11.7618 30.5188C13.318 30.5188 14.5937 31.7852 14.5937 33.3502C14.5937 34.9151 13.318 36.1816 11.7618 36.1816Z" fill="#EC1E4F"/>
<path d="M36.1179 33.3411C36.1179 35.8468 34.0913 37.8731 31.5851 37.8731C29.0789 37.8731 27.0522 35.8468 27.0522 33.3411C27.0522 30.8354 29.0789 28.8091 31.5851 28.8091C34.0913 28.8091 36.1179 30.8354 36.1179 33.3411Z" fill="white"/>
<path d="M31.5851 36.1816C30.0198 36.1816 28.7532 34.9061 28.7532 33.3502C28.7532 31.7943 30.0198 30.5188 31.5851 30.5188C33.1503 30.5188 34.417 31.7852 34.417 33.3502C34.417 34.9151 33.1503 36.1816 31.5851 36.1816Z" fill="white"/>
<path d="M55.9502 33.3411C55.9502 35.8468 53.9235 37.8731 51.4174 37.8731C48.9112 37.8731 46.8845 35.8468 46.8845 33.3411C46.8845 30.8354 48.9112 28.8091 51.4174 28.8091C53.9235 28.8091 55.9502 30.8354 55.9502 33.3411Z" fill="white"/>
<path d="M51.4173 36.1816C49.8521 36.1816 48.5854 34.9061 48.5854 33.3502C48.5854 31.7943 49.8612 30.5188 51.4173 30.5188C52.9735 30.5188 54.2492 31.7852 54.2492 33.3502C54.2492 34.9151 52.9735 36.1816 51.4173 36.1816Z" fill="white"/>
<path d="M16.2856 50.3387C16.2856 52.8444 14.259 54.8707 11.7528 54.8707C9.24663 54.8707 7.21997 52.8444 7.21997 50.3387C7.21997 47.8329 9.24663 45.8066 11.7528 45.8066C14.259 45.8066 16.2856 47.8329 16.2856 50.3387Z" fill="white"/>
<path d="M11.7618 53.1703C10.1966 53.1703 8.92993 51.8949 8.92993 50.339C8.92993 48.783 10.2056 47.5076 11.7618 47.5076C13.318 47.5076 14.5937 48.783 14.5937 50.339C14.5937 51.8949 13.318 53.1703 11.7618 53.1703Z" fill="white"/>
<path d="M36.1179 50.3387C36.1179 52.8444 34.0913 54.8707 31.5851 54.8707C29.0789 54.8707 27.0522 52.8444 27.0522 50.3387C27.0522 47.8329 29.0789 45.8066 31.5851 45.8066C34.0913 45.8066 36.1179 47.8329 36.1179 50.3387Z" fill="white"/>
<path d="M31.5851 53.1703C30.0198 53.1703 28.7532 51.8949 28.7532 50.339C28.7532 48.783 30.0198 47.5076 31.5851 47.5076C33.1503 47.5076 34.417 48.783 34.417 50.339C34.417 51.8949 33.1503 53.1703 31.5851 53.1703Z" fill="white"/>
<path d="M55.9502 50.3387C55.9502 52.8444 53.9235 54.8707 51.4174 54.8707C48.9112 54.8707 46.8845 52.8444 46.8845 50.3387C46.8845 47.8329 48.9112 45.8066 51.4174 45.8066C53.9235 45.8066 55.9502 47.8329 55.9502 50.3387Z" fill="white"/>
<path d="M51.4173 53.1703C49.8521 53.1703 48.5854 51.8949 48.5854 50.339C48.5854 48.783 49.8612 47.5076 51.4173 47.5076C52.9735 47.5076 54.2492 48.783 54.2492 50.339C54.2492 51.8949 52.9735 53.1703 51.4173 53.1703Z" fill="white"/>
<path d="M53.1182 51.0534H11.6169V49.3528H51.4172V34.9064H30.7345V16.7783H12.3227V15.0776H32.4354V33.2058H53.1182V51.0534Z" fill="white"/>
</svg>
