<svg width="1920" height="1270" viewBox="0 0 1920 1270" fill="none" xmlns="http://www.w3.org/2000/svg">
<g clip-path="url(#clip0_1659_19438)">
<rect width="1924" height="1270" transform="translate(-2)" fill="#FEFEFE"/>
<path d="M513.83 1087.05C506.53 1087.05 499.93 1085.8 494.03 1083.3C488.23 1080.8 483.63 1077.2 480.23 1072.5C476.83 1067.8 475.08 1062.25 474.98 1055.85H497.48C497.78 1060.15 499.28 1063.55 501.98 1066.05C504.78 1068.55 508.58 1069.8 513.38 1069.8C518.28 1069.8 522.13 1068.65 524.93 1066.35C527.73 1063.95 529.13 1060.85 529.13 1057.05C529.13 1053.95 528.18 1051.4 526.28 1049.4C524.38 1047.4 521.98 1045.85 519.08 1044.75C516.28 1043.55 512.38 1042.25 507.38 1040.85C500.58 1038.85 495.03 1036.9 490.73 1035C486.53 1033 482.88 1030.05 479.78 1026.15C476.78 1022.15 475.28 1016.85 475.28 1010.25C475.28 1004.05 476.83 998.65 479.93 994.05C483.03 989.45 487.38 985.95 492.98 983.55C498.58 981.05 504.98 979.8 512.18 979.8C522.98 979.8 531.73 982.45 538.43 987.75C545.23 992.95 548.98 1000.25 549.68 1009.65H526.58C526.38 1006.05 524.83 1003.1 521.93 1000.8C519.13 998.4 515.38 997.2 510.68 997.2C506.58 997.2 503.28 998.25 500.78 1000.35C498.38 1002.45 497.18 1005.5 497.18 1009.5C497.18 1012.3 498.08 1014.65 499.88 1016.55C501.78 1018.35 504.08 1019.85 506.78 1021.05C509.58 1022.15 513.48 1023.45 518.48 1024.95C525.28 1026.95 530.83 1028.95 535.13 1030.95C539.43 1032.95 543.13 1035.95 546.23 1039.95C549.33 1043.95 550.88 1049.2 550.88 1055.7C550.88 1061.3 549.43 1066.5 546.53 1071.3C543.63 1076.1 539.38 1079.95 533.78 1082.85C528.18 1085.65 521.53 1087.05 513.83 1087.05ZM627.686 1086L589.586 1039.35V1086H568.586V981.3H589.586V1028.25L627.686 981.3H653.036L609.836 1033.2L654.236 1086H627.686ZM750.799 981.3L715.399 1049.55V1086H694.399V1049.55L658.849 981.3H682.549L705.049 1029.15L727.399 981.3H750.799ZM891.703 981.3L853.303 1086H827.803L789.403 981.3H811.903L840.703 1064.55L869.353 981.3H891.703ZM924.793 998.25V1024.5H960.043V1041.15H924.793V1068.9H964.543V1086H903.793V981.15H964.543V998.25H924.793ZM1072.68 1086H1051.68L1004.13 1014.15V1086H983.127V981.15H1004.13L1051.68 1053.15V981.15H1072.68V1086ZM1164.18 981.3V998.25H1136.28V1086H1115.28V998.25H1087.38V981.3H1164.18ZM1199.7 981.3V1046.1C1199.7 1053.2 1201.55 1058.65 1205.25 1062.45C1208.95 1066.15 1214.15 1068 1220.85 1068C1227.65 1068 1232.9 1066.15 1236.6 1062.45C1240.3 1058.65 1242.15 1053.2 1242.15 1046.1V981.3H1263.3V1045.95C1263.3 1054.85 1261.35 1062.4 1257.45 1068.6C1253.65 1074.7 1248.5 1079.3 1242 1082.4C1235.6 1085.5 1228.45 1087.05 1220.55 1087.05C1212.75 1087.05 1205.65 1085.5 1199.25 1082.4C1192.95 1079.3 1187.95 1074.7 1184.25 1068.6C1180.55 1062.4 1178.7 1054.85 1178.7 1045.95V981.3H1199.7ZM1337.09 1086L1313.99 1045.2H1304.09V1086H1283.09V981.3H1322.39C1330.49 981.3 1337.39 982.75 1343.09 985.65C1348.79 988.45 1353.04 992.3 1355.84 997.2C1358.74 1002 1360.19 1007.4 1360.19 1013.4C1360.19 1020.3 1358.19 1026.55 1354.19 1032.15C1350.19 1037.65 1344.24 1041.45 1336.34 1043.55L1361.39 1086H1337.09ZM1304.09 1029.45H1321.64C1327.34 1029.45 1331.59 1028.1 1334.39 1025.4C1337.19 1022.6 1338.59 1018.75 1338.59 1013.85C1338.59 1009.05 1337.19 1005.35 1334.39 1002.75C1331.59 1000.05 1327.34 998.7 1321.64 998.7H1304.09V1029.45ZM1399.69 998.25V1024.5H1434.94V1041.15H1399.69V1068.9H1439.44V1086H1378.69V981.15H1439.44V998.25H1399.69Z" fill="#F4F4F4" fill-opacity="0.4"/>
<circle opacity="0.3" cx="965" cy="1226" r="640" transform="rotate(180 965 1226)" fill="url(#paint0_radial_1659_19438)"/>
<circle opacity="0.5" cx="965" cy="1226" r="455" transform="rotate(180 965 1226)" fill="url(#paint1_radial_1659_19438)"/>
</g>
<defs>
<radialGradient id="paint0_radial_1659_19438" cx="0" cy="0" r="1" gradientUnits="userSpaceOnUse" gradientTransform="translate(965 1124.73) rotate(90) scale(741.275)">
<stop offset="0.83" stop-color="#D9D9D9" stop-opacity="0"/>
<stop offset="1" stop-color="#9194FC"/>
</radialGradient>
<radialGradient id="paint1_radial_1659_19438" cx="0" cy="0" r="1" gradientUnits="userSpaceOnUse" gradientTransform="translate(965 1154) rotate(90) scale(527)">
<stop offset="0.83" stop-color="#D9D9D9" stop-opacity="0"/>
<stop offset="1" stop-color="#9194FC"/>
</radialGradient>
<clipPath id="clip0_1659_19438">
<rect width="1924" height="1270" fill="white" transform="translate(-2)"/>
</clipPath>
</defs>
</svg>
