<svg width="84" height="81" viewBox="0 0 84 81" fill="none" xmlns="http://www.w3.org/2000/svg">
<mask id="mask0_2028_1194" style="mask-type:luminance" maskUnits="userSpaceOnUse" x="10" y="0" width="74" height="81">
<path d="M37.969 47.9491C37.969 48.439 38.3703 48.8402 38.8602 48.8402H45.6934C46.4397 48.8402 46.7318 49.3472 46.7318 49.7695V59.0801C41.977 63.5615 37.9861 68.7704 34.9028 74.4993C32.8909 78.2373 34.2793 80.0845 38.838 80.0845H55.5645C59.4036 71.3194 66.6159 66.2918 77.2014 65.0028C82.5376 65.5712 84.6103 63.9696 83.4185 60.1963C82.5887 57.383 82.4506 55.2557 83.0042 53.8161C83.8726 52.3157 83.6515 50.8237 82.3409 49.3415C83.3691 48.0013 83.2037 46.3441 81.8436 44.369C81.1997 43.508 81.1724 42.431 81.7607 41.1374C84.6905 38.0689 84.7456 35.2795 81.9266 32.768C76.8729 29.6426 74.1647 26.9083 73.8027 24.5645C73.9624 23.0584 73.7686 21.2357 73.2224 19.0953C70.2107 10.9077 63.7015 4.79401 55.8219 2.10232C53.6884 1.47373 51.4877 1.00257 49.2331 0.70192C47.3104 0.445596 45.349 0.313171 43.3564 0.313171C34.3851 0.313171 26.0406 2.99519 19.0812 7.60107L34.6306 21.1305H48.6409C49.3075 21.1305 49.8526 21.6756 49.8526 22.3417V37.1153L46.3862 33.6501V25.2488C46.3862 24.8896 46.0924 24.5957 45.7326 24.5957H37.2421C36.8829 24.5957 36.5891 24.8896 36.5891 25.2488V33.6506L33.678 36.5606C33.6337 36.5537 33.5882 36.5503 33.5416 36.5503H22.0309C21.9843 36.5503 21.9394 36.5537 21.8945 36.5611L19.2887 33.9558V30.1314L22.4617 26.9589H28.393C28.655 26.9589 28.8698 26.7447 28.8698 26.4826V20.2917C28.8698 20.0296 28.6556 19.8154 28.393 19.8154H22.4617L19.1534 16.5087V12.6389C19.1534 12.4576 19.0051 12.3092 18.8238 12.3098H14.5424C14.3611 12.3098 14.2133 12.4581 14.2133 12.6389V16.9185C14.2133 17.0998 14.3617 17.2476 14.5424 17.2476H18.414L21.7217 20.5542V26.2212L18.5481 29.3931H14.3372C14.1429 29.3931 13.9837 29.5523 13.9837 29.7467V34.3412C13.9837 34.5355 14.1429 34.6947 14.3372 34.6947H18.5481L21.154 37.2994C21.1472 37.3437 21.1437 37.3892 21.1437 37.4358V48.942C21.1437 48.988 21.1472 49.0335 21.154 49.0784L18.0321 52.1992H11.121C10.8203 52.1992 10.5742 52.4447 10.5742 52.7453V59.8462C10.5742 60.1469 10.8203 60.3924 11.121 60.3924H18.2242C18.5248 60.3924 18.7709 60.1469 18.7709 59.8457V52.9374L21.8928 49.8166C21.9372 49.8235 21.9826 49.8269 22.0292 49.8269H33.5399C33.586 49.8269 33.6314 49.8229 33.6763 49.8166L36.8812 53.0204V58.7505L34.3663 61.2643H29.6968C29.4842 61.2643 29.3103 61.4382 29.3103 61.6502V66.6704C29.3103 66.8829 29.4842 67.0563 29.6968 67.0563H34.7192C34.9318 67.0563 35.1057 66.8824 35.1057 66.6704V62.0025L37.6206 59.4887H43.611C43.8753 59.4887 44.0918 59.2728 44.0918 59.0079V52.7618C44.0918 52.4975 43.8753 52.281 43.611 52.281H37.6206L34.4158 49.0772C34.4226 49.0329 34.4265 48.9874 34.4265 48.9408V37.4347C34.4265 37.3881 34.4231 37.3426 34.4158 37.2983L37.3268 34.3883H45.6463L49.1126 37.8535H38.8602C38.3697 37.8535 37.969 38.2542 37.969 38.7447V47.9485V47.9491Z" fill="white"/>
</mask>
<g mask="url(#mask0_2028_1194)">
<path d="M84.746 0.3125H10.5752V80.0838H84.746V0.3125Z" fill="#6F00FF"/>
</g>
<mask id="mask1_2028_1194" style="mask-type:luminance" maskUnits="userSpaceOnUse" x="9" y="19" width="5" height="4">
<path d="M9.58427 19.1936H12.638C12.8409 19.1936 13.0074 19.3596 13.0074 19.5625V22.615C13.0074 22.8179 12.8415 22.9839 12.638 22.9839H9.58427C9.38137 22.9839 9.21484 22.8179 9.21484 22.615V19.5625C9.21484 19.3596 9.3808 19.1936 9.58427 19.1936Z" fill="white"/>
</mask>
<g mask="url(#mask1_2028_1194)">
<path d="M13.0068 19.1936H9.21484V22.9839H13.0068V19.1936Z" fill="#6F00FF"/>
</g>
<mask id="mask2_2028_1194" style="mask-type:luminance" maskUnits="userSpaceOnUse" x="5" y="37" width="8" height="7">
<path d="M6.3124 37.2244H11.6082C11.9606 37.2244 12.2488 37.5125 12.2488 37.8643V43.1585C12.2488 43.5103 11.9606 43.7984 11.6082 43.7984H6.3124C5.96003 43.7984 5.67188 43.5103 5.67188 43.1585V37.8643C5.67188 37.5125 5.96003 37.2244 6.3124 37.2244Z" fill="white"/>
</mask>
<g mask="url(#mask2_2028_1194)">
<path d="M12.2488 37.2244H5.67188V43.7984H12.2488V37.2244Z" fill="#6F00FF"/>
</g>
<mask id="mask3_2028_1194" style="mask-type:luminance" maskUnits="userSpaceOnUse" x="19" y="62" width="7" height="8">
<path d="M19.6786 62.5425H24.9745C25.3268 62.5425 25.615 62.8307 25.615 63.1825V68.4766C25.615 68.8284 25.3268 69.1166 24.9745 69.1166H19.6786C19.3262 69.1166 19.0381 68.8284 19.0381 68.4766V63.1825C19.0381 62.8301 19.3262 62.5425 19.6786 62.5425Z" fill="white"/>
</mask>
<g mask="url(#mask3_2028_1194)">
<path d="M25.615 62.5425H19.0381V69.1166H25.615V62.5425Z" fill="#6F00FF"/>
</g>
<mask id="mask4_2028_1194" style="mask-type:luminance" maskUnits="userSpaceOnUse" x="13" y="70" width="6" height="5">
<path d="M14.2197 70.1594H17.6854C17.9162 70.1594 18.1043 70.3481 18.1043 70.5783V74.0424C18.1043 74.2731 17.9156 74.4612 17.6854 74.4612H14.2197C13.9889 74.4612 13.8008 74.2731 13.8008 74.0424V70.5783C13.8008 70.3481 13.9895 70.1594 14.2197 70.1594Z" fill="white"/>
</mask>
<g mask="url(#mask4_2028_1194)">
<path d="M18.1033 70.1592H13.7998V74.4611H18.1033V70.1592Z" fill="#6F00FF"/>
</g>
<mask id="mask5_2028_1194" style="mask-type:luminance" maskUnits="userSpaceOnUse" x="0" y="31" width="5" height="6">
<path d="M0.797409 31.9149H4.40981C4.65022 31.9149 4.8463 32.1116 4.8463 32.3514V35.9621C4.8463 36.2025 4.64966 36.3986 4.40981 36.3986H0.797409C0.556999 36.3986 0.360352 36.2025 0.360352 35.9621V32.3514C0.360352 32.111 0.556999 31.9149 0.797409 31.9149Z" fill="white"/>
</mask>
<g mask="url(#mask5_2028_1194)">
<path d="M4.8463 31.9149H0.360352V36.3986H4.8463V31.9149Z" fill="#6F00FF"/>
</g>
<mask id="mask6_2028_1194" style="mask-type:luminance" maskUnits="userSpaceOnUse" x="1" y="45" width="4" height="4">
<path d="M1.59716 45.674H4.23599C4.41161 45.674 4.55483 45.8172 4.55483 45.9928V48.6305C4.55483 48.8061 4.41104 48.9493 4.23599 48.9493H1.59716C1.42154 48.9493 1.27832 48.8055 1.27832 48.6305V45.9928C1.27832 45.8172 1.42154 45.674 1.59716 45.674Z" fill="white"/>
</mask>
<g mask="url(#mask6_2028_1194)">
<path d="M4.5554 45.674H1.27832V48.9493H4.5554V45.674Z" fill="#6F00FF"/>
</g>
</svg>
