<svg width="86" height="79" viewBox="0 0 86 79" fill="none" xmlns="http://www.w3.org/2000/svg">
<path d="M80.3216 43.0158C81.0572 43.0432 81.7907 42.9221 82.4784 42.6595C83.1661 42.397 83.7938 41.9984 84.3239 41.4877C84.8541 40.977 85.2758 40.3646 85.5638 39.6872C85.8518 39.0098 86.0003 38.2812 86.0003 37.5451C86.0003 36.809 85.8518 36.0805 85.5638 35.403C85.2758 34.7256 84.8541 34.1132 84.3239 33.6025C83.7938 33.0918 83.1661 32.6933 82.4784 32.4307C81.7907 32.1682 81.0572 32.047 80.3216 32.0745C80.2034 32.0745 80.0928 32.0974 79.9708 32.105L78.1333 24.8616C78.7408 24.4056 79.2464 23.8276 79.6175 23.1648C79.9886 22.5019 80.2171 21.7689 80.2883 21.0126C80.3595 20.2563 80.2718 19.4934 80.0309 18.773C79.79 18.0525 79.4012 17.3904 78.8895 16.829C78.3777 16.2676 77.7543 15.8193 77.0591 15.513C76.364 15.2066 75.6125 15.0489 74.8528 15.05C74.0932 15.0511 73.3421 15.211 72.6479 15.5193C71.9536 15.8276 71.3315 16.2777 70.8213 16.8405L52.1792 8.1752C52.374 7.62124 52.477 7.0392 52.4842 6.45204C52.5035 5.72122 52.3762 4.99394 52.1098 4.31311C51.8435 3.63228 51.4435 3.0117 50.9334 2.48797C50.4233 1.96425 49.8135 1.548 49.1399 1.26378C48.4664 0.97956 47.7427 0.83313 47.0116 0.83313C46.2805 0.83313 45.5569 0.97956 44.8833 1.26378C44.2098 1.548 43.5999 1.96425 43.0899 2.48797C42.5798 3.0117 42.1798 3.63228 41.9134 4.31311C41.6471 4.99394 41.5198 5.72122 41.5391 6.45204C41.5484 6.63844 41.5675 6.82423 41.5963 7.00864L29.7248 10.6494C28.905 9.63076 27.7464 8.94073 26.4602 8.7051C25.1741 8.46947 23.8461 8.70394 22.7185 9.36575C21.5908 10.0276 20.7385 11.0726 20.3171 12.3104C19.8957 13.5482 19.9332 14.8962 20.4228 16.1086L9.25273 26.0816C8.41018 25.5656 7.44248 25.29 6.45451 25.2848C5.14675 25.2785 3.88025 25.7422 2.88572 26.5914C1.89119 27.4406 1.23482 28.6189 1.03617 29.9115C0.837524 31.204 1.10982 32.525 1.80346 33.6337C2.4971 34.7423 3.56593 35.5649 4.81522 35.9516L4.07564 43.0653C3.24197 43.1809 2.44631 43.4877 1.75084 43.9617C1.05537 44.4357 0.478907 45.0641 0.0665017 45.7978C-0.345904 46.5315 -0.583086 47.3506 -0.626516 48.1911C-0.669945 49.0316 -0.518445 49.8708 -0.183852 50.6431C0.150741 51.4154 0.659366 52.0998 1.30228 52.643C1.9452 53.1862 2.705 53.5733 3.52232 53.7742C4.33963 53.9751 5.19233 53.9843 6.01379 53.8011C6.83526 53.6179 7.60323 53.2472 8.25772 52.7181L11.9404 54.3383L11.929 54.4527C11.9344 55.8159 12.449 57.128 13.3719 58.1314C14.2947 59.1348 15.5592 59.7573 16.9172 59.8766C18.2753 59.996 19.6289 59.6036 20.7126 58.7765C21.7963 57.9493 22.5318 56.7472 22.7749 55.4057H26.9837C27.3141 56.5952 28.0383 57.6374 29.038 58.3616C30.0377 59.0859 31.2536 59.4495 32.4868 59.3928C33.72 59.3361 34.8974 58.8626 35.8265 58.0496C36.7555 57.2367 37.3811 56.1325 37.601 54.9178L49.4458 55.3066C50.3128 56.0547 51.3971 56.5047 52.5391 56.5905C53.681 56.6763 54.8203 56.3933 55.7894 55.7831C62.4761 59.4315 68.116 64.7328 72.1709 71.181C71.9036 71.8306 71.7651 72.5258 71.763 73.2282C71.7578 74.1638 71.9924 75.085 72.4445 75.9041C72.8967 76.7232 73.5511 77.4127 74.3455 77.9069C75.1399 78.4011 76.0477 78.6835 76.9822 78.7271C77.9168 78.7707 78.8469 78.574 79.6839 78.1559C80.5208 77.7378 81.2366 77.1122 81.763 76.3388C82.2894 75.5653 82.6088 74.6699 82.6908 73.7379C82.7727 72.806 82.6144 71.8686 82.231 71.0152C81.8476 70.1617 81.2519 69.4208 80.5007 68.8631C78.5855 66.0765 77.2406 62.9384 76.5436 59.6298C77.4821 59.3317 78.3218 58.7836 78.9724 58.0444C79.623 57.3051 80.0599 56.4027 80.2363 55.4338C80.4126 54.465 80.3217 53.4664 79.9734 52.5453C79.6251 51.6242 79.0324 50.8154 78.2591 50.2058L80.3216 43.0158ZM82.4755 37.5451C82.4747 37.9701 82.3481 38.3852 82.1116 38.7382C81.875 39.0912 81.5392 39.3662 81.1464 39.5285C80.7537 39.6908 80.3217 39.733 79.905 39.6499C79.4882 39.5669 79.1055 39.3622 78.805 39.0617C78.5045 38.7612 78.2998 38.3784 78.2167 37.9617C78.1337 37.545 78.1759 37.113 78.3382 36.7203C78.5004 36.3275 78.7754 35.9917 79.1284 35.7551C79.4814 35.5186 79.8966 35.3919 80.3216 35.3912C80.8928 35.3912 81.4407 35.6181 81.8446 36.0221C82.2486 36.426 82.4755 36.9739 82.4755 37.5451ZM78.1142 32.5434C77.2211 32.9425 76.4514 33.574 75.8854 34.372C75.3195 35.1699 74.978 36.1051 74.8967 37.08H70.6231C70.5604 36.3352 70.345 35.6112 69.9901 34.9533C69.6353 34.2955 69.1487 33.7178 68.5606 33.2563L73.9245 25.8871C74.7459 26.0528 75.5964 26.0002 76.3911 25.7346L78.1142 32.5434ZM69.4451 53.7664L58.397 50.9377C58.3523 49.7048 57.8883 48.5241 57.0818 47.5905L61.5422 41.5862C62.2268 42.2308 63.0721 42.6795 63.9896 42.8854C64.9071 43.0913 65.863 43.0468 66.7574 42.7565L71.5304 50.1295C70.9597 50.5678 70.4815 51.1149 70.1236 51.7392C69.7657 52.3635 69.535 53.0525 69.4451 53.7664ZM29.5685 17.6945L45.1264 25.8376C44.7941 26.8041 44.7715 27.8502 45.0616 28.8302L35.0734 33.9654C34.5649 33.3736 33.9351 32.8981 33.2267 32.5712C32.5183 32.2443 31.7478 32.0736 30.9676 32.0707C30.9218 32.0707 30.8799 32.0821 30.8341 32.0859L27.2391 19.2385C28.1365 18.9349 28.9394 18.4028 29.5685 17.6945ZM72.0717 25.2009L66.8603 32.3528C65.9814 32.0491 65.0373 31.9851 64.1254 32.1674C63.2135 32.3496 62.3666 32.7715 61.6718 33.3897L55.6064 28.815C55.815 28.1624 55.8608 27.4688 55.7399 26.7945L69.8721 22.7534C70.3391 23.7722 71.1067 24.6236 72.0717 25.1933M65.1944 39.6876C64.7693 39.6869 64.3539 39.5601 64.0009 39.3234C63.6478 39.0867 63.3728 38.7506 63.2106 38.3577C63.0485 37.9647 63.0064 37.5325 63.0898 37.1157C63.1732 36.6989 63.3783 36.3161 63.6792 36.0158C63.98 35.7155 64.3631 35.5111 64.7801 35.4284C65.1971 35.3458 65.6292 35.3885 66.0219 35.5514C66.4145 35.7143 66.7501 35.9898 66.9862 36.3433C67.2223 36.6969 67.3483 37.1124 67.3483 37.5375C67.3473 38.1081 67.1199 38.655 66.7161 39.0581C66.3123 39.4612 65.765 39.6876 65.1944 39.6876ZM50.3302 29.5851C49.9053 29.5843 49.4901 29.4576 49.1371 29.2211C48.7841 28.9846 48.5091 28.6487 48.3468 28.256C48.1846 27.8632 48.1423 27.4312 48.2254 27.0145C48.3085 26.5978 48.5132 26.215 48.8137 25.9145C49.1141 25.6141 49.4969 25.4094 49.9136 25.3263C50.3304 25.2432 50.7624 25.2855 51.1551 25.4477C51.5478 25.61 51.8837 25.885 52.1202 26.238C52.3568 26.591 52.4834 27.0062 52.4842 27.4311C52.4832 28.0017 52.2558 28.5486 51.8519 28.9517C51.4481 29.3548 50.9008 29.5851 50.3302 29.5851ZM30.9638 35.3797C31.3889 35.3797 31.8044 35.5057 32.1579 35.7418C32.5114 35.9779 32.787 36.3135 32.9499 36.7062C33.1127 37.0988 33.1555 37.531 33.0729 37.9479C32.9902 38.3649 32.7858 38.7481 32.4855 39.0489C32.1852 39.3498 31.8024 39.5548 31.3856 39.6382C30.9687 39.7216 30.5365 39.6796 30.1436 39.5174C29.7506 39.3553 29.4146 39.0803 29.1778 38.7272C28.9411 38.3741 28.8144 37.9588 28.8136 37.5337C28.8136 36.9624 29.0406 36.4146 29.4445 36.0106C29.8484 35.6067 30.3963 35.3797 30.9676 35.3797M36.442 37.5337C36.4385 36.8669 36.3119 36.2064 36.0684 35.5856L45.8584 30.5534C46.3611 31.2759 47.0309 31.8664 47.8108 32.2746C48.5907 32.6828 49.4576 32.8966 50.3378 32.8979L50.4293 32.8903L48.7748 46.8433L33.884 48.7266C33.5855 48.6316 33.2794 48.5627 32.969 48.5207L31.8368 42.9167C33.1181 42.7114 34.2848 42.0573 35.1284 41.0713C35.972 40.0852 36.4376 38.8314 36.442 37.5337ZM32.2333 51.7764C32.6582 51.7772 33.0734 51.9038 33.4264 52.1404C33.7794 52.3769 34.0544 52.7128 34.2166 53.1055C34.3789 53.4982 34.4212 53.9302 34.3381 54.347C34.255 54.7637 34.0503 55.1465 33.7498 55.4469C33.4493 55.7474 33.0666 55.9521 32.6498 56.0352C32.2331 56.1183 31.8011 56.076 31.4084 55.9138C31.0157 55.7515 30.6798 55.4765 30.4433 55.1235C30.2067 54.7705 30.0801 54.3553 30.0793 53.9304C30.0793 53.3591 30.3062 52.8112 30.7102 52.4073C31.1141 52.0034 31.662 51.7764 32.2333 51.7764ZM36.3353 50.3468L47.9742 48.8791C47.6483 49.5789 47.4778 50.341 47.4745 51.1129C47.4712 51.8849 47.6352 52.6484 47.9552 53.3509L37.6124 53.0154C37.4422 52.0247 37 51.1008 36.3353 50.3468ZM52.3965 32.4976C53.3604 32.1025 54.192 31.4414 54.7944 30.5915L60.4595 34.8613C60.0004 35.6379 59.7488 36.5196 59.7288 37.4215C59.7087 38.3235 59.921 39.2154 60.3451 40.0117L55.6064 46.3782C54.8802 45.9577 54.065 45.7144 53.2271 45.6681C52.3892 45.6217 51.5521 45.7736 50.7839 46.1114L52.3965 32.4976ZM74.8509 18.3617C75.2762 18.3617 75.6919 18.4878 76.0455 18.724C76.399 18.9603 76.6746 19.2961 76.8374 19.689C77.0001 20.0819 77.0427 20.5142 76.9597 20.9313C76.8768 21.3483 76.672 21.7315 76.3713 22.0322C76.0706 22.3329 75.6875 22.5376 75.2704 22.6206C74.8533 22.7036 74.421 22.661 74.0281 22.4983C73.6352 22.3355 73.2994 22.0599 73.0631 21.7063C72.8269 21.3528 72.7008 20.937 72.7008 20.5118C72.7018 19.9412 72.9292 19.3943 73.333 18.9912C73.7368 18.5881 74.2803 18.3617 74.8509 18.3617ZM69.792 18.4608C69.5243 19.1115 69.3857 19.8081 69.3841 20.5118C69.3841 20.6452 69.4146 20.771 69.4222 20.9045L55.1947 24.9684C54.7411 24.0683 54.0473 23.3113 53.1901 22.7811C52.3329 22.251 51.3457 21.9682 50.3378 21.9643C50.1739 21.9643 50.0138 22.0024 49.8537 22.0138L47.8675 11.835C49.21 11.6224 50.4243 10.9152 51.2719 9.85261L69.792 18.4608ZM47.0097 4.29428C47.4348 4.29428 47.8504 4.42029 48.2039 4.65638C48.5574 4.89247 48.833 5.22805 48.9958 5.62072C49.1587 6.01338 49.2015 6.4455 49.1188 6.86249C49.0362 7.27947 48.8318 7.66259 48.5314 7.96344C48.2311 8.2643 47.8484 8.46938 47.4315 8.55277C47.0147 8.63616 46.5825 8.59413 46.1895 8.43197C45.7966 8.26982 45.4605 7.99482 45.2238 7.64174C44.9871 7.28865 44.8603 6.87332 44.8596 6.44823C44.8596 5.87762 45.086 5.33034 45.4891 4.9265C45.8922 4.52267 46.4391 4.29529 47.0097 4.29428ZM42.1147 8.83854C42.4795 9.59016 43.0112 10.2485 43.6693 10.7632C44.3274 11.2779 45.0944 11.6354 45.9118 11.8083L48.0009 22.5018C47.2117 22.8794 46.5242 23.4401 45.9956 24.1373L30.5749 16.0705C31.0641 14.8852 31.0954 13.5605 30.6626 12.3535L42.1147 8.83854ZM25.4931 11.9189C25.9182 11.9189 26.3338 12.0449 26.6873 12.281C27.0408 12.5171 27.3164 12.8526 27.4792 13.2453C27.6421 13.638 27.6849 14.0701 27.6022 14.4871C27.5196 14.9041 27.3152 15.2872 27.0148 15.588C26.7145 15.8889 26.3318 16.094 25.9149 16.1774C25.4981 16.2608 25.0659 16.2187 24.6729 16.0566C24.28 15.8944 23.9439 15.6194 23.7072 15.2663C23.4705 14.9132 23.3437 14.4979 23.343 14.0728C23.343 13.5022 23.5694 12.9549 23.9725 12.5511C24.3756 12.1473 24.9225 11.9199 25.4931 11.9189ZM25.3406 19.5282L28.9623 32.4595C27.9158 32.8735 27.0216 33.5988 26.4004 34.5372L11.9175 30.8431L11.929 30.7554C11.9226 29.5086 11.4863 28.3021 10.6938 27.3396L21.4597 17.7364C21.9515 18.2814 22.5486 18.7211 23.2149 19.029C23.8813 19.337 24.6031 19.5068 25.3368 19.5282M7.01492 48.4521C7.01492 48.8774 6.88881 49.2931 6.65255 49.6467C6.41629 50.0002 6.08049 50.2758 5.6876 50.4386C5.29472 50.6013 4.8624 50.6439 4.44531 50.5609C4.02823 50.478 3.64511 50.2732 3.34441 49.9725C3.04371 49.6718 2.83892 49.2887 2.75596 48.8716C2.673 48.4545 2.71558 48.0222 2.87832 47.6293C3.04105 47.2364 3.31664 46.9006 3.67023 46.6643C4.02382 46.4281 4.43953 46.302 4.86478 46.302C5.43472 46.303 5.98103 46.5298 6.38404 46.9328C6.78705 47.3358 7.01391 47.8822 7.01492 48.4521ZM5.9856 43.0958L6.70612 36.2032C7.76337 36.1535 8.78341 35.7977 9.64226 35.1791C10.5011 34.5605 11.1618 33.7058 11.5439 32.7188L25.6418 36.3138C25.4605 37.0326 25.4423 37.7829 25.5884 38.5096L9.03162 44.9524C8.25146 44.0104 7.17735 43.3579 5.98178 43.0996M6.44689 28.6053C6.87198 28.6053 7.28753 28.7313 7.64104 28.9674C7.99454 29.2035 8.27013 29.5391 8.43298 29.9317C8.59583 30.3244 8.63863 30.7565 8.55598 31.1735C8.47332 31.5905 8.26892 31.9736 7.9686 32.2745C7.66828 32.5753 7.28552 32.7804 6.86869 32.8638C6.45185 32.9472 6.01965 32.9051 5.6267 32.743C5.23375 32.5808 4.89768 32.3058 4.66096 31.9527C4.42425 31.5997 4.2975 31.1843 4.29675 30.7592C4.29675 30.1886 4.52316 29.6413 4.92628 29.2375C5.3294 28.8337 5.87628 28.6063 6.44689 28.6053ZM9.56153 51.2122C9.97892 50.5322 10.2351 49.7657 10.3104 48.9714C10.3858 48.1771 10.2782 47.3761 9.99613 46.6298L26.2594 40.3014C26.6275 40.9302 27.1177 41.4791 27.701 41.9158C28.2843 42.3525 28.9491 42.6681 29.6561 42.8442L22.5462 52.6914C22.19 51.6334 21.5174 50.7103 20.6194 50.0472C19.7213 49.384 18.6412 49.0128 17.5253 48.9837C16.4093 48.9546 15.3113 49.269 14.3799 49.8844C13.4485 50.4998 12.7287 51.3865 12.3178 52.4245L9.56153 51.2122ZM17.392 56.6066C16.9671 56.6059 16.5519 56.4792 16.1989 56.2427C15.8459 56.0061 15.5709 55.6703 15.4086 55.2775C15.2463 54.8848 15.2041 54.4528 15.2872 54.0361C15.3703 53.6193 15.575 53.2366 15.8754 52.9361C16.1759 52.6356 16.5587 52.4309 16.9754 52.3478C17.3921 52.2648 17.8241 52.307 18.2169 52.4693C18.6096 52.6315 18.9454 52.9065 19.182 53.2595C19.4185 53.6125 19.5452 54.0277 19.5459 54.4527C19.5459 55.0239 19.319 55.5718 18.9151 55.9757C18.5111 56.3797 17.9632 56.6066 17.392 56.6066ZM30.3805 44.0032L31.0629 48.5855C29.9178 48.8389 28.8846 49.4537 28.1157 50.3392C27.3469 51.2248 26.8832 52.3341 26.7931 53.5034H24.1245L30.3805 44.0032ZM52.934 53.2861C52.5091 53.2853 52.0939 53.1587 51.7409 52.9221C51.3879 52.6856 51.1129 52.3498 50.9506 51.957C50.7884 51.5643 50.7461 51.1323 50.8292 50.7156C50.9123 50.2988 51.117 49.9161 51.4175 49.6156C51.7179 49.3151 52.1007 49.1104 52.5174 49.0273C52.9342 48.9442 53.3662 48.9865 53.7589 49.1488C54.1516 49.311 54.4875 49.586 54.724 49.939C54.9606 50.292 55.0872 50.7072 55.088 51.1321C55.088 51.7034 54.861 52.2513 54.4571 52.6552C54.0532 53.0592 53.5053 53.2861 52.934 53.2861ZM77.2298 75.3783C76.8045 75.3783 76.3888 75.2522 76.0352 75.016C75.6816 74.7797 75.4061 74.4439 75.2433 74.051C75.0806 73.6581 75.038 73.2258 75.121 72.8087C75.2039 72.3917 75.4087 72.0085 75.7094 71.7078C76.0101 71.4071 76.3932 71.2024 76.8103 71.1194C77.2274 71.0364 77.6597 71.079 78.0526 71.2417C78.4455 71.4045 78.7813 71.6801 79.0176 72.0337C79.2538 72.3873 79.3799 72.803 79.3799 73.2282C79.3789 73.7982 79.1521 74.3445 78.749 74.7475C78.346 75.1505 77.7997 75.3773 77.2298 75.3783ZM77.2298 67.7538C76.503 67.7539 75.7836 67.8993 75.1139 68.1814C74.4441 68.4636 73.8375 68.8768 73.3298 69.3969C69.271 63.1806 63.7633 58.0431 57.28 54.426C57.5973 54.0099 57.8528 53.5503 58.0387 53.0612L69.5633 55.8175C69.859 56.9626 70.5184 57.9808 71.4423 58.7191C72.3662 59.4574 73.5048 59.876 74.687 59.9119C75.1607 62.704 76.1635 65.3799 77.6415 67.7957C77.5005 67.7843 77.3708 67.7538 77.2298 67.7538ZM74.8433 56.6104C74.4182 56.6104 74.0026 56.4844 73.6491 56.2483C73.2956 56.0122 73.02 55.6766 72.8572 55.284C72.6943 54.8913 72.6515 54.4592 72.7342 54.0422C72.8168 53.6252 73.0213 53.2421 73.3216 52.9413C73.6219 52.6404 74.0047 52.4353 74.4215 52.3519C74.8383 52.2685 75.2705 52.3106 75.6635 52.4727C76.0564 52.6349 76.3925 52.9099 76.6292 53.263C76.8659 53.616 76.9927 54.0314 76.9934 54.4565C76.9934 55.0271 76.767 55.5744 76.3639 55.9782C75.9608 56.382 75.4139 56.6094 74.8433 56.6104ZM76.5359 49.2794C75.4657 48.892 74.2948 48.8839 73.2193 49.2565L68.4577 41.9064C69.4213 41.1821 70.1183 40.1594 70.4401 38.9976H75.0644C75.2954 39.8316 75.721 40.5989 76.3062 41.2364C76.8914 41.8739 77.6195 42.3636 78.4307 42.665L76.5359 49.2794Z" fill="#6F00FF"/>
</svg>
