<svg width="96" height="97" viewBox="0 0 96 97" fill="none" xmlns="http://www.w3.org/2000/svg">
<path d="M44.9415 0.739594C44.7362 0.75826 44.0829 0.823591 43.4949 0.870255C29.9341 2.09287 17.232 9.40989 9.18703 20.6561C4.70722 26.9091 1.84201 34.0022 0.759393 41.5152C0.376743 44.1377 0.330078 44.9124 0.330078 48.4682C0.330078 52.0241 0.376743 52.7987 0.759393 55.4213C3.35395 73.3498 16.1121 88.4132 33.4153 93.9943C36.5139 94.9929 39.7804 95.6742 43.4949 96.0849C44.9415 96.2435 51.1946 96.2435 52.6412 96.0849C59.0529 95.3756 64.4847 93.789 69.8418 91.0544C70.6631 90.6344 70.8217 90.5224 70.7097 90.4291C70.6351 90.3731 67.1352 85.6786 62.9354 80.0042L55.3011 69.6913L45.7348 55.5333C40.471 47.7496 36.1405 41.3845 36.1032 41.3845C36.0659 41.3752 36.0286 47.6656 36.0099 55.3466C35.9819 68.7954 35.9726 69.3367 35.8046 69.654C35.5619 70.1113 35.3752 70.298 34.9833 70.5033C34.6846 70.6526 34.4233 70.6806 33.014 70.6806H31.3994L30.9701 70.41C30.6901 70.2326 30.4848 69.9993 30.3448 69.7287L30.1488 69.3087L30.1675 50.5961L30.1955 31.8743L30.4848 31.5103C30.6341 31.3143 30.9514 31.0623 31.1754 30.941C31.5581 30.7543 31.7074 30.7356 33.322 30.7356C35.2259 30.7356 35.5432 30.8103 36.0379 31.3516C36.1779 31.5009 41.3577 39.3033 47.5547 48.7016C53.7518 58.0998 62.2261 70.9326 66.3886 77.2323L73.9483 88.6839L74.3309 88.4319C77.7188 86.2293 81.3026 83.0934 84.1398 79.8269C90.1782 72.8925 94.0701 64.4369 95.3767 55.4213C95.7593 52.7987 95.806 52.0241 95.806 48.4682C95.806 44.9124 95.7593 44.1377 95.3767 41.5152C92.7821 23.5866 80.024 8.52326 62.7208 2.94217C59.6689 1.95288 56.421 1.27157 52.7812 0.860923C51.8852 0.767593 45.7161 0.664931 44.9415 0.739594ZM64.4847 29.6157C64.9327 29.8397 65.2966 30.269 65.4273 30.717C65.502 30.9596 65.5206 36.1488 65.502 47.8429L65.474 64.6235L62.5154 60.0877L59.5476 55.5519V43.3538C59.5476 35.4674 59.5849 31.0343 59.6409 30.8196C59.7902 30.297 60.1169 29.8864 60.5648 29.6437C60.9475 29.4477 61.0875 29.429 62.5528 29.429C63.934 29.429 64.1767 29.4477 64.4847 29.6157Z" fill="black"/>
</svg>
