<svg width="1609" height="381" viewBox="0 0 1609 381" fill="none" xmlns="http://www.w3.org/2000/svg">
<mask id="path-1-outside-1_1597_10737" maskUnits="userSpaceOnUse" x="7" y="79" width="1595" height="229" fill="black">
<rect fill="white" x="7" y="79" width="1595" height="229"/>
<path d="M97.8713 306.752C80.3608 306.752 63.5799 304.459 47.5286 299.873C31.4773 295.079 18.5528 288.929 8.75526 281.425L25.9531 243.277C35.3337 249.947 46.382 255.471 59.098 259.849C72.0225 264.018 85.0511 266.103 98.184 266.103C108.19 266.103 116.216 265.165 122.261 263.289C128.515 261.204 133.101 258.39 136.019 254.846C138.938 251.302 140.397 247.237 140.397 242.651C140.397 236.814 138.104 232.228 133.518 228.893C128.932 225.349 122.886 222.535 115.382 220.45C107.877 218.157 99.539 216.073 90.3668 214.197C81.4031 212.112 72.3351 209.611 63.163 206.692C54.1992 203.774 45.9651 200.021 38.4606 195.435C30.9561 190.849 24.8066 184.804 20.012 177.299C15.4259 169.795 13.1329 160.206 13.1329 148.532C13.1329 136.025 16.4682 124.664 23.1389 114.449C30.018 104.026 40.2325 95.7921 53.7823 89.7468C67.5406 83.4931 84.7384 80.3662 105.376 80.3662C119.134 80.3662 132.684 82.0339 146.025 85.3692C159.367 88.4961 171.145 93.2906 181.359 99.7528L165.725 138.213C155.51 132.377 145.296 128.103 135.081 125.393C124.867 122.475 114.861 121.016 105.063 121.016C95.2656 121.016 87.2399 122.162 80.9862 124.455C74.7324 126.748 70.2506 129.771 67.5406 133.523C64.8306 137.067 63.4757 141.236 63.4757 146.031C63.4757 151.659 65.7687 156.245 70.3548 159.789C74.9409 163.124 80.9862 165.834 88.4907 167.919C95.9952 170.003 104.229 172.088 113.193 174.173C122.365 176.257 131.433 178.654 140.397 181.364C149.569 184.074 157.907 187.722 165.412 192.308C172.916 196.895 178.962 202.94 183.548 210.444C188.342 217.949 190.74 227.434 190.74 238.899C190.74 251.198 187.3 262.455 180.421 272.669C173.542 282.884 163.223 291.118 149.465 297.372C135.915 303.625 118.717 306.752 97.8713 306.752ZM271.943 172.296H377.319V211.695H271.943V172.296ZM275.695 262.351H394.83V303H225.353V84.1184H390.765V124.768H275.695V262.351ZM435.135 303V84.1184H529.879C549.474 84.1184 566.359 87.3495 580.534 93.8118C594.71 100.066 605.654 109.133 613.367 121.016C621.08 132.898 624.936 147.073 624.936 163.541C624.936 179.801 621.08 193.872 613.367 205.754C605.654 217.428 594.71 226.391 580.534 232.645C566.359 238.899 549.474 242.026 529.879 242.026H463.276L485.79 219.825V303H435.135ZM574.281 303L519.56 223.577H573.655L629.001 303H574.281ZM485.79 225.453L463.276 201.689H527.065C542.699 201.689 554.373 198.354 562.086 191.683C569.799 184.804 573.655 175.423 573.655 163.541C573.655 151.451 569.799 142.07 562.086 135.399C554.373 128.729 542.699 125.393 527.065 125.393H463.276L485.79 101.316V225.453ZM730.735 303L636.303 84.1184H691.023L773.573 277.985H741.366L825.166 84.1184H875.509L780.765 303H730.735ZM893.784 303V84.1184H944.44V303H893.784ZM1101.14 306.752C1084.25 306.752 1068.51 304.042 1053.92 298.622C1039.54 292.994 1027.03 285.073 1016.4 274.858C1005.77 264.644 997.427 252.657 991.382 238.899C985.545 225.141 982.627 210.027 982.627 193.559C982.627 177.091 985.545 161.978 991.382 148.219C997.427 134.461 1005.77 122.475 1016.4 112.26C1027.24 102.046 1039.85 94.2287 1054.23 88.8088C1068.62 83.1804 1084.35 80.3662 1101.45 80.3662C1120.42 80.3662 1137.51 83.7015 1152.73 90.3722C1168.15 96.8344 1181.08 106.424 1191.5 119.139L1158.98 149.158C1151.48 140.611 1143.14 134.253 1133.97 130.084C1124.8 125.706 1114.79 123.517 1103.95 123.517C1093.74 123.517 1084.35 125.185 1075.81 128.52C1067.26 131.855 1059.86 136.65 1053.61 142.904C1047.35 149.158 1042.45 156.558 1038.91 165.105C1035.58 173.651 1033.91 183.136 1033.91 193.559C1033.91 203.982 1035.58 213.467 1038.91 222.014C1042.45 230.561 1047.35 237.961 1053.61 244.215C1059.86 250.468 1067.26 255.263 1075.81 258.598C1084.35 261.934 1093.74 263.601 1103.95 263.601C1114.79 263.601 1124.8 261.517 1133.97 257.348C1143.14 252.97 1151.48 246.403 1158.98 237.648L1191.5 267.666C1181.08 280.382 1168.15 290.076 1152.73 296.746C1137.51 303.417 1120.31 306.752 1101.14 306.752ZM1272.3 172.296H1377.68V211.695H1272.3V172.296ZM1276.05 262.351H1395.19V303H1225.71V84.1184H1391.12V124.768H1276.05V262.351ZM1507.41 306.752C1489.9 306.752 1473.12 304.459 1457.07 299.873C1441.02 295.079 1428.09 288.929 1418.29 281.425L1435.49 243.277C1444.87 249.947 1455.92 255.471 1468.64 259.849C1481.56 264.018 1494.59 266.103 1507.72 266.103C1517.73 266.103 1525.75 265.165 1531.8 263.289C1538.05 261.204 1542.64 258.39 1545.56 254.846C1548.48 251.302 1549.94 247.237 1549.94 242.651C1549.94 236.814 1547.64 232.228 1543.06 228.893C1538.47 225.349 1532.42 222.535 1524.92 220.45C1517.42 218.157 1509.08 216.073 1499.91 214.197C1490.94 212.112 1481.87 209.611 1472.7 206.692C1463.74 203.774 1455.5 200.021 1448 195.435C1440.49 190.849 1434.35 184.804 1429.55 177.299C1424.96 169.795 1422.67 160.206 1422.67 148.532C1422.67 136.025 1426.01 124.664 1432.68 114.449C1439.56 104.026 1449.77 95.7921 1463.32 89.7468C1477.08 83.4931 1494.28 80.3662 1514.91 80.3662C1528.67 80.3662 1542.22 82.0339 1555.56 85.3692C1568.91 88.4961 1580.68 93.2906 1590.9 99.7528L1575.26 138.213C1565.05 132.377 1554.83 128.103 1544.62 125.393C1534.41 122.475 1524.4 121.016 1514.6 121.016C1504.8 121.016 1496.78 122.162 1490.52 124.455C1484.27 126.748 1479.79 129.771 1477.08 133.523C1474.37 137.067 1473.01 141.236 1473.01 146.031C1473.01 151.659 1475.31 156.245 1479.89 159.789C1484.48 163.124 1490.52 165.834 1498.03 167.919C1505.53 170.003 1513.77 172.088 1522.73 174.173C1531.9 176.257 1540.97 178.654 1549.94 181.364C1559.11 184.074 1567.45 187.722 1574.95 192.308C1582.46 196.895 1588.5 202.94 1593.09 210.444C1597.88 217.949 1600.28 227.434 1600.28 238.899C1600.28 251.198 1596.84 262.455 1589.96 272.669C1583.08 282.884 1572.76 291.118 1559 297.372C1545.45 303.625 1528.26 306.752 1507.41 306.752Z"/>
</mask>
<path d="M47.5286 299.873L47.2423 300.831L47.2538 300.835L47.5286 299.873ZM8.75526 281.425L7.84362 281.014L7.51778 281.736L8.14719 282.218L8.75526 281.425ZM25.9531 243.277L26.5326 242.462L25.5414 241.757L25.0415 242.866L25.9531 243.277ZM59.098 259.849L58.7725 260.795L58.7817 260.798L58.791 260.801L59.098 259.849ZM122.261 263.289L122.557 264.244L122.567 264.241L122.577 264.237L122.261 263.289ZM136.019 254.846L135.247 254.21L136.019 254.846ZM133.518 228.893L132.906 229.684L132.918 229.693L132.93 229.702L133.518 228.893ZM115.382 220.45L115.09 221.407L115.102 221.41L115.114 221.414L115.382 220.45ZM90.3668 214.197L90.1403 215.171L90.1533 215.174L90.1664 215.176L90.3668 214.197ZM63.163 206.692L62.8534 207.643L62.8598 207.645L63.163 206.692ZM38.4606 195.435L37.9392 196.289L38.4606 195.435ZM20.012 177.299L19.1587 177.821L19.164 177.829L19.1693 177.838L20.012 177.299ZM23.1389 114.449L22.3043 113.898L22.3016 113.902L23.1389 114.449ZM53.7823 89.7468L54.1898 90.6601L54.1961 90.6572L53.7823 89.7468ZM146.025 85.3692L145.783 86.3393L145.79 86.3411L145.797 86.3428L146.025 85.3692ZM181.359 99.7528L182.285 100.129L182.6 99.3548L181.894 98.9078L181.359 99.7528ZM165.725 138.213L165.228 139.082L166.221 139.649L166.651 138.59L165.725 138.213ZM135.081 125.393L134.806 126.355L134.816 126.357L134.825 126.36L135.081 125.393ZM80.9862 124.455L80.6419 123.516L80.9862 124.455ZM67.5406 133.523L68.335 134.131L68.3433 134.12L68.3513 134.109L67.5406 133.523ZM70.3548 159.789L69.7433 160.58L69.7549 160.589L69.7666 160.598L70.3548 159.789ZM88.4907 167.919L88.223 168.882L88.4907 167.919ZM113.193 174.173L112.967 175.147L112.971 175.148L113.193 174.173ZM140.397 181.364L140.107 182.322L140.114 182.323L140.397 181.364ZM165.412 192.308L165.933 191.455L165.412 192.308ZM183.548 210.444L182.695 210.966L182.7 210.974L182.705 210.983L183.548 210.444ZM180.421 272.669L181.25 273.228L180.421 272.669ZM149.465 297.372L149.051 296.461L149.046 296.464L149.465 297.372ZM97.8713 305.752C80.4492 305.752 63.761 303.471 47.8033 298.912L47.2538 300.835C63.3988 305.447 80.2724 307.752 97.8713 307.752V305.752ZM47.8148 298.915C31.8409 294.144 19.0368 288.04 9.36334 280.631L8.14719 282.218C18.0689 289.818 31.1136 296.014 47.2424 300.831L47.8148 298.915ZM9.6669 281.836L26.8647 243.688L25.0415 242.866L7.84362 281.014L9.6669 281.836ZM25.3736 244.092C34.844 250.826 45.9809 256.391 58.7725 260.795L59.4235 258.904C46.7832 254.552 35.8235 249.068 26.5326 242.462L25.3736 244.092ZM58.791 260.801C71.8112 265.001 84.9434 267.103 98.184 267.103V265.103C85.1589 265.103 72.2337 263.036 59.405 258.897L58.791 260.801ZM98.184 267.103C108.239 267.103 116.377 266.162 122.557 264.244L121.965 262.334C116.054 264.168 108.141 265.103 98.184 265.103V267.103ZM122.577 264.237C128.936 262.118 133.712 259.221 136.791 255.482L135.247 254.21C132.49 257.559 128.094 260.29 121.945 262.34L122.577 264.237ZM136.791 255.482C139.857 251.759 141.397 247.47 141.397 242.651H139.397C139.397 247.005 138.018 250.845 135.247 254.21L136.791 255.482ZM141.397 242.651C141.397 236.506 138.96 231.614 134.106 228.084L132.93 229.702C137.248 232.842 139.397 237.123 139.397 242.651H141.397ZM134.129 228.102C129.412 224.457 123.238 221.595 115.649 219.487L115.114 221.414C122.534 223.475 128.451 226.242 132.906 229.684L134.129 228.102ZM115.674 219.494C108.134 217.19 99.7646 215.098 90.5672 213.217L90.1664 215.176C99.3133 217.047 107.62 219.124 115.09 221.407L115.674 219.494ZM90.5933 213.223C81.6566 211.144 72.6142 208.65 63.4662 205.739L62.8598 207.645C72.0561 210.571 81.1496 213.08 90.1403 215.171L90.5933 213.223ZM63.4725 205.741C54.5777 202.845 46.4154 199.125 38.9821 194.582L37.9392 196.289C45.5148 200.918 53.8208 204.702 62.8534 207.643L63.4725 205.741ZM38.9821 194.582C31.6088 190.076 25.5686 184.139 20.8547 176.761L19.1693 177.838C24.0446 185.469 30.3034 191.622 37.9392 196.289L38.9821 194.582ZM20.8653 176.778C16.4017 169.474 14.1329 160.08 14.1329 148.532H12.1329C12.1329 160.331 14.4502 170.116 19.1587 177.821L20.8653 176.778ZM14.1329 148.532C14.1329 136.214 17.4145 125.044 23.9762 114.996L22.3016 113.902C15.522 124.284 12.1329 135.836 12.1329 148.532H14.1329ZM23.9735 115C30.7293 104.764 40.7808 96.6425 54.1898 90.66L53.3749 88.8336C39.6842 94.9417 29.3067 103.289 22.3043 113.898L23.9735 115ZM54.1961 90.6572C67.7861 84.4799 84.832 81.3662 105.376 81.3662V79.3662C84.6448 79.3662 67.2951 82.5062 53.3685 88.8365L54.1961 90.6572ZM105.376 81.3662C119.052 81.3662 132.521 83.0238 145.783 86.3393L146.268 84.399C132.847 81.0439 119.216 79.3662 105.376 79.3662V81.3662ZM145.797 86.3428C159.044 89.4476 170.716 94.2027 180.824 100.598L181.894 98.9078C171.573 92.3785 159.689 87.5445 146.253 84.3956L145.797 86.3428ZM180.433 99.3763L164.798 137.837L166.651 138.59L182.285 100.129L180.433 99.3763ZM166.221 137.345C155.939 131.47 145.645 127.161 135.338 124.427L134.825 126.36C144.947 129.045 155.081 133.283 165.228 139.082L166.221 137.345ZM135.356 124.432C125.06 121.49 114.961 120.016 105.063 120.016V122.016C114.76 122.016 124.674 123.46 134.806 126.355L135.356 124.432ZM105.063 120.016C95.1983 120.016 87.0449 121.169 80.6419 123.516L81.3304 125.394C87.435 123.156 95.3329 122.016 105.063 122.016V120.016ZM80.6419 123.516C74.2794 125.849 69.5975 128.967 66.7299 132.938L68.3513 134.109C70.9036 130.575 75.1854 127.647 81.3304 125.394L80.6419 123.516ZM66.7462 132.916C63.8927 136.647 62.4757 141.034 62.4757 146.031H64.4757C64.4757 141.438 65.7686 137.487 68.335 134.131L66.7462 132.916ZM62.4757 146.031C62.4757 151.979 64.9207 156.854 69.7433 160.58L70.9662 158.998C66.6167 155.637 64.4757 151.339 64.4757 146.031H62.4757ZM69.7666 160.598C74.4781 164.024 80.6434 166.777 88.223 168.882L88.7583 166.955C81.329 164.892 75.4036 162.224 70.943 158.98L69.7666 160.598ZM88.223 168.882C95.7434 170.971 103.991 173.059 112.967 175.147L113.42 173.199C104.467 171.117 96.247 169.035 88.7583 166.955L88.223 168.882ZM112.971 175.148C122.121 177.227 131.166 179.618 140.107 182.322L140.686 180.407C131.7 177.69 122.61 175.287 113.415 173.197L112.971 175.148ZM140.114 182.323C149.209 185.011 157.467 188.625 164.89 193.162L165.933 191.455C158.348 186.82 149.929 183.138 140.68 180.405L140.114 182.323ZM164.89 193.162C172.26 197.665 178.191 203.597 182.695 210.966L184.401 209.923C179.732 202.283 173.573 196.124 165.933 191.455L164.89 193.162ZM182.705 210.983C187.371 218.286 189.74 227.57 189.74 238.899H191.74C191.74 227.297 189.314 217.612 184.391 209.906L182.705 210.983ZM189.74 238.899C189.74 250.999 186.36 262.061 179.592 272.111L181.25 273.228C188.241 262.849 191.74 251.397 191.74 238.899H189.74ZM179.592 272.111C172.837 282.14 162.679 290.267 149.051 296.461L149.879 298.282C163.767 291.969 174.247 283.627 181.25 273.228L179.592 272.111ZM149.046 296.464C135.669 302.638 118.626 305.752 97.8713 305.752V307.752C118.808 307.752 136.161 304.613 149.884 298.28L149.046 296.464ZM271.943 172.296V171.296H270.943V172.296H271.943ZM377.319 172.296H378.319V171.296H377.319V172.296ZM377.319 211.695V212.695H378.319V211.695H377.319ZM271.943 211.695H270.943V212.695H271.943V211.695ZM275.695 262.351H274.695V263.351H275.695V262.351ZM394.83 262.351H395.83V261.351H394.83V262.351ZM394.83 303V304H395.83V303H394.83ZM225.353 303H224.353V304H225.353V303ZM225.353 84.1184V83.1184H224.353V84.1184H225.353ZM390.765 84.1184H391.765V83.1184H390.765V84.1184ZM390.765 124.768V125.768H391.765V124.768H390.765ZM275.695 124.768V123.768H274.695V124.768H275.695ZM271.943 173.296H377.319V171.296H271.943V173.296ZM376.319 172.296V211.695H378.319V172.296H376.319ZM377.319 210.695H271.943V212.695H377.319V210.695ZM272.943 211.695V172.296H270.943V211.695H272.943ZM275.695 263.351H394.83V261.351H275.695V263.351ZM393.83 262.351V303H395.83V262.351H393.83ZM394.83 302H225.353V304H394.83V302ZM226.353 303V84.1184H224.353V303H226.353ZM225.353 85.1184H390.765V83.1184H225.353V85.1184ZM389.765 84.1184V124.768H391.765V84.1184H389.765ZM390.765 123.768H275.695V125.768H390.765V123.768ZM274.695 124.768V262.351H276.695V124.768H274.695ZM435.135 303H434.135V304H435.135V303ZM435.135 84.1184V83.1184H434.135V84.1184H435.135ZM580.534 93.8118L580.12 94.7217L580.131 94.7267L580.534 93.8118ZM613.367 121.016L612.528 121.56L613.367 121.016ZM613.367 205.754L614.201 206.305L614.205 206.299L613.367 205.754ZM580.534 232.645L580.938 233.56L580.534 232.645ZM463.276 242.026L462.574 241.314L460.838 243.026H463.276V242.026ZM485.79 219.825H486.79V217.434L485.088 219.113L485.79 219.825ZM485.79 303V304H486.79V303H485.79ZM574.281 303L573.457 303.567L573.755 304H574.281V303ZM519.56 223.577V222.577H517.657L518.737 224.145L519.56 223.577ZM573.655 223.577L574.476 223.006L574.177 222.577H573.655V223.577ZM629.001 303V304H630.917L629.822 302.428L629.001 303ZM485.79 225.453L485.064 226.141L486.79 227.963V225.453H485.79ZM463.276 201.689V200.689H460.952L462.551 202.377L463.276 201.689ZM562.086 191.683L562.74 192.439L562.746 192.434L562.751 192.429L562.086 191.683ZM463.276 125.393L462.546 124.71L460.972 126.393H463.276V125.393ZM485.79 101.316H486.79V98.7827L485.06 100.633L485.79 101.316ZM436.135 303V84.1184H434.135V303H436.135ZM435.135 85.1184H529.879V83.1184H435.135V85.1184ZM529.879 85.1184C549.367 85.1184 566.104 88.3321 580.12 94.7217L580.949 92.9019C566.615 86.367 549.581 83.1184 529.879 83.1184V85.1184ZM580.131 94.7267C594.145 100.91 604.931 109.856 612.528 121.56L614.205 120.471C606.377 108.411 595.274 99.2215 580.938 92.8969L580.131 94.7267ZM612.528 121.56C620.119 133.255 623.936 147.234 623.936 163.541H625.936C625.936 146.912 622.04 132.54 614.205 120.471L612.528 121.56ZM623.936 163.541C623.936 179.637 620.121 193.512 612.528 205.21L614.205 206.299C622.039 194.231 625.936 179.965 625.936 163.541H623.936ZM612.532 205.203C604.936 216.7 594.15 225.545 580.131 231.73L580.938 233.56C595.269 227.238 606.371 218.156 614.201 206.305L612.532 205.203ZM580.131 231.73C566.112 237.915 549.371 241.026 529.879 241.026V243.026C549.578 243.026 566.607 239.883 580.938 233.56L580.131 231.73ZM529.879 241.026H463.276V243.026H529.879V241.026ZM463.979 242.738L486.492 220.537L485.088 219.113L462.574 241.314L463.979 242.738ZM484.79 219.825V303H486.79V219.825H484.79ZM485.79 302H435.135V304H485.79V302ZM575.104 302.433L520.384 223.01L518.737 224.145L573.457 303.567L575.104 302.433ZM519.56 224.577H573.655V222.577H519.56V224.577ZM572.835 224.149L628.181 303.572L629.822 302.428L574.476 223.006L572.835 224.149ZM629.001 302H574.281V304H629.001V302ZM486.516 224.766L464.002 201.001L462.551 202.377L485.064 226.141L486.516 224.766ZM463.276 202.689H527.065V200.689H463.276V202.689ZM527.065 202.689C542.817 202.689 554.77 199.332 562.74 192.439L561.432 190.927C553.976 197.375 542.582 200.689 527.065 200.689V202.689ZM562.751 192.429C570.71 185.331 574.655 175.661 574.655 163.541H572.655C572.655 175.185 568.888 184.277 561.42 190.937L562.751 192.429ZM574.655 163.541C574.655 151.22 570.714 141.539 562.74 134.643L561.432 136.156C568.884 142.601 572.655 151.682 572.655 163.541H574.655ZM562.74 134.643C554.77 127.75 542.817 124.393 527.065 124.393V126.393C542.582 126.393 553.976 129.707 561.432 136.156L562.74 134.643ZM527.065 124.393H463.276V126.393H527.065V124.393ZM464.007 126.076L486.52 101.999L485.06 100.633L462.546 124.71L464.007 126.076ZM484.79 101.316V225.453H486.79V101.316H484.79ZM730.735 303L729.816 303.396L730.077 304H730.735V303ZM636.303 84.1184V83.1184H634.782L635.385 84.5146L636.303 84.1184ZM691.023 84.1184L691.943 83.7267L691.684 83.1184H691.023V84.1184ZM773.573 277.985V278.985H775.086L774.493 277.593L773.573 277.985ZM741.366 277.985L740.448 277.588L739.844 278.985H741.366V277.985ZM825.166 84.1184V83.1184H824.509L824.248 83.7217L825.166 84.1184ZM875.509 84.1184L876.427 84.5157L877.032 83.1184H875.509V84.1184ZM780.765 303V304H781.422L781.682 303.397L780.765 303ZM731.653 302.604L637.221 83.7223L635.385 84.5146L729.816 303.396L731.653 302.604ZM636.303 85.1184H691.023V83.1184H636.303V85.1184ZM690.103 84.5102L772.653 278.377L774.493 277.593L691.943 83.7267L690.103 84.5102ZM773.573 276.985H741.366V278.985H773.573V276.985ZM742.284 278.382L826.084 84.5152L824.248 83.7217L740.448 277.588L742.284 278.382ZM825.166 85.1184H875.509V83.1184H825.166V85.1184ZM874.591 83.7212L779.847 302.603L781.682 303.397L876.427 84.5157L874.591 83.7212ZM780.765 302H730.735V304H780.765V302ZM893.784 303H892.784V304H893.784V303ZM893.784 84.1184V83.1184H892.784V84.1184H893.784ZM944.44 84.1184H945.44V83.1184H944.44V84.1184ZM944.44 303V304H945.44V303H944.44ZM894.784 303V84.1184H892.784V303H894.784ZM893.784 85.1184H944.44V83.1184H893.784V85.1184ZM943.44 84.1184V303H945.44V84.1184H943.44ZM944.44 302H893.784V304H944.44V302ZM1053.92 298.622L1053.56 299.554L1053.56 299.557L1053.57 299.56L1053.92 298.622ZM1016.4 274.858L1015.7 275.579L1016.4 274.858ZM991.382 238.899L990.461 239.29L990.466 239.301L991.382 238.899ZM991.382 148.219L990.466 147.817L990.461 147.829L991.382 148.219ZM1016.4 112.26L1015.71 111.533L1015.7 111.539L1016.4 112.26ZM1054.23 88.8088L1054.58 89.7446L1054.6 89.74L1054.23 88.8088ZM1152.73 90.3722L1152.33 91.2881L1152.33 91.2914L1152.34 91.2945L1152.73 90.3722ZM1191.5 119.139L1192.18 119.874L1192.87 119.235L1192.28 118.506L1191.5 119.139ZM1158.98 149.158L1158.23 149.817L1158.91 150.588L1159.66 149.892L1158.98 149.158ZM1133.97 130.084L1133.54 130.986L1133.55 130.99L1133.55 130.994L1133.97 130.084ZM1053.61 142.904L1054.31 143.611L1053.61 142.904ZM1038.91 165.105L1037.99 164.722L1037.98 164.731L1037.98 164.741L1038.91 165.105ZM1038.91 222.014L1037.98 222.377L1037.98 222.387L1037.99 222.397L1038.91 222.014ZM1053.61 244.215L1052.9 244.922L1053.61 244.215ZM1133.97 257.348L1134.38 258.258L1134.39 258.254L1134.4 258.25L1133.97 257.348ZM1158.98 237.648L1159.66 236.913L1158.9 236.21L1158.22 236.997L1158.98 237.648ZM1191.5 267.666L1192.28 268.3L1192.87 267.571L1192.18 266.931L1191.5 267.666ZM1152.73 296.746L1152.33 295.828L1152.33 295.83L1152.73 296.746ZM1101.14 305.752C1084.36 305.752 1068.74 303.06 1054.27 297.685L1053.57 299.56C1068.28 305.024 1084.14 307.752 1101.14 307.752V305.752ZM1054.28 297.691C1040.02 292.108 1027.62 284.256 1017.09 274.137L1015.7 275.579C1026.43 285.889 1039.06 293.88 1053.56 299.554L1054.28 297.691ZM1017.09 274.137C1006.55 264.015 998.291 252.138 992.297 238.497L990.466 239.301C996.563 253.177 1004.98 265.272 1015.7 275.579L1017.09 274.137ZM992.303 238.508C986.523 224.886 983.627 209.907 983.627 193.559H981.627C981.627 210.148 984.567 225.396 990.461 239.29L992.303 238.508ZM983.627 193.559C983.627 177.211 986.523 162.233 992.303 148.61L990.461 147.829C984.567 161.723 981.627 176.971 981.627 193.559H983.627ZM992.297 148.622C998.291 134.981 1006.55 123.103 1017.09 112.981L1015.7 111.539C1004.98 121.846 996.563 133.941 990.466 147.817L992.297 148.622ZM1017.08 112.988C1027.82 102.867 1040.32 95.1194 1054.58 89.7445L1053.88 87.873C1039.38 93.338 1026.65 101.225 1015.71 111.533L1017.08 112.988ZM1054.6 89.74C1068.85 84.1617 1084.47 81.3662 1101.45 81.3662V79.3662C1084.24 79.3662 1068.38 82.1991 1053.87 87.8775L1054.6 89.74ZM1101.45 81.3662C1120.3 81.3662 1137.25 84.6802 1152.33 91.2881L1153.13 89.4563C1137.77 82.7228 1120.54 79.3662 1101.45 79.3662V81.3662ZM1152.34 91.2945C1167.62 97.6948 1180.41 107.186 1190.73 119.773L1192.28 118.506C1181.75 105.661 1168.69 95.974 1153.12 89.4499L1152.34 91.2945ZM1190.82 118.405L1158.3 148.423L1159.66 149.892L1192.18 119.874L1190.82 118.405ZM1159.73 148.498C1152.15 139.858 1143.7 133.408 1134.38 129.173L1133.55 130.994C1142.58 135.097 1150.81 141.363 1158.23 149.817L1159.73 148.498ZM1134.4 129.181C1125.08 124.735 1114.93 122.517 1103.95 122.517V124.517C1114.65 124.517 1124.51 126.677 1133.54 130.986L1134.4 129.181ZM1103.95 122.517C1093.62 122.517 1084.12 124.203 1075.44 127.589L1076.17 129.452C1084.59 126.166 1093.85 124.517 1103.95 124.517V122.517ZM1075.44 127.589C1066.77 130.972 1059.26 135.841 1052.9 142.197L1054.31 143.611C1060.47 137.459 1067.75 132.739 1076.17 129.452L1075.44 127.589ZM1052.9 142.197C1046.55 148.547 1041.58 156.059 1037.99 164.722L1039.83 165.488C1043.33 157.056 1048.16 149.768 1054.31 143.611L1052.9 142.197ZM1037.98 164.741C1034.59 173.418 1032.91 183.029 1032.91 193.559H1034.91C1034.91 183.244 1036.56 173.884 1039.84 165.468L1037.98 164.741ZM1032.91 193.559C1032.91 204.09 1034.59 213.7 1037.98 222.377L1039.84 221.65C1036.56 213.234 1034.91 203.875 1034.91 193.559H1032.91ZM1037.99 222.397C1041.58 231.059 1046.55 238.571 1052.9 244.922L1054.31 243.508C1048.16 237.351 1043.33 230.062 1039.83 221.631L1037.99 222.397ZM1052.9 244.922C1059.26 251.277 1066.77 256.146 1075.44 259.53L1076.17 257.667C1067.75 254.38 1060.47 249.66 1054.31 243.508L1052.9 244.922ZM1075.44 259.53C1084.12 262.915 1093.62 264.601 1103.95 264.601V262.601C1093.85 262.601 1084.59 260.952 1076.17 257.667L1075.44 259.53ZM1103.95 264.601C1114.92 264.601 1125.07 262.491 1134.38 258.258L1133.55 256.437C1124.52 260.543 1114.66 262.601 1103.95 262.601V264.601ZM1134.4 258.25C1143.71 253.805 1152.16 247.146 1159.74 238.299L1158.22 236.997C1150.8 245.661 1142.57 252.135 1133.54 256.445L1134.4 258.25ZM1158.3 238.383L1190.82 268.401L1192.18 266.931L1159.66 236.913L1158.3 238.383ZM1190.73 267.032C1180.41 279.622 1167.61 289.22 1152.33 295.828L1153.13 297.664C1168.69 290.932 1181.75 281.142 1192.28 268.3L1190.73 267.032ZM1152.33 295.83C1137.25 302.438 1120.2 305.752 1101.14 305.752V307.752C1120.43 307.752 1137.77 304.396 1153.13 297.662L1152.33 295.83ZM1272.3 172.296V171.296H1271.3V172.296H1272.3ZM1377.68 172.296H1378.68V171.296H1377.68V172.296ZM1377.68 211.695V212.695H1378.68V211.695H1377.68ZM1272.3 211.695H1271.3V212.695H1272.3V211.695ZM1276.05 262.351H1275.05V263.351H1276.05V262.351ZM1395.19 262.351H1396.19V261.351H1395.19V262.351ZM1395.19 303V304H1396.19V303H1395.19ZM1225.71 303H1224.71V304H1225.71V303ZM1225.71 84.1184V83.1184H1224.71V84.1184H1225.71ZM1391.12 84.1184H1392.12V83.1184H1391.12V84.1184ZM1391.12 124.768V125.768H1392.12V124.768H1391.12ZM1276.05 124.768V123.768H1275.05V124.768H1276.05ZM1272.3 173.296H1377.68V171.296H1272.3V173.296ZM1376.68 172.296V211.695H1378.68V172.296H1376.68ZM1377.68 210.695H1272.3V212.695H1377.68V210.695ZM1273.3 211.695V172.296H1271.3V211.695H1273.3ZM1276.05 263.351H1395.19V261.351H1276.05V263.351ZM1394.19 262.351V303H1396.19V262.351H1394.19ZM1395.19 302H1225.71V304H1395.19V302ZM1226.71 303V84.1184H1224.71V303H1226.71ZM1225.71 85.1184H1391.12V83.1184H1225.71V85.1184ZM1390.12 84.1184V124.768H1392.12V84.1184H1390.12ZM1391.12 123.768H1276.05V125.768H1391.12V123.768ZM1275.05 124.768V262.351H1277.05V124.768H1275.05ZM1457.07 299.873L1456.78 300.831L1456.79 300.835L1457.07 299.873ZM1418.29 281.425L1417.38 281.014L1417.06 281.736L1417.69 282.218L1418.29 281.425ZM1435.49 243.277L1436.07 242.462L1435.08 241.757L1434.58 242.866L1435.49 243.277ZM1468.64 259.849L1468.31 260.795L1468.32 260.798L1468.33 260.801L1468.64 259.849ZM1531.8 263.289L1532.1 264.244L1532.11 264.241L1532.12 264.237L1531.8 263.289ZM1545.56 254.846L1544.79 254.21L1545.56 254.846ZM1543.06 228.893L1542.44 229.684L1542.46 229.693L1542.47 229.702L1543.06 228.893ZM1524.92 220.45L1524.63 221.407L1524.64 221.41L1524.65 221.414L1524.92 220.45ZM1499.91 214.197L1499.68 215.171L1499.69 215.174L1499.7 215.176L1499.91 214.197ZM1472.7 206.692L1472.39 207.643L1472.4 207.645L1472.7 206.692ZM1448 195.435L1447.48 196.289L1448 195.435ZM1429.55 177.299L1428.7 177.821L1428.7 177.829L1428.71 177.838L1429.55 177.299ZM1432.68 114.449L1431.84 113.898L1431.84 113.902L1432.68 114.449ZM1463.32 89.7468L1463.73 90.6601L1463.73 90.6572L1463.32 89.7468ZM1555.56 85.3692L1555.32 86.3393L1555.33 86.3411L1555.34 86.3428L1555.56 85.3692ZM1590.9 99.7528L1591.82 100.129L1592.14 99.3548L1591.43 98.9078L1590.9 99.7528ZM1575.26 138.213L1574.77 139.082L1575.76 139.649L1576.19 138.59L1575.26 138.213ZM1544.62 125.393L1544.35 126.355L1544.35 126.357L1544.36 126.36L1544.62 125.393ZM1490.52 124.455L1490.18 123.516L1490.52 124.455ZM1477.08 133.523L1477.87 134.131L1477.88 134.12L1477.89 134.109L1477.08 133.523ZM1479.89 159.789L1479.28 160.58L1479.29 160.589L1479.31 160.598L1479.89 159.789ZM1498.03 167.919L1497.76 168.882L1498.03 167.919ZM1522.73 174.173L1522.51 175.147L1522.51 175.148L1522.73 174.173ZM1549.94 181.364L1549.65 182.322L1549.65 182.323L1549.94 181.364ZM1574.95 192.308L1575.47 191.455L1574.95 192.308ZM1593.09 210.444L1592.23 210.966L1592.24 210.974L1592.24 210.983L1593.09 210.444ZM1589.96 272.669L1590.79 273.228L1589.96 272.669ZM1559 297.372L1558.59 296.461L1558.58 296.464L1559 297.372ZM1507.41 305.752C1489.99 305.752 1473.3 303.471 1457.34 298.912L1456.79 300.835C1472.94 305.447 1489.81 307.752 1507.41 307.752V305.752ZM1457.35 298.915C1441.38 294.144 1428.58 288.04 1418.9 280.631L1417.69 282.218C1427.61 289.818 1440.65 296.014 1456.78 300.831L1457.35 298.915ZM1419.21 281.836L1436.4 243.688L1434.58 242.866L1417.38 281.014L1419.21 281.836ZM1434.91 244.092C1444.38 250.826 1455.52 256.391 1468.31 260.795L1468.96 258.904C1456.32 254.552 1445.36 249.068 1436.07 242.462L1434.91 244.092ZM1468.33 260.801C1481.35 265.001 1494.48 267.103 1507.72 267.103V265.103C1494.7 265.103 1481.77 263.036 1468.94 258.897L1468.33 260.801ZM1507.72 267.103C1517.78 267.103 1525.92 266.162 1532.1 264.244L1531.5 262.334C1525.59 264.168 1517.68 265.103 1507.72 265.103V267.103ZM1532.12 264.237C1538.47 262.118 1543.25 259.221 1546.33 255.482L1544.79 254.21C1542.03 257.559 1537.63 260.29 1531.48 262.34L1532.12 264.237ZM1546.33 255.482C1549.4 251.759 1550.94 247.47 1550.94 242.651H1548.94C1548.94 247.005 1547.56 250.845 1544.79 254.21L1546.33 255.482ZM1550.94 242.651C1550.94 236.506 1548.5 231.614 1543.64 228.084L1542.47 229.702C1546.79 232.842 1548.94 237.123 1548.94 242.651H1550.94ZM1543.67 228.102C1538.95 224.457 1532.78 221.595 1525.19 219.487L1524.65 221.414C1532.07 223.475 1537.99 226.242 1542.44 229.684L1543.67 228.102ZM1525.21 219.494C1517.67 217.19 1509.3 215.098 1500.11 213.217L1499.7 215.176C1508.85 217.047 1517.16 219.124 1524.63 221.407L1525.21 219.494ZM1500.13 213.223C1491.2 211.144 1482.15 208.65 1473 205.739L1472.4 207.645C1481.59 210.571 1490.69 213.08 1499.68 215.171L1500.13 213.223ZM1473.01 205.741C1464.12 202.845 1455.95 199.125 1448.52 194.582L1447.48 196.289C1455.05 200.918 1463.36 204.702 1472.39 207.643L1473.01 205.741ZM1448.52 194.582C1441.15 190.076 1435.11 184.139 1430.39 176.761L1428.71 177.838C1433.58 185.469 1439.84 191.622 1447.48 196.289L1448.52 194.582ZM1430.4 176.778C1425.94 169.474 1423.67 160.08 1423.67 148.532H1421.67C1421.67 160.331 1423.99 170.116 1428.7 177.821L1430.4 176.778ZM1423.67 148.532C1423.67 136.214 1426.95 125.044 1433.51 114.996L1431.84 113.902C1425.06 124.284 1421.67 135.836 1421.67 148.532H1423.67ZM1433.51 115C1440.27 104.764 1450.32 96.6425 1463.73 90.66L1462.91 88.8336C1449.22 94.9417 1438.85 103.289 1431.84 113.898L1433.51 115ZM1463.73 90.6572C1477.32 84.4799 1494.37 81.3662 1514.91 81.3662V79.3662C1494.18 79.3662 1476.83 82.5062 1462.91 88.8365L1463.73 90.6572ZM1514.91 81.3662C1528.59 81.3662 1542.06 83.0238 1555.32 86.3393L1555.81 84.399C1542.39 81.0439 1528.75 79.3662 1514.91 79.3662V81.3662ZM1555.34 86.3428C1568.58 89.4476 1580.25 94.2027 1590.36 100.598L1591.43 98.9078C1581.11 92.3785 1569.23 87.5445 1555.79 84.3956L1555.34 86.3428ZM1589.97 99.3763L1574.34 137.837L1576.19 138.59L1591.82 100.129L1589.97 99.3763ZM1575.76 137.345C1565.48 131.47 1555.18 127.161 1544.88 124.427L1544.36 126.36C1554.49 129.045 1564.62 133.283 1574.77 139.082L1575.76 137.345ZM1544.89 124.432C1534.6 121.49 1524.5 120.016 1514.6 120.016V122.016C1524.3 122.016 1534.21 123.46 1544.35 126.355L1544.89 124.432ZM1514.6 120.016C1504.74 120.016 1496.58 121.169 1490.18 123.516L1490.87 125.394C1496.97 123.156 1504.87 122.016 1514.6 122.016V120.016ZM1490.18 123.516C1483.82 125.849 1479.14 128.967 1476.27 132.938L1477.89 134.109C1480.44 130.575 1484.72 127.647 1490.87 125.394L1490.18 123.516ZM1476.28 132.916C1473.43 136.647 1472.01 141.034 1472.01 146.031H1474.01C1474.01 141.438 1475.31 137.487 1477.87 134.131L1476.28 132.916ZM1472.01 146.031C1472.01 151.979 1474.46 156.854 1479.28 160.58L1480.5 158.998C1476.16 155.637 1474.01 151.339 1474.01 146.031H1472.01ZM1479.31 160.598C1484.02 164.024 1490.18 166.777 1497.76 168.882L1498.3 166.955C1490.87 164.892 1484.94 162.224 1480.48 158.98L1479.31 160.598ZM1497.76 168.882C1505.28 170.971 1513.53 173.059 1522.51 175.147L1522.96 173.199C1514.01 171.117 1505.79 169.035 1498.3 166.955L1497.76 168.882ZM1522.51 175.148C1531.66 177.227 1540.7 179.618 1549.65 182.322L1550.22 180.407C1541.24 177.69 1532.15 175.287 1522.95 173.197L1522.51 175.148ZM1549.65 182.323C1558.75 185.011 1567.01 188.625 1574.43 193.162L1575.47 191.455C1567.89 186.82 1559.47 183.138 1550.22 180.405L1549.65 182.323ZM1574.43 193.162C1581.8 197.665 1587.73 203.597 1592.23 210.966L1593.94 209.923C1589.27 202.283 1583.11 196.124 1575.47 191.455L1574.43 193.162ZM1592.24 210.983C1596.91 218.286 1599.28 227.57 1599.28 238.899H1601.28C1601.28 227.297 1598.85 217.612 1593.93 209.906L1592.24 210.983ZM1599.28 238.899C1599.28 250.999 1595.9 262.061 1589.13 272.111L1590.79 273.228C1597.78 262.849 1601.28 251.397 1601.28 238.899H1599.28ZM1589.13 272.111C1582.38 282.14 1572.22 290.267 1558.59 296.461L1559.42 298.282C1573.31 291.969 1583.79 283.627 1590.79 273.228L1589.13 272.111ZM1558.58 296.464C1545.21 302.638 1528.16 305.752 1507.41 305.752V307.752C1528.35 307.752 1545.7 304.613 1559.42 298.28L1558.58 296.464Z" fill="url(#paint0_linear_1597_10737)" mask="url(#path-1-outside-1_1597_10737)"/>

<defs>
<linearGradient id="paint0_linear_1597_10737" x1="804.5" y1="0" x2="804.5" y2="239.21" gradientUnits="userSpaceOnUse">
<stop stop-color="#6F00FF"/>
<stop offset="1" stop-color="#6F00FF" stop-opacity="0"/>
<stop offset="1" stop-color="#6F00FF" stop-opacity="0"/>
</linearGradient>
<linearGradient id="paint1_linear_1597_10737" x1="804" y1="130" x2="804" y2="252" gradientUnits="userSpaceOnUse">
<stop stop-color="#6F00FF"/>
<stop offset="1" stop-color="#9194FC"/>
</linearGradient>
</defs>
</svg>
