<svg width="1107" height="383" viewBox="0 0 1107 383" fill="none" xmlns="http://www.w3.org/2000/svg">
<path d="M310.354 109.725C303.954 109.725 298.034 108.605 292.594 106.365C287.234 104.125 282.514 101.005 278.434 97.0047C274.354 93.0047 271.194 88.3647 268.954 83.0847C266.714 77.7247 265.594 71.9647 265.594 65.8047C265.594 59.5647 266.714 53.8047 268.954 48.5247C271.194 43.2447 274.314 38.6447 278.314 34.7247C282.314 30.7247 286.994 27.6447 292.354 25.4847C297.794 23.2447 303.714 22.1247 310.114 22.1247C316.434 22.1247 322.274 23.2447 327.634 25.4847C333.074 27.6447 337.794 30.7247 341.794 34.7247C345.874 38.6447 349.034 43.2847 351.274 48.6447C353.514 53.9247 354.634 59.6847 354.634 65.9247C354.634 72.0847 353.514 77.8447 351.274 83.2047C349.034 88.4847 345.914 93.1247 341.914 97.1247C337.914 101.045 333.194 104.125 327.754 106.365C322.394 108.605 316.594 109.725 310.354 109.725ZM310.114 92.5647C315.154 92.5647 319.554 91.4447 323.314 89.2047C327.154 86.9647 330.114 83.8447 332.194 79.8447C334.274 75.7647 335.314 71.0847 335.314 65.8047C335.314 61.8047 334.714 58.2047 333.514 55.0047C332.314 51.7247 330.594 48.9247 328.354 46.6047C326.114 44.2047 323.434 42.4047 320.314 41.2047C317.274 39.9247 313.874 39.2847 310.114 39.2847C305.074 39.2847 300.634 40.4047 296.794 42.6447C293.034 44.8047 290.114 47.8847 288.034 51.8847C285.954 55.8047 284.914 60.4447 284.914 65.8047C284.914 69.8047 285.514 73.4447 286.714 76.7247C287.914 80.0047 289.594 82.8447 291.754 85.2447C293.994 87.5647 296.674 89.3647 299.794 90.6447C302.914 91.9247 306.354 92.5647 310.114 92.5647ZM395.874 109.605C388.914 109.605 382.754 108.125 377.394 105.165C372.114 102.205 367.954 98.1247 364.914 92.9247C361.954 87.6447 360.474 81.6447 360.474 74.9247V23.5647H379.434V76.0047C379.434 79.3647 380.154 82.2847 381.594 84.7647C383.034 87.2447 384.994 89.1647 387.474 90.5247C390.034 91.8047 392.834 92.4447 395.874 92.4447C399.074 92.4447 401.874 91.8047 404.274 90.5247C406.674 89.1647 408.554 87.2847 409.914 84.8847C411.354 82.4047 412.074 79.4847 412.074 76.1247V23.5647H431.034V75.0447C431.034 81.7647 429.554 87.7247 426.594 92.9247C423.634 98.1247 419.514 102.205 414.234 105.165C408.954 108.125 402.834 109.605 395.874 109.605ZM455.651 73.3647V59.4447H473.531C477.291 59.4447 480.171 58.4847 482.171 56.5647C484.251 54.6447 485.291 52.0447 485.291 48.7647C485.291 45.7247 484.291 43.2047 482.291 41.2047C480.291 39.2047 477.411 38.2047 473.651 38.2047H455.651V23.5647H475.811C481.411 23.5647 486.331 24.6447 490.571 26.8047C494.811 28.8847 498.131 31.8047 500.531 35.5647C502.931 39.3247 504.131 43.6447 504.131 48.5247C504.131 53.4847 502.931 57.8447 500.531 61.6047C498.131 65.2847 494.771 68.1647 490.451 70.2447C486.131 72.3247 481.051 73.3647 475.211 73.3647H455.651ZM441.251 108.285V23.5647H460.091V108.285H441.251ZM487.331 108.285L460.931 71.8047L478.211 67.1247L509.651 108.285H487.331ZM532.784 108.285V23.5647H545.984L551.624 40.4847V108.285H532.784ZM591.224 108.285L541.304 44.3247L545.984 23.5647L595.904 87.5247L591.224 108.285ZM591.224 108.285L586.184 91.3647V23.5647H605.024V108.285H591.224ZM616.578 108.285V23.5647H635.418V108.285H616.578ZM630.978 108.285V91.9647H677.418V108.285H630.978ZM630.978 72.8847V57.1647H673.218V72.8847H630.978ZM630.978 39.7647V23.5647H676.818V39.7647H630.978ZM706.726 108.285L679.486 23.5647H698.206L718.126 88.7247H710.806L730.246 23.5647H745.006L764.446 88.7247H757.246L777.046 23.5647H795.646L768.406 108.285H753.646L734.086 43.1247H741.046L721.486 108.285H706.726Z" fill="#1D252C"/>
<path d="M22.56 207.16V192.52H40.8C43.12 192.52 45.24 192.04 47.16 191.08C49.08 190.12 50.6 188.72 51.72 186.88C52.84 185.04 53.4 182.8 53.4 180.16C53.4 177.6 52.84 175.4 51.72 173.56C50.6 171.72 49.08 170.32 47.16 169.36C45.24 168.4 43.12 167.92 40.8 167.92H22.56V153.28H43.56C48.92 153.28 53.76 154.36 58.08 156.52C62.4 158.68 65.8 161.8 68.28 165.88C70.84 169.88 72.12 174.64 72.12 180.16C72.12 185.68 70.84 190.48 68.28 194.56C65.8 198.56 62.4 201.68 58.08 203.92C53.76 206.08 48.92 207.16 43.56 207.16H22.56ZM8.16 238V153.28H27V238H8.16ZM65.6719 238L99.2719 153.28H116.312L149.552 238H129.632L104.192 167.68H111.032L85.2319 238H65.6719ZM84.7519 222.64V207.28H130.952V222.64H84.7519ZM168.116 203.08V189.16H185.996C189.756 189.16 192.636 188.2 194.636 186.28C196.716 184.36 197.756 181.76 197.756 178.48C197.756 175.44 196.756 172.92 194.756 170.92C192.756 168.92 189.876 167.92 186.116 167.92H168.116V153.28H188.276C193.876 153.28 198.796 154.36 203.036 156.52C207.276 158.6 210.596 161.52 212.996 165.28C215.396 169.04 216.596 173.36 216.596 178.24C216.596 183.2 215.396 187.56 212.996 191.32C210.596 195 207.236 197.88 202.916 199.96C198.596 202.04 193.516 203.08 187.676 203.08H168.116ZM153.716 238V153.28H172.556V238H153.716ZM199.796 238L173.396 201.52L190.676 196.84L222.116 238H199.796ZM243.504 238V154.48H262.344V238H243.504ZM216.984 169.72V153.28H288.864V169.72H216.984ZM294.585 238V153.28H307.785L313.425 170.2V238H294.585ZM353.025 238L303.105 174.04L307.785 153.28L357.705 217.24L353.025 238ZM353.025 238L347.985 221.08V153.28H366.825V238H353.025ZM378.379 238V153.28H397.219V238H378.379ZM392.779 238V221.68H439.219V238H392.779ZM392.779 202.6V186.88H435.019V202.6H392.779ZM392.779 169.48V153.28H438.619V169.48H392.779ZM461.807 203.08V189.16H479.687C483.447 189.16 486.327 188.2 488.327 186.28C490.407 184.36 491.447 181.76 491.447 178.48C491.447 175.44 490.447 172.92 488.447 170.92C486.447 168.92 483.567 167.92 479.807 167.92H461.807V153.28H481.967C487.567 153.28 492.487 154.36 496.727 156.52C500.967 158.6 504.287 161.52 506.687 165.28C509.087 169.04 510.287 173.36 510.287 178.24C510.287 183.2 509.087 187.56 506.687 191.32C504.287 195 500.927 197.88 496.607 199.96C492.287 202.04 487.207 203.08 481.367 203.08H461.807ZM447.407 238V153.28H466.247V238H447.407ZM493.487 238L467.087 201.52L484.367 196.84L515.807 238H493.487ZM560.06 238L532.82 153.28H551.54L571.46 218.44H564.14L583.58 153.28H598.34L617.78 218.44H610.58L630.38 153.28H648.98L621.74 238H606.98L587.42 172.84H594.38L574.82 238H560.06ZM654.374 238V153.28H673.214V238H654.374ZM668.774 238V221.68H715.214V238H668.774ZM668.774 202.6V186.88H711.014V202.6H668.774ZM668.774 169.48V153.28H714.614V169.48H668.774ZM737.802 238V223.36H757.722C761.402 223.36 764.282 222.28 766.362 220.12C768.442 217.96 769.482 215.32 769.482 212.2C769.482 210.04 769.002 208.12 768.042 206.44C767.082 204.76 765.722 203.44 763.962 202.48C762.282 201.52 760.202 201.04 757.722 201.04H737.802V186.76H756.162C759.282 186.76 761.802 186 763.722 184.48C765.642 182.88 766.602 180.48 766.602 177.28C766.602 174.16 765.642 171.84 763.722 170.32C761.802 168.72 759.282 167.92 756.162 167.92H737.802V153.28H759.762C765.202 153.28 769.802 154.28 773.562 156.28C777.402 158.28 780.322 160.96 782.322 164.32C784.322 167.68 785.322 171.4 785.322 175.48C785.322 180.68 783.642 185.08 780.282 188.68C776.922 192.28 771.962 194.76 765.402 196.12L765.882 189.76C773.002 191.12 778.482 193.88 782.322 198.04C786.242 202.2 788.202 207.32 788.202 213.4C788.202 218.04 787.042 222.24 784.722 226C782.482 229.68 779.202 232.6 774.882 234.76C770.642 236.92 765.522 238 759.522 238H737.802ZM723.402 238V153.28H742.002V238H723.402ZM789.117 238L822.717 153.28H839.757L872.997 238H853.077L827.637 167.68H834.477L808.677 238H789.117ZM808.197 222.64V207.28H854.397V222.64H808.197ZM891.562 207.16V192.52H909.802C912.122 192.52 914.242 192.04 916.162 191.08C918.082 190.12 919.602 188.72 920.722 186.88C921.842 185.04 922.402 182.8 922.402 180.16C922.402 177.6 921.842 175.4 920.722 173.56C919.602 171.72 918.082 170.32 916.162 169.36C914.242 168.4 912.122 167.92 909.802 167.92H891.562V153.28H912.562C917.922 153.28 922.762 154.36 927.082 156.52C931.402 158.68 934.802 161.8 937.282 165.88C939.842 169.88 941.122 174.64 941.122 180.16C941.122 185.68 939.842 190.48 937.282 194.56C934.802 198.56 931.402 201.68 927.082 203.92C922.762 206.08 917.922 207.16 912.562 207.16H891.562ZM877.162 238V153.28H896.002V238H877.162ZM961.293 207.16V192.52H979.533C981.853 192.52 983.973 192.04 985.893 191.08C987.813 190.12 989.333 188.72 990.453 186.88C991.573 185.04 992.133 182.8 992.133 180.16C992.133 177.6 991.573 175.4 990.453 173.56C989.333 171.72 987.813 170.32 985.893 169.36C983.973 168.4 981.853 167.92 979.533 167.92H961.293V153.28H982.293C987.653 153.28 992.493 154.36 996.813 156.52C1001.13 158.68 1004.53 161.8 1007.01 165.88C1009.57 169.88 1010.85 174.64 1010.85 180.16C1010.85 185.68 1009.57 190.48 1007.01 194.56C1004.53 198.56 1001.13 201.68 996.813 203.92C992.493 206.08 987.653 207.16 982.293 207.16H961.293ZM946.893 238V153.28H965.733V238H946.893Z" fill="#1D252C"/>
<path d="M122.677 362.285V277.565H141.517V362.285H122.677ZM176.833 363.605C169.873 363.605 163.873 362.485 158.833 360.245C153.873 357.925 149.313 354.445 145.153 349.805L157.393 337.685C160.113 340.805 163.113 343.245 166.393 345.005C169.753 346.685 173.633 347.525 178.033 347.525C182.033 347.525 185.113 346.805 187.273 345.365C189.513 343.925 190.633 341.925 190.633 339.365C190.633 337.045 189.913 335.165 188.473 333.725C187.033 332.285 185.113 331.045 182.713 330.005C180.393 328.965 177.793 327.965 174.913 327.005C172.113 326.045 169.313 324.965 166.513 323.765C163.713 322.485 161.113 320.925 158.713 319.085C156.393 317.165 154.513 314.805 153.073 312.005C151.633 309.125 150.913 305.525 150.913 301.205C150.913 296.005 152.153 291.525 154.633 287.765C157.193 284.005 160.713 281.165 165.193 279.245C169.673 277.245 174.833 276.245 180.673 276.245C186.593 276.245 191.993 277.285 196.873 279.365C201.833 281.445 205.913 284.285 209.113 287.885L196.873 300.005C194.313 297.365 191.713 295.405 189.073 294.125C186.513 292.845 183.593 292.205 180.313 292.205C177.033 292.205 174.433 292.845 172.513 294.125C170.593 295.325 169.633 297.085 169.633 299.405C169.633 301.565 170.353 303.325 171.793 304.685C173.233 305.965 175.113 307.085 177.433 308.045C179.833 309.005 182.433 309.965 185.233 310.925C188.113 311.885 190.953 313.005 193.753 314.285C196.553 315.565 199.113 317.205 201.433 319.205C203.833 321.125 205.753 323.605 207.193 326.645C208.633 329.605 209.353 333.285 209.353 337.685C209.353 345.765 206.473 352.125 200.713 356.765C194.953 361.325 186.993 363.605 176.833 363.605ZM275.045 363.725C268.645 363.725 262.725 362.605 257.285 360.365C251.925 358.125 247.205 355.005 243.125 351.005C239.045 347.005 235.885 342.365 233.645 337.085C231.405 331.725 230.285 325.965 230.285 319.805C230.285 313.565 231.405 307.805 233.645 302.525C235.885 297.245 239.005 292.645 243.005 288.725C247.005 284.725 251.685 281.645 257.045 279.485C262.485 277.245 268.405 276.125 274.805 276.125C281.125 276.125 286.965 277.245 292.325 279.485C297.765 281.645 302.485 284.725 306.485 288.725C310.565 292.645 313.725 297.285 315.965 302.645C318.205 307.925 319.325 313.685 319.325 319.925C319.325 326.085 318.205 331.845 315.965 337.205C313.725 342.485 310.605 347.125 306.605 351.125C302.605 355.045 297.885 358.125 292.445 360.365C287.085 362.605 281.285 363.725 275.045 363.725ZM274.805 346.565C279.845 346.565 284.245 345.445 288.005 343.205C291.845 340.965 294.805 337.845 296.885 333.845C298.965 329.765 300.005 325.085 300.005 319.805C300.005 315.805 299.405 312.205 298.205 309.005C297.005 305.725 295.285 302.925 293.045 300.605C290.805 298.205 288.125 296.405 285.005 295.205C281.965 293.925 278.565 293.285 274.805 293.285C269.765 293.285 265.325 294.405 261.485 296.645C257.725 298.805 254.805 301.885 252.725 305.885C250.645 309.805 249.605 314.445 249.605 319.805C249.605 323.805 250.205 327.445 251.405 330.725C252.605 334.005 254.285 336.845 256.445 339.245C258.685 341.565 261.365 343.365 264.485 344.645C267.605 345.925 271.045 346.565 274.805 346.565ZM326.485 362.285V277.565H339.685L345.325 294.485V362.285H326.485ZM384.925 362.285L335.005 298.325L339.685 277.565L389.605 341.525L384.925 362.285ZM384.925 362.285L379.885 345.365V277.565H398.725V362.285H384.925ZM447.215 362.285V278.765H466.055V362.285H447.215ZM420.695 294.005V277.565H492.575V294.005H420.695ZM498.296 362.285V277.565H517.136V362.285H498.296ZM550.736 362.285V277.565H569.696V362.285H550.736ZM509.576 326.885V310.565H556.976V326.885H509.576ZM581.152 362.285V277.565H599.992V362.285H581.152ZM595.552 362.285V345.965H641.992V362.285H595.552ZM595.552 326.885V311.165H637.792V326.885H595.552ZM595.552 293.765V277.565H641.392V293.765H595.552ZM689.352 362.285L662.112 277.565H680.832L700.752 342.725H693.432L712.872 277.565H727.632L747.072 342.725H739.872L759.672 277.565H778.272L751.032 362.285H736.272L716.712 297.125H723.672L704.112 362.285H689.352ZM767.931 362.285L801.531 277.565H818.571L851.811 362.285H831.891L806.451 291.965H813.291L787.491 362.285H767.931ZM787.011 346.925V331.565H833.211V346.925H787.011ZM871.234 330.725L838.594 277.565H860.434L885.514 320.525H871.474L896.554 277.565H917.914L885.034 330.725H871.234ZM868.954 362.285V322.085H887.794V362.285H868.954Z" fill="#1D252C"/>
<circle cx="907.5" cy="182.785" r="21.5" fill="white"/>
<circle cx="909.776" cy="184.049" r="13.1529" fill="#222123"/>
<circle cx="917.871" cy="191.132" r="2.02353" fill="white"/>
<circle cx="974.5" cy="182.785" r="21.5" fill="white"/>
<circle cx="976.776" cy="184.049" r="13.1529" fill="#222123"/>
<circle cx="984.871" cy="191.132" r="2.02353" fill="white"/>
</svg>
