<svg width="48" height="53" viewBox="0 0 48 53" fill="none" xmlns="http://www.w3.org/2000/svg">
<path fill-rule="evenodd" clip-rule="evenodd" d="M15.0093 38.5881C14.5134 38.5881 14.1172 38.1883 14.1172 37.6876C14.1172 37.1868 14.5134 36.787 15.0093 36.787H24.9407C23.2068 34.586 22.1178 31.8339 22.0181 28.832H15.0093C14.5134 28.832 14.1172 28.4322 14.1172 27.9315C14.1172 27.4308 14.5134 27.0309 15.0093 27.0309H22.0685C22.1922 25.7305 22.49 24.5045 22.9355 23.329C22.9103 23.2534 22.9103 23.1537 22.9103 23.054C22.9103 22.6782 23.1336 22.378 23.4302 22.2279C24.0245 21.0776 24.7678 20.0017 25.6348 19.076H15.0093C14.5134 19.076 14.1172 18.6761 14.1172 18.1754C14.1172 17.6747 14.5134 17.2749 15.0093 17.2749H27.6904C29.8458 15.7235 32.5198 14.8229 35.368 14.8229V3.79166C35.368 2.14064 34.0304 0.789795 32.4202 0.789795H2.97185C1.33763 0.789795 0 2.14064 0 3.79166V49.27C0 50.921 1.33763 52.2718 2.97185 52.2718H32.4202C34.0304 52.2718 35.368 50.921 35.368 49.27V41.8409C32.0491 41.8409 29.0028 40.615 26.6746 38.5893H15.0093V38.5881ZM30.0187 14.1973H23.7772C23.3065 14.1973 22.9103 13.7975 22.9103 13.2968C22.9103 12.7961 23.3065 12.3962 23.7772 12.3962H30.0187C30.4894 12.3962 30.9096 12.7961 30.9096 13.2968C30.9096 13.7975 30.4882 14.1973 30.0187 14.1973ZM4.48239 5.76809C4.48239 5.19293 4.92787 4.71744 5.49822 4.71744H29.8698C30.4389 4.71744 30.9096 5.19293 30.9096 5.76809V8.56944C30.9096 9.14459 30.4389 9.59487 29.8698 9.59487H5.49822C4.92907 9.59487 4.48239 9.14459 4.48239 8.56944V5.76809ZM5.37334 12.3974H20.3827C20.8786 12.3974 21.2748 12.7973 21.2748 13.298C21.2748 13.7987 20.8786 14.1985 20.3827 14.1985H5.37454C4.87984 14.1985 4.48359 13.7987 4.48359 13.298C4.48359 12.7973 4.87984 12.3974 5.37454 12.3974H5.37334ZM5.37334 17.2761H11.5896C12.0843 17.2761 12.4818 17.6759 12.4818 18.1766C12.4818 18.6773 12.0855 19.0772 11.5896 19.0772H5.37334C4.87864 19.0772 4.48239 18.6773 4.48239 18.1766C4.48239 17.6759 4.87864 17.2761 5.37334 17.2761ZM5.37334 22.1547H20.3827C20.8786 22.1547 21.2748 22.5545 21.2748 23.0552C21.2748 23.556 20.8786 23.9558 20.3827 23.9558H5.37454C4.87984 23.9558 4.48359 23.556 4.48359 23.0552C4.48359 22.5545 4.87984 22.1547 5.37454 22.1547H5.37334ZM5.37334 27.0321H11.5896C12.0843 27.0321 12.4818 27.432 12.4818 27.9327C12.4818 28.4334 12.0855 28.8332 11.5896 28.8332H5.37334C4.87864 28.8332 4.48239 28.4334 4.48239 27.9327C4.48239 27.432 4.87864 27.0321 5.37334 27.0321ZM5.37334 31.9108H20.3827C20.8786 31.9108 21.2748 32.3106 21.2748 32.8113C21.2748 33.312 20.8786 33.7119 20.3827 33.7119H5.37454C4.87984 33.7119 4.48359 33.312 4.48359 32.8113C4.48359 32.3106 4.87984 31.9108 5.37454 31.9108H5.37334ZM5.37334 36.7882H11.5896C12.0843 36.7882 12.4818 37.188 12.4818 37.6888C12.4818 38.1895 12.0855 38.5893 11.5896 38.5893H5.37334C4.87864 38.5893 4.48239 38.1895 4.48239 37.6888C4.48239 37.188 4.87864 36.7882 5.37334 36.7882ZM5.37334 41.6668H20.3827C20.8786 41.6668 21.2748 42.0667 21.2748 42.5674C21.2748 43.0681 20.8786 43.4679 20.3827 43.4679H5.37454C4.87984 43.4679 4.48359 43.0681 4.48359 42.5674C4.48359 42.0667 4.87984 41.6668 5.37454 41.6668H5.37334ZM11.5896 48.3466H5.37334C4.87864 48.3466 4.48239 47.9467 4.48239 47.446C4.48239 46.9453 4.87864 46.5455 5.37334 46.5455H11.5896C12.0843 46.5455 12.4818 46.9453 12.4818 47.446C12.4818 47.9467 12.0855 48.3466 11.5896 48.3466ZM30.0163 48.3466H15.0069C14.511 48.3466 14.1148 47.9467 14.1148 47.446C14.1148 46.9453 14.511 46.5455 15.0069 46.5455H30.0163C30.511 46.5455 30.9072 46.9453 30.9072 47.446C30.9072 47.9467 30.511 48.3466 30.0163 48.3466ZM30.9072 42.5674C30.9072 43.0681 30.4858 43.4679 30.0163 43.4679H23.7748C23.3041 43.4679 22.9079 43.0681 22.9079 42.5674C22.9079 42.0667 23.3041 41.6668 23.7748 41.6668H30.0163C30.487 41.6668 30.9072 42.0667 30.9072 42.5674Z" fill="#31A8FF"/>
<path fill-rule="evenodd" clip-rule="evenodd" d="M35.3684 15.5745C28.4089 15.5745 22.7366 21.278 22.7366 28.3324C22.7366 35.3868 28.4089 41.0903 35.3684 41.0903C42.328 41.0903 48.0003 35.3868 48.0003 28.3324C48.0003 21.278 42.3532 15.5745 35.3684 15.5745ZM35.3684 39.6398C31.2571 39.6398 27.4423 37.4641 25.3134 33.9111L25.09 33.5364L25.3134 33.1366C26.4037 31.3103 27.9382 29.8597 29.7465 28.8583C29.1029 27.8329 28.7559 26.6321 28.7559 25.3557C28.7559 21.6538 31.7278 18.6772 35.3684 18.6772C39.0091 18.6772 41.9809 21.6538 41.9809 25.3557C41.9809 26.6321 41.6339 27.8329 41.0155 28.8583C42.7986 29.8585 44.3344 31.3103 45.4247 33.1366L45.672 33.5364L45.4247 33.9111C43.2946 37.4629 39.505 39.6398 35.3684 39.6398Z" fill="#31A8FF"/>
<path fill-rule="evenodd" clip-rule="evenodd" d="M40.5936 29.4829C39.3797 31.0343 37.4981 32.0345 35.368 32.0345C33.2379 32.0345 31.3803 31.0343 30.1664 29.4829C28.4325 30.4339 26.9712 31.834 25.9565 33.5354C27.8885 36.7378 31.3803 38.8884 35.368 38.8884C39.3557 38.8884 42.8727 36.7366 44.8047 33.5354C43.7648 31.834 42.3275 30.4339 40.5936 29.4829Z" fill="#31A8FF"/>
<path fill-rule="evenodd" clip-rule="evenodd" d="M35.3683 31.2839C38.6127 31.2839 41.2387 28.6326 41.2387 25.3546C41.2387 22.0766 38.6139 19.4265 35.3683 19.4265C32.1227 19.4265 29.499 22.0778 29.499 25.3546C29.499 28.6314 32.1239 31.2839 35.3683 31.2839Z" fill="#31A8FF"/>
</svg>
