<svg width="1893" height="227" viewBox="0 0 1893 227" fill="none" xmlns="http://www.w3.org/2000/svg">
<mask id="path-1-outside-1_1669_20088" maskUnits="userSpaceOnUse" x="-1" y="-1" width="1895" height="229" fill="black">
<rect fill="white" x="-1" y="-1" width="1895" height="229"/>
<path d="M0.953099 223V4.11844H95.6975C115.293 4.11844 132.178 7.34955 146.353 13.8118C160.528 20.0655 171.472 29.1335 179.185 41.0156C186.898 52.8978 190.755 67.0729 190.755 83.5412C190.755 99.8009 186.898 113.872 179.185 125.754C171.472 137.636 160.528 146.808 146.353 153.271C132.178 159.524 115.293 162.651 95.6975 162.651H29.095L51.6085 139.825V223H0.953099ZM51.6085 145.453L29.095 121.376H92.8833C108.518 121.376 120.191 118.041 127.904 111.37C135.617 104.7 139.474 95.4233 139.474 83.5412C139.474 71.4506 135.617 62.0699 127.904 55.3993C120.191 48.7286 108.518 45.3933 92.8833 45.3933H29.095L51.6085 21.3163V145.453ZM336.286 226.752C318.984 226.752 302.933 223.938 288.133 218.31C273.54 212.681 260.824 204.76 249.985 194.545C239.353 184.331 231.015 172.345 224.97 158.586C219.133 144.828 216.214 129.819 216.214 113.559C216.214 97.2994 219.133 82.2904 224.97 68.5322C231.015 54.7739 239.457 42.7875 250.297 32.573C261.137 22.3586 273.853 14.4371 288.445 8.80875C303.037 3.18038 318.88 0.366192 335.974 0.366192C353.276 0.366192 369.119 3.18038 383.502 8.80875C398.094 14.4371 410.706 22.3586 421.338 32.573C432.177 42.7875 440.62 54.7739 446.665 68.5322C452.711 82.082 455.733 97.091 455.733 113.559C455.733 129.819 452.711 144.932 446.665 158.899C440.62 172.657 432.177 184.644 421.338 194.858C410.706 204.864 398.094 212.681 383.502 218.31C369.119 223.938 353.38 226.752 336.286 226.752ZM335.974 183.601C345.771 183.601 354.735 181.934 362.865 178.598C371.203 175.263 378.499 170.468 384.753 164.215C391.007 157.961 395.801 150.561 399.137 142.014C402.681 133.467 404.452 123.982 404.452 113.559C404.452 103.136 402.681 93.6514 399.137 85.1046C395.801 76.5578 391.007 69.1575 384.753 62.9038C378.708 56.65 371.516 51.8555 363.178 48.5201C354.839 45.1848 345.771 43.5171 335.974 43.5171C326.176 43.5171 317.108 45.1848 308.77 48.5201C300.64 51.8555 293.448 56.65 287.194 62.9038C280.941 69.1575 276.042 76.5578 272.498 85.1046C269.163 93.6514 267.495 103.136 267.495 113.559C267.495 123.774 269.163 133.259 272.498 142.014C276.042 150.561 280.836 157.961 286.882 164.215C293.136 170.468 300.432 175.263 308.77 178.598C317.108 181.934 326.176 183.601 335.974 183.601ZM493.803 223V4.11844H588.547C608.143 4.11844 625.028 7.34955 639.203 13.8118C653.378 20.0655 664.322 29.1335 672.035 41.0156C679.748 52.8978 683.605 67.0729 683.605 83.5412C683.605 99.8009 679.748 113.872 672.035 125.754C664.322 137.428 653.378 146.391 639.203 152.645C625.028 158.899 608.143 162.026 588.547 162.026H521.945L544.458 139.825V223H493.803ZM632.949 223L578.229 143.577H632.324L687.67 223H632.949ZM544.458 145.453L521.945 121.689H585.733C601.368 121.689 613.041 118.354 620.754 111.683C628.467 104.804 632.324 95.4233 632.324 83.5412C632.324 71.4506 628.467 62.0699 620.754 55.3993C613.041 48.7286 601.368 45.3933 585.733 45.3933H521.945L544.458 21.3163V145.453ZM766.025 223V45.3933H695.983V4.11844H886.722V45.3933H816.68V223H766.025ZM960.881 102.615H1065.94V143.265H960.881V102.615ZM964.633 223H913.977V4.11844H1079.39V44.7679H964.633V223ZM1217.86 226.752C1200.56 226.752 1184.51 223.938 1169.7 218.31C1155.11 212.681 1142.4 204.76 1131.56 194.545C1120.93 184.331 1112.59 172.345 1106.54 158.586C1100.71 144.828 1097.79 129.819 1097.79 113.559C1097.79 97.2994 1100.71 82.2904 1106.54 68.5322C1112.59 54.7739 1121.03 42.7875 1131.87 32.573C1142.71 22.3586 1155.43 14.4371 1170.02 8.80875C1184.61 3.18038 1200.45 0.366192 1217.55 0.366192C1234.85 0.366192 1250.69 3.18038 1265.07 8.80875C1279.67 14.4371 1292.28 22.3586 1302.91 32.573C1313.75 42.7875 1322.19 54.7739 1328.24 68.5322C1334.28 82.082 1337.31 97.091 1337.31 113.559C1337.31 129.819 1334.28 144.932 1328.24 158.899C1322.19 172.657 1313.75 184.644 1302.91 194.858C1292.28 204.864 1279.67 212.681 1265.07 218.31C1250.69 223.938 1234.95 226.752 1217.86 226.752ZM1217.55 183.601C1227.34 183.601 1236.31 181.934 1244.44 178.598C1252.78 175.263 1260.07 170.468 1266.33 164.215C1272.58 157.961 1277.37 150.561 1280.71 142.014C1284.25 133.467 1286.02 123.982 1286.02 113.559C1286.02 103.136 1284.25 93.6514 1280.71 85.1046C1277.37 76.5578 1272.58 69.1575 1266.33 62.9038C1260.28 56.65 1253.09 51.8555 1244.75 48.5201C1236.41 45.1848 1227.34 43.5171 1217.55 43.5171C1207.75 43.5171 1198.68 45.1848 1190.34 48.5201C1182.21 51.8555 1175.02 56.65 1168.77 62.9038C1162.51 69.1575 1157.61 76.5578 1154.07 85.1046C1150.74 93.6514 1149.07 103.136 1149.07 113.559C1149.07 123.774 1150.74 133.259 1154.07 142.014C1157.61 150.561 1162.41 157.961 1168.45 164.215C1174.71 170.468 1182 175.263 1190.34 178.598C1198.68 181.934 1207.75 183.601 1217.55 183.601ZM1375.38 223V4.11844H1426.03V181.725H1535.78V223H1375.38ZM1564.09 223V4.11844H1614.74V223H1564.09ZM1773 226.752C1755.7 226.752 1739.65 223.938 1724.85 218.31C1710.26 212.681 1697.54 204.76 1686.7 194.545C1676.07 184.331 1667.73 172.345 1661.69 158.586C1655.85 144.828 1652.93 129.819 1652.93 113.559C1652.93 97.2994 1655.85 82.2904 1661.69 68.5322C1667.73 54.7739 1676.17 42.7875 1687.01 32.573C1697.85 22.3586 1710.57 14.4371 1725.16 8.80875C1739.75 3.18038 1755.6 0.366192 1772.69 0.366192C1789.99 0.366192 1805.83 3.18038 1820.22 8.80875C1834.81 14.4371 1847.42 22.3586 1858.05 32.573C1868.89 42.7875 1877.34 54.7739 1883.38 68.5322C1889.43 82.082 1892.45 97.091 1892.45 113.559C1892.45 129.819 1889.43 144.932 1883.38 158.899C1877.34 172.657 1868.89 184.644 1858.05 194.858C1847.42 204.864 1834.81 212.681 1820.22 218.31C1805.83 223.938 1790.1 226.752 1773 226.752ZM1772.69 183.601C1782.49 183.601 1791.45 181.934 1799.58 178.598C1807.92 175.263 1815.21 170.468 1821.47 164.215C1827.72 157.961 1832.52 150.561 1835.85 142.014C1839.4 133.467 1841.17 123.982 1841.17 113.559C1841.17 103.136 1839.4 93.6514 1835.85 85.1046C1832.52 76.5578 1827.72 69.1575 1821.47 62.9038C1815.42 56.65 1808.23 51.8555 1799.89 48.5201C1791.55 45.1848 1782.49 43.5171 1772.69 43.5171C1762.89 43.5171 1753.82 45.1848 1745.49 48.5201C1737.36 51.8555 1730.16 56.65 1723.91 62.9038C1717.66 69.1575 1712.76 76.5578 1709.21 85.1046C1705.88 93.6514 1704.21 103.136 1704.21 113.559C1704.21 123.774 1705.88 133.259 1709.21 142.014C1712.76 150.561 1717.55 157.961 1723.6 164.215C1729.85 170.468 1737.15 175.263 1745.49 178.598C1753.82 181.934 1762.89 183.601 1772.69 183.601Z"/>
</mask>
<path d="M0.9531 223H-0.0468998V224H0.9531V223ZM0.9531 4.11844V3.11844H-0.0468998V4.11844H0.9531ZM146.353 13.8118L145.938 14.7217L145.949 14.7267L146.353 13.8118ZM179.185 41.0156L178.346 41.5601L179.185 41.0156ZM146.353 153.271L146.757 154.186L146.768 154.18L146.353 153.271ZM29.095 162.651L28.383 161.949L26.7042 163.651H29.095V162.651ZM51.6085 139.825H52.6085V137.387L50.8966 139.123L51.6085 139.825ZM51.6085 223V224H52.6085V223H51.6085ZM51.6085 145.453L50.8781 146.136L52.6085 147.987V145.453H51.6085ZM29.095 121.376V120.376H26.7909L28.3646 122.059L29.095 121.376ZM29.095 45.3932L28.3646 44.7103L26.7909 46.3932H29.095V45.3932ZM51.6085 21.3163H52.6085V18.7827L50.8781 20.6333L51.6085 21.3163ZM1.9531 223V4.11844H-0.0468998V223H1.9531ZM0.9531 5.11844H95.6975V3.11844H0.9531V5.11844ZM95.6975 5.11844C115.185 5.11844 131.922 8.33205 145.938 14.7217L146.768 12.9019C132.433 6.36703 115.4 3.11844 95.6975 3.11844V5.11844ZM145.949 14.7267C159.964 20.9096 170.749 29.8563 178.346 41.5601L180.024 40.4712C172.195 28.4106 161.092 19.2215 146.757 12.8969L145.949 14.7267ZM178.346 41.5601C185.938 53.2552 189.755 67.2341 189.755 83.5412H191.755C191.755 66.9118 187.858 52.5404 180.024 40.4712L178.346 41.5601ZM189.755 83.5412C189.755 99.637 185.939 113.512 178.346 125.21L180.024 126.299C187.857 114.231 191.755 99.9649 191.755 83.5412H189.755ZM178.346 125.21C170.747 136.916 159.958 145.969 145.938 152.361L146.768 154.18C161.098 147.647 172.197 138.356 180.024 126.299L178.346 125.21ZM145.949 152.356C131.93 158.541 115.189 161.651 95.6975 161.651V163.651C115.396 163.651 132.425 160.508 146.757 154.186L145.949 152.356ZM95.6975 161.651H29.095V163.651H95.6975V161.651ZM29.807 163.353L52.3205 140.527L50.8966 139.123L28.383 161.949L29.807 163.353ZM50.6085 139.825V223H52.6085V139.825H50.6085ZM51.6085 222H0.9531V224H51.6085V222ZM52.339 144.77L29.8254 120.693L28.3646 122.059L50.8781 146.136L52.339 144.77ZM29.095 122.376H92.8833V120.376H29.095V122.376ZM92.8833 122.376C108.635 122.376 120.589 119.02 128.559 112.127L127.25 110.614C119.794 117.062 108.4 120.376 92.8833 120.376V122.376ZM128.559 112.127C136.528 105.234 140.474 95.6606 140.474 83.5412H138.474C138.474 95.186 134.706 104.165 127.25 110.614L128.559 112.127ZM140.474 83.5412C140.474 71.2195 136.532 61.5392 128.559 54.6429L127.25 56.1556C134.702 62.6007 138.474 71.6816 138.474 83.5412H140.474ZM128.559 54.6429C120.589 47.75 108.635 44.3932 92.8833 44.3932V46.3932C108.4 46.3932 119.794 49.7072 127.25 56.1556L128.559 54.6429ZM92.8833 44.3932H29.095V46.3932H92.8833V44.3932ZM29.8254 46.0762L52.339 21.9993L50.8781 20.6333L28.3646 44.7103L29.8254 46.0762ZM50.6085 21.3163V145.453H52.6085V21.3163H50.6085ZM288.133 218.31L287.773 219.243L287.777 219.244L288.133 218.31ZM249.985 194.545L249.292 195.267L249.299 195.273L249.985 194.545ZM224.97 158.586L224.049 158.977L224.054 158.989L224.97 158.586ZM224.97 68.5322L224.054 68.1299L224.049 68.1416L224.97 68.5322ZM288.445 8.80875L288.085 7.87575L288.445 8.80875ZM383.502 8.80875L383.138 9.74001L383.142 9.74175L383.502 8.80875ZM421.338 32.573L420.645 33.2942L420.652 33.3008L421.338 32.573ZM446.665 68.5322L445.75 68.9344L445.752 68.9396L446.665 68.5322ZM446.665 158.899L447.581 159.301L447.583 159.296L446.665 158.899ZM421.338 194.858L422.023 195.586L422.023 195.586L421.338 194.858ZM383.502 218.31L383.142 217.377L383.138 217.378L383.502 218.31ZM362.865 178.598L362.494 177.67L362.485 177.673L362.865 178.598ZM384.753 164.215L384.046 163.508L384.753 164.215ZM399.137 142.014L398.213 141.631L398.209 141.641L398.205 141.65L399.137 142.014ZM399.137 85.1046L398.205 85.4682L398.209 85.4779L398.213 85.4876L399.137 85.1046ZM384.753 62.9038L384.034 63.5988L384.04 63.6049L384.046 63.6109L384.753 62.9038ZM363.178 48.5201L362.806 49.4486L363.178 48.5201ZM308.77 48.5201L308.399 47.5916L308.39 47.595L308.77 48.5201ZM287.194 62.9038L287.902 63.6109L287.194 62.9038ZM272.498 85.1046L271.574 84.7216L271.57 84.7313L271.567 84.7411L272.498 85.1046ZM272.498 142.014L271.564 142.37L271.569 142.383L271.574 142.397L272.498 142.014ZM286.882 164.215L286.163 164.91L286.169 164.916L286.175 164.922L286.882 164.215ZM308.77 178.598L308.399 179.527L308.77 178.598ZM336.286 225.752C319.095 225.752 303.165 222.956 288.488 217.375L287.777 219.244C302.701 224.92 318.874 227.752 336.286 227.752V225.752ZM288.492 217.377C274.015 211.793 261.411 203.939 250.67 193.818L249.299 195.273C260.238 205.581 273.066 213.57 287.773 219.243L288.492 217.377ZM250.677 193.824C240.142 183.702 231.879 171.825 225.885 158.184L224.054 158.989C230.151 172.864 238.564 184.96 249.292 195.267L250.677 193.824ZM225.89 158.196C220.11 144.572 217.214 129.697 217.214 113.559H215.214C215.214 129.941 218.155 145.085 224.049 158.977L225.89 158.196ZM217.214 113.559C217.214 97.4217 220.11 82.5469 225.89 68.9227L224.049 68.1416C218.155 82.0339 215.214 97.1772 215.214 113.559H217.214ZM225.885 68.9344C231.877 55.2979 240.242 43.4225 250.983 33.3008L249.612 31.8453C238.673 42.1526 230.153 54.2499 224.054 68.1299L225.885 68.9344ZM250.983 33.3008C261.724 23.1796 274.328 15.3259 288.805 9.74175L288.085 7.87575C273.378 13.5484 260.55 21.5375 249.612 31.8453L250.983 33.3008ZM288.805 9.74175C303.272 4.16161 318.992 1.3662 335.974 1.3662V-0.633804C318.769 -0.633804 302.802 2.19914 288.085 7.87575L288.805 9.74175ZM335.974 1.3662C353.166 1.3662 368.884 4.16219 383.138 9.73999L383.867 7.87751C369.354 2.19856 353.386 -0.633804 335.974 -0.633804V1.3662ZM383.142 9.74175C397.618 15.3253 410.115 23.1772 420.645 33.2942L422.03 31.8519C411.298 21.5399 398.571 13.549 383.862 7.87575L383.142 9.74175ZM420.652 33.3008C431.393 43.4225 439.758 55.2979 445.75 68.9344L447.581 68.1299C441.482 54.2499 432.962 42.1526 422.023 31.8453L420.652 33.3008ZM445.752 68.9396C451.734 82.3477 454.733 97.2159 454.733 113.559H456.733C456.733 96.9661 453.687 81.8162 447.579 68.1247L445.752 68.9396ZM454.733 113.559C454.733 129.692 451.735 144.669 445.748 158.502L447.583 159.296C453.686 145.196 456.733 129.946 456.733 113.559H454.733ZM445.75 158.497C439.758 172.133 431.393 184.009 420.652 194.13L422.023 195.586C432.962 185.279 441.482 173.181 447.581 159.301L445.75 158.497ZM420.652 194.13C410.122 204.041 397.623 211.792 383.142 217.377L383.862 219.243C398.566 213.571 411.291 205.687 422.023 195.586L420.652 194.13ZM383.138 217.378C368.882 222.957 353.269 225.752 336.286 225.752V227.752C353.491 227.752 369.355 224.919 383.867 219.241L383.138 217.378ZM335.974 184.601C345.887 184.601 354.981 182.914 363.245 179.523L362.485 177.673C354.489 180.954 345.656 182.601 335.974 182.601V184.601ZM363.236 179.527C371.698 176.142 379.109 171.273 385.46 164.922L384.046 163.508C377.89 169.664 370.708 174.384 362.494 177.67L363.236 179.527ZM385.46 164.922C391.815 158.567 396.685 151.048 400.068 142.377L398.205 141.65C394.918 150.073 390.198 157.355 384.046 163.508L385.46 164.922ZM400.06 142.397C403.661 133.714 405.452 124.097 405.452 113.559H403.452C403.452 123.867 401.701 133.22 398.213 141.631L400.06 142.397ZM405.452 113.559C405.452 103.021 403.661 93.4043 400.06 84.7216L398.213 85.4876C401.701 93.8986 403.452 103.251 403.452 113.559H405.452ZM400.068 84.7411C396.685 76.0704 391.815 68.5519 385.46 62.1967L384.046 63.6109C390.198 69.7632 394.918 77.0452 398.205 85.4682L400.068 84.7411ZM385.472 62.2088C379.326 55.8502 372.014 50.9776 363.549 47.5917L362.806 49.4486C371.018 52.7333 378.09 57.4498 384.034 63.5988L385.472 62.2088ZM363.549 47.5917C355.082 44.2049 345.887 42.5171 335.974 42.5171V44.5171C345.656 44.5171 354.596 46.1646 362.806 49.4486L363.549 47.5917ZM335.974 42.5171C326.061 42.5171 316.865 44.2049 308.399 47.5917L309.141 49.4486C317.351 46.1646 326.292 44.5171 335.974 44.5171V42.5171ZM308.39 47.595C300.137 50.9809 292.834 55.8499 286.487 62.1967L287.902 63.6109C294.062 57.4502 301.143 52.73 309.15 49.4453L308.39 47.595ZM286.487 62.1967C280.137 68.5475 275.166 76.0593 271.574 84.7216L273.422 85.4876C276.918 77.0563 281.745 69.7676 287.902 63.6109L286.487 62.1967ZM271.567 84.7411C268.18 93.4184 266.495 103.029 266.495 113.559H268.495C268.495 103.244 270.145 93.8844 273.43 85.4682L271.567 84.7411ZM266.495 113.559C266.495 123.884 268.181 133.491 271.564 142.37L273.433 141.658C270.144 133.026 268.495 123.663 268.495 113.559H266.495ZM271.574 142.397C275.163 151.052 280.025 158.56 286.163 164.91L287.601 163.52C281.648 157.362 276.921 150.069 273.422 141.631L271.574 142.397ZM286.175 164.922C292.526 171.273 299.936 176.142 308.399 179.527L309.141 177.67C300.927 174.384 293.745 169.664 287.589 163.508L286.175 164.922ZM308.399 179.527C316.865 182.914 326.061 184.601 335.974 184.601V182.601C326.292 182.601 317.351 180.954 309.141 177.67L308.399 179.527ZM493.803 223H492.803V224H493.803V223ZM493.803 4.11844V3.11844H492.803V4.11844H493.803ZM639.203 13.8118L638.788 14.7217L638.799 14.7267L639.203 13.8118ZM672.035 41.0156L671.196 41.5601L672.035 41.0156ZM672.035 125.754L672.87 126.305L672.874 126.299L672.035 125.754ZM639.203 152.645L639.607 153.56L639.203 152.645ZM521.945 162.026L521.243 161.314L519.507 163.026H521.945V162.026ZM544.458 139.825H545.458V137.434L543.756 139.113L544.458 139.825ZM544.458 223V224H545.458V223H544.458ZM632.949 223L632.126 223.567L632.424 224H632.949V223ZM578.229 143.577V142.577H576.325L577.405 144.145L578.229 143.577ZM632.324 143.577L633.144 143.006L632.846 142.577H632.324V143.577ZM687.67 223V224H689.585L688.49 222.428L687.67 223ZM544.458 145.453L543.732 146.141L545.458 147.963V145.453H544.458ZM521.945 121.689V120.689H519.62L521.219 122.377L521.945 121.689ZM620.754 111.683L621.408 112.439L621.414 112.434L621.42 112.429L620.754 111.683ZM521.945 45.3932L521.214 44.7103L519.641 46.3932H521.945V45.3932ZM544.458 21.3163H545.458V18.7827L543.728 20.6333L544.458 21.3163ZM494.803 223V4.11844H492.803V223H494.803ZM493.803 5.11844H588.547V3.11844H493.803V5.11844ZM588.547 5.11844C608.035 5.11844 624.772 8.33205 638.788 14.7217L639.618 12.9019C625.283 6.36703 608.25 3.11844 588.547 3.11844V5.11844ZM638.799 14.7267C652.814 20.9096 663.599 29.8563 671.196 41.5601L672.874 40.4712C665.045 28.4106 653.942 19.2215 639.607 12.8969L638.799 14.7267ZM671.196 41.5601C678.788 53.2552 682.605 67.2341 682.605 83.5412H684.605C684.605 66.9118 680.708 52.5404 672.874 40.4712L671.196 41.5601ZM682.605 83.5412C682.605 99.637 678.789 113.512 671.196 125.21L672.874 126.299C680.707 114.231 684.605 99.9649 684.605 83.5412H682.605ZM671.201 125.203C663.605 136.7 652.818 145.545 638.799 151.73L639.607 153.56C653.938 147.238 665.04 138.156 672.87 126.305L671.201 125.203ZM638.799 151.73C624.78 157.915 608.039 161.026 588.547 161.026V163.026C608.246 163.026 625.275 159.883 639.607 153.56L638.799 151.73ZM588.547 161.026H521.945V163.026H588.547V161.026ZM522.647 162.738L545.161 140.537L543.756 139.113L521.243 161.314L522.647 162.738ZM543.458 139.825V223H545.458V139.825H543.458ZM544.458 222H493.803V224H544.458V222ZM633.773 222.433L579.052 143.01L577.405 144.145L632.126 223.567L633.773 222.433ZM578.229 144.577H632.324V142.577H578.229V144.577ZM631.503 144.149L686.849 223.572L688.49 222.428L633.144 143.006L631.503 144.149ZM687.67 222H632.949V224H687.67V222ZM545.184 144.766L522.671 121.001L521.219 122.377L543.732 146.141L545.184 144.766ZM521.945 122.689H585.733V120.689H521.945V122.689ZM585.733 122.689C601.485 122.689 613.439 119.332 621.408 112.439L620.1 110.927C612.644 117.375 601.25 120.689 585.733 120.689V122.689ZM621.42 112.429C629.378 105.331 633.324 95.6612 633.324 83.5412H631.324C631.324 95.1854 627.556 104.277 620.089 110.937L621.42 112.429ZM633.324 83.5412C633.324 71.2195 629.382 61.5392 621.408 54.6429L620.1 56.1556C627.552 62.6007 631.324 71.6816 631.324 83.5412H633.324ZM621.408 54.6429C613.439 47.75 601.485 44.3932 585.733 44.3932V46.3932C601.25 46.3932 612.644 49.7072 620.1 56.1556L621.408 54.6429ZM585.733 44.3932H521.945V46.3932H585.733V44.3932ZM522.675 46.0762L545.189 21.9993L543.728 20.6333L521.214 44.7103L522.675 46.0762ZM543.458 21.3163V145.453H545.458V21.3163H543.458ZM766.025 223H765.025V224H766.025V223ZM766.025 45.3932H767.025V44.3932H766.025V45.3932ZM695.983 45.3932H694.983V46.3932H695.983V45.3932ZM695.983 4.11844V3.11844H694.983V4.11844H695.983ZM886.722 4.11844H887.722V3.11844H886.722V4.11844ZM886.722 45.3932V46.3932H887.722V45.3932H886.722ZM816.68 45.3932V44.3932H815.68V45.3932H816.68ZM816.68 223V224H817.68V223H816.68ZM767.025 223V45.3932H765.025V223H767.025ZM766.025 44.3932H695.983V46.3932H766.025V44.3932ZM696.983 45.3932V4.11844H694.983V45.3932H696.983ZM695.983 5.11844H886.722V3.11844H695.983V5.11844ZM885.722 4.11844V45.3932H887.722V4.11844H885.722ZM886.722 44.3932H816.68V46.3932H886.722V44.3932ZM815.68 45.3932V223H817.68V45.3932H815.68ZM816.68 222H766.025V224H816.68V222ZM960.881 102.615V101.615H959.881V102.615H960.881ZM1065.94 102.615H1066.94V101.615H1065.94V102.615ZM1065.94 143.265V144.265H1066.94V143.265H1065.94ZM960.881 143.265H959.881V144.265H960.881V143.265ZM964.633 223V224H965.633V223H964.633ZM913.977 223H912.977V224H913.977V223ZM913.977 4.11844V3.11844H912.977V4.11844H913.977ZM1079.39 4.11844H1080.39V3.11844H1079.39V4.11844ZM1079.39 44.7679V45.7679H1080.39V44.7679H1079.39ZM964.633 44.7679V43.7679H963.633V44.7679H964.633ZM960.881 103.615H1065.94V101.615H960.881V103.615ZM1064.94 102.615V143.265H1066.94V102.615H1064.94ZM1065.94 142.265H960.881V144.265H1065.94V142.265ZM961.881 143.265V102.615H959.881V143.265H961.881ZM964.633 222H913.977V224H964.633V222ZM914.977 223V4.11844H912.977V223H914.977ZM913.977 5.11844H1079.39V3.11844H913.977V5.11844ZM1078.39 4.11844V44.7679H1080.39V4.11844H1078.39ZM1079.39 43.7679H964.633V45.7679H1079.39V43.7679ZM963.633 44.7679V223H965.633V44.7679H963.633ZM1169.7 218.31L1169.34 219.243L1169.35 219.244L1169.7 218.31ZM1131.56 194.545L1130.86 195.267L1130.87 195.273L1131.56 194.545ZM1106.54 158.586L1105.62 158.977L1105.63 158.989L1106.54 158.586ZM1106.54 68.5322L1105.63 68.1299L1105.62 68.1416L1106.54 68.5322ZM1170.02 8.80875L1169.66 7.87575L1170.02 8.80875ZM1265.07 8.80875L1264.71 9.74001L1264.71 9.74175L1265.07 8.80875ZM1302.91 32.573L1302.22 33.2942L1302.22 33.3008L1302.91 32.573ZM1328.24 68.5322L1327.32 68.9344L1327.32 68.9396L1328.24 68.5322ZM1328.24 158.899L1329.15 159.301L1329.16 159.296L1328.24 158.899ZM1302.91 194.858L1303.6 195.586L1303.6 195.586L1302.91 194.858ZM1265.07 218.31L1264.71 217.377L1264.71 217.378L1265.07 218.31ZM1244.44 178.598L1244.07 177.67L1244.06 177.673L1244.44 178.598ZM1266.33 164.215L1265.62 163.508L1266.33 164.215ZM1280.71 142.014L1279.79 141.631L1279.78 141.641L1279.78 141.65L1280.71 142.014ZM1280.71 85.1046L1279.78 85.4682L1279.78 85.4779L1279.79 85.4876L1280.71 85.1046ZM1266.33 62.9038L1265.61 63.5988L1265.61 63.6049L1265.62 63.6109L1266.33 62.9038ZM1244.75 48.5201L1244.38 49.4486L1244.75 48.5201ZM1190.34 48.5201L1189.97 47.5916L1189.96 47.595L1190.34 48.5201ZM1168.77 62.9038L1169.47 63.6109L1168.77 62.9038ZM1154.07 85.1046L1153.15 84.7216L1153.14 84.7313L1153.14 84.7411L1154.07 85.1046ZM1154.07 142.014L1153.14 142.37L1153.14 142.383L1153.15 142.397L1154.07 142.014ZM1168.45 164.215L1167.74 164.91L1167.74 164.916L1167.75 164.922L1168.45 164.215ZM1190.34 178.598L1189.97 179.527L1190.34 178.598ZM1217.86 225.752C1200.67 225.752 1184.74 222.956 1170.06 217.375L1169.35 219.244C1184.27 224.92 1200.45 227.752 1217.86 227.752V225.752ZM1170.06 217.377C1155.59 211.793 1142.98 203.939 1132.24 193.818L1130.87 195.273C1141.81 205.581 1154.64 213.57 1169.34 219.243L1170.06 217.377ZM1132.25 193.824C1121.71 183.702 1113.45 171.825 1107.46 158.184L1105.63 158.989C1111.72 172.864 1120.14 184.96 1130.86 195.267L1132.25 193.824ZM1107.46 158.196C1101.68 144.572 1098.79 129.697 1098.79 113.559H1096.79C1096.79 129.941 1099.73 145.085 1105.62 158.977L1107.46 158.196ZM1098.79 113.559C1098.79 97.4217 1101.68 82.5469 1107.46 68.9227L1105.62 68.1416C1099.73 82.0339 1096.79 97.1772 1096.79 113.559H1098.79ZM1107.46 68.9344C1113.45 55.2979 1121.81 43.4225 1132.56 33.3008L1131.18 31.8453C1120.25 42.1526 1111.73 54.2499 1105.63 68.1299L1107.46 68.9344ZM1132.56 33.3008C1143.3 23.1796 1155.9 15.3259 1170.38 9.74175L1169.66 7.87575C1154.95 13.5484 1142.12 21.5375 1131.18 31.8453L1132.56 33.3008ZM1170.38 9.74175C1184.84 4.16161 1200.56 1.3662 1217.55 1.3662V-0.633804C1200.34 -0.633804 1184.37 2.19914 1169.66 7.87575L1170.38 9.74175ZM1217.55 1.3662C1234.74 1.3662 1250.46 4.16219 1264.71 9.73999L1265.44 7.87751C1250.93 2.19856 1234.96 -0.633804 1217.55 -0.633804V1.3662ZM1264.71 9.74175C1279.19 15.3253 1291.69 23.1772 1302.22 33.2942L1303.6 31.8519C1292.87 21.5399 1280.14 13.549 1265.43 7.87575L1264.71 9.74175ZM1302.22 33.3008C1312.97 43.4225 1321.33 55.2979 1327.32 68.9344L1329.15 68.1299C1323.05 54.2499 1314.53 42.1526 1303.6 31.8453L1302.22 33.3008ZM1327.32 68.9396C1333.31 82.3477 1336.31 97.2159 1336.31 113.559H1338.31C1338.31 96.9661 1335.26 81.8162 1329.15 68.1247L1327.32 68.9396ZM1336.31 113.559C1336.31 129.692 1333.31 144.669 1327.32 158.502L1329.16 159.296C1335.26 145.196 1338.31 129.946 1338.31 113.559H1336.31ZM1327.32 158.497C1321.33 172.133 1312.97 184.009 1302.22 194.13L1303.6 195.586C1314.53 185.279 1323.05 173.181 1329.15 159.301L1327.32 158.497ZM1302.22 194.13C1291.69 204.041 1279.19 211.792 1264.71 217.377L1265.43 219.243C1280.14 213.571 1292.86 205.687 1303.6 195.586L1302.22 194.13ZM1264.71 217.378C1250.45 222.957 1234.84 225.752 1217.86 225.752V227.752C1235.06 227.752 1250.93 224.919 1265.44 219.241L1264.71 217.378ZM1217.55 184.601C1227.46 184.601 1236.55 182.914 1244.82 179.523L1244.06 177.673C1236.06 180.954 1227.23 182.601 1217.55 182.601V184.601ZM1244.81 179.527C1253.27 176.142 1260.68 171.273 1267.03 164.922L1265.62 163.508C1259.46 169.664 1252.28 174.384 1244.07 177.67L1244.81 179.527ZM1267.03 164.922C1273.39 158.567 1278.26 151.048 1281.64 142.377L1279.78 141.65C1276.49 150.073 1271.77 157.355 1265.62 163.508L1267.03 164.922ZM1281.63 142.397C1285.23 133.714 1287.02 124.097 1287.02 113.559H1285.02C1285.02 123.867 1283.27 133.22 1279.79 141.631L1281.63 142.397ZM1287.02 113.559C1287.02 103.021 1285.23 93.4043 1281.63 84.7216L1279.79 85.4876C1283.27 93.8986 1285.02 103.251 1285.02 113.559H1287.02ZM1281.64 84.7411C1278.26 76.0704 1273.39 68.5519 1267.03 62.1967L1265.62 63.6109C1271.77 69.7632 1276.49 77.0452 1279.78 85.4682L1281.64 84.7411ZM1267.04 62.2088C1260.9 55.8502 1253.59 50.9776 1245.12 47.5917L1244.38 49.4486C1252.59 52.7333 1259.66 57.4498 1265.61 63.5988L1267.04 62.2088ZM1245.12 47.5917C1236.65 44.2049 1227.46 42.5171 1217.55 42.5171V44.5171C1227.23 44.5171 1236.17 46.1646 1244.38 49.4486L1245.12 47.5917ZM1217.55 42.5171C1207.63 42.5171 1198.44 44.2049 1189.97 47.5917L1190.71 49.4486C1198.92 46.1646 1207.86 44.5171 1217.55 44.5171V42.5171ZM1189.96 47.595C1181.71 50.9809 1174.41 55.8499 1168.06 62.1967L1169.47 63.6109C1175.63 57.4502 1182.72 52.73 1190.72 49.4453L1189.96 47.595ZM1168.06 62.1967C1161.71 68.5475 1156.74 76.0593 1153.15 84.7216L1154.99 85.4876C1158.49 77.0563 1163.32 69.7676 1169.47 63.6109L1168.06 62.1967ZM1153.14 84.7411C1149.75 93.4184 1148.07 103.029 1148.07 113.559H1150.07C1150.07 103.244 1151.72 93.8844 1155 85.4682L1153.14 84.7411ZM1148.07 113.559C1148.07 123.884 1149.75 133.491 1153.14 142.37L1155.01 141.658C1151.72 133.026 1150.07 123.663 1150.07 113.559H1148.07ZM1153.15 142.397C1156.74 151.052 1161.6 158.56 1167.74 164.91L1169.17 163.52C1163.22 157.362 1158.49 150.069 1154.99 141.631L1153.15 142.397ZM1167.75 164.922C1174.1 171.273 1181.51 176.142 1189.97 179.527L1190.71 177.67C1182.5 174.384 1175.32 169.664 1169.16 163.508L1167.75 164.922ZM1189.97 179.527C1198.44 182.914 1207.63 184.601 1217.55 184.601V182.601C1207.86 182.601 1198.92 180.954 1190.71 177.67L1189.97 179.527ZM1375.38 223H1374.38V224H1375.38V223ZM1375.38 4.11844V3.11844H1374.38V4.11844H1375.38ZM1426.03 4.11844H1427.03V3.11844H1426.03V4.11844ZM1426.03 181.725H1425.03V182.725H1426.03V181.725ZM1535.78 181.725H1536.78V180.725H1535.78V181.725ZM1535.78 223V224H1536.78V223H1535.78ZM1376.38 223V4.11844H1374.38V223H1376.38ZM1375.38 5.11844H1426.03V3.11844H1375.38V5.11844ZM1425.03 4.11844V181.725H1427.03V4.11844H1425.03ZM1426.03 182.725H1535.78V180.725H1426.03V182.725ZM1534.78 181.725V223H1536.78V181.725H1534.78ZM1535.78 222H1375.38V224H1535.78V222ZM1564.09 223H1563.09V224H1564.09V223ZM1564.09 4.11844V3.11844H1563.09V4.11844H1564.09ZM1614.74 4.11844H1615.74V3.11844H1614.74V4.11844ZM1614.74 223V224H1615.74V223H1614.74ZM1565.09 223V4.11844H1563.09V223H1565.09ZM1564.09 5.11844H1614.74V3.11844H1564.09V5.11844ZM1613.74 4.11844V223H1615.74V4.11844H1613.74ZM1614.74 222H1564.09V224H1614.74V222ZM1724.85 218.31L1724.49 219.243L1724.49 219.244L1724.85 218.31ZM1686.7 194.545L1686.01 195.267L1686.01 195.273L1686.7 194.545ZM1661.69 158.586L1660.76 158.977L1660.77 158.989L1661.69 158.586ZM1661.69 68.5322L1660.77 68.1299L1660.76 68.1416L1661.69 68.5322ZM1725.16 8.80875L1724.8 7.87575L1725.16 8.80875ZM1820.22 8.80875L1819.85 9.74001L1819.86 9.74175L1820.22 8.80875ZM1858.05 32.573L1857.36 33.2942L1857.37 33.3008L1858.05 32.573ZM1883.38 68.5322L1882.47 68.9344L1882.47 68.9396L1883.38 68.5322ZM1883.38 158.899L1884.3 159.301L1884.3 159.296L1883.38 158.899ZM1858.05 194.858L1858.74 195.586L1858.74 195.586L1858.05 194.858ZM1820.22 218.31L1819.86 217.377L1819.85 217.378L1820.22 218.31ZM1799.58 178.598L1799.21 177.67L1799.2 177.673L1799.58 178.598ZM1821.47 164.215L1820.76 163.508L1821.47 164.215ZM1835.85 142.014L1834.93 141.631L1834.92 141.641L1834.92 141.65L1835.85 142.014ZM1835.85 85.1046L1834.92 85.4682L1834.92 85.4779L1834.93 85.4876L1835.85 85.1046ZM1821.47 62.9038L1820.75 63.5988L1820.76 63.6049L1820.76 63.6109L1821.47 62.9038ZM1799.89 48.5201L1799.52 49.4486L1799.89 48.5201ZM1745.49 48.5201L1745.11 47.5916L1745.11 47.595L1745.49 48.5201ZM1723.91 62.9038L1724.62 63.6109L1723.91 62.9038ZM1709.21 85.1046L1708.29 84.7216L1708.29 84.7313L1708.28 84.7411L1709.21 85.1046ZM1709.21 142.014L1708.28 142.37L1708.28 142.383L1708.29 142.397L1709.21 142.014ZM1723.6 164.215L1722.88 164.91L1722.88 164.916L1722.89 164.922L1723.6 164.215ZM1745.49 178.598L1745.11 179.527L1745.49 178.598ZM1773 225.752C1755.81 225.752 1739.88 222.956 1725.2 217.375L1724.49 219.244C1739.42 224.92 1755.59 227.752 1773 227.752V225.752ZM1725.21 217.377C1710.73 211.793 1698.13 203.939 1687.39 193.818L1686.01 195.273C1696.95 205.581 1709.78 213.57 1724.49 219.243L1725.21 217.377ZM1687.39 193.824C1676.86 183.702 1668.59 171.825 1662.6 158.184L1660.77 158.989C1666.87 172.864 1675.28 184.96 1686.01 195.267L1687.39 193.824ZM1662.61 158.196C1656.83 144.572 1653.93 129.697 1653.93 113.559H1651.93C1651.93 129.941 1654.87 145.085 1660.76 158.977L1662.61 158.196ZM1653.93 113.559C1653.93 97.4217 1656.83 82.5469 1662.61 68.9227L1660.76 68.1416C1654.87 82.0339 1651.93 97.1772 1651.93 113.559H1653.93ZM1662.6 68.9344C1668.59 55.2979 1676.96 43.4225 1687.7 33.3008L1686.33 31.8453C1675.39 42.1526 1666.87 54.2499 1660.77 68.1299L1662.6 68.9344ZM1687.7 33.3008C1698.44 23.1796 1711.04 15.3259 1725.52 9.74175L1724.8 7.87575C1710.09 13.5484 1697.27 21.5375 1686.33 31.8453L1687.7 33.3008ZM1725.52 9.74175C1739.99 4.16161 1755.71 1.3662 1772.69 1.3662V-0.633804C1755.48 -0.633804 1739.52 2.19914 1724.8 7.87575L1725.52 9.74175ZM1772.69 1.3662C1789.88 1.3662 1805.6 4.16219 1819.85 9.73999L1820.58 7.87751C1806.07 2.19856 1790.1 -0.633804 1772.69 -0.633804V1.3662ZM1819.86 9.74175C1834.33 15.3253 1846.83 23.1772 1857.36 33.2942L1858.75 31.8519C1848.01 21.5399 1835.29 13.549 1820.58 7.87575L1819.86 9.74175ZM1857.37 33.3008C1868.11 43.4225 1876.47 55.2979 1882.47 68.9344L1884.3 68.1299C1878.2 54.2499 1869.68 42.1526 1858.74 31.8453L1857.37 33.3008ZM1882.47 68.9396C1888.45 82.3477 1891.45 97.2159 1891.45 113.559H1893.45C1893.45 96.9661 1890.4 81.8162 1884.29 68.1247L1882.47 68.9396ZM1891.45 113.559C1891.45 129.692 1888.45 144.669 1882.46 158.502L1884.3 159.296C1890.4 145.196 1893.45 129.946 1893.45 113.559H1891.45ZM1882.47 158.497C1876.47 172.133 1868.11 184.009 1857.37 194.13L1858.74 195.586C1869.68 185.279 1878.2 173.181 1884.3 159.301L1882.47 158.497ZM1857.37 194.13C1846.84 204.041 1834.34 211.792 1819.86 217.377L1820.58 219.243C1835.28 213.571 1848.01 205.687 1858.74 195.586L1857.37 194.13ZM1819.85 217.378C1805.6 222.957 1789.98 225.752 1773 225.752V227.752C1790.21 227.752 1806.07 224.919 1820.58 219.241L1819.85 217.378ZM1772.69 184.601C1782.6 184.601 1791.7 182.914 1799.96 179.523L1799.2 177.673C1791.2 180.954 1782.37 182.601 1772.69 182.601V184.601ZM1799.95 179.527C1808.41 176.142 1815.82 171.273 1822.18 164.922L1820.76 163.508C1814.6 169.664 1807.42 174.384 1799.21 177.67L1799.95 179.527ZM1822.18 164.922C1828.53 158.567 1833.4 151.048 1836.78 142.377L1834.92 141.65C1831.63 150.073 1826.91 157.355 1820.76 163.508L1822.18 164.922ZM1836.78 142.397C1840.38 133.714 1842.17 124.097 1842.17 113.559H1840.17C1840.17 123.867 1838.42 133.22 1834.93 141.631L1836.78 142.397ZM1842.17 113.559C1842.17 103.021 1840.38 93.4043 1836.78 84.7216L1834.93 85.4876C1838.42 93.8986 1840.17 103.251 1840.17 113.559H1842.17ZM1836.78 84.7411C1833.4 76.0704 1828.53 68.5519 1822.18 62.1967L1820.76 63.6109C1826.91 69.7632 1831.63 77.0452 1834.92 85.4682L1836.78 84.7411ZM1822.19 62.2088C1816.04 55.8502 1808.73 50.9776 1800.26 47.5917L1799.52 49.4486C1807.73 52.7333 1814.81 57.4498 1820.75 63.5988L1822.19 62.2088ZM1800.26 47.5917C1791.8 44.2049 1782.6 42.5171 1772.69 42.5171V44.5171C1782.37 44.5171 1791.31 46.1646 1799.52 49.4486L1800.26 47.5917ZM1772.69 42.5171C1762.78 42.5171 1753.58 44.2049 1745.11 47.5917L1745.86 49.4486C1754.07 46.1646 1763.01 44.5171 1772.69 44.5171V42.5171ZM1745.11 47.595C1736.85 50.9809 1729.55 55.8499 1723.2 62.1967L1724.62 63.6109C1730.78 57.4502 1737.86 52.73 1745.86 49.4453L1745.11 47.595ZM1723.2 62.1967C1716.85 68.5475 1711.88 76.0593 1708.29 84.7216L1710.14 85.4876C1713.63 77.0563 1718.46 69.7676 1724.62 63.6109L1723.2 62.1967ZM1708.28 84.7411C1704.9 93.4184 1703.21 103.029 1703.21 113.559H1705.21C1705.21 103.244 1706.86 93.8844 1710.15 85.4682L1708.28 84.7411ZM1703.21 113.559C1703.21 123.884 1704.9 133.491 1708.28 142.37L1710.15 141.658C1706.86 133.026 1705.21 123.663 1705.21 113.559H1703.21ZM1708.29 142.397C1711.88 151.052 1716.74 158.56 1722.88 164.91L1724.32 163.52C1718.36 157.362 1713.64 150.069 1710.14 141.631L1708.29 142.397ZM1722.89 164.922C1729.24 171.273 1736.65 176.142 1745.11 179.527L1745.86 177.67C1737.64 174.384 1730.46 169.664 1724.3 163.508L1722.89 164.922ZM1745.11 179.527C1753.58 182.914 1762.78 184.601 1772.69 184.601V182.601C1763.01 182.601 1754.07 180.954 1745.86 177.67L1745.11 179.527Z" fill="url(#paint0_linear_1669_20088)" mask="url(#path-1-outside-1_1669_20088)"/>
<defs>
<linearGradient id="paint0_linear_1669_20088" x1="940" y1="-80" x2="940" y2="159.21" gradientUnits="userSpaceOnUse">
<stop stop-color="#6F00FF"/>
<stop offset="1" stop-color="#6F00FF" stop-opacity="0"/>
<stop offset="1" stop-color="#6F00FF" stop-opacity="0"/>
</linearGradient>
</defs>
</svg>
