<svg width="96" height="97" viewBox="0 0 96 97" fill="none" xmlns="http://www.w3.org/2000/svg">
<path d="M47.1936 0.374372C43.3045 0.374372 39.5409 0.735971 36.2644 1.34848C26.5528 3.04578 24.8482 6.57322 24.8482 13.2517V21.9966H47.6806V24.9115H16.3469C9.78642 24.9115 3.96393 28.9186 2.14117 36.4458C0.0748889 45.1906 -0.0431845 50.5334 2.14117 59.6398C3.7204 66.4438 7.60945 71.1741 14.288 71.1741H22.1841V60.732C22.1841 53.2048 28.7446 46.5263 36.3898 46.5263H59.0968C65.4137 46.5263 70.513 41.3016 70.513 34.8666V13.1263C70.513 6.93482 65.2883 2.3152 59.0968 1.22302C55.0823 0.617898 51.0752 0.256298 47.1936 0.374372ZM34.8032 7.29642C37.113 7.29642 39.0539 9.23725 39.0539 11.6651C39.0539 14.093 37.113 16.0339 34.8032 16.0339C32.4934 16.0339 30.5526 14.093 30.5526 11.6651C30.5526 9.23725 32.3753 7.29642 34.8032 7.29642Z" fill="url(#paint0_linear_1821_16133)"/>
<path d="M73.302 24.6605V34.741C73.302 42.6372 66.6235 49.1902 58.9709 49.1902H36.2639C30.0724 49.1902 24.8477 54.5331 24.8477 60.85V82.5902C24.8477 88.7817 30.1905 92.4272 36.2639 94.25C43.4295 96.4343 50.3515 96.8033 59.0963 94.25C64.8007 92.5527 70.5125 89.2688 70.5125 82.5902V73.8454H47.6727V70.9305H81.9214C88.4818 70.9305 91.0278 66.3183 93.3376 59.3962C95.7655 52.2306 95.6474 45.434 93.3376 36.2022C91.7584 29.6417 88.5999 24.6679 81.9214 24.6679L73.302 24.6605ZM60.4246 79.6753C62.7345 79.6753 64.6753 81.6161 64.6753 84.044C64.6753 86.4719 62.7345 88.4127 60.4246 88.4127C58.1148 88.4127 56.174 86.4719 56.174 84.044C56.174 81.6161 58.1222 79.6753 60.4246 79.6753Z" fill="url(#paint1_linear_1821_16133)"/>
<defs>
<linearGradient id="paint0_linear_1821_16133" x1="-1.97052" y1="2.96087" x2="50.6401" y2="47.7872" gradientUnits="userSpaceOnUse">
<stop stop-color="#5CA0D5"/>
<stop offset="1" stop-color="#316A99"/>
</linearGradient>
<linearGradient id="paint1_linear_1821_16133" x1="70.4758" y1="75.6976" x2="51.6" y2="49.2505" gradientUnits="userSpaceOnUse">
<stop stop-color="#FFD43E"/>
<stop offset="1" stop-color="#FFE975"/>
</linearGradient>
</defs>
</svg>
