<svg width="96" height="105" viewBox="0 0 96 105" fill="none" xmlns="http://www.w3.org/2000/svg">
<path d="M94.5012 42.245C94.5012 36.0051 86.687 30.0916 74.7062 26.4244C77.4711 14.2133 76.2424 4.49818 70.8277 1.38778C69.5796 0.658181 68.1207 0.312571 66.5271 0.312571V4.59417C67.4102 4.59417 68.1207 4.76698 68.7158 5.09336C71.327 6.59094 72.46 12.2933 71.5764 19.6277C71.3656 21.4325 71.02 23.3332 70.5975 25.2724C66.834 24.3508 62.7254 23.6405 58.4055 23.1797C55.8136 19.6277 53.1256 16.4021 50.4183 13.5797C56.6774 7.76215 62.5528 4.57494 66.5464 4.57494V0.293381C61.2661 0.293381 54.3543 4.05657 47.3657 10.5845C40.3767 4.09495 33.4649 0.370188 28.1851 0.370188V4.65175C32.1594 4.65175 38.0536 7.81976 44.3128 13.5989C41.6248 16.4213 38.9367 19.6277 36.3831 23.1797C32.0439 23.6405 27.9352 24.3508 24.1721 25.2916C23.7304 23.3717 23.4041 21.5092 23.1735 19.7237C22.2715 12.3893 23.3848 6.68693 25.977 5.17016C26.5528 4.82455 27.3015 4.67098 28.1851 4.67098V0.389378C26.5721 0.389378 25.1128 0.734988 23.8458 1.46459C18.4505 4.57494 17.2411 14.2709 20.0248 26.4436C8.08259 30.13 0.306641 36.0244 0.306641 42.245C0.306641 48.4852 8.12097 54.3988 20.1017 58.0657C17.3368 70.2771 18.5655 79.9919 23.9802 83.1024C25.2283 83.8318 26.6871 84.1774 28.3001 84.1774C33.58 84.1774 40.4922 80.4144 47.4808 73.8865C54.4694 80.3762 61.3816 84.101 66.6615 84.101C68.274 84.101 69.7333 83.7554 71.0007 83.0256C76.3956 79.9151 77.6055 70.2191 74.8213 58.0468C86.7253 54.3795 94.5012 48.4659 94.5012 42.245ZM69.5032 29.4388C68.7926 31.9158 67.9095 34.469 66.9109 37.0226C66.1239 35.4869 65.2983 33.9508 64.3959 32.4146C63.5128 30.8788 62.5717 29.3812 61.631 27.922C64.3573 28.3252 66.9877 28.8244 69.5032 29.4388ZM60.7093 49.8866C59.2118 52.4789 57.6761 54.9363 56.0824 57.2212C53.2213 57.4707 50.3225 57.605 47.4039 57.605C44.5047 57.605 41.6054 57.4707 38.7641 57.2401C37.1705 54.9552 35.615 52.5171 34.1175 49.9441C32.6582 47.4291 31.3338 44.8755 30.1239 42.3029C31.3144 39.73 32.6582 37.157 34.0986 34.642C35.5961 32.0501 37.1318 29.5924 38.7255 27.3076C41.5865 27.058 44.4854 26.9236 47.4039 26.9236C50.3032 26.9236 53.2024 27.058 56.0437 27.2884C57.6374 29.5732 59.1929 32.0115 60.6904 34.5845C62.1497 37.0995 63.4741 39.6531 64.684 42.2261C63.4741 44.7986 62.1496 47.3716 60.7093 49.8866ZM66.9109 47.3909C67.9188 49.893 68.8031 52.4432 69.5607 55.0321C67.0453 55.6465 64.3959 56.1651 61.6503 56.5682C62.591 55.09 63.5317 53.5732 64.4152 52.0178C65.2983 50.4821 66.1239 48.9266 66.9109 47.3909ZM47.4422 67.8772C45.6566 66.0336 43.871 63.9793 42.1047 61.733C43.8328 61.8099 45.599 61.8674 47.3846 61.8674C49.1895 61.8674 50.9751 61.8292 52.7225 61.733C51.0744 63.8747 49.3117 65.9258 47.4422 67.8772ZM33.1575 56.5682C30.4313 56.1651 27.8008 55.6658 25.2858 55.0514C25.9959 52.5746 26.8795 50.021 27.8777 47.4673C28.6651 49.0034 29.4907 50.5396 30.3927 52.0753C31.2951 53.6114 32.2169 55.1089 33.1575 56.5682ZM47.3464 16.6133C49.132 18.4565 50.9176 20.5109 52.6838 22.7572C50.9558 22.6804 49.1895 22.6229 47.4039 22.6229C45.599 22.6229 43.8135 22.6612 42.0665 22.7572C43.7145 20.6156 45.477 18.5646 47.3464 16.6133ZM33.1382 27.922C32.1976 29.4004 31.2569 30.9172 30.3738 32.4722C29.4907 34.0083 28.6651 35.5444 27.8777 37.0802C26.8697 34.578 25.9855 32.0278 25.2283 29.4388C27.7433 28.8436 30.3927 28.3252 33.1382 27.922ZM15.7625 51.9602C8.9658 49.061 4.56901 45.2597 4.56901 42.245C4.56901 39.2307 8.9658 35.4101 15.7625 32.5301C17.4137 31.8196 19.2185 31.186 21.081 30.5908C22.1753 34.3539 23.6153 38.2707 25.4009 42.2836C23.6346 46.2772 22.2135 50.1747 21.1385 53.9188C19.2379 53.3233 17.433 52.6708 15.7625 51.9602ZM26.0921 79.3969C23.4809 77.8994 22.3479 72.1971 23.2315 64.8624C23.4427 63.0579 23.7879 61.1569 24.2103 59.2176C27.9738 60.1394 32.0825 60.8499 36.4024 61.3106C38.9943 64.8624 41.6823 68.0879 44.3896 70.9103C38.1305 76.7282 32.2551 79.9151 28.2615 79.9151C27.3977 79.8962 26.6682 79.7232 26.0921 79.3969ZM71.6344 64.7667C72.5364 72.1009 71.4231 77.8032 68.8309 79.32C68.2551 79.6656 67.5064 79.8193 66.6228 79.8193C62.6485 79.8193 56.7543 76.6513 50.4951 70.8721C53.1831 68.0497 55.8712 64.8435 58.4248 61.2912C62.764 60.8306 66.8727 60.12 70.6358 59.1794C71.0775 61.1187 71.4231 62.9811 71.6344 64.7667ZM79.0261 51.9602C77.3749 52.6708 75.57 53.3045 73.7076 53.8995C72.6132 50.1364 71.1733 46.2197 69.3877 42.2068C71.1544 38.2131 72.575 34.3157 73.6501 30.5716C75.5511 31.1668 77.3556 31.8196 79.0454 32.5301C85.8421 35.429 90.2389 39.2307 90.2389 42.245C90.2196 45.2597 85.8228 49.0803 79.0261 51.9602Z" fill="#61DAFB"/>
<path d="M47.3845 51.0193C52.2308 51.0193 56.1591 47.091 56.1591 42.2447C56.1591 37.3989 52.2308 33.4706 47.3845 33.4706C42.5387 33.4706 38.6104 37.3989 38.6104 42.2447C38.6104 47.091 42.5387 51.0193 47.3845 51.0193ZM4.58373 99.2848H1.68727V104.273H0.0527344V91.942H4.13487C5.52379 91.942 6.59093 92.2584 7.3362 92.8908C8.08714 93.5228 8.46263 94.4433 8.46263 95.6514C8.46263 96.4195 8.25372 97.0884 7.8359 97.659C7.42374 98.2291 6.84784 98.6554 6.10819 98.9375L9.00466 104.171V104.273H7.25999L4.58373 99.2848ZM1.68727 97.9552H4.1857C4.9931 97.9552 5.63391 97.7461 6.10819 97.3284C6.5881 96.9107 6.82805 96.3517 6.82805 95.6514C6.82805 94.8894 6.59939 94.3051 6.14207 93.8985C5.69037 93.4919 5.03543 93.2858 4.1772 93.2803H1.68727V97.9552ZM14.3065 104.443C13.0642 104.443 12.0535 104.036 11.2744 103.223C10.4952 102.404 10.1056 101.312 10.1056 99.9456V99.6575C10.1056 98.7486 10.2778 97.9385 10.6222 97.2271C10.9723 96.5097 11.4579 95.9507 12.0789 95.5501C12.7057 95.1435 13.3832 94.94 14.1116 94.94C15.303 94.94 16.229 95.3324 16.8894 96.1173C17.5501 96.9021 17.8802 98.0256 17.8802 99.4879V100.14H11.6724C11.695 101.044 11.9576 101.775 12.4601 102.334C12.9682 102.887 13.6119 103.164 14.3911 103.164C14.9445 103.164 15.4129 103.051 15.7967 102.825C16.181 102.599 16.5167 102.3 16.8048 101.927L17.7617 102.673C16.9937 103.852 15.8422 104.443 14.3065 104.443ZM14.1116 96.2276C13.4792 96.2276 12.9485 96.459 12.5194 96.9218C12.0902 97.3795 11.8249 98.023 11.7232 98.8529H16.3136V98.7344C16.2685 97.9385 16.0539 97.3228 15.6701 96.8879C15.2858 96.4478 14.7663 96.2276 14.1116 96.2276ZM25.3587 104.273C25.2681 104.092 25.1947 103.771 25.1385 103.308C24.4099 104.064 23.5405 104.443 22.5299 104.443C21.6266 104.443 20.8843 104.189 20.3025 103.68C19.7268 103.166 19.4387 102.517 19.4387 101.732C19.4387 100.778 19.8002 100.039 20.5228 99.5137C21.2509 98.9826 22.2731 98.7173 23.5886 98.7173H25.1131V97.9977C25.1131 97.4499 24.9491 97.015 24.622 96.6934C24.2944 96.3658 23.8114 96.2023 23.1734 96.2023C22.6144 96.2023 22.146 96.3431 21.7678 96.6256C21.3896 96.9076 21.2002 97.2494 21.2002 97.6504H19.625C19.625 97.1931 19.786 96.7527 20.1076 96.3289C20.4352 95.9 20.8757 95.5613 21.4291 95.3127C21.9881 95.0645 22.6003 94.94 23.2666 94.94C24.3227 94.94 25.1496 95.2054 25.7481 95.7364C26.3466 96.2615 26.657 96.9871 26.6798 97.9127V102.13C26.6798 102.972 26.7871 103.641 27.0017 104.138V104.273H25.3587ZM22.7587 103.079C23.2498 103.079 23.7157 102.952 24.1562 102.698C24.5962 102.444 24.9152 102.114 25.1131 101.707V99.8271H23.8848C21.9653 99.8271 21.0053 100.389 21.0053 101.512C21.0053 102.003 21.1693 102.388 21.4965 102.664C21.8241 102.941 22.2448 103.079 22.7587 103.079ZM32.8114 103.164C33.3704 103.164 33.859 102.994 34.2767 102.655C34.6945 102.317 34.9259 101.893 34.9709 101.385H36.4534C36.4251 101.91 36.2443 102.41 35.9112 102.884C35.578 103.359 35.1319 103.737 34.573 104.019C34.0195 104.302 33.4327 104.443 32.8114 104.443C31.5638 104.443 30.5699 104.028 29.8302 103.198C29.0964 102.362 28.7294 101.222 28.7294 99.776V99.5137C28.7294 98.6215 28.8929 97.8281 29.2205 97.1339C29.5481 96.4392 30.0165 95.9 30.6266 95.5162C31.2418 95.1319 31.9674 94.94 32.8028 94.94C33.8306 94.94 34.6833 95.2479 35.3608 95.8635C36.0438 96.4788 36.4079 97.2777 36.4534 98.26H34.9709C34.9259 97.6671 34.7 97.1816 34.2935 96.8033C33.8929 96.4195 33.3957 96.2276 32.8028 96.2276C32.0069 96.2276 31.3886 96.5152 30.9481 97.0914C30.5137 97.6615 30.296 98.4889 30.296 99.5729V99.8691C30.296 100.925 30.5137 101.738 30.9481 102.308C31.383 102.879 32.0043 103.164 32.8114 103.164ZM40.3405 92.8908V95.1096H42.0514V96.3208H40.3405V102.003C40.3405 102.37 40.417 102.647 40.5694 102.833C40.7218 103.014 40.9815 103.105 41.3486 103.105C41.5289 103.105 41.7775 103.071 42.0935 103.003V104.273C41.6813 104.386 41.2808 104.443 40.8909 104.443C40.1911 104.443 39.6631 104.231 39.3072 103.807C38.9517 103.384 38.7739 102.783 38.7739 102.003V96.3208H37.1051V95.1096H38.7739V92.8908H40.3405ZM57.9142 104.273H56.2794L50.0717 94.7709V104.273H48.4372V91.942H50.0717L56.2965 101.487V91.942H57.9142V104.273ZM66.214 104.273C66.1234 104.092 66.05 103.771 65.9938 103.308C65.2652 104.064 64.3958 104.443 63.3852 104.443C62.4819 104.443 61.7391 104.189 61.1578 103.68C60.5821 103.166 60.294 102.517 60.294 101.732C60.294 100.778 60.6551 100.039 61.3781 99.5137C62.1062 98.9826 63.1284 98.7173 64.4439 98.7173H65.9684V97.9977C65.9684 97.4499 65.8044 97.015 65.4768 96.6934C65.1497 96.3658 64.6667 96.2023 64.0287 96.2023C63.4697 96.2023 63.0013 96.3431 62.6231 96.6256C62.2449 96.9076 62.0555 97.2494 62.0555 97.6504H60.4803C60.4803 97.1931 60.6413 96.7527 60.9629 96.3289C61.2905 95.9 61.731 95.5613 62.2844 95.3127C62.8434 95.0645 63.4556 94.94 64.1219 94.94C65.1776 94.94 66.0049 95.2054 66.6034 95.7364C67.2019 96.2615 67.5123 96.9871 67.535 97.9127V102.13C67.535 102.972 67.6424 103.641 67.857 104.138V104.273H66.214ZM63.614 103.079C64.1051 103.079 64.571 102.952 65.0115 102.698C65.4515 102.444 65.7705 102.114 65.9684 101.707V99.8271H64.7401C62.8206 99.8271 61.8606 100.389 61.8606 101.512C61.8606 102.003 62.0246 102.388 62.3518 102.664C62.6793 102.941 63.1001 103.079 63.614 103.079ZM72.1168 92.8908V95.1096H73.8277V96.3208H72.1168V102.003C72.1168 102.37 72.1933 102.647 72.3457 102.833C72.4981 103.014 72.7578 103.105 73.1249 103.105C73.3052 103.105 73.5538 103.071 73.8702 103.003V104.273C73.4576 104.386 73.0571 104.443 72.6672 104.443C71.9674 104.443 71.4394 104.231 71.0835 103.807C70.728 103.384 70.5502 102.783 70.5502 102.003V96.3208H68.8819V95.1096H70.5502V92.8908H72.1168ZM77.368 104.273H75.8009V95.1096H77.368V104.273ZM75.6738 92.6788C75.6738 92.425 75.7502 92.2104 75.9027 92.0352C76.0606 91.86 76.2921 91.7729 76.5969 91.7729C76.9021 91.7729 77.1335 91.86 77.2915 92.0352C77.4495 92.2104 77.5285 92.425 77.5285 92.6788C77.5285 92.9329 77.4495 93.1446 77.2915 93.3142C77.1335 93.4833 76.9021 93.5683 76.5969 93.5683C76.2921 93.5683 76.0606 93.4833 75.9027 93.3142C75.7502 93.1446 75.6738 92.9329 75.6738 92.6788ZM82.9067 102.148L85.1761 95.1096H86.7771L83.491 104.273H82.2966L78.9771 95.1096H80.5776L82.9067 102.148ZM91.9685 104.443C90.7265 104.443 89.7159 104.036 88.9366 103.223C88.1574 102.404 87.768 101.312 87.768 99.9456V99.6575C87.768 98.7486 87.9401 97.9385 88.2845 97.2271C88.6344 96.5097 89.1199 95.9507 89.7412 95.5501C90.368 95.1435 91.0455 94.94 91.7736 94.94C92.965 94.94 93.8911 95.3324 94.5518 96.1173C95.2121 96.9021 95.5427 98.0256 95.5427 99.4879V100.14H89.3346C89.3574 101.044 89.6197 101.775 90.1224 102.334C90.6303 102.887 91.2743 103.164 92.0531 103.164C92.6065 103.164 93.0754 103.051 93.4592 102.825C93.843 102.599 94.1792 102.3 94.4672 101.927L95.4242 102.673C94.6561 103.852 93.5042 104.443 91.9685 104.443ZM91.7736 96.2276C91.1417 96.2276 90.6106 96.459 90.1817 96.9218C89.7523 97.3795 89.487 98.023 89.3857 98.8529H93.9756V98.7344C93.9306 97.9385 93.7159 97.3228 93.3321 96.8879C92.9483 96.4478 92.4288 96.2276 91.7736 96.2276Z" fill="#61DAFB"/>
</svg>
