<svg width="109" height="109" viewBox="0 0 109 109" fill="none" xmlns="http://www.w3.org/2000/svg">
<path d="M0.976562 14.6661C0.976562 6.9605 7.22315 0.713898 14.9287 0.713898H94.8927C102.598 0.713898 108.845 6.96049 108.845 14.666V94.63C108.845 102.336 102.598 108.582 94.8927 108.582H14.9287C7.22317 108.582 0.976562 102.336 0.976562 94.63V14.6661Z" fill="#222222"/>
<path d="M54.827 63.6029C59.8087 63.6029 63.8473 59.5644 63.8473 54.5826C63.8473 49.6008 59.8087 45.5623 54.827 45.5623C49.8452 45.5623 45.8066 49.6008 45.8066 54.5826C45.8066 59.5644 49.8452 63.6029 54.827 63.6029Z" fill="#00D8FF"/>
<path d="M54.8273 36.2438C66.9359 36.2438 78.186 37.9817 86.6667 40.9C96.8854 44.4175 103.169 49.7504 103.169 54.5795C103.169 59.6114 96.5098 65.2781 85.5369 68.9119C77.241 71.6603 66.3218 73.0971 54.8273 73.0971C43.0407 73.0971 31.883 71.7497 23.4917 68.8821C12.8765 65.2543 6.48242 59.516 6.48242 54.5795C6.48242 49.7892 12.4831 44.498 22.5586 40.9864C31.0722 38.0204 42.5995 36.2438 54.8273 36.2438Z" stroke="#00D8FF" stroke-width="4.31478" stroke-miterlimit="10"/>
<path d="M38.8639 45.4668C44.9123 34.9768 52.0397 26.0996 58.8064 20.2122C66.9593 13.1176 74.7187 10.3394 78.9009 12.7509C83.2591 15.2639 84.8419 23.8639 82.5079 35.1885C80.7432 43.7497 76.5341 53.9237 70.7898 63.883C64.9024 74.0927 58.1596 83.0862 51.4852 88.9229C43.0402 96.3067 34.8725 98.9776 30.5978 96.5124C26.4483 94.1187 24.8625 86.2788 26.8507 75.7948C28.532 66.9295 32.753 56.058 38.8639 45.4668Z" stroke="#00D8FF" stroke-width="4.31478" stroke-miterlimit="10"/>
<path d="M38.8798 63.904C32.8136 53.423 28.682 42.8168 26.959 34.0141C24.8843 23.4079 26.3509 15.2968 30.5302 12.8792C34.8853 10.3574 43.1246 13.2817 51.7694 20.9576C58.3066 26.7615 65.0167 35.4897 70.7758 45.44C76.6811 55.6408 81.1078 65.9728 82.8278 74.6682C85.0068 85.6738 83.2421 94.083 78.9704 96.5542C74.8239 98.9539 67.2404 96.4141 59.1502 89.4536C52.3179 83.5722 45.0056 74.4863 38.8798 63.904Z" stroke="#00D8FF" stroke-width="4.31478" stroke-miterlimit="10"/>
</svg>
