<svg width="43" height="48" viewBox="0 0 43 48" fill="none" xmlns="http://www.w3.org/2000/svg">
<path d="M4.44794 35.6709C2.73888 35.6709 1.36035 37.0661 1.36035 38.7959C1.36035 40.5257 2.73888 41.921 4.44794 41.921C6.15699 41.921 7.53553 40.5257 7.53553 38.7959C7.45491 37.0661 6.06832 35.6709 4.44794 35.6709Z" fill="#C023DF"/>
<path d="M22.5707 35.6711L28.5846 20.7803C23.5461 21.1066 17.8547 21.1066 12.8162 20.7803L18.8301 35.6711H22.5707Z" fill="#C023DF"/>
<path d="M11.6795 20.7802C8.99495 20.617 5.09314 20.2008 2.49731 19.5481L15.8231 35.7526H17.6934L11.6795 20.7802Z" fill="#C023DF"/>
<path d="M23.4654 42.3371C23.4654 42.5819 23.2236 42.8267 22.9817 42.8267C22.7399 42.8267 22.49 42.5819 22.49 42.3371V36.6582H16.1536V43.5692L25.3357 47.7631V36.7398H23.4654V42.3371Z" fill="#C023DF"/>
<path d="M34.518 16.1701C26.7143 15.1829 14.5252 15.1829 6.80222 16.1701C1.92496 16.8311 1.03013 17.5654 0.868896 17.7367C1.03013 17.8999 1.92496 18.6424 6.80222 19.3033C14.6058 20.2906 26.795 20.2906 34.518 19.3033C39.3952 18.6424 40.2901 17.9081 40.4513 17.7367C40.2901 17.492 39.3952 16.7495 34.518 16.1701Z" fill="#C023DF"/>
<path d="M38.75 33.1172C37.9357 33.1172 37.2102 33.7781 37.2102 34.6838C37.2102 35.5895 37.8632 36.2504 38.75 36.2504C39.6367 36.2504 40.2978 35.5895 40.2978 34.6838C40.2978 33.7781 39.5642 33.1172 38.75 33.1172Z" fill="#C023DF"/>
<path d="M29.7212 20.7802L23.7073 35.7526H25.5776L38.9114 19.5481C36.3075 20.209 32.3251 20.5354 29.7293 20.7802H29.7212Z" fill="#C023DF"/>
<path d="M1.36056 29.0049C1.76364 29.0049 2.09416 29.3394 2.09416 29.7474C2.09416 30.1554 1.76364 30.4899 1.36056 30.4899C0.957478 30.4899 0.626953 30.1554 0.626953 29.7474C0.626953 29.3394 0.957478 29.0049 1.36056 29.0049Z" fill="#C023DF"/>
<path d="M11.5183 41.9209C11.9214 41.9209 12.2519 42.2554 12.2519 42.6634C12.2519 43.0714 11.9214 43.4059 11.5183 43.4059C11.1152 43.4059 10.7847 43.0714 10.7847 42.6634C10.7847 42.2554 11.1152 41.9209 11.5183 41.9209Z" fill="#C023DF"/>
<path d="M31.3496 37.8088C31.7527 37.8088 32.0832 38.1434 32.0832 38.5513C32.0832 38.9593 31.7527 39.2938 31.3496 39.2938C30.9465 39.2938 30.616 38.9593 30.616 38.5513C30.616 38.1434 30.9465 37.8088 31.3496 37.8088Z" fill="#C023DF"/>
<path d="M41.5073 26.459C41.9104 26.459 42.2409 26.7935 42.2409 27.2015C42.2409 27.6095 41.9104 27.944 41.5073 27.944C41.1042 27.944 40.7737 27.6095 40.7737 27.2015C40.7737 26.7935 41.1042 26.459 41.5073 26.459Z" fill="#C023DF"/>
<path d="M40.7011 8.44312C41.1042 8.44312 41.4347 8.77765 41.4347 9.18562C41.4347 9.59358 41.1042 9.92812 40.7011 9.92812C40.2981 9.92812 39.9675 9.59358 39.9675 9.18562C39.9675 8.77765 40.2981 8.44312 40.7011 8.44312Z" fill="#C023DF"/>
<path d="M31.1076 8.44312C31.5107 8.44312 31.8412 8.77765 31.8412 9.18562C31.8412 9.59358 31.5107 9.92812 31.1076 9.92812C30.7045 9.92812 30.374 9.59358 30.374 9.18562C30.374 8.77765 30.7045 8.44312 31.1076 8.44312Z" fill="#C023DF"/>
<path d="M2.0859 4.9021C2.48898 4.9021 2.8195 5.23663 2.8195 5.6446C2.8195 6.05257 2.48898 6.3871 2.0859 6.3871C1.68282 6.3871 1.35229 6.05257 1.35229 5.6446C1.35229 5.23663 1.68282 4.9021 2.0859 4.9021Z" fill="#C023DF"/>
<path d="M8.99493 5.88939H11.5101C11.752 5.88939 12.0019 5.64461 12.0019 5.39983V1.28752C12.0019 1.04273 11.76 0.789795 11.5101 0.789795H8.99493C8.75308 0.789795 8.51123 1.03458 8.51123 1.28752V5.39983C8.51123 5.64461 8.67246 5.88939 8.99493 5.88939ZM9.48668 1.77708H11.0264V4.90211H9.48668V1.77708Z" fill="#C023DF"/>
<path d="M14.0416 5.88939C14.2834 5.88939 14.5253 5.64461 14.5253 5.39983V1.28752C14.5253 1.04273 14.2834 0.789795 14.0416 0.789795C13.7997 0.789795 13.5579 1.03458 13.5579 1.28752V5.39983C13.5579 5.64461 13.7997 5.88939 14.0416 5.88939Z" fill="#C023DF"/>
<path d="M16.6372 5.88939H19.1525C19.3943 5.88939 19.6442 5.64461 19.6442 5.39983V1.28752C19.6442 1.04273 19.4024 0.789795 19.1525 0.789795H16.6372C16.3954 0.789795 16.1455 1.03458 16.1455 1.28752V5.39983C16.0649 5.64461 16.3067 5.88939 16.6372 5.88939ZM17.1209 1.77708H18.6688V4.90211H17.1209V1.77708Z" fill="#C023DF"/>
<path d="M21.6758 5.88939C21.9177 5.88939 22.1595 5.64461 22.1595 5.39983V1.28752C22.1595 1.04273 21.9177 0.789795 21.6758 0.789795C21.434 0.789795 21.1841 1.03458 21.1841 1.28752V5.39983C21.1841 5.64461 21.4259 5.88939 21.6758 5.88939Z" fill="#C023DF"/>
<path d="M24.199 5.88939H26.7223C26.9642 5.88939 27.206 5.64461 27.206 5.39983V1.28752C27.206 1.04273 26.9642 0.789795 26.7223 0.789795H24.199C23.9572 0.789795 23.7153 1.03458 23.7153 1.28752V5.39983C23.7153 5.64461 23.9572 5.88939 24.199 5.88939ZM24.7714 1.77708H26.3112V4.90211H24.7714V1.77708Z" fill="#C023DF"/>
<path d="M29.3182 5.88939C29.56 5.88939 29.8099 5.64461 29.8099 5.39983V1.28752C29.8099 1.04273 29.5681 0.789795 29.3182 0.789795C29.0683 0.789795 28.8345 1.03458 28.8345 1.28752V5.39983C28.8345 5.64461 28.9957 5.88939 29.3182 5.88939Z" fill="#C023DF"/>
<path d="M31.8414 5.88939H34.3566C34.5984 5.88939 34.8483 5.64461 34.8483 5.39983V1.28752C34.8483 1.04273 34.6065 0.789795 34.3566 0.789795H31.8414C31.5995 0.789795 31.3577 1.03458 31.3577 1.28752V5.39983C31.3577 5.64461 31.5995 5.88939 31.8414 5.88939ZM32.3251 1.77708H33.8729V4.90211H32.3251V1.77708Z" fill="#C023DF"/>
<path d="M36.9605 5.88939C37.2023 5.88939 37.4523 5.64461 37.4523 5.39983V1.28752C37.4523 1.04273 37.2104 0.789795 36.9605 0.789795C36.7106 0.789795 36.4768 1.03458 36.4768 1.28752V5.39983C36.3962 5.64461 36.638 5.88939 36.9605 5.88939Z" fill="#C023DF"/>
<path d="M5.42364 12.5554H7.94691C8.18876 12.5554 8.43061 12.3106 8.43061 12.0658V7.95353C8.43061 7.70875 8.18876 7.45581 7.94691 7.45581H5.42364C5.18179 7.45581 4.93994 7.70059 4.93994 7.95353V12.0658C4.93994 12.3106 5.18179 12.5554 5.42364 12.5554ZM5.91539 8.44309H7.45516V11.4865H5.91539V8.44309Z" fill="#C023DF"/>
<path d="M9.97046 7.94547V12.0578C9.97046 12.3026 10.2123 12.5473 10.4542 12.5473C10.696 12.5473 10.9459 12.3026 10.9459 12.0578V7.94547C10.9459 7.70069 10.7041 7.44775 10.4542 7.44775C10.2042 7.44775 9.97046 7.61094 9.97046 7.94547Z" fill="#C023DF"/>
<path d="M13.066 12.5554H15.5892C15.8311 12.5554 16.0729 12.3106 16.0729 12.0658V7.95353C16.0729 7.70875 15.8311 7.45581 15.5892 7.45581H13.066C12.8241 7.45581 12.5823 7.70059 12.5823 7.95353V12.0658C12.5823 12.3106 12.7435 12.5554 13.066 12.5554ZM13.5577 8.44309H15.0975V11.4865H13.5577V8.44309Z" fill="#C023DF"/>
<path d="M17.6128 7.94547V12.0578C17.6128 12.3026 17.8546 12.5473 18.0965 12.5473C18.3383 12.5473 18.5802 12.3026 18.5802 12.0578V7.94547C18.5802 7.70069 18.3383 7.44775 18.0965 7.44775C17.8546 7.44775 17.6128 7.61094 17.6128 7.94547Z" fill="#C023DF"/>
<path d="M20.7002 12.5554H23.2154C23.4573 12.5554 23.7072 12.3106 23.7072 12.0658V7.95353C23.7072 7.70875 23.4654 7.45581 23.2154 7.45581H20.7002C20.4584 7.45581 20.2085 7.70059 20.2085 7.95353V12.0658C20.1279 12.3106 20.3697 12.5554 20.7002 12.5554ZM21.1839 8.44309H22.7318V11.4865H21.1839V8.44309Z" fill="#C023DF"/>
<path d="M25.2551 7.94547V12.0578C25.2551 12.3026 25.497 12.5473 25.7469 12.5473C25.9968 12.5473 26.2306 12.3026 26.2306 12.0578V7.94547C26.2306 7.70069 25.9887 7.44775 25.7469 7.44775C25.505 7.44775 25.2551 7.61094 25.2551 7.94547Z" fill="#C023DF"/>
</svg>
