<svg width="56" height="59" viewBox="0 0 56 59" fill="none" xmlns="http://www.w3.org/2000/svg">
<path d="M55.4632 34.7396C54.7833 34.2482 53.5738 33.3675 52.5618 32.6048C52.6357 31.8896 52.6745 31.1646 52.6745 30.4299C52.6745 29.6952 52.6357 28.969 52.5618 28.2549C53.5738 27.491 54.7833 26.6116 55.4632 26.1201C55.7796 25.8914 55.9117 25.4839 55.7917 25.1117L55.0887 22.9416L55.073 22.8918L54.37 20.7217C54.2501 20.3495 53.9034 20.0977 53.5132 20.1001C52.6757 20.1037 51.1826 20.105 49.9185 20.0843C49.1913 18.8216 48.3344 17.6429 47.3673 16.5664C47.7394 15.3512 48.2023 13.9244 48.4641 13.1264C48.5865 12.7542 48.4544 12.3467 48.1393 12.1168L46.2995 10.7751L46.2571 10.7447L44.4174 9.40296C44.1022 9.17305 43.6744 9.17427 43.3605 9.40539C42.6855 9.90169 41.4795 10.7836 40.4445 11.5122C39.1356 10.9247 37.754 10.471 36.3178 10.1669C35.9069 8.96626 35.4476 7.54063 35.1919 6.74023C35.0731 6.368 34.7277 6.11499 34.3374 6.11499H31.6978V19.2377C31.8105 19.234 31.9244 19.2316 32.0371 19.2316C38.2 19.2316 43.1957 24.2456 43.1957 30.4311C43.1957 36.6166 38.2 41.6306 32.0371 41.6306C31.9232 41.6306 31.8105 41.6282 31.6978 41.6245V54.7472H34.3374C34.7277 54.7472 35.0731 54.4942 35.1919 54.122C35.4476 53.3216 35.9069 51.8971 36.3178 50.6953C37.754 50.3912 39.1356 49.9375 40.4445 49.35C41.4795 50.0798 42.6855 50.9605 43.3605 51.4568C43.6756 51.6879 44.1022 51.6891 44.4174 51.4592L46.2571 50.1175L46.2995 50.0871L48.1393 48.7454C48.4544 48.5155 48.5865 48.1068 48.4641 47.7358C48.2023 46.9366 47.7382 45.5098 47.3673 44.2958C48.3344 43.2193 49.1913 42.0406 49.9185 40.7779C51.1838 40.7572 52.6769 40.7584 53.5132 40.7621C53.9034 40.7633 54.2488 40.5127 54.37 40.1405L55.073 37.9704L55.0887 37.9206L55.7917 35.7505C55.9117 35.3783 55.7796 34.9708 55.4632 34.7421V34.7396Z" fill="#880000"/>
<path d="M37.9673 30.5661V29.0639H6.2986C5.96046 27.6577 4.69759 26.6091 3.19354 26.6091C1.43255 26.6091 0 28.0469 0 29.8144C0 31.5818 1.43255 33.0196 3.19354 33.0196C4.69638 33.0196 5.96046 31.9711 6.2986 30.5649H37.9673V30.5661ZM3.19354 31.5186C2.2579 31.5186 1.49678 30.7547 1.49678 29.8156C1.49678 28.8765 2.2579 28.1126 3.19354 28.1126C4.12918 28.1126 4.89029 28.8765 4.89029 29.8156C4.89029 30.7547 4.12918 31.5186 3.19354 31.5186Z" fill="#880000"/>
<path d="M25.6089 39.2708H34.3011V37.7686H24.1121V45.3261H17.3032C16.9651 43.92 15.7022 42.8714 14.1982 42.8714C12.4372 42.8714 11.0046 44.3092 11.0046 46.0767C11.0046 47.8441 12.4372 49.2819 14.1982 49.2819C15.701 49.2819 16.9651 48.2334 17.3032 46.8272H25.6089V39.2696V39.2708ZM14.1994 47.7809C13.2637 47.7809 12.5026 47.0169 12.5026 46.0779C12.5026 45.1388 13.2637 44.3749 14.1994 44.3749C15.135 44.3749 15.8961 45.1388 15.8961 46.0779C15.8961 47.0169 15.135 47.7809 14.1994 47.7809Z" fill="#880000"/>
<path d="M12.4129 38.6967H18.463V34.6314H37.9672V33.1292H16.9662V37.1944H12.4129C12.0747 35.7882 10.8118 34.7397 9.30779 34.7397C7.5468 34.7397 6.11426 36.1775 6.11426 37.9449C6.11426 39.7124 7.5468 41.1502 9.30779 41.1502C10.8106 41.1502 12.0747 40.1016 12.4129 38.6955V38.6967ZM9.30779 39.6491C8.37216 39.6491 7.61104 38.8852 7.61104 37.9461C7.61104 37.0071 8.37216 36.2432 9.30779 36.2432C10.2434 36.2432 11.0046 37.0071 11.0046 37.9461C11.0046 38.8852 10.2434 39.6491 9.30779 39.6491Z" fill="#880000"/>
<path d="M20.8422 48.9302C19.0812 48.9302 17.6487 50.368 17.6487 52.1354C17.6487 53.9029 19.0812 55.3407 20.8422 55.3407C22.3451 55.3407 23.6091 54.2921 23.9473 52.8859H30.1865V51.3837H23.9473C23.6091 49.9775 22.3463 48.929 20.8422 48.929V48.9302ZM20.8422 53.8396C19.9066 53.8396 19.1455 53.0757 19.1455 52.1366C19.1455 51.1976 19.9066 50.4337 20.8422 50.4337C21.7779 50.4337 22.539 51.1976 22.539 52.1366C22.539 53.0757 21.7779 53.8396 20.8422 53.8396Z" fill="#880000"/>
<path d="M9.30779 25.0995C10.8106 25.0995 12.0747 24.0509 12.4129 22.6447H16.9662V26.71H37.9672V25.2077H18.463V21.1425H12.4129C12.0747 19.7363 10.8118 18.6877 9.30779 18.6877C7.5468 18.6877 6.11426 20.1255 6.11426 21.893C6.11426 23.6604 7.5468 25.0982 9.30779 25.0982V25.0995ZM9.30779 20.19C10.2434 20.19 11.0046 20.9539 11.0046 21.893C11.0046 22.8321 10.2434 23.596 9.30779 23.596C8.37216 23.596 7.61104 22.8321 7.61104 21.893C7.61104 20.9539 8.37216 20.19 9.30779 20.19Z" fill="#880000"/>
<path d="M14.1994 16.9691C15.7022 16.9691 16.9663 15.9205 17.3045 14.5144H24.1133V22.0719H34.3023V20.5697H25.6101V13.0121H17.3045C16.9663 11.6059 15.7034 10.5574 14.1994 10.5574C12.4384 10.5574 11.0059 11.9952 11.0059 13.7626C11.0059 15.5301 12.4384 16.9679 14.1994 16.9679V16.9691ZM14.1994 12.0596C15.135 12.0596 15.8962 12.8236 15.8962 13.7626C15.8962 14.7017 15.135 15.4656 14.1994 15.4656C13.2638 15.4656 12.5026 14.7017 12.5026 13.7626C12.5026 12.8236 13.2638 12.0596 14.1994 12.0596Z" fill="#880000"/>
<path d="M20.8422 10.91C22.3451 10.91 23.6091 9.86146 23.9473 8.45528H30.1865V6.95301H23.9473C23.6091 5.54684 22.3463 4.49829 20.8422 4.49829C19.0812 4.49829 17.6487 5.93609 17.6487 7.70354C17.6487 9.47099 19.0812 10.9088 20.8422 10.9088V10.91ZM20.8422 6.00056C21.7779 6.00056 22.539 6.76447 22.539 7.70354C22.539 8.64261 21.7779 9.40652 20.8422 9.40652C19.9066 9.40652 19.1455 8.64261 19.1455 7.70354C19.1455 6.76447 19.9066 6.00056 20.8422 6.00056Z" fill="#880000"/>
</svg>
