<svg width="1176" height="304" viewBox="0 0 1176 304" fill="none" xmlns="http://www.w3.org/2000/svg">
<path d="M181.082 179V145.4H194.906C197.882 145.4 200.426 145.88 202.538 146.84C204.682 147.8 206.33 149.176 207.482 150.968C208.634 152.76 209.21 154.888 209.21 157.352C209.21 159.816 208.634 161.944 207.482 163.736C206.33 165.496 204.682 166.856 202.538 167.816C200.426 168.744 197.882 169.208 194.906 169.208H184.538L187.322 166.376V179H181.082ZM203.066 179L194.57 166.808H201.242L209.786 179H203.066ZM187.322 167.048L184.538 164.072H194.618C197.37 164.072 199.434 163.48 200.81 162.296C202.218 161.112 202.922 159.464 202.922 157.352C202.922 155.208 202.218 153.56 200.81 152.408C199.434 151.256 197.37 150.68 194.618 150.68H184.538L187.322 147.608V167.048ZM216.192 179V145.4H222.432V179H216.192ZM241.936 179.48C239.312 179.48 236.8 179.112 234.4 178.376C232 177.608 230.096 176.632 228.688 175.448L230.848 170.6C232.192 171.656 233.856 172.536 235.84 173.24C237.824 173.944 239.856 174.296 241.936 174.296C243.696 174.296 245.12 174.104 246.208 173.72C247.296 173.336 248.096 172.824 248.608 172.184C249.12 171.512 249.376 170.76 249.376 169.928C249.376 168.904 249.008 168.088 248.272 167.48C247.536 166.84 246.576 166.344 245.392 165.992C244.24 165.608 242.944 165.256 241.504 164.936C240.096 164.616 238.672 164.248 237.232 163.832C235.824 163.384 234.528 162.824 233.344 162.152C232.192 161.448 231.248 160.52 230.512 159.368C229.776 158.216 229.408 156.744 229.408 154.952C229.408 153.128 229.888 151.464 230.848 149.96C231.84 148.424 233.328 147.208 235.312 146.312C237.328 145.384 239.872 144.92 242.944 144.92C244.96 144.92 246.96 145.176 248.944 145.688C250.928 146.2 252.656 146.936 254.128 147.896L252.16 152.744C250.656 151.848 249.104 151.192 247.504 150.776C245.904 150.328 244.368 150.104 242.896 150.104C241.168 150.104 239.76 150.312 238.672 150.728C237.616 151.144 236.832 151.688 236.32 152.36C235.84 153.032 235.6 153.8 235.6 154.664C235.6 155.688 235.952 156.52 236.656 157.16C237.392 157.768 238.336 158.248 239.488 158.6C240.672 158.952 241.984 159.304 243.424 159.656C244.864 159.976 246.288 160.344 247.696 160.76C249.136 161.176 250.432 161.72 251.584 162.392C252.768 163.064 253.712 163.976 254.416 165.128C255.152 166.28 255.52 167.736 255.52 169.496C255.52 171.288 255.024 172.952 254.032 174.488C253.072 175.992 251.584 177.208 249.568 178.136C247.552 179.032 245.008 179.48 241.936 179.48ZM267.275 171.08L266.939 163.688L284.555 145.4H291.563L276.923 160.952L273.467 164.744L267.275 171.08ZM261.707 179V145.4H267.947V179H261.707ZM285.131 179L272.267 163.688L276.395 159.128L292.427 179H285.131ZM293.117 168.152V163.16H306.317V168.152H293.117ZM319.169 160.856H335.921V166.136H319.169V160.856ZM319.697 179H313.457V145.4H337.985V150.632H319.697V179ZM344.02 179V145.4H357.844C360.82 145.4 363.364 145.88 365.476 146.84C367.62 147.8 369.268 149.176 370.42 150.968C371.572 152.76 372.148 154.888 372.148 157.352C372.148 159.816 371.572 161.944 370.42 163.736C369.268 165.496 367.62 166.856 365.476 167.816C363.364 168.744 360.82 169.208 357.844 169.208H347.476L350.26 166.376V179H344.02ZM366.004 179L357.508 166.808H364.18L372.724 179H366.004ZM350.26 167.048L347.476 164.072H357.556C360.308 164.072 362.372 163.48 363.748 162.296C365.156 161.112 365.86 159.464 365.86 157.352C365.86 155.208 365.156 153.56 363.748 152.408C362.372 151.256 360.308 150.68 357.556 150.68H347.476L350.26 147.608V167.048ZM384.889 159.368H401.593V164.504H384.889V159.368ZM385.369 173.768H404.329V179H379.129V145.4H403.657V150.632H385.369V173.768ZM417.045 159.368H433.749V164.504H417.045V159.368ZM417.525 173.768H436.485V179H411.285V145.4H435.813V150.632H417.525V173.768ZM456.707 179V145.4H462.947V179H456.707ZM472.035 179V145.4H477.171L498.243 171.272H495.699V145.4H501.891V179H496.755L475.683 153.128H478.227V179H472.035ZM510.895 179V145.4H516.031L537.103 171.272H534.559V145.4H540.751V179H535.615L514.543 153.128H517.087V179H510.895ZM565.498 179.48C562.874 179.48 560.458 179.048 558.25 178.184C556.042 177.32 554.122 176.12 552.49 174.584C550.858 173.016 549.594 171.192 548.698 169.112C547.802 167 547.354 164.696 547.354 162.2C547.354 159.704 547.802 157.416 548.698 155.336C549.594 153.224 550.858 151.4 552.49 149.864C554.122 148.296 556.042 147.08 558.25 146.216C560.458 145.352 562.858 144.92 565.45 144.92C568.074 144.92 570.474 145.352 572.65 146.216C574.858 147.08 576.778 148.296 578.41 149.864C580.042 151.4 581.306 153.224 582.202 155.336C583.098 157.416 583.546 159.704 583.546 162.2C583.546 164.696 583.098 167 582.202 169.112C581.306 171.224 580.042 173.048 578.41 174.584C576.778 176.12 574.858 177.32 572.65 178.184C570.474 179.048 568.09 179.48 565.498 179.48ZM565.45 174.008C567.146 174.008 568.714 173.72 570.154 173.144C571.594 172.568 572.842 171.752 573.898 170.696C574.954 169.608 575.77 168.36 576.346 166.952C576.954 165.512 577.258 163.928 577.258 162.2C577.258 160.472 576.954 158.904 576.346 157.496C575.77 156.056 574.954 154.808 573.898 153.752C572.842 152.664 571.594 151.832 570.154 151.256C568.714 150.68 567.146 150.392 565.45 150.392C563.754 150.392 562.186 150.68 560.746 151.256C559.338 151.832 558.09 152.664 557.002 153.752C555.946 154.808 555.114 156.056 554.506 157.496C553.93 158.904 553.642 160.472 553.642 162.2C553.642 163.896 553.93 165.464 554.506 166.904C555.114 168.344 555.946 169.608 557.002 170.696C558.058 171.752 559.306 172.568 560.746 173.144C562.186 173.72 563.754 174.008 565.45 174.008ZM599.065 179L584.377 145.4H591.145L604.249 175.784H600.361L613.609 145.4H619.849L605.209 179H599.065ZM617.565 179L632.685 145.4H638.829L653.997 179H647.469L634.461 148.712H636.957L623.997 179H617.565ZM624.525 171.224L626.205 166.328H644.349L646.029 171.224H624.525ZM663.398 179V150.68H652.262V145.4H680.774V150.68H669.638V179H663.398ZM685.457 179V145.4H691.697V179H685.457ZM716.529 179.48C713.905 179.48 711.489 179.048 709.281 178.184C707.073 177.32 705.153 176.12 703.521 174.584C701.889 173.016 700.625 171.192 699.729 169.112C698.833 167 698.385 164.696 698.385 162.2C698.385 159.704 698.833 157.416 699.729 155.336C700.625 153.224 701.889 151.4 703.521 149.864C705.153 148.296 707.073 147.08 709.281 146.216C711.489 145.352 713.889 144.92 716.481 144.92C719.105 144.92 721.505 145.352 723.681 146.216C725.889 147.08 727.809 148.296 729.441 149.864C731.073 151.4 732.337 153.224 733.233 155.336C734.129 157.416 734.577 159.704 734.577 162.2C734.577 164.696 734.129 167 733.233 169.112C732.337 171.224 731.073 173.048 729.441 174.584C727.809 176.12 725.889 177.32 723.681 178.184C721.505 179.048 719.121 179.48 716.529 179.48ZM716.481 174.008C718.177 174.008 719.745 173.72 721.185 173.144C722.625 172.568 723.873 171.752 724.929 170.696C725.985 169.608 726.801 168.36 727.377 166.952C727.985 165.512 728.289 163.928 728.289 162.2C728.289 160.472 727.985 158.904 727.377 157.496C726.801 156.056 725.985 154.808 724.929 153.752C723.873 152.664 722.625 151.832 721.185 151.256C719.745 150.68 718.177 150.392 716.481 150.392C714.785 150.392 713.217 150.68 711.777 151.256C710.369 151.832 709.121 152.664 708.033 153.752C706.977 154.808 706.145 156.056 705.537 157.496C704.961 158.904 704.673 160.472 704.673 162.2C704.673 163.896 704.961 165.464 705.537 166.904C706.145 168.344 706.977 169.608 708.033 170.696C709.089 171.752 710.337 172.568 711.777 173.144C713.217 173.72 714.785 174.008 716.481 174.008ZM741.192 179V145.4H746.328L767.4 171.272H764.856V145.4H771.048V179H765.912L744.84 153.128H747.384V179H741.192ZM799.029 160.856H815.781V166.136H799.029V160.856ZM799.557 179H793.317V145.4H817.845V150.632H799.557V179ZM839.248 179.48C836.624 179.48 834.208 179.048 832 178.184C829.792 177.32 827.872 176.12 826.24 174.584C824.608 173.016 823.344 171.192 822.448 169.112C821.552 167 821.104 164.696 821.104 162.2C821.104 159.704 821.552 157.416 822.448 155.336C823.344 153.224 824.608 151.4 826.24 149.864C827.872 148.296 829.792 147.08 832 146.216C834.208 145.352 836.608 144.92 839.2 144.92C841.824 144.92 844.224 145.352 846.4 146.216C848.608 147.08 850.528 148.296 852.16 149.864C853.792 151.4 855.056 153.224 855.952 155.336C856.848 157.416 857.296 159.704 857.296 162.2C857.296 164.696 856.848 167 855.952 169.112C855.056 171.224 853.792 173.048 852.16 174.584C850.528 176.12 848.608 177.32 846.4 178.184C844.224 179.048 841.84 179.48 839.248 179.48ZM839.2 174.008C840.896 174.008 842.464 173.72 843.904 173.144C845.344 172.568 846.592 171.752 847.648 170.696C848.704 169.608 849.52 168.36 850.096 166.952C850.704 165.512 851.008 163.928 851.008 162.2C851.008 160.472 850.704 158.904 850.096 157.496C849.52 156.056 848.704 154.808 847.648 153.752C846.592 152.664 845.344 151.832 843.904 151.256C842.464 150.68 840.896 150.392 839.2 150.392C837.504 150.392 835.936 150.68 834.496 151.256C833.088 151.832 831.84 152.664 830.752 153.752C829.696 154.808 828.864 156.056 828.256 157.496C827.68 158.904 827.392 160.472 827.392 162.2C827.392 163.896 827.68 165.464 828.256 166.904C828.864 168.344 829.696 169.608 830.752 170.696C831.808 171.752 833.056 172.568 834.496 173.144C835.936 173.72 837.504 174.008 839.2 174.008ZM863.91 179V145.4H877.734C880.71 145.4 883.254 145.88 885.366 146.84C887.51 147.8 889.158 149.176 890.31 150.968C891.462 152.76 892.038 154.888 892.038 157.352C892.038 159.816 891.462 161.944 890.31 163.736C889.158 165.496 887.51 166.856 885.366 167.816C883.254 168.744 880.71 169.208 877.734 169.208H867.366L870.15 166.376V179H863.91ZM885.894 179L877.398 166.808H884.07L892.614 179H885.894ZM870.15 167.048L867.366 164.072H877.446C880.198 164.072 882.262 163.48 883.638 162.296C885.046 161.112 885.75 159.464 885.75 157.352C885.75 155.208 885.046 153.56 883.638 152.408C882.262 151.256 880.198 150.68 877.446 150.68H867.366L870.15 147.608V167.048ZM922.701 179.48C920.077 179.48 917.565 179.112 915.165 178.376C912.765 177.608 910.861 176.632 909.453 175.448L911.613 170.6C912.957 171.656 914.621 172.536 916.605 173.24C918.589 173.944 920.621 174.296 922.701 174.296C924.461 174.296 925.885 174.104 926.973 173.72C928.061 173.336 928.861 172.824 929.373 172.184C929.885 171.512 930.141 170.76 930.141 169.928C930.141 168.904 929.773 168.088 929.037 167.48C928.301 166.84 927.341 166.344 926.157 165.992C925.005 165.608 923.709 165.256 922.269 164.936C920.861 164.616 919.437 164.248 917.997 163.832C916.589 163.384 915.293 162.824 914.109 162.152C912.957 161.448 912.013 160.52 911.277 159.368C910.541 158.216 910.173 156.744 910.173 154.952C910.173 153.128 910.653 151.464 911.613 149.96C912.605 148.424 914.093 147.208 916.077 146.312C918.093 145.384 920.637 144.92 923.709 144.92C925.725 144.92 927.725 145.176 929.709 145.688C931.693 146.2 933.421 146.936 934.893 147.896L932.925 152.744C931.421 151.848 929.869 151.192 928.269 150.776C926.669 150.328 925.133 150.104 923.661 150.104C921.933 150.104 920.525 150.312 919.437 150.728C918.381 151.144 917.597 151.688 917.085 152.36C916.605 153.032 916.365 153.8 916.365 154.664C916.365 155.688 916.717 156.52 917.421 157.16C918.157 157.768 919.101 158.248 920.253 158.6C921.437 158.952 922.749 159.304 924.189 159.656C925.629 159.976 927.053 160.344 928.461 160.76C929.901 161.176 931.197 161.72 932.349 162.392C933.533 163.064 934.477 163.976 935.181 165.128C935.917 166.28 936.285 167.736 936.285 169.496C936.285 171.288 935.789 172.952 934.797 174.488C933.837 175.992 932.349 177.208 930.333 178.136C928.317 179.032 925.773 179.48 922.701 179.48ZM948.82 179V150.68H937.684V145.4H966.196V150.68H955.06V179H948.82ZM964.44 179L979.56 145.4H985.704L1000.87 179H994.344L981.336 148.712H983.832L970.872 179H964.44ZM971.4 171.224L973.08 166.328H991.224L992.904 171.224H971.4ZM1005.14 179V145.4H1018.97C1021.94 145.4 1024.49 145.88 1026.6 146.84C1028.74 147.8 1030.39 149.176 1031.54 150.968C1032.7 152.76 1033.27 154.888 1033.27 157.352C1033.27 159.816 1032.7 161.944 1031.54 163.736C1030.39 165.496 1028.74 166.856 1026.6 167.816C1024.49 168.744 1021.94 169.208 1018.97 169.208H1008.6L1011.38 166.376V179H1005.14ZM1027.13 179L1018.63 166.808H1025.3L1033.85 179H1027.13ZM1011.38 167.048L1008.6 164.072H1018.68C1021.43 164.072 1023.5 163.48 1024.87 162.296C1026.28 161.112 1026.98 159.464 1026.98 157.352C1026.98 155.208 1026.28 153.56 1024.87 152.408C1023.5 151.256 1021.43 150.68 1018.68 150.68H1008.6L1011.38 147.608V167.048ZM1046.6 179V150.68H1035.47V145.4H1063.98V150.68H1052.84V179H1046.6ZM1082.5 179.48C1077.89 179.48 1074.28 178.184 1071.65 175.592C1069.06 173 1067.76 169.256 1067.76 164.36V145.4H1074V164.12C1074 167.576 1074.74 170.088 1076.21 171.656C1077.72 173.224 1079.83 174.008 1082.55 174.008C1085.27 174.008 1087.36 173.224 1088.84 171.656C1090.31 170.088 1091.04 167.576 1091.04 164.12V145.4H1097.19V164.36C1097.19 169.256 1095.88 173 1093.25 175.592C1090.66 178.184 1087.08 179.48 1082.5 179.48ZM1105.93 179V145.4H1119.75C1122.73 145.4 1125.27 145.88 1127.38 146.84C1129.53 147.8 1131.17 149.176 1132.33 150.968C1133.48 152.76 1134.05 154.888 1134.05 157.352C1134.05 159.816 1133.48 161.944 1132.33 163.736C1131.17 165.528 1129.53 166.904 1127.38 167.864C1125.27 168.824 1122.73 169.304 1119.75 169.304H1109.38L1112.17 166.376V179H1105.93ZM1112.17 167.048L1109.38 164.024H1119.46C1122.21 164.024 1124.28 163.448 1125.65 162.296C1127.06 161.112 1127.77 159.464 1127.77 157.352C1127.77 155.208 1127.06 153.56 1125.65 152.408C1124.28 151.256 1122.21 150.68 1119.46 150.68H1109.38L1112.17 147.608V167.048ZM1151.17 179.48C1148.55 179.48 1146.03 179.112 1143.63 178.376C1141.23 177.608 1139.33 176.632 1137.92 175.448L1140.08 170.6C1141.43 171.656 1143.09 172.536 1145.07 173.24C1147.06 173.944 1149.09 174.296 1151.17 174.296C1152.93 174.296 1154.35 174.104 1155.44 173.72C1156.53 173.336 1157.33 172.824 1157.84 172.184C1158.35 171.512 1158.61 170.76 1158.61 169.928C1158.61 168.904 1158.24 168.088 1157.51 167.48C1156.77 166.84 1155.81 166.344 1154.63 165.992C1153.47 165.608 1152.18 165.256 1150.74 164.936C1149.33 164.616 1147.91 164.248 1146.47 163.832C1145.06 163.384 1143.76 162.824 1142.58 162.152C1141.43 161.448 1140.48 160.52 1139.75 159.368C1139.01 158.216 1138.64 156.744 1138.64 154.952C1138.64 153.128 1139.12 151.464 1140.08 149.96C1141.07 148.424 1142.56 147.208 1144.55 146.312C1146.56 145.384 1149.11 144.92 1152.18 144.92C1154.19 144.92 1156.19 145.176 1158.18 145.688C1160.16 146.2 1161.89 146.936 1163.36 147.896L1161.39 152.744C1159.89 151.848 1158.34 151.192 1156.74 150.776C1155.14 150.328 1153.6 150.104 1152.13 150.104C1150.4 150.104 1148.99 150.312 1147.91 150.728C1146.85 151.144 1146.07 151.688 1145.55 152.36C1145.07 153.032 1144.83 153.8 1144.83 154.664C1144.83 155.688 1145.19 156.52 1145.89 157.16C1146.63 157.768 1147.57 158.248 1148.72 158.6C1149.91 158.952 1151.22 159.304 1152.66 159.656C1154.1 159.976 1155.52 160.344 1156.93 160.76C1158.37 161.176 1159.67 161.72 1160.82 162.392C1162 163.064 1162.95 163.976 1163.65 165.128C1164.39 166.28 1164.75 167.736 1164.75 169.496C1164.75 171.288 1164.26 172.952 1163.27 174.488C1162.31 175.992 1160.82 177.208 1158.8 178.136C1156.79 179.032 1154.24 179.48 1151.17 179.48Z" fill="#EE3248"/>
<path d="M25.2762 153.13C52.6634 58.9825 498.446 9.3243 533.659 83.7599C589.15 201.066 189.617 274.662 124.378 246.326C121.962 245.277 121.714 242.438 123.595 242.658C288.102 261.923 560.478 169.382 518.147 87.0732C476.636 26.3505 19.2763 74.2549 37.0353 166.274C48.7282 226.861 261.08 240.924 402.044 191.872C406.534 191.696 403.824 195.698 399.223 197.406C248.046 249.913 8.20464 241.02 25.2762 153.13Z" fill="#FEFEFE"/>
<path d="M14.2494 163.551C40.3571 67.3336 491.325 9.78471 528.323 84.9605C586.626 203.433 182.955 284.607 116.333 256.807C113.866 255.777 121.856 252.893 123.766 253.087C290.847 270.095 565.3 171.649 520.95 88.5759C477.81 27.4509 6.78413 83.398 26.3989 176.738C39.3136 238.196 254.798 249.156 396.816 197.029C401.364 196.778 398.687 200.893 394.054 202.703C241.744 258.507 -1.51215 253.239 14.2494 163.551Z" fill="#6F00FF"/>
</svg>
