<svg width="120" height="97" viewBox="0 0 120 97" fill="none" xmlns="http://www.w3.org/2000/svg">
<path d="M67.5 14.2988C67.5 12.3097 66.7098 10.4021 65.3033 8.99553C63.8968 7.589 61.9891 6.79883 60 6.79883C58.0109 6.79883 56.1032 7.589 54.6967 8.99553C53.2902 10.4021 52.5 12.3097 52.5 14.2988C52.5 16.288 53.2902 18.1956 54.6967 19.6021C56.1032 21.0087 58.0109 21.7988 60 21.7988C61.9891 21.7988 63.8968 21.0087 65.3033 19.6021C66.7098 18.1956 67.5 16.288 67.5 14.2988ZM27 39.7988C28.9891 39.7988 30.8968 39.0087 32.3033 37.6021C33.7098 36.1956 34.5 34.288 34.5 32.2988C34.5 30.3097 33.7098 28.4021 32.3033 26.9955C30.8968 25.589 28.9891 24.7988 27 24.7988C25.0109 24.7988 23.1032 25.589 21.6967 26.9955C20.2902 28.4021 19.5 30.3097 19.5 32.2988C19.5 34.288 20.2902 36.1956 21.6967 37.6021C23.1032 39.0087 25.0109 39.7988 27 39.7988ZM6 78.7988C2.68125 78.7988 0 81.4801 0 84.7988C0 88.1176 2.68125 90.7988 6 90.7988H114C117.319 90.7988 120 88.1176 120 84.7988C120 81.4801 117.319 78.7988 114 78.7988H6ZM93 39.7988C94.9891 39.7988 96.8968 39.0087 98.3033 37.6021C99.7098 36.1956 100.5 34.288 100.5 32.2988C100.5 30.3097 99.7098 28.4021 98.3033 26.9955C96.8968 25.589 94.9891 24.7988 93 24.7988C91.0109 24.7988 89.1032 25.589 87.6967 26.9955C86.2902 28.4021 85.5 30.3097 85.5 32.2988C85.5 34.288 86.2902 36.1956 87.6967 37.6021C89.1032 39.0087 91.0109 39.7988 93 39.7988ZM37.5 59.5801L42.5437 68.9363C43.725 71.1301 46.4437 71.9363 48.6375 70.7738C50.8312 69.6113 51.6375 66.8738 50.475 64.6801L43.6687 52.0238C43.9875 51.7051 44.2687 51.3488 44.475 50.9363L49.5 41.5801V51.7988C49.5 55.1176 52.1813 57.7988 55.5 57.7988H64.5C67.8187 57.7988 70.5 55.1176 70.5 51.7988V41.5801L75.5437 50.9363C75.7687 51.3488 76.0312 51.7051 76.35 52.0238L69.5437 64.6801C68.3625 66.8738 69.1875 69.5926 71.3813 70.7738C73.575 71.9551 76.2938 71.1301 77.475 68.9363L82.5 59.5801V66.7988C82.5 70.1176 85.1813 72.7988 88.5 72.7988H97.5C100.819 72.7988 103.5 70.1176 103.5 66.7988V59.5801L108.544 68.9363C109.725 71.1301 112.444 71.9363 114.638 70.7738C116.831 69.6113 117.638 66.8738 116.475 64.6801L109.369 51.4988C106.5 46.1551 100.912 42.8176 94.8375 42.8176H91.1625C88.1063 42.8176 85.1812 43.6613 82.65 45.1801L76.35 33.4988C73.4813 28.1551 67.8938 24.8176 61.8188 24.8176H58.1625C52.0875 24.8176 46.5187 28.1551 43.6312 33.4988L37.3313 45.1801C34.8 43.6613 31.875 42.8176 28.8187 42.8176H25.1625C19.0875 42.8176 13.5188 46.1551 10.6313 51.4988L3.54375 64.6613C2.3625 66.8551 3.1875 69.5738 5.38125 70.7551C7.575 71.9363 10.2937 71.1113 11.475 68.9176L16.5 59.5801V66.7988C16.5 70.1176 19.1812 72.7988 22.5 72.7988H31.5C34.8187 72.7988 37.5 70.1176 37.5 66.7988V59.5801Z" fill="white"/>
</svg>
