<svg width="1057" height="216" viewBox="0 0 1057 216" fill="none" xmlns="http://www.w3.org/2000/svg">
<mask id="path-1-outside-1_1555_2706" maskUnits="userSpaceOnUse" x="-1" y="-1" width="1251" height="218" fill="black">
<rect fill="white" x="-1" y="-1" width="1251" height="218"/>
<path d="M77.9844 215.1C63.3844 215.1 50.1844 212.6 38.3844 207.6C26.7844 202.6 17.5844 195.4 10.7844 186C3.98438 176.6 0.484375 165.5 0.284376 152.7H45.2844C45.8844 161.3 48.8844 168.1 54.2844 173.1C59.8844 178.1 67.4844 180.6 77.0844 180.6C86.8844 180.6 94.5844 178.3 100.184 173.7C105.784 168.9 108.584 162.7 108.584 155.1C108.584 148.9 106.684 143.8 102.884 139.8C99.0844 135.8 94.2844 132.7 88.4844 130.5C82.8844 128.1 75.0844 125.5 65.0844 122.7C51.4844 118.7 40.3844 114.8 31.7844 111C23.3844 107 16.0844 101.1 9.88438 93.3C3.88438 85.3 0.884376 74.7 0.884376 61.5C0.884376 49.1 3.98438 38.3 10.1844 29.1C16.3844 19.9 25.0844 12.9 36.2844 8.09999C47.4844 3.1 60.2844 0.599999 74.6844 0.599999C96.2844 0.599999 113.784 5.9 127.184 16.5C140.784 26.9 148.284 41.5 149.684 60.3H103.484C103.084 53.1 99.9844 47.2 94.1844 42.6C88.5844 37.8 81.0844 35.4 71.6844 35.4C63.4844 35.4 56.8844 37.5 51.8844 41.7C47.0844 45.9 44.6844 52 44.6844 60C44.6844 65.6 46.4844 70.3 50.0844 74.1C53.8844 77.7 58.4844 80.7 63.8844 83.1C69.4844 85.3 77.2844 87.9 87.2844 90.9C100.884 94.9 111.984 98.9 120.584 102.9C129.184 106.9 136.584 112.9 142.784 120.9C148.984 128.9 152.084 139.4 152.084 152.4C152.084 163.6 149.184 174 143.384 183.6C137.584 193.2 129.084 200.9 117.884 206.7C106.684 212.3 93.3844 215.1 77.9844 215.1ZM330.497 3.6V37.5H274.697V213H232.697V37.5H176.897V3.6H330.497ZM402.041 3.6V133.2C402.041 147.4 405.741 158.3 413.141 165.9C420.541 173.3 430.941 177 444.341 177C457.941 177 468.441 173.3 475.841 165.9C483.241 158.3 486.941 147.4 486.941 133.2V3.6H529.241V132.9C529.241 150.7 525.341 165.8 517.541 178.2C509.941 190.4 499.641 199.6 486.641 205.8C473.841 212 459.541 215.1 443.741 215.1C428.141 215.1 413.941 212 401.141 205.8C388.541 199.6 378.541 190.4 371.141 178.2C363.741 165.8 360.041 150.7 360.041 132.9V3.6H402.041ZM642.521 3.6C664.521 3.6 683.821 7.89999 700.421 16.5C717.221 25.1 730.121 37.4 739.121 53.4C748.321 69.2 752.921 87.6 752.921 108.6C752.921 129.6 748.321 148 739.121 163.8C730.121 179.4 717.221 191.5 700.421 200.1C683.821 208.7 664.521 213 642.521 213H569.321V3.6H642.521ZM641.021 177.3C663.021 177.3 680.021 171.3 692.021 159.3C704.021 147.3 710.021 130.4 710.021 108.6C710.021 86.8 704.021 69.8 692.021 57.6C680.021 45.2 663.021 39 641.021 39H611.321V177.3H641.021ZM825.86 3.6V213H783.86V3.6H825.86ZM964.056 215.1C944.456 215.1 926.456 210.5 910.056 201.3C893.656 192.1 880.656 179.4 871.056 163.2C861.456 146.8 856.656 128.3 856.656 107.7C856.656 87.3 861.456 69 871.056 52.8C880.656 36.4 893.656 23.6 910.056 14.4C926.456 5.19999 944.456 0.599999 964.056 0.599999C983.856 0.599999 1001.86 5.19999 1018.06 14.4C1034.46 23.6 1047.36 36.4 1056.76 52.8C1066.36 69 1071.16 87.3 1071.16 107.7C1071.16 128.3 1066.36 146.8 1056.76 163.2C1047.36 179.4 1034.46 192.1 1018.06 201.3C1001.66 210.5 983.656 215.1 964.056 215.1ZM964.056 177.6C976.656 177.6 987.756 174.8 997.356 169.2C1006.96 163.4 1014.46 155.2 1019.86 144.6C1025.26 134 1027.96 121.7 1027.96 107.7C1027.96 93.7 1025.26 81.5 1019.86 71.1C1014.46 60.5 1006.96 52.4 997.356 46.8C987.756 41.2 976.656 38.4 964.056 38.4C951.456 38.4 940.256 41.2 930.456 46.8C920.856 52.4 913.356 60.5 907.956 71.1C902.556 81.5 899.856 93.7 899.856 107.7C899.856 121.7 902.556 134 907.956 144.6C913.356 155.2 920.856 163.4 930.456 169.2C940.256 174.8 951.456 177.6 964.056 177.6ZM1174.2 215.1C1159.6 215.1 1146.4 212.6 1134.6 207.6C1123 202.6 1113.8 195.4 1107 186C1100.2 176.6 1096.7 165.5 1096.5 152.7H1141.5C1142.1 161.3 1145.1 168.1 1150.5 173.1C1156.1 178.1 1163.7 180.6 1173.3 180.6C1183.1 180.6 1190.8 178.3 1196.4 173.7C1202 168.9 1204.8 162.7 1204.8 155.1C1204.8 148.9 1202.9 143.8 1199.1 139.8C1195.3 135.8 1190.5 132.7 1184.7 130.5C1179.1 128.1 1171.3 125.5 1161.3 122.7C1147.7 118.7 1136.6 114.8 1128 111C1119.6 107 1112.3 101.1 1106.1 93.3C1100.1 85.3 1097.1 74.7 1097.1 61.5C1097.1 49.1 1100.2 38.3 1106.4 29.1C1112.6 19.9 1121.3 12.9 1132.5 8.09999C1143.7 3.1 1156.5 0.599999 1170.9 0.599999C1192.5 0.599999 1210 5.9 1223.4 16.5C1237 26.9 1244.5 41.5 1245.9 60.3H1199.7C1199.3 53.1 1196.2 47.2 1190.4 42.6C1184.8 37.8 1177.3 35.4 1167.9 35.4C1159.7 35.4 1153.1 37.5 1148.1 41.7C1143.3 45.9 1140.9 52 1140.9 60C1140.9 65.6 1142.7 70.3 1146.3 74.1C1150.1 77.7 1154.7 80.7 1160.1 83.1C1165.7 85.3 1173.5 87.9 1183.5 90.9C1197.1 94.9 1208.2 98.9 1216.8 102.9C1225.4 106.9 1232.8 112.9 1239 120.9C1245.2 128.9 1248.3 139.4 1248.3 152.4C1248.3 163.6 1245.4 174 1239.6 183.6C1233.8 193.2 1225.3 200.9 1214.1 206.7C1202.9 212.3 1189.6 215.1 1174.2 215.1Z"/>
</mask>
<path d="M38.3844 207.6L37.9885 208.518L37.9942 208.521L38.3844 207.6ZM10.7844 186L9.97415 186.586L10.7844 186ZM0.284378 152.7V151.7H-0.731369L-0.7155 152.716L0.284378 152.7ZM45.2844 152.7L46.282 152.63L46.217 151.7H45.2844V152.7ZM54.2844 173.1L53.605 173.834L53.6116 173.84L53.6184 173.846L54.2844 173.1ZM100.184 173.7L100.819 174.473L100.827 174.466L100.835 174.459L100.184 173.7ZM102.884 139.8L102.159 140.489L102.884 139.8ZM88.4844 130.5L88.0905 131.419L88.1099 131.427L88.1297 131.435L88.4844 130.5ZM65.0844 122.7L64.8022 123.659L64.8147 123.663L65.0844 122.7ZM31.7844 111L31.3544 111.903L31.3672 111.909L31.3802 111.915L31.7844 111ZM9.88438 93.3L9.08437 93.9L9.09281 93.9112L9.10155 93.9222L9.88438 93.3ZM10.1844 29.1L11.0136 29.6588L10.1844 29.1ZM36.2844 8.09999L36.6783 9.01914L36.6852 9.01619L36.692 9.01313L36.2844 8.09999ZM127.184 16.5L126.564 17.2843L126.57 17.2894L126.577 17.2943L127.184 16.5ZM149.684 60.3V61.3H150.762L150.682 60.2257L149.684 60.3ZM103.484 60.3L102.486 60.3555L102.538 61.3H103.484V60.3ZM94.1844 42.6L93.5336 43.3593L93.5481 43.3717L93.563 43.3835L94.1844 42.6ZM51.8844 41.7L51.2412 40.9343L51.2335 40.9408L51.2259 40.9474L51.8844 41.7ZM50.0844 74.1L49.3584 74.7877L49.377 74.8074L49.3966 74.8259L50.0844 74.1ZM63.8844 83.1L63.4782 84.0138L63.4983 84.0227L63.5187 84.0307L63.8844 83.1ZM87.2844 90.9L86.997 91.8578L87.0022 91.8594L87.2844 90.9ZM142.784 120.9L141.994 121.513L142.784 120.9ZM143.384 183.6L142.528 183.083L143.384 183.6ZM117.884 206.7L118.332 207.594L118.338 207.591L118.344 207.588L117.884 206.7ZM77.9844 214.1C63.4998 214.1 50.4351 211.62 38.7745 206.679L37.9942 208.521C49.9337 213.58 63.2689 216.1 77.9844 216.1V214.1ZM38.7802 206.682C27.3306 201.746 18.2796 194.655 11.5946 185.414L9.97415 186.586C16.8891 196.145 26.2382 203.454 37.9885 208.518L38.7802 206.682ZM11.5946 185.414C4.92722 176.197 1.48139 165.301 1.28426 152.684L-0.7155 152.716C-0.512642 165.699 3.04153 177.003 9.97415 186.586L11.5946 185.414ZM0.284378 153.7H45.2844V151.7H0.284378V153.7ZM44.2868 152.77C44.9013 161.577 47.9867 168.632 53.605 173.834L54.9638 172.366C49.7821 167.568 46.8675 161.023 46.282 152.63L44.2868 152.77ZM53.6184 173.846C59.4482 179.051 67.3093 181.6 77.0844 181.6V179.6C67.6595 179.6 60.3205 177.149 54.9504 172.354L53.6184 173.846ZM77.0844 181.6C87.0344 181.6 94.986 179.264 100.819 174.473L99.5496 172.927C94.1827 177.336 86.7344 179.6 77.0844 179.6V181.6ZM100.835 174.459C106.664 169.463 109.584 162.982 109.584 155.1H107.584C107.584 162.418 104.904 168.337 99.5336 172.941L100.835 174.459ZM109.584 155.1C109.584 148.678 107.608 143.321 103.609 139.111L102.159 140.489C105.76 144.279 107.584 149.122 107.584 155.1H109.584ZM103.609 139.111C99.6938 134.99 94.7618 131.812 88.839 129.565L88.1297 131.435C93.8069 133.588 98.475 136.61 102.159 140.489L103.609 139.111ZM88.8783 129.581C83.2195 127.156 75.3713 124.542 65.354 121.737L64.8147 123.663C74.7974 126.458 82.5493 129.044 88.0905 131.419L88.8783 129.581ZM65.3665 121.741C51.7895 117.747 40.7344 113.861 32.1885 110.085L31.3802 111.915C40.0343 115.739 51.1792 119.653 64.8022 123.659L65.3665 121.741ZM32.2143 110.097C23.9614 106.167 16.7793 100.367 10.6672 92.6777L9.10155 93.9222C15.3894 101.833 22.8074 107.833 31.3544 111.903L32.2143 110.097ZM10.6844 92.7C4.85026 84.9212 1.88438 74.5526 1.88438 61.5H-0.115623C-0.115623 74.8474 2.9185 85.6788 9.08437 93.9L10.6844 92.7ZM1.88438 61.5C1.88438 49.2748 4.93779 38.6746 11.0136 29.6588L9.35511 28.5411C3.03097 37.9254 -0.115623 48.9252 -0.115623 61.5H1.88438ZM11.0136 29.6588C17.0957 20.6338 25.637 13.7511 36.6783 9.01914L35.8905 7.18085C24.5318 12.0489 15.673 19.1661 9.35511 28.5411L11.0136 29.6588ZM36.692 9.01313C47.7434 4.0795 60.4007 1.6 74.6844 1.6V-0.400002C60.1681 -0.400002 47.2254 2.12049 35.8767 7.18686L36.692 9.01313ZM74.6844 1.6C96.1198 1.6 113.383 6.85742 126.564 17.2843L127.805 15.7157C114.186 4.94257 96.449 -0.400002 74.6844 -0.400002V1.6ZM126.577 17.2943C139.926 27.5022 147.306 41.8267 148.687 60.3743L150.682 60.2257C149.263 41.1733 141.643 26.2977 127.792 15.7056L126.577 17.2943ZM149.684 59.3H103.484V61.3H149.684V59.3ZM104.483 60.2445C104.067 52.7506 100.823 46.5887 94.8058 41.8165L93.563 43.3835C99.1458 47.8113 102.102 53.4494 102.486 60.3555L104.483 60.2445ZM94.8352 41.8407C89.0087 36.8466 81.2559 34.4 71.6844 34.4V36.4C80.9129 36.4 88.1601 38.7534 93.5336 43.3593L94.8352 41.8407ZM71.6844 34.4C63.311 34.4 56.4636 36.5474 51.2412 40.9343L52.5276 42.4657C57.3051 38.4526 63.6578 36.4 71.6844 36.4V34.4ZM51.2259 40.9474C46.1557 45.3838 43.6844 51.7907 43.6844 60H45.6844C45.6844 52.2093 48.013 46.4162 52.5429 42.4526L51.2259 40.9474ZM43.6844 60C43.6844 65.8362 45.5694 70.7882 49.3584 74.7877L50.8103 73.4122C47.3994 69.8118 45.6844 65.3637 45.6844 60H43.6844ZM49.3966 74.8259C53.289 78.5135 57.9876 81.5735 63.4782 84.0138L64.2905 82.1862C58.9811 79.8265 54.4797 76.8865 50.7721 73.374L49.3966 74.8259ZM63.5187 84.0307C69.1564 86.2456 76.9867 88.8547 86.997 91.8578L87.5717 89.9422C77.582 86.9453 69.8123 84.3544 64.25 82.1692L63.5187 84.0307ZM87.0022 91.8594C100.575 95.8515 111.624 99.8352 120.163 103.807L121.006 101.993C112.345 97.9647 101.193 93.9485 87.5665 89.9406L87.0022 91.8594ZM120.163 103.807C128.608 107.735 135.885 113.63 141.994 121.513L143.575 120.287C137.284 112.17 129.76 106.065 121.006 101.993L120.163 103.807ZM141.994 121.513C148.024 129.293 151.084 139.558 151.084 152.4H153.084C153.084 139.242 149.945 128.507 143.575 120.287L141.994 121.513ZM151.084 152.4C151.084 163.417 148.234 173.639 142.528 183.083L144.24 184.117C150.134 174.361 153.084 163.783 153.084 152.4H151.084ZM142.528 183.083C136.835 192.506 128.482 200.086 117.425 205.812L118.344 207.588C129.687 201.714 138.333 193.894 144.24 184.117L142.528 183.083ZM117.437 205.806C106.404 211.322 93.2642 214.1 77.9844 214.1V216.1C93.5046 216.1 106.964 213.278 118.332 207.594L117.437 205.806ZM330.497 3.59999H331.497V2.59999H330.497V3.59999ZM330.497 37.5V38.5H331.497V37.5H330.497ZM274.697 37.5V36.5H273.697V37.5H274.697ZM274.697 213V214H275.697V213H274.697ZM232.697 213H231.697V214H232.697V213ZM232.697 37.5H233.697V36.5H232.697V37.5ZM176.897 37.5H175.897V38.5H176.897V37.5ZM176.897 3.59999V2.59999H175.897V3.59999H176.897ZM329.497 3.59999V37.5H331.497V3.59999H329.497ZM330.497 36.5H274.697V38.5H330.497V36.5ZM273.697 37.5V213H275.697V37.5H273.697ZM274.697 212H232.697V214H274.697V212ZM233.697 213V37.5H231.697V213H233.697ZM232.697 36.5H176.897V38.5H232.697V36.5ZM177.897 37.5V3.59999H175.897V37.5H177.897ZM176.897 4.59999H330.497V2.59999H176.897V4.59999ZM402.041 3.59999H403.041V2.59999H402.041V3.59999ZM413.141 165.9L412.425 166.598L412.434 166.607L413.141 165.9ZM475.841 165.9L476.549 166.607L476.558 166.598L475.841 165.9ZM486.941 3.59999V2.59999H485.941V3.59999H486.941ZM529.241 3.59999H530.241V2.59999H529.241V3.59999ZM517.541 178.2L516.695 177.668L516.693 177.671L517.541 178.2ZM486.641 205.8L486.211 204.897L486.206 204.9L486.641 205.8ZM401.141 205.8L400.7 206.697L400.706 206.7L401.141 205.8ZM371.141 178.2L370.283 178.712L370.286 178.719L371.141 178.2ZM360.041 3.59999V2.59999H359.041V3.59999H360.041ZM401.041 3.59999V133.2H403.041V3.59999H401.041ZM401.041 133.2C401.041 147.57 404.788 158.755 412.425 166.598L413.858 165.202C406.694 157.845 403.041 147.23 403.041 133.2H401.041ZM412.434 166.607C420.071 174.243 430.754 178 444.341 178V176C431.129 176 421.012 172.357 413.849 165.193L412.434 166.607ZM444.341 178C458.124 178 468.91 174.246 476.549 166.607L475.134 165.193C467.973 172.354 457.759 176 444.341 176V178ZM476.558 166.598C484.194 158.755 487.941 147.57 487.941 133.2H485.941C485.941 147.23 482.288 157.845 475.125 165.202L476.558 166.598ZM487.941 133.2V3.59999H485.941V133.2H487.941ZM486.941 4.59999H529.241V2.59999H486.941V4.59999ZM528.241 3.59999V132.9H530.241V3.59999H528.241ZM528.241 132.9C528.241 150.552 524.375 165.458 516.695 177.668L518.388 178.732C526.308 166.142 530.241 150.848 530.241 132.9H528.241ZM516.693 177.671C509.194 189.709 499.039 198.779 486.211 204.897L487.072 206.703C500.244 200.421 510.689 191.091 518.39 178.729L516.693 177.671ZM486.206 204.9C473.556 211.027 459.407 214.1 443.741 214.1V216.1C459.675 216.1 474.127 212.973 487.077 206.7L486.206 204.9ZM443.741 214.1C428.278 214.1 414.229 211.028 401.577 204.9L400.706 206.7C413.654 212.972 428.005 216.1 443.741 216.1V214.1ZM401.583 204.903C389.157 198.788 379.299 189.721 371.996 177.681L370.286 178.719C377.784 191.079 387.926 200.412 400.7 206.697L401.583 204.903ZM372 177.688C364.712 165.475 361.041 150.561 361.041 132.9H359.041C359.041 150.839 362.771 166.125 370.283 178.712L372 177.688ZM361.041 132.9V3.59999H359.041V132.9H361.041ZM360.041 4.59999H402.041V2.59999H360.041V4.59999ZM700.421 16.5L699.961 17.3879L699.965 17.3901L700.421 16.5ZM739.121 53.4L738.25 53.8903L738.253 53.8968L738.257 53.9032L739.121 53.4ZM739.121 163.8L738.257 163.297L738.255 163.3L739.121 163.8ZM700.421 200.1L699.965 199.21L699.961 199.212L700.421 200.1ZM569.321 213H568.321V214H569.321V213ZM569.321 3.59999V2.59999H568.321V3.59999H569.321ZM692.021 159.3L691.314 158.593L692.021 159.3ZM692.021 57.6L691.302 58.2954L691.308 58.3012L692.021 57.6ZM611.321 39V38H610.321V39H611.321ZM611.321 177.3H610.321V178.3H611.321V177.3ZM642.521 4.59999C664.389 4.59999 683.526 8.87354 699.961 17.3879L700.881 15.6121C684.116 6.92645 664.653 2.59999 642.521 2.59999V4.59999ZM699.965 17.3901C716.596 25.9033 729.349 38.0665 738.25 53.8903L739.993 52.9097C730.893 36.7334 717.846 24.2967 700.877 15.6098L699.965 17.3901ZM738.257 53.9032C747.355 69.5289 751.921 87.7501 751.921 108.6H753.921C753.921 87.4499 749.287 68.8711 739.985 52.8968L738.257 53.9032ZM751.921 108.6C751.921 129.45 747.355 147.671 738.257 163.297L739.985 164.303C749.287 148.329 753.921 129.75 753.921 108.6H751.921ZM738.255 163.3C729.356 178.725 716.602 190.693 699.965 199.21L700.877 200.99C717.84 192.307 730.886 180.075 739.987 164.3L738.255 163.3ZM699.961 199.212C683.526 207.726 664.389 212 642.521 212V214C664.653 214 684.116 209.674 700.881 200.988L699.961 199.212ZM642.521 212H569.321V214H642.521V212ZM570.321 213V3.59999H568.321V213H570.321ZM569.321 4.59999H642.521V2.59999H569.321V4.59999ZM641.021 178.3C663.204 178.3 680.49 172.246 692.728 160.007L691.314 158.593C679.552 170.354 662.838 176.3 641.021 176.3V178.3ZM692.728 160.007C704.965 147.77 711.021 130.586 711.021 108.6H709.021C709.021 130.214 703.077 146.83 691.314 158.593L692.728 160.007ZM711.021 108.6C711.021 86.6129 704.965 69.3333 692.734 56.8988L691.308 58.3012C703.077 70.2667 709.021 86.9871 709.021 108.6H711.021ZM692.74 56.9046C680.503 44.2599 663.213 38 641.021 38V40C662.829 40 679.539 46.1401 691.302 58.2954L692.74 56.9046ZM641.021 38H611.321V40H641.021V38ZM610.321 39V177.3H612.321V39H610.321ZM611.321 178.3H641.021V176.3H611.321V178.3ZM825.86 3.59999H826.86V2.59999H825.86V3.59999ZM825.86 213V214H826.86V213H825.86ZM783.86 213H782.86V214H783.86V213ZM783.86 3.59999V2.59999H782.86V3.59999H783.86ZM824.86 3.59999V213H826.86V3.59999H824.86ZM825.86 212H783.86V214H825.86V212ZM784.86 213V3.59999H782.86V213H784.86ZM783.86 4.59999H825.86V2.59999H783.86V4.59999ZM910.056 201.3L910.546 200.428L910.056 201.3ZM871.056 163.2L870.193 163.705L870.196 163.71L871.056 163.2ZM871.056 52.8L871.917 53.3098L871.919 53.3052L871.056 52.8ZM910.056 14.4L909.567 13.5278L910.056 14.4ZM1018.06 14.4L1017.56 15.2696L1017.57 15.2721L1018.06 14.4ZM1056.76 52.8L1055.89 53.2973L1055.89 53.3036L1055.9 53.3098L1056.76 52.8ZM1056.76 163.2L1055.89 162.695L1055.89 162.698L1056.76 163.2ZM1018.06 201.3L1017.57 200.428L1018.06 201.3ZM997.356 169.2L997.86 170.064L997.867 170.06L997.873 170.056L997.356 169.2ZM1019.86 144.6L1020.75 145.054V145.054L1019.86 144.6ZM1019.86 71.1L1018.97 71.5539L1018.97 71.5608L1019.86 71.1ZM997.356 46.8L996.852 47.6638V47.6638L997.356 46.8ZM930.456 46.8L929.96 45.9317L929.952 45.9362L930.456 46.8ZM907.956 71.1L908.844 71.5608L908.847 71.5539L907.956 71.1ZM907.956 144.6L908.847 144.146L907.956 144.6ZM930.456 169.2L929.939 170.056L929.95 170.062L929.96 170.068L930.456 169.2ZM964.056 214.1C944.62 214.1 926.79 209.54 910.546 200.428L909.567 202.172C926.123 211.46 944.292 216.1 964.056 216.1V214.1ZM910.546 200.428C894.299 191.314 881.427 178.739 871.917 162.69L870.196 163.71C879.885 180.061 893.013 192.886 909.567 202.172L910.546 200.428ZM871.919 162.695C862.416 146.461 857.656 128.138 857.656 107.7H855.656C855.656 128.462 860.496 147.139 870.193 163.705L871.919 162.695ZM857.656 107.7C857.656 87.4639 862.416 69.3427 871.917 53.3098L870.196 52.2902C860.497 68.6573 855.656 87.1361 855.656 107.7H857.656ZM871.919 53.3052C881.43 37.0568 894.302 24.3842 910.546 15.2721L909.567 13.5278C893.01 22.8157 879.882 35.7432 870.193 52.2948L871.919 53.3052ZM910.546 15.2721C926.79 6.15958 944.62 1.6 964.056 1.6V-0.400002C944.292 -0.400002 926.123 4.24041 909.567 13.5278L910.546 15.2721ZM964.056 1.6C983.694 1.6 1001.52 6.16044 1017.56 15.2695L1018.55 13.5304C1002.19 4.23955 984.018 -0.400002 964.056 -0.400002V1.6ZM1017.57 15.2721C1033.81 24.3832 1046.58 37.0533 1055.89 53.2973L1057.62 52.3027C1048.13 35.7467 1035.1 22.8168 1018.55 13.5278L1017.57 15.2721ZM1055.9 53.3098C1065.4 69.3427 1070.16 87.4639 1070.16 107.7H1072.16C1072.16 87.1361 1067.32 68.6573 1057.62 52.2902L1055.9 53.3098ZM1070.16 107.7C1070.16 128.138 1065.4 146.461 1055.89 162.695L1057.62 163.705C1067.32 147.139 1072.16 128.462 1072.16 107.7H1070.16ZM1055.89 162.698C1046.58 178.743 1033.81 191.315 1017.57 200.428L1018.55 202.172C1035.1 192.885 1048.13 180.057 1057.62 163.702L1055.89 162.698ZM1017.57 200.428C1001.32 209.54 983.492 214.1 964.056 214.1V216.1C983.82 216.1 1001.99 211.46 1018.55 202.172L1017.57 200.428ZM964.056 178.6C976.809 178.6 988.088 175.764 997.86 170.064L996.852 168.336C987.425 173.836 976.503 176.6 964.056 176.6V178.6ZM997.873 170.056C1007.64 164.153 1015.27 155.81 1020.75 145.054L1018.97 144.146C1013.64 154.59 1006.27 162.646 996.839 168.344L997.873 170.056ZM1020.75 145.054C1026.23 134.29 1028.96 121.83 1028.96 107.7H1026.96C1026.96 121.57 1024.28 133.71 1018.97 144.146L1020.75 145.054ZM1028.96 107.7C1028.96 93.5706 1026.23 81.2067 1020.74 70.6392L1018.97 71.5608C1024.28 81.7932 1026.96 93.8294 1026.96 107.7H1028.96ZM1020.75 70.6461C1015.27 59.8877 1007.64 51.6397 997.86 45.9362L996.852 47.6638C1006.27 53.1602 1013.65 61.1123 1018.97 71.5539L1020.75 70.6461ZM997.86 45.9362C988.088 40.2356 976.809 37.4 964.056 37.4V39.4C976.503 39.4 987.425 42.1644 996.852 47.6638L997.86 45.9362ZM964.056 37.4C951.303 37.4 939.928 40.2357 929.96 45.9318L930.952 47.6682C940.584 42.1643 951.61 39.4 964.056 39.4V37.4ZM929.952 45.9362C920.175 51.6397 912.546 59.8877 907.065 70.6461L908.847 71.5539C914.167 61.1123 921.538 53.1602 930.96 47.6638L929.952 45.9362ZM907.069 70.6392C901.582 81.2067 898.856 93.5706 898.856 107.7H900.856C900.856 93.8294 903.531 81.7932 908.844 71.5608L907.069 70.6392ZM898.856 107.7C898.856 121.83 901.582 134.29 907.065 145.054L908.847 144.146C903.531 133.71 900.856 121.57 900.856 107.7H898.856ZM907.065 145.054C912.545 155.81 920.17 164.153 929.939 170.056L930.973 168.344C921.543 162.646 914.168 154.59 908.847 144.146L907.065 145.054ZM929.96 170.068C939.928 175.764 951.303 178.6 964.056 178.6V176.6C951.61 176.6 940.584 173.836 930.952 168.332L929.96 170.068ZM1134.6 207.6L1134.21 208.518L1134.21 208.521L1134.6 207.6ZM1107 186L1106.19 186.586L1107 186ZM1096.5 152.7V151.7H1095.49L1095.5 152.716L1096.5 152.7ZM1141.5 152.7L1142.5 152.63L1142.44 151.7H1141.5V152.7ZM1150.5 173.1L1149.82 173.834L1149.83 173.84L1149.84 173.846L1150.5 173.1ZM1196.4 173.7L1197.04 174.473L1197.05 174.466L1197.05 174.459L1196.4 173.7ZM1199.1 139.8L1198.38 140.489L1199.1 139.8ZM1184.7 130.5L1184.31 131.419L1184.33 131.427L1184.35 131.435L1184.7 130.5ZM1161.3 122.7L1161.02 123.659L1161.03 123.663L1161.3 122.7ZM1128 111L1127.57 111.903L1127.59 111.909L1127.6 111.915L1128 111ZM1106.1 93.3L1105.3 93.9L1105.31 93.9112L1105.32 93.9222L1106.1 93.3ZM1106.4 29.1L1107.23 29.6588L1106.4 29.1ZM1132.5 8.09999L1132.9 9.01914L1132.9 9.01619L1132.91 9.01313L1132.5 8.09999ZM1223.4 16.5L1222.78 17.2843L1222.79 17.2894L1222.8 17.2943L1223.4 16.5ZM1245.9 60.3V61.3H1246.98L1246.9 60.2257L1245.9 60.3ZM1199.7 60.3L1198.7 60.3555L1198.76 61.3H1199.7V60.3ZM1190.4 42.6L1189.75 43.3593L1189.77 43.3717L1189.78 43.3835L1190.4 42.6ZM1148.1 41.7L1147.46 40.9343L1147.45 40.9408L1147.44 40.9474L1148.1 41.7ZM1146.3 74.1L1145.58 74.7877L1145.6 74.8074L1145.62 74.8259L1146.3 74.1ZM1160.1 83.1L1159.7 84.0138L1159.72 84.0227L1159.74 84.0307L1160.1 83.1ZM1183.5 90.9L1183.22 91.8578L1183.22 91.8594L1183.5 90.9ZM1239 120.9L1238.21 121.513L1239 120.9ZM1239.6 183.6L1238.75 183.083L1239.6 183.6ZM1214.1 206.7L1214.55 207.594L1214.56 207.591L1214.56 207.588L1214.1 206.7ZM1174.2 214.1C1159.72 214.1 1146.65 211.62 1134.99 206.679L1134.21 208.521C1146.15 213.58 1159.49 216.1 1174.2 216.1V214.1ZM1135 206.682C1123.55 201.746 1114.5 194.655 1107.81 185.414L1106.19 186.586C1113.11 196.145 1122.46 203.454 1134.21 208.518L1135 206.682ZM1107.81 185.414C1101.15 176.197 1097.7 165.301 1097.5 152.684L1095.5 152.716C1095.71 165.699 1099.26 177.003 1106.19 186.586L1107.81 185.414ZM1096.5 153.7H1141.5V151.7H1096.5V153.7ZM1140.51 152.77C1141.12 161.577 1144.21 168.632 1149.82 173.834L1151.18 172.366C1146 167.568 1143.09 161.023 1142.5 152.63L1140.51 152.77ZM1149.84 173.846C1155.67 179.051 1163.53 181.6 1173.3 181.6V179.6C1163.88 179.6 1156.54 177.149 1151.17 172.354L1149.84 173.846ZM1173.3 181.6C1183.25 181.6 1191.2 179.264 1197.04 174.473L1195.77 172.927C1190.4 177.336 1182.95 179.6 1173.3 179.6V181.6ZM1197.05 174.459C1202.88 169.463 1205.8 162.982 1205.8 155.1H1203.8C1203.8 162.418 1201.12 168.337 1195.75 172.941L1197.05 174.459ZM1205.8 155.1C1205.8 148.678 1203.83 143.321 1199.83 139.111L1198.38 140.489C1201.98 144.279 1203.8 149.122 1203.8 155.1H1205.8ZM1199.83 139.111C1195.91 134.99 1190.98 131.812 1185.06 129.565L1184.35 131.435C1190.03 133.588 1194.69 136.61 1198.38 140.489L1199.83 139.111ZM1185.1 129.581C1179.44 127.156 1171.59 124.542 1161.57 121.737L1161.03 123.663C1171.02 126.458 1178.77 129.044 1184.31 131.419L1185.1 129.581ZM1161.59 121.741C1148.01 117.747 1136.95 113.861 1128.41 110.085L1127.6 111.915C1136.25 115.739 1147.4 119.653 1161.02 123.659L1161.59 121.741ZM1128.43 110.097C1120.18 106.167 1113 100.367 1106.89 92.6777L1105.32 93.9222C1111.61 101.833 1119.03 107.833 1127.57 111.903L1128.43 110.097ZM1106.9 92.7C1101.07 84.9212 1098.1 74.5526 1098.1 61.5H1096.1C1096.1 74.8474 1099.14 85.6788 1105.3 93.9L1106.9 92.7ZM1098.1 61.5C1098.1 49.2748 1101.16 38.6746 1107.23 29.6588L1105.57 28.5411C1099.25 37.9254 1096.1 48.9252 1096.1 61.5H1098.1ZM1107.23 29.6588C1113.31 20.6338 1121.86 13.7511 1132.9 9.01914L1132.11 7.18085C1120.75 12.0489 1111.89 19.1661 1105.57 28.5411L1107.23 29.6588ZM1132.91 9.01313C1143.96 4.0795 1156.62 1.6 1170.9 1.6V-0.400002C1156.39 -0.400002 1143.44 2.12049 1132.1 7.18686L1132.91 9.01313ZM1170.9 1.6C1192.34 1.6 1209.6 6.85742 1222.78 17.2843L1224.02 15.7157C1210.4 4.94257 1192.67 -0.400002 1170.9 -0.400002V1.6ZM1222.8 17.2943C1236.14 27.5022 1243.52 41.8267 1244.91 60.3743L1246.9 60.2257C1245.48 41.1733 1237.86 26.2977 1224.01 15.7056L1222.8 17.2943ZM1245.9 59.3H1199.7V61.3H1245.9V59.3ZM1200.7 60.2445C1200.29 52.7506 1197.04 46.5887 1191.02 41.8165L1189.78 43.3835C1195.36 47.8113 1198.32 53.4494 1198.7 60.3555L1200.7 60.2445ZM1191.05 41.8407C1185.23 36.8466 1177.47 34.4 1167.9 34.4V36.4C1177.13 36.4 1184.38 38.7534 1189.75 43.3593L1191.05 41.8407ZM1167.9 34.4C1159.53 34.4 1152.68 36.5474 1147.46 40.9343L1148.75 42.4657C1153.52 38.4526 1159.88 36.4 1167.9 36.4V34.4ZM1147.44 40.9474C1142.37 45.3838 1139.9 51.7907 1139.9 60H1141.9C1141.9 52.2093 1144.23 46.4162 1148.76 42.4526L1147.44 40.9474ZM1139.9 60C1139.9 65.8362 1141.79 70.7882 1145.58 74.7877L1147.03 73.4122C1143.62 69.8118 1141.9 65.3637 1141.9 60H1139.9ZM1145.62 74.8259C1149.51 78.5135 1154.21 81.5735 1159.7 84.0138L1160.51 82.1862C1155.2 79.8265 1150.7 76.8865 1146.99 73.374L1145.62 74.8259ZM1159.74 84.0307C1165.38 86.2456 1173.21 88.8547 1183.22 91.8578L1183.79 89.9422C1173.8 86.9453 1166.03 84.3544 1160.47 82.1692L1159.74 84.0307ZM1183.22 91.8594C1196.79 95.8515 1207.84 99.8352 1216.38 103.807L1217.22 101.993C1208.56 97.9647 1197.41 93.9485 1183.79 89.9406L1183.22 91.8594ZM1216.38 103.807C1224.83 107.735 1232.1 113.63 1238.21 121.513L1239.79 120.287C1233.5 112.17 1225.98 106.065 1217.22 101.993L1216.38 103.807ZM1238.21 121.513C1244.24 129.293 1247.3 139.558 1247.3 152.4H1249.3C1249.3 139.242 1246.16 128.507 1239.79 120.287L1238.21 121.513ZM1247.3 152.4C1247.3 163.417 1244.45 173.639 1238.75 183.083L1240.46 184.117C1246.35 174.361 1249.3 163.783 1249.3 152.4H1247.3ZM1238.75 183.083C1233.05 192.506 1224.7 200.086 1213.64 205.812L1214.56 207.588C1225.91 201.714 1234.55 193.894 1240.46 184.117L1238.75 183.083ZM1213.66 205.806C1202.62 211.322 1189.48 214.1 1174.2 214.1V216.1C1189.72 216.1 1203.18 213.278 1214.55 207.594L1213.66 205.806Z" fill="#9498FF" fill-opacity="0.4" mask="url(#path-1-outside-1_1555_2706)"/>
</svg>
