<svg width="355" height="208" viewBox="0 0 355 208" fill="none" xmlns="http://www.w3.org/2000/svg">
<path d="M8.86625 109.708C26.2429 46.9291 316.311 6.49265 339.606 55.1617C376.316 131.861 116.484 187.356 73.8595 169.709C72.2809 169.056 72.1057 167.181 73.3313 167.295C180.559 177.253 357.489 111.377 329.52 57.6181C302.191 18.1321 4.57434 57.6044 16.5883 118.208C24.4986 158.11 162.859 163.813 254.42 128.953C257.344 128.76 255.598 131.455 252.61 132.664C154.414 169.984 -1.82287 168.17 8.86625 109.708Z" fill="#FEFEFE"/>
<path d="M8.86625 117.094C26.2429 54.3156 316.311 13.8791 339.606 62.5481C376.316 139.248 116.484 194.743 73.8595 177.096C72.2809 176.442 72.1057 174.567 73.3313 174.681C180.559 184.639 357.489 118.764 329.52 65.0045C302.191 25.5186 4.57434 64.9908 16.5883 125.594C24.4986 165.497 162.859 171.199 254.42 136.339C257.344 136.146 255.598 138.841 252.61 140.05C154.414 177.37 -1.82287 175.556 8.86625 117.094Z" fill="#EE3248"/>
</svg>
