<svg width="1920" height="242" viewBox="0 0 1920 242" fill="none" xmlns="http://www.w3.org/2000/svg">
<rect x="1" width="1920" height="242" fill="#6F00FF"/>
<rect width="47" height="29" fill="white"/>
<rect y="213" width="47" height="29" fill="white"/>
<rect x="98" width="60" height="29" fill="white"/>
<rect x="98" y="213" width="60" height="29" fill="white"/>
<rect x="209" width="60" height="29" fill="white"/>
<rect x="209" y="213" width="60" height="29" fill="white"/>
<rect x="320" width="60" height="29" fill="white"/>
<rect x="320" y="213" width="60" height="29" fill="white"/>
<rect x="431" width="60" height="29" fill="white"/>
<rect x="431" y="213" width="60" height="29" fill="white"/>
<rect x="542" width="60" height="29" fill="white"/>
<rect x="542" y="213" width="60" height="29" fill="white"/>
<rect x="653" width="60" height="29" fill="white"/>
<rect x="653" y="213" width="60" height="29" fill="white"/>
<rect x="764" width="60" height="29" fill="white"/>
<rect x="764" y="213" width="60" height="29" fill="white"/>
<rect x="875" width="60" height="29" fill="white"/>
<rect x="875" y="213" width="60" height="29" fill="white"/>
<rect x="986" width="60" height="29" fill="white"/>
<rect x="986" y="213" width="60" height="29" fill="white"/>
<rect x="1097" width="60" height="29" fill="white"/>
<rect x="1097" y="213" width="60" height="29" fill="white"/>
<rect x="1208" width="60" height="29" fill="white"/>
<rect x="1208" y="213" width="60" height="29" fill="white"/>
<rect x="1319" width="60" height="29" fill="white"/>
<rect x="1319" y="213" width="60" height="29" fill="white"/>
<rect x="1430" width="60" height="29" fill="white"/>
<rect x="1430" y="213" width="60" height="29" fill="white"/>
<rect x="1541" width="60" height="29" fill="white"/>
<rect x="1541" y="213" width="60" height="29" fill="white"/>
<rect x="1652" width="60" height="29" fill="white"/>
<rect x="1652" y="213" width="60" height="29" fill="white"/>
<rect x="1763" width="60" height="29" fill="white"/>
<rect x="1763" y="213" width="60" height="29" fill="white"/>
<rect x="1874" width="46" height="29" fill="white"/>
<rect x="1874" y="213" width="46" height="29" fill="white"/>
<g clip-path="url(#clip0_3036_14647)">
<g clip-path="url(#clip1_3036_14647)">
<path d="M67.79 134L65.865 129.24H55.505L53.58 134H46.51L57.325 109.5H64.15L75 134H67.79ZM57.535 124.13H63.835L60.685 116.29L57.535 124.13ZM92.1196 134L87.6746 127.49H83.8946V134H76.9646V109.5H88.1646C94.8496 109.5 99.0496 112.965 99.0496 118.565C99.0496 122.17 97.2996 124.83 94.2546 126.3L99.5396 134H92.1196ZM92.0497 118.565C92.0497 116.29 90.6146 114.96 87.7446 114.96H83.8946V122.135H87.7446C90.6146 122.135 92.0497 120.805 92.0497 118.565ZM107.746 134V114.995H100.221V109.5H122.166V114.995H114.676V134H107.746ZM124.748 134V109.5H131.678V134H124.748ZM155.823 114.855H143.538V120.245H154.353V125.6H143.538V134H136.608V109.5H155.823V114.855ZM159.064 134V109.5H165.994V134H159.064ZM183.14 134.49C175.37 134.49 169.665 129.205 169.665 121.75C169.665 114.295 175.37 109.01 183.14 109.01C187.655 109.01 191.295 110.655 193.675 113.63L189.265 117.62C187.725 115.765 185.835 114.75 183.49 114.75C179.465 114.75 176.665 117.55 176.665 121.75C176.665 125.95 179.465 128.75 183.49 128.75C185.835 128.75 187.725 127.735 189.265 125.88L193.675 129.87C191.295 132.845 187.655 134.49 183.14 134.49ZM196.764 134V109.5H203.694V134H196.764ZM226.965 134L225.04 129.24H214.68L212.755 134H205.685L216.5 109.5H223.325L234.175 134H226.965ZM216.71 124.13H223.01L219.86 116.29L216.71 124.13ZM236.139 134V109.5H243.069V128.505H254.759V134H236.139ZM267.687 134V109.5H274.617V134H267.687ZM296.068 109.5H302.858V134H297.153L286.338 120.945V134H279.548V109.5H285.253L296.068 122.555V109.5ZM312.961 134V114.995H305.436V109.5H327.381V114.995H319.891V134H312.961ZM336.823 128.645H349.633V134H329.963V109.5H349.178V114.855H336.823V118.985H347.708V124.165H336.823V128.645ZM353.478 134V109.5H360.408V128.505H372.098V134H353.478ZM374.841 134V109.5H381.771V128.505H393.461V134H374.841ZM396.203 134V109.5H403.133V134H396.203ZM424.478 127.945V121.225H430.603V131.375C427.768 133.405 423.883 134.49 420.313 134.49C412.508 134.49 406.803 129.205 406.803 121.75C406.803 114.295 412.508 109.01 420.453 109.01C425.038 109.01 428.748 110.585 431.163 113.49L426.753 117.48C425.073 115.625 423.148 114.75 420.803 114.75C416.603 114.75 413.803 117.515 413.803 121.75C413.803 125.88 416.603 128.75 420.733 128.75C422.028 128.75 423.253 128.505 424.478 127.945ZM441.857 128.645H454.667V134H434.997V109.5H454.212V114.855H441.857V118.985H452.742V124.165H441.857V128.645ZM475.033 109.5H481.823V134H476.118L465.302 120.945V134H458.513V109.5H464.218L475.033 122.555V109.5ZM498.926 134.49C491.156 134.49 485.451 129.205 485.451 121.75C485.451 114.295 491.156 109.01 498.926 109.01C503.441 109.01 507.081 110.655 509.461 113.63L505.051 117.62C503.511 115.765 501.621 114.75 499.276 114.75C495.251 114.75 492.451 117.55 492.451 121.75C492.451 125.95 495.251 128.75 499.276 128.75C501.621 128.75 503.511 127.735 505.051 125.88L509.461 129.87C507.081 132.845 503.441 134.49 498.926 134.49ZM519.411 128.645H532.221V134H512.551V109.5H531.766V114.855H519.411V118.985H530.296V124.165H519.411V128.645Z" fill="white"/>
<path d="M612.265 109.5H618.88L610.935 134H603.515L598.825 119.09L593.925 134H586.505L578.56 109.5H585.7L590.635 125.145L595.815 109.5H602.185L607.12 125.285L612.265 109.5ZM628.223 128.645H641.033V134H621.363V109.5H640.578V114.855H628.223V118.985H639.108V124.165H628.223V128.645ZM663.709 121.225C666.474 122.205 668.189 124.305 668.189 127.28C668.189 131.515 664.689 134 658.109 134H644.879V109.5H657.409C663.849 109.5 666.999 112.125 666.999 115.905C666.999 118.25 665.809 120.14 663.709 121.225ZM656.499 114.505H651.739V119.23H656.499C658.809 119.23 659.999 118.425 659.999 116.85C659.999 115.31 658.809 114.505 656.499 114.505ZM657.549 128.995C659.929 128.995 661.189 128.19 661.189 126.51C661.189 124.83 659.929 124.025 657.549 124.025H651.739V128.995H657.549ZM693.269 119.3C697.399 120.175 699.569 122.835 699.569 126.335C699.569 130.5 696.279 134.49 688.894 134.49C685.499 134.49 681.894 133.65 679.374 132.075L681.894 126.86C683.854 128.19 686.374 128.89 688.684 128.89C691.029 128.89 692.569 127.98 692.569 126.335C692.569 124.865 691.484 123.955 688.824 123.955H685.919V119.58L690.294 114.855H680.634V109.5H698.344V113.84L693.269 119.3ZM705.538 134.315C703.298 134.315 701.548 132.67 701.548 130.36C701.548 127.98 703.298 126.44 705.538 126.44C707.813 126.44 709.528 127.98 709.528 130.36C709.528 132.67 707.813 134.315 705.538 134.315ZM722.041 134.49C715.776 134.49 711.226 129.835 711.226 121.75C711.226 113.665 715.776 109.01 722.041 109.01C728.271 109.01 732.821 113.665 732.821 121.75C732.821 129.835 728.271 134.49 722.041 134.49ZM722.041 128.82C724.246 128.82 725.856 126.895 725.856 121.75C725.856 116.605 724.246 114.68 722.041 114.68C719.801 114.68 718.191 116.605 718.191 121.75C718.191 126.895 719.801 128.82 722.041 128.82Z" fill="white"/>
<path d="M789.06 134.49C787.053 134.49 785.117 134.245 783.25 133.755C781.407 133.242 779.902 132.588 778.735 131.795L781.01 126.685C782.107 127.385 783.367 127.968 784.79 128.435C786.237 128.878 787.672 129.1 789.095 129.1C790.052 129.1 790.822 129.018 791.405 128.855C791.988 128.668 792.408 128.435 792.665 128.155C792.945 127.852 793.085 127.502 793.085 127.105C793.085 126.545 792.828 126.102 792.315 125.775C791.802 125.448 791.137 125.18 790.32 124.97C789.503 124.76 788.593 124.55 787.59 124.34C786.61 124.13 785.618 123.862 784.615 123.535C783.635 123.208 782.737 122.788 781.92 122.275C781.103 121.738 780.438 121.05 779.925 120.21C779.412 119.347 779.155 118.262 779.155 116.955C779.155 115.485 779.552 114.155 780.345 112.965C781.162 111.775 782.375 110.818 783.985 110.095C785.595 109.372 787.602 109.01 790.005 109.01C791.615 109.01 793.19 109.197 794.73 109.57C796.293 109.92 797.682 110.445 798.895 111.145L796.76 116.29C795.593 115.66 794.438 115.193 793.295 114.89C792.152 114.563 791.043 114.4 789.97 114.4C789.013 114.4 788.243 114.505 787.66 114.715C787.077 114.902 786.657 115.158 786.4 115.485C786.143 115.812 786.015 116.185 786.015 116.605C786.015 117.142 786.26 117.573 786.75 117.9C787.263 118.203 787.928 118.46 788.745 118.67C789.585 118.857 790.495 119.055 791.475 119.265C792.478 119.475 793.47 119.743 794.45 120.07C795.453 120.373 796.363 120.793 797.18 121.33C797.997 121.843 798.65 122.532 799.14 123.395C799.653 124.235 799.91 125.297 799.91 126.58C799.91 128.003 799.502 129.322 798.685 130.535C797.892 131.725 796.69 132.682 795.08 133.405C793.493 134.128 791.487 134.49 789.06 134.49ZM815.466 134.49C813.506 134.49 811.698 134.175 810.041 133.545C808.384 132.915 806.938 132.028 805.701 130.885C804.488 129.718 803.543 128.365 802.866 126.825C802.189 125.285 801.851 123.593 801.851 121.75C801.851 119.907 802.189 118.215 802.866 116.675C803.543 115.135 804.488 113.793 805.701 112.65C806.938 111.483 808.384 110.585 810.041 109.955C811.698 109.325 813.506 109.01 815.466 109.01C817.449 109.01 819.258 109.325 820.891 109.955C822.548 110.585 823.983 111.483 825.196 112.65C826.409 113.793 827.354 115.135 828.031 116.675C828.731 118.215 829.081 119.907 829.081 121.75C829.081 123.593 828.731 125.297 828.031 126.86C827.354 128.4 826.409 129.742 825.196 130.885C823.983 132.028 822.548 132.915 820.891 133.545C819.258 134.175 817.449 134.49 815.466 134.49ZM815.466 128.75C816.399 128.75 817.263 128.587 818.056 128.26C818.873 127.933 819.573 127.467 820.156 126.86C820.763 126.23 821.229 125.483 821.556 124.62C821.906 123.757 822.081 122.8 822.081 121.75C822.081 120.677 821.906 119.72 821.556 118.88C821.229 118.017 820.763 117.282 820.156 116.675C819.573 116.045 818.873 115.567 818.056 115.24C817.263 114.913 816.399 114.75 815.466 114.75C814.533 114.75 813.658 114.913 812.841 115.24C812.048 115.567 811.348 116.045 810.741 116.675C810.158 117.282 809.691 118.017 809.341 118.88C809.014 119.72 808.851 120.677 808.851 121.75C808.851 122.8 809.014 123.757 809.341 124.62C809.691 125.483 810.158 126.23 810.741 126.86C811.348 127.467 812.048 127.933 812.841 128.26C813.658 128.587 814.533 128.75 815.466 128.75ZM839.151 120.245H850.456V125.6H839.151V120.245ZM839.641 134H832.711V109.5H851.926V114.855H839.641V134ZM860.553 134V114.995H853.028V109.5H874.973V114.995H867.483V134H860.553ZM883.028 134L875.083 109.5H882.223L888.908 130.71H885.303L892.338 109.5H898.708L905.358 130.71H901.893L908.788 109.5H915.403L907.458 134H900.038L894.368 115.975H896.363L890.448 134H883.028ZM914.092 134L924.907 109.5H931.732L942.582 134H935.372L926.902 112.895H929.632L921.162 134H914.092ZM920.007 129.24L921.792 124.13H933.762L935.547 129.24H920.007ZM944.547 134V109.5H955.747C957.987 109.5 959.912 109.862 961.522 110.585C963.155 111.308 964.415 112.358 965.302 113.735C966.188 115.088 966.632 116.698 966.632 118.565C966.632 120.408 966.188 122.007 965.302 123.36C964.415 124.69 963.155 125.717 961.522 126.44C959.912 127.14 957.987 127.49 955.747 127.49H948.397L951.477 124.585V134H944.547ZM959.702 134L953.612 125.075H960.997L967.122 134H959.702ZM951.477 125.32L948.397 122.135H955.327C956.773 122.135 957.847 121.82 958.547 121.19C959.27 120.56 959.632 119.685 959.632 118.565C959.632 117.422 959.27 116.535 958.547 115.905C957.847 115.275 956.773 114.96 955.327 114.96H948.397L951.477 111.775V125.32ZM976.825 118.985H988.2V124.165H976.825V118.985ZM977.315 128.645H990.125V134H970.455V109.5H989.67V114.855H977.315V128.645ZM1004.16 134V109.5H1015.74C1018.45 109.5 1020.83 110.002 1022.88 111.005C1024.93 112.008 1026.53 113.42 1027.68 115.24C1028.84 117.06 1029.43 119.23 1029.43 121.75C1029.43 124.247 1028.84 126.417 1027.68 128.26C1026.53 130.08 1024.93 131.492 1022.88 132.495C1020.83 133.498 1018.45 134 1015.74 134H1004.16ZM1011.09 128.47H1015.46C1016.86 128.47 1018.07 128.213 1019.1 127.7C1020.15 127.163 1020.97 126.393 1021.55 125.39C1022.13 124.363 1022.43 123.15 1022.43 121.75C1022.43 120.327 1022.13 119.113 1021.55 118.11C1020.97 117.107 1020.15 116.348 1019.1 115.835C1018.07 115.298 1016.86 115.03 1015.46 115.03H1011.09V128.47ZM1039.44 118.985H1050.82V124.165H1039.44V118.985ZM1039.93 128.645H1052.74V134H1033.07V109.5H1052.29V114.855H1039.93V128.645ZM1063.77 134L1053.31 109.5H1060.8L1069.62 130.71H1065.21L1074.24 109.5H1081.1L1070.6 134H1063.77ZM1088.9 118.985H1100.28V124.165H1088.9V118.985ZM1089.39 128.645H1102.2V134H1082.53V109.5H1101.75V114.855H1089.39V128.645ZM1106.05 134V109.5H1112.98V128.505H1124.67V134H1106.05ZM1139.39 134.49C1137.43 134.49 1135.62 134.175 1133.96 133.545C1132.31 132.915 1130.86 132.028 1129.62 130.885C1128.41 129.718 1127.46 128.365 1126.79 126.825C1126.11 125.285 1125.77 123.593 1125.77 121.75C1125.77 119.907 1126.11 118.215 1126.79 116.675C1127.46 115.135 1128.41 113.793 1129.62 112.65C1130.86 111.483 1132.31 110.585 1133.96 109.955C1135.62 109.325 1137.43 109.01 1139.39 109.01C1141.37 109.01 1143.18 109.325 1144.81 109.955C1146.47 110.585 1147.9 111.483 1149.12 112.65C1150.33 113.793 1151.28 115.135 1151.95 116.675C1152.65 118.215 1153 119.907 1153 121.75C1153 123.593 1152.65 125.297 1151.95 126.86C1151.28 128.4 1150.33 129.742 1149.12 130.885C1147.9 132.028 1146.47 132.915 1144.81 133.545C1143.18 134.175 1141.37 134.49 1139.39 134.49ZM1139.39 128.75C1140.32 128.75 1141.18 128.587 1141.98 128.26C1142.79 127.933 1143.49 127.467 1144.08 126.86C1144.68 126.23 1145.15 125.483 1145.48 124.62C1145.83 123.757 1146 122.8 1146 121.75C1146 120.677 1145.83 119.72 1145.48 118.88C1145.15 118.017 1144.68 117.282 1144.08 116.675C1143.49 116.045 1142.79 115.567 1141.98 115.24C1141.18 114.913 1140.32 114.75 1139.39 114.75C1138.45 114.75 1137.58 114.913 1136.76 115.24C1135.97 115.567 1135.27 116.045 1134.66 116.675C1134.08 117.282 1133.61 118.017 1133.26 118.88C1132.94 119.72 1132.77 120.677 1132.77 121.75C1132.77 122.8 1132.94 123.757 1133.26 124.62C1133.61 125.483 1134.08 126.23 1134.66 126.86C1135.27 127.467 1135.97 127.933 1136.76 128.26C1137.58 128.587 1138.45 128.75 1139.39 128.75ZM1156.63 134V109.5H1167.83C1170.07 109.5 1172 109.862 1173.61 110.585C1175.24 111.308 1176.5 112.358 1177.39 113.735C1178.27 115.088 1178.72 116.698 1178.72 118.565C1178.72 120.408 1178.27 122.007 1177.39 123.36C1176.5 124.713 1175.24 125.763 1173.61 126.51C1172 127.233 1170.07 127.595 1167.83 127.595H1160.48L1163.56 124.585V134H1156.63ZM1163.56 125.32L1160.48 122.135H1167.41C1168.86 122.135 1169.93 121.82 1170.63 121.19C1171.35 120.56 1171.72 119.685 1171.72 118.565C1171.72 117.422 1171.35 116.535 1170.63 115.905C1169.93 115.275 1168.86 114.96 1167.41 114.96H1160.48L1163.56 111.775V125.32ZM1182.1 134V109.5H1187.8L1197.95 126.16H1194.94L1204.81 109.5H1210.52L1210.59 134H1204.22L1204.15 119.195H1205.23L1197.85 131.585H1194.77L1187.17 119.195H1188.5V134H1182.1ZM1221.86 118.985H1233.23V124.165H1221.86V118.985ZM1222.35 128.645H1235.16V134H1215.49V109.5H1234.7V114.855H1222.35V128.645ZM1239 134V109.5H1244.71L1258.22 125.81H1255.52V109.5H1262.31V134H1256.61L1243.1 117.69H1245.79V134H1239ZM1272.42 134V114.995H1264.89V109.5H1286.84V114.995H1279.35V134H1272.42Z" fill="white"/>
<path d="M1345.67 134.49C1343.73 134.49 1341.93 134.187 1340.28 133.58C1338.64 132.95 1337.22 132.063 1336.01 130.92C1334.82 129.777 1333.88 128.435 1333.21 126.895C1332.53 125.332 1332.19 123.617 1332.19 121.75C1332.19 119.883 1332.53 118.18 1333.21 116.64C1333.88 115.077 1334.82 113.723 1336.01 112.58C1337.22 111.437 1338.64 110.562 1340.28 109.955C1341.93 109.325 1343.73 109.01 1345.67 109.01C1347.93 109.01 1349.95 109.407 1351.72 110.2C1353.52 110.993 1355.01 112.137 1356.2 113.63L1351.79 117.62C1351 116.687 1350.12 115.975 1349.17 115.485C1348.23 114.995 1347.18 114.75 1346.02 114.75C1345.01 114.75 1344.09 114.913 1343.25 115.24C1342.41 115.567 1341.69 116.045 1341.08 116.675C1340.5 117.282 1340.03 118.017 1339.68 118.88C1339.35 119.743 1339.19 120.7 1339.19 121.75C1339.19 122.8 1339.35 123.757 1339.68 124.62C1340.03 125.483 1340.5 126.23 1341.08 126.86C1341.69 127.467 1342.41 127.933 1343.25 128.26C1344.09 128.587 1345.01 128.75 1346.02 128.75C1347.18 128.75 1348.23 128.505 1349.17 128.015C1350.12 127.525 1351 126.813 1351.79 125.88L1356.2 129.87C1355.01 131.34 1353.52 132.483 1351.72 133.3C1349.95 134.093 1347.93 134.49 1345.67 134.49ZM1359.29 134V109.5H1370.49C1372.73 109.5 1374.65 109.862 1376.26 110.585C1377.9 111.308 1379.16 112.358 1380.04 113.735C1380.93 115.088 1381.37 116.698 1381.37 118.565C1381.37 120.408 1380.93 122.007 1380.04 123.36C1379.16 124.69 1377.9 125.717 1376.26 126.44C1374.65 127.14 1372.73 127.49 1370.49 127.49H1363.14L1366.22 124.585V134H1359.29ZM1374.44 134L1368.35 125.075H1375.74L1381.86 134H1374.44ZM1366.22 125.32L1363.14 122.135H1370.07C1371.52 122.135 1372.59 121.82 1373.29 121.19C1374.01 120.56 1374.37 119.685 1374.37 118.565C1374.37 117.422 1374.01 116.535 1373.29 115.905C1372.59 115.275 1371.52 114.96 1370.07 114.96H1363.14L1366.22 111.775V125.32ZM1391.57 118.985H1402.94V124.165H1391.57V118.985ZM1392.06 128.645H1404.87V134H1385.2V109.5H1404.41V114.855H1392.06V128.645ZM1405.77 134L1416.59 109.5H1423.41L1434.26 134H1427.05L1418.58 112.895H1421.31L1412.84 134H1405.77ZM1411.69 129.24L1413.47 124.13H1425.44L1427.23 129.24H1411.69ZM1440.21 134V114.995H1432.69V109.5H1454.63V114.995H1447.14V134H1440.21ZM1457.21 134V109.5H1464.14V134H1457.21ZM1476.53 134L1466.07 109.5H1473.56L1482.38 130.71H1477.97L1487 109.5H1493.86L1483.36 134H1476.53ZM1501.66 118.985H1513.04V124.165H1501.66V118.985ZM1502.15 128.645H1514.96V134H1495.29V109.5H1514.51V114.855H1502.15V128.645ZM1526.05 134L1536.87 109.5H1543.69L1554.54 134H1547.33L1538.86 112.895H1541.59L1533.12 134H1526.05ZM1531.97 129.24L1533.75 124.13H1545.72L1547.51 129.24H1531.97ZM1556.51 134V109.5H1562.21L1575.72 125.81H1573.03V109.5H1579.82V134H1574.11L1560.6 117.69H1563.3V134H1556.51ZM1584.7 134V109.5H1596.29C1599 109.5 1601.38 110.002 1603.43 111.005C1605.48 112.008 1607.08 113.42 1608.22 115.24C1609.39 117.06 1609.97 119.23 1609.97 121.75C1609.97 124.247 1609.39 126.417 1608.22 128.26C1607.08 130.08 1605.48 131.492 1603.43 132.495C1601.38 133.498 1599 134 1596.29 134H1584.7ZM1591.63 128.47H1596.01C1597.41 128.47 1598.62 128.213 1599.65 127.7C1600.7 127.163 1601.52 126.393 1602.1 125.39C1602.68 124.363 1602.97 123.15 1602.97 121.75C1602.97 120.327 1602.68 119.113 1602.1 118.11C1601.52 117.107 1600.7 116.348 1599.65 115.835C1598.62 115.298 1597.41 115.03 1596.01 115.03H1591.63V128.47ZM1623.81 134V109.5H1629.51L1639.66 126.16H1636.65L1646.52 109.5H1652.23L1652.3 134H1645.93L1645.86 119.195H1646.94L1639.56 131.585H1636.48L1628.88 119.195H1630.21V134H1623.81ZM1668.51 134.49C1664.89 134.49 1662.07 133.498 1660.04 131.515C1658.01 129.532 1656.99 126.72 1656.99 123.08V109.5H1663.92V122.87C1663.92 124.97 1664.33 126.475 1665.15 127.385C1665.99 128.295 1667.13 128.75 1668.58 128.75C1670.02 128.75 1671.15 128.295 1671.97 127.385C1672.79 126.475 1673.2 124.97 1673.2 122.87V109.5H1680.02V123.08C1680.02 126.72 1679.01 129.532 1676.98 131.515C1674.95 133.498 1672.12 134.49 1668.51 134.49ZM1684.71 134V109.5H1691.64V128.505H1703.33V134H1684.71ZM1709 134V114.995H1701.48V109.5H1723.42V114.995H1715.93V134H1709ZM1726 134V109.5H1732.93V134H1726ZM1737.86 134V109.5H1743.57L1753.72 126.16H1750.71L1760.58 109.5H1766.28L1766.35 134H1759.98L1759.91 119.195H1761L1753.61 131.585H1750.53L1742.94 119.195H1744.27V134H1737.86ZM1777.63 118.985H1789V124.165H1777.63V118.985ZM1778.12 128.645H1790.93V134H1771.26V109.5H1790.47V114.855H1778.12V128.645ZM1794.77 134V109.5H1806.36C1809.06 109.5 1811.44 110.002 1813.5 111.005C1815.55 112.008 1817.15 113.42 1818.29 115.24C1819.46 117.06 1820.04 119.23 1820.04 121.75C1820.04 124.247 1819.46 126.417 1818.29 128.26C1817.15 130.08 1815.55 131.492 1813.5 132.495C1811.44 133.498 1809.06 134 1806.36 134H1794.77ZM1801.7 128.47H1806.08C1807.48 128.47 1808.69 128.213 1809.72 127.7C1810.77 127.163 1811.58 126.393 1812.17 125.39C1812.75 124.363 1813.04 123.15 1813.04 121.75C1813.04 120.327 1812.75 119.113 1812.17 118.11C1811.58 117.107 1810.77 116.348 1809.72 115.835C1808.69 115.298 1807.48 115.03 1806.08 115.03H1801.7V128.47ZM1823.69 134V109.5H1830.62V134H1823.69ZM1832.61 134L1843.42 109.5H1850.25L1861.1 134H1853.89L1845.42 112.895H1848.15L1839.68 134H1832.61ZM1838.52 129.24L1840.31 124.13H1852.28L1854.06 129.24H1838.52ZM1873.25 134V109.5H1884.83C1887.54 109.5 1889.92 110.002 1891.97 111.005C1894.03 112.008 1895.63 113.42 1896.77 115.24C1897.94 117.06 1898.52 119.23 1898.52 121.75C1898.52 124.247 1897.94 126.417 1896.77 128.26C1895.63 130.08 1894.03 131.492 1891.97 132.495C1889.92 133.498 1887.54 134 1884.83 134H1873.25ZM1880.18 128.47H1884.55C1885.95 128.47 1887.17 128.213 1888.19 127.7C1889.24 127.163 1890.06 126.393 1890.64 125.39C1891.23 124.363 1891.52 123.15 1891.52 121.75C1891.52 120.327 1891.23 119.113 1890.64 118.11C1890.06 117.107 1889.24 116.348 1888.19 115.835C1887.17 115.298 1885.95 115.03 1884.55 115.03H1880.18V128.47ZM1908.54 118.985H1919.91V124.165H1908.54V118.985ZM1909.03 128.645H1921.84V134H1902.17V109.5H1921.38V114.855H1909.03V128.645ZM1934.29 134.49C1932.28 134.49 1930.35 134.245 1928.48 133.755C1926.64 133.242 1925.13 132.588 1923.97 131.795L1926.24 126.685C1927.34 127.385 1928.6 127.968 1930.02 128.435C1931.47 128.878 1932.9 129.1 1934.33 129.1C1935.28 129.1 1936.05 129.018 1936.64 128.855C1937.22 128.668 1937.64 128.435 1937.9 128.155C1938.18 127.852 1938.32 127.502 1938.32 127.105C1938.32 126.545 1938.06 126.102 1937.55 125.775C1937.03 125.448 1936.37 125.18 1935.55 124.97C1934.73 124.76 1933.82 124.55 1932.82 124.34C1931.84 124.13 1930.85 123.862 1929.85 123.535C1928.87 123.208 1927.97 122.788 1927.15 122.275C1926.33 121.738 1925.67 121.05 1925.16 120.21C1924.64 119.347 1924.39 118.262 1924.39 116.955C1924.39 115.485 1924.78 114.155 1925.58 112.965C1926.39 111.775 1927.61 110.818 1929.22 110.095C1930.83 109.372 1932.83 109.01 1935.24 109.01C1936.85 109.01 1938.42 109.197 1939.96 109.57C1941.52 109.92 1942.91 110.445 1944.13 111.145L1941.99 116.29C1940.82 115.66 1939.67 115.193 1938.53 114.89C1937.38 114.563 1936.27 114.4 1935.2 114.4C1934.24 114.4 1933.47 114.505 1932.89 114.715C1932.31 114.902 1931.89 115.158 1931.63 115.485C1931.37 115.812 1931.25 116.185 1931.25 116.605C1931.25 117.142 1931.49 117.573 1931.98 117.9C1932.49 118.203 1933.16 118.46 1933.98 118.67C1934.82 118.857 1935.73 119.055 1936.71 119.265C1937.71 119.475 1938.7 119.743 1939.68 120.07C1940.68 120.373 1941.59 120.793 1942.41 121.33C1943.23 121.843 1943.88 122.532 1944.37 123.395C1944.88 124.235 1945.14 125.297 1945.14 126.58C1945.14 128.003 1944.73 129.322 1943.92 130.535C1943.12 131.725 1941.92 132.682 1940.31 133.405C1938.72 134.128 1936.72 134.49 1934.29 134.49ZM1948.34 134V109.5H1955.27V134H1948.34ZM1972.45 134.49C1970.52 134.49 1968.72 134.187 1967.06 133.58C1965.41 132.95 1963.97 132.063 1962.76 130.92C1961.57 129.777 1960.63 128.435 1959.96 126.895C1959.28 125.332 1958.94 123.617 1958.94 121.75C1958.94 119.883 1959.28 118.18 1959.96 116.64C1960.63 115.077 1961.58 113.723 1962.79 112.58C1964.01 111.437 1965.44 110.562 1967.1 109.955C1968.78 109.325 1970.61 109.01 1972.59 109.01C1974.9 109.01 1976.97 109.395 1978.79 110.165C1980.61 110.935 1982.11 112.043 1983.3 113.49L1978.89 117.48C1978.05 116.57 1977.14 115.893 1976.16 115.45C1975.21 114.983 1974.13 114.75 1972.94 114.75C1971.89 114.75 1970.94 114.913 1970.07 115.24C1969.21 115.567 1968.47 116.045 1967.87 116.675C1967.26 117.282 1966.78 118.017 1966.43 118.88C1966.11 119.72 1965.94 120.677 1965.94 121.75C1965.94 122.777 1966.11 123.722 1966.43 124.585C1966.78 125.448 1967.26 126.195 1967.87 126.825C1968.47 127.432 1969.2 127.91 1970.04 128.26C1970.9 128.587 1971.85 128.75 1972.87 128.75C1973.9 128.75 1974.9 128.587 1975.88 128.26C1976.86 127.91 1977.85 127.327 1978.86 126.51L1982.74 131.375C1981.34 132.378 1979.72 133.148 1977.88 133.685C1976.03 134.222 1974.23 134.49 1972.45 134.49ZM1976.62 130.465V121.225H1982.74V131.375L1976.62 130.465ZM1987.14 134V109.5H1992.84L2006.35 125.81H2003.66V109.5H2010.45V134H2004.74L1991.23 117.69H1993.93V134H1987.14ZM2023.94 134.49C2021.94 134.49 2020 134.245 2018.13 133.755C2016.29 133.242 2014.79 132.588 2013.62 131.795L2015.89 126.685C2016.99 127.385 2018.25 127.968 2019.67 128.435C2021.12 128.878 2022.56 129.1 2023.98 129.1C2024.94 129.1 2025.71 129.018 2026.29 128.855C2026.87 128.668 2027.29 128.435 2027.55 128.155C2027.83 127.852 2027.97 127.502 2027.97 127.105C2027.97 126.545 2027.71 126.102 2027.2 125.775C2026.69 125.448 2026.02 125.18 2025.2 124.97C2024.39 124.76 2023.48 124.55 2022.47 124.34C2021.49 124.13 2020.5 123.862 2019.5 123.535C2018.52 123.208 2017.62 122.788 2016.8 122.275C2015.99 121.738 2015.32 121.05 2014.81 120.21C2014.3 119.347 2014.04 118.262 2014.04 116.955C2014.04 115.485 2014.44 114.155 2015.23 112.965C2016.05 111.775 2017.26 110.818 2018.87 110.095C2020.48 109.372 2022.49 109.01 2024.89 109.01C2026.5 109.01 2028.07 109.197 2029.61 109.57C2031.18 109.92 2032.57 110.445 2033.78 111.145L2031.64 116.29C2030.48 115.66 2029.32 115.193 2028.18 114.89C2027.04 114.563 2025.93 114.4 2024.85 114.4C2023.9 114.4 2023.13 114.505 2022.54 114.715C2021.96 114.902 2021.54 115.158 2021.28 115.485C2021.03 115.812 2020.9 116.185 2020.9 116.605C2020.9 117.142 2021.14 117.573 2021.63 117.9C2022.15 118.203 2022.81 118.46 2023.63 118.67C2024.47 118.857 2025.38 119.055 2026.36 119.265C2027.36 119.475 2028.35 119.743 2029.33 120.07C2030.34 120.373 2031.25 120.793 2032.06 121.33C2032.88 121.843 2033.53 122.532 2034.02 123.395C2034.54 124.235 2034.79 125.297 2034.79 126.58C2034.79 128.003 2034.39 129.322 2033.57 130.535C2032.78 131.725 2031.57 132.682 2029.96 133.405C2028.38 134.128 2026.37 134.49 2023.94 134.49Z" fill="white"/>
</g>
</g>
<defs>
<clipPath id="clip0_3036_14647">
<rect width="3918" height="43" fill="white" transform="translate(47 100)"/>
</clipPath>
<clipPath id="clip1_3036_14647">
<rect width="3918" height="43" fill="white" transform="translate(47 100)"/>
</clipPath>
</defs>
</svg>
