<svg width="1860" height="216" viewBox="0 0 1860 216" fill="none" xmlns="http://www.w3.org/2000/svg">
<mask id="path-1-outside-1_1629_16541" maskUnits="userSpaceOnUse" x="-76" y="-1" width="1937" height="218" fill="black">
<rect fill="white" x="-76" y="-1" width="1937" height="218"/>
<path d="M3.41016 215.1C-11.1898 215.1 -24.3898 212.6 -36.1898 207.6C-47.7898 202.6 -56.9898 195.4 -63.7898 186C-70.5898 176.6 -74.0898 165.5 -74.2898 152.7H-29.2898C-28.6898 161.3 -25.6898 168.1 -20.2898 173.1C-14.6898 178.1 -7.08984 180.6 2.51016 180.6C12.3102 180.6 20.0102 178.3 25.6102 173.7C31.2102 168.9 34.0102 162.7 34.0102 155.1C34.0102 148.9 32.1102 143.8 28.3102 139.8C24.5102 135.8 19.7102 132.7 13.9102 130.5C8.31016 128.1 0.510159 125.5 -9.48984 122.7C-23.0898 118.7 -34.1898 114.8 -42.7898 111C-51.1898 107 -58.4898 101.1 -64.6898 93.3C-70.6898 85.3 -73.6898 74.7 -73.6898 61.5C-73.6898 49.1 -70.5898 38.3 -64.3898 29.1C-58.1898 19.9 -49.4898 12.9 -38.2898 8.09999C-27.0898 3.1 -14.2898 0.599999 0.110164 0.599999C21.7102 0.599999 39.2102 5.9 52.6102 16.5C66.2102 26.9 73.7102 41.5 75.1102 60.3H28.9102C28.5102 53.1 25.4102 47.2 19.6102 42.6C14.0102 37.8 6.51016 35.4 -2.88984 35.4C-11.0898 35.4 -17.6898 37.5 -22.6898 41.7C-27.4898 45.9 -29.8898 52 -29.8898 60C-29.8898 65.6 -28.0898 70.3 -24.4898 74.1C-20.6898 77.7 -16.0898 80.7 -10.6898 83.1C-5.08984 85.3 2.71016 87.9 12.7102 90.9C26.3102 94.9 37.4102 98.9 46.0102 102.9C54.6102 106.9 62.0102 112.9 68.2102 120.9C74.4102 128.9 77.5102 139.4 77.5102 152.4C77.5102 163.6 74.6102 174 68.8102 183.6C63.0102 193.2 54.5102 200.9 43.3102 206.7C32.1102 212.3 18.8102 215.1 3.41016 215.1ZM231.623 213L155.423 119.7V213H113.423V3.6H155.423V97.5L231.623 3.6H282.323L195.923 107.4L284.723 213H231.623ZM478.348 3.6L407.548 140.1V213H365.548V140.1L294.448 3.6H341.848L386.848 99.3L431.548 3.6H478.348ZM761.155 3.6L684.355 213H633.355L556.555 3.6H601.555L659.155 170.1L716.455 3.6H761.155ZM827.837 37.5V90H898.337V123.3H827.837V178.8H907.337V213H785.837V3.29998H907.337V37.5H827.837ZM1124.1 213H1082.1L987.005 69.3V213H945.005V3.29998H987.005L1082.1 147.3V3.29998H1124.1V213ZM1307.61 3.6V37.5H1251.81V213H1209.81V37.5H1154.01V3.6H1307.61ZM1379.15 3.6V133.2C1379.15 147.4 1382.85 158.3 1390.25 165.9C1397.65 173.3 1408.05 177 1421.45 177C1435.05 177 1445.55 173.3 1452.95 165.9C1460.35 158.3 1464.05 147.4 1464.05 133.2V3.6H1506.35V132.9C1506.35 150.7 1502.45 165.8 1494.65 178.2C1487.05 190.4 1476.75 199.6 1463.75 205.8C1450.95 212 1436.65 215.1 1420.85 215.1C1405.25 215.1 1391.05 212 1378.25 205.8C1365.65 199.6 1355.65 190.4 1348.25 178.2C1340.85 165.8 1337.15 150.7 1337.15 132.9V3.6H1379.15ZM1654.43 213L1608.23 131.4H1588.43V213H1546.43V3.6H1625.03C1641.23 3.6 1655.03 6.49999 1666.43 12.3C1677.83 17.9 1686.33 25.6 1691.93 35.4C1697.73 45 1700.63 55.8 1700.63 67.8C1700.63 81.6 1696.63 94.1 1688.63 105.3C1680.63 116.3 1668.73 123.9 1652.93 128.1L1703.03 213H1654.43ZM1588.43 99.9H1623.53C1634.93 99.9 1643.43 97.2 1649.03 91.8C1654.63 86.2 1657.43 78.5 1657.43 68.7C1657.43 59.1 1654.63 51.7 1649.03 46.5C1643.43 41.1 1634.93 38.4 1623.53 38.4H1588.43V99.9ZM1780.12 37.5V90H1850.62V123.3H1780.12V178.8H1859.62V213H1738.12V3.29998H1859.62V37.5H1780.12Z"/>
</mask>
<path d="M-36.1898 207.6L-36.5857 208.518L-36.58 208.521L-36.1898 207.6ZM-63.7898 186L-64.6001 186.586L-63.7898 186ZM-74.2898 152.7V151.7H-75.3056L-75.2897 152.716L-74.2898 152.7ZM-29.2898 152.7L-28.2923 152.63L-28.3572 151.7H-29.2898V152.7ZM-20.2898 173.1L-20.9693 173.834L-20.9626 173.84L-20.9559 173.846L-20.2898 173.1ZM25.6102 173.7L26.2449 174.473L26.253 174.466L26.2609 174.459L25.6102 173.7ZM28.3102 139.8L27.5852 140.489L28.3102 139.8ZM13.9102 130.5L13.5162 131.419L13.5357 131.427L13.5555 131.435L13.9102 130.5ZM-9.48984 122.7L-9.77203 123.659L-9.75947 123.663L-9.48984 122.7ZM-42.7898 111L-43.2198 111.903L-43.207 111.909L-43.194 111.915L-42.7898 111ZM-64.6898 93.3L-65.4898 93.9L-65.4814 93.9112L-65.4727 93.9222L-64.6898 93.3ZM-64.3898 29.1L-63.5606 29.6588V29.6588L-64.3898 29.1ZM-38.2898 8.09999L-37.8959 9.01914L-37.889 9.01618L-37.8822 9.01313L-38.2898 8.09999ZM52.6102 16.5L51.9898 17.2843L51.9962 17.2894L52.0027 17.2943L52.6102 16.5ZM75.1102 60.3V61.3H76.1874L76.1074 60.2257L75.1102 60.3ZM28.9102 60.3L27.9117 60.3555L27.9642 61.3H28.9102V60.3ZM19.6102 42.6L18.9594 43.3593L18.9738 43.3717L18.9888 43.3835L19.6102 42.6ZM-22.6898 41.7L-23.333 40.9343L-23.3408 40.9408L-23.3484 40.9474L-22.6898 41.7ZM-24.4898 74.1L-25.2158 74.7877L-25.1972 74.8074L-25.1776 74.8259L-24.4898 74.1ZM-10.6898 83.1L-11.096 84.0138L-11.0759 84.0227L-11.0555 84.0307L-10.6898 83.1ZM12.7102 90.9L12.4228 91.8578L12.428 91.8594L12.7102 90.9ZM68.2102 120.9L67.4198 121.513L68.2102 120.9ZM68.8102 183.6L67.9542 183.083L68.8102 183.6ZM43.3102 206.7L43.7574 207.594L43.7637 207.591L43.77 207.588L43.3102 206.7ZM3.41016 214.1C-11.0744 214.1 -24.1391 211.62 -35.7997 206.679L-36.58 208.521C-24.6405 213.58 -11.3053 216.1 3.41016 216.1V214.1ZM-35.794 206.682C-47.2436 201.746 -56.2946 194.655 -62.9796 185.414L-64.6001 186.586C-57.6851 196.145 -48.336 203.454 -36.5857 208.518L-35.794 206.682ZM-62.9796 185.414C-69.647 176.197 -73.0928 165.301 -73.29 152.684L-75.2897 152.716C-75.0869 165.699 -71.5327 177.003 -64.6001 186.586L-62.9796 185.414ZM-74.2898 153.7H-29.2898V151.7H-74.2898V153.7ZM-30.2874 152.77C-29.673 161.577 -26.5875 168.632 -20.9693 173.834L-19.6104 172.366C-24.7922 167.568 -27.7067 161.023 -28.2923 152.63L-30.2874 152.77ZM-20.9559 173.846C-15.126 179.051 -7.26493 181.6 2.51016 181.6V179.6C-6.91475 179.6 -14.2537 177.149 -19.6238 172.354L-20.9559 173.846ZM2.51016 181.6C12.4602 181.6 20.4118 179.264 26.2449 174.473L24.9754 172.927C19.6085 177.336 12.1602 179.6 2.51016 179.6V181.6ZM26.2609 174.459C32.0902 169.463 35.0102 162.982 35.0102 155.1H33.0102C33.0102 162.418 30.3301 168.337 24.9594 172.941L26.2609 174.459ZM35.0102 155.1C35.0102 148.678 33.034 143.321 29.0352 139.111L27.5852 140.489C31.1863 144.279 33.0102 149.122 33.0102 155.1H35.0102ZM29.0352 139.111C25.1196 134.99 20.1876 131.812 14.2648 129.565L13.5555 131.435C19.2327 133.588 23.9008 136.61 27.5852 140.489L29.0352 139.111ZM14.3041 129.581C8.64529 127.156 0.797127 124.542 -9.22021 121.737L-9.75947 123.663C0.22319 126.458 7.97504 129.044 13.5162 131.419L14.3041 129.581ZM-9.20767 121.741C-22.7847 117.747 -33.8398 113.861 -42.3857 110.085L-43.194 111.915C-34.5399 115.739 -23.395 119.653 -9.772 123.659L-9.20767 121.741ZM-42.3599 110.097C-50.6128 106.167 -57.7949 100.367 -63.907 92.6777L-65.4727 93.9222C-59.1848 101.833 -51.7669 107.833 -43.2198 111.903L-42.3599 110.097ZM-63.8898 92.7C-69.724 84.9212 -72.6898 74.5526 -72.6898 61.5H-74.6898C-74.6898 74.8474 -71.6557 85.6788 -65.4898 93.9L-63.8898 92.7ZM-72.6898 61.5C-72.6898 49.2748 -69.6364 38.6746 -63.5606 29.6588L-65.2191 28.5411C-71.5433 37.9254 -74.6898 48.9252 -74.6898 61.5H-72.6898ZM-63.5606 29.6588C-57.4785 20.6338 -48.9372 13.7511 -37.8959 9.01914L-38.6838 7.18085C-50.0424 12.0489 -58.9012 19.1661 -65.2191 28.5411L-63.5606 29.6588ZM-37.8822 9.01313C-26.8308 4.0795 -14.1735 1.6 0.110161 1.6V-0.400002C-14.4061 -0.400002 -27.3488 2.12049 -38.6975 7.18685L-37.8822 9.01313ZM0.110161 1.6C21.5455 1.6 38.8086 6.85742 51.9898 17.2843L53.2306 15.7157C39.6117 4.94257 21.8748 -0.400002 0.110161 -0.400002V1.6ZM52.0027 17.2943C65.3515 27.5022 72.7317 41.8267 74.1129 60.3743L76.1074 60.2257C74.6886 41.1733 67.0688 26.2977 53.2176 15.7056L52.0027 17.2943ZM75.1102 59.3H28.9102V61.3H75.1102V59.3ZM29.9086 60.2445C29.4923 52.7506 26.2487 46.5887 20.2316 41.8165L18.9888 43.3835C24.5716 47.8113 27.528 53.4494 27.9117 60.3555L29.9086 60.2445ZM20.261 41.8407C14.4345 36.8466 6.68165 34.4 -2.88984 34.4V36.4C6.33867 36.4 13.5858 38.7534 18.9594 43.3593L20.261 41.8407ZM-2.88984 34.4C-11.2633 34.4 -18.1106 36.5474 -23.333 40.9343L-22.0467 42.4657C-17.2691 38.4526 -10.9164 36.4 -2.88984 36.4V34.4ZM-23.3484 40.9474C-28.4185 45.3838 -30.8898 51.7907 -30.8898 60H-28.8898C-28.8898 52.2093 -26.5612 46.4162 -22.0313 42.4526L-23.3484 40.9474ZM-30.8898 60C-30.8898 65.8362 -29.0048 70.7882 -25.2158 74.7877L-23.7639 73.4122C-27.1749 69.8118 -28.8898 65.3637 -28.8898 60H-30.8898ZM-25.1776 74.8259C-21.2852 78.5135 -16.5866 81.5735 -11.096 84.0138L-10.2837 82.1862C-15.5931 79.8265 -20.0945 76.8865 -23.8021 73.374L-25.1776 74.8259ZM-11.0555 84.0307C-5.41779 86.2456 2.41251 88.8547 12.4228 91.8578L12.9975 89.9422C3.00781 86.9453 -4.76189 84.3544 -10.3242 82.1692L-11.0555 84.0307ZM12.428 91.8594C26.0011 95.8515 37.0498 99.8352 45.5884 103.807L46.4319 101.993C37.7706 97.9647 26.6192 93.9485 12.9923 89.9406L12.428 91.8594ZM45.5884 103.807C54.0342 107.735 61.3107 113.63 67.4198 121.513L69.0006 120.287C62.7096 112.17 55.1861 106.065 46.4319 101.993L45.5884 103.807ZM67.4198 121.513C73.4494 129.293 76.5102 139.558 76.5102 152.4H78.5102C78.5102 139.242 75.3709 128.507 69.0006 120.287L67.4198 121.513ZM76.5102 152.4C76.5102 163.417 73.6601 173.639 67.9542 183.083L69.6661 184.117C75.5602 174.361 78.5102 163.783 78.5102 152.4H76.5102ZM67.9542 183.083C62.261 192.506 53.9075 200.086 42.8503 205.812L43.77 207.588C55.1128 201.714 63.7593 193.894 69.6661 184.117L67.9542 183.083ZM42.8629 205.806C31.8301 211.322 18.69 214.1 3.41016 214.1V216.1C18.9304 216.1 32.3903 213.278 43.7574 207.594L42.8629 205.806ZM231.623 213L230.848 213.633L231.148 214H231.623V213ZM155.423 119.7L156.197 119.067L154.423 116.895V119.7H155.423ZM155.423 213V214H156.423V213H155.423ZM113.423 213H112.423V214H113.423V213ZM113.423 3.6V2.6H112.423V3.6H113.423ZM155.423 3.6H156.423V2.6H155.423V3.6ZM155.423 97.5H154.423V100.319L156.199 98.1301L155.423 97.5ZM231.623 3.6V2.6H231.146L230.846 2.96987L231.623 3.6ZM282.323 3.6L283.091 4.23974L284.456 2.6H282.323V3.6ZM195.923 107.4L195.154 106.76L194.619 107.403L195.157 108.044L195.923 107.4ZM284.723 213V214H286.87L285.488 212.356L284.723 213ZM232.397 212.367L156.197 119.067L154.648 120.333L230.848 213.633L232.397 212.367ZM154.423 119.7V213H156.423V119.7H154.423ZM155.423 212H113.423V214H155.423V212ZM114.423 213V3.6H112.423V213H114.423ZM113.423 4.6H155.423V2.6H113.423V4.6ZM154.423 3.6V97.5H156.423V3.6H154.423ZM156.199 98.1301L232.399 4.23012L230.846 2.96987L154.646 96.8699L156.199 98.1301ZM231.623 4.6H282.323V2.6H231.623V4.6ZM281.554 2.96025L195.154 106.76L196.691 108.04L283.091 4.23974L281.554 2.96025ZM195.157 108.044L283.957 213.644L285.488 212.356L196.688 106.756L195.157 108.044ZM284.723 212H231.623V214H284.723V212ZM478.348 3.6L479.236 4.06043L479.994 2.6H478.348V3.6ZM407.548 140.1L406.661 139.64L406.548 139.856V140.1H407.548ZM407.548 213V214H408.548V213H407.548ZM365.548 213H364.548V214H365.548V213ZM365.548 140.1H366.548V139.855L366.435 139.638L365.548 140.1ZM294.448 3.6V2.6H292.8L293.562 4.06196L294.448 3.6ZM341.848 3.6L342.753 3.17447L342.483 2.6H341.848V3.6ZM386.848 99.3L385.943 99.7255L386.851 101.656L387.754 99.7232L386.848 99.3ZM431.548 3.6V2.6H430.912L430.642 3.1768L431.548 3.6ZM477.461 3.13956L406.661 139.64L408.436 140.56L479.236 4.06043L477.461 3.13956ZM406.548 140.1V213H408.548V140.1H406.548ZM407.548 212H365.548V214H407.548V212ZM366.548 213V140.1H364.548V213H366.548ZM366.435 139.638L295.335 3.13803L293.562 4.06196L364.662 140.562L366.435 139.638ZM294.448 4.6H341.848V2.6H294.448V4.6ZM340.943 4.02552L385.943 99.7255L387.753 98.8745L342.753 3.17447L340.943 4.02552ZM387.754 99.7232L432.454 4.02319L430.642 3.1768L385.942 98.8768L387.754 99.7232ZM431.548 4.6H478.348V2.6H431.548V4.6ZM761.155 3.6L762.094 3.94433L762.587 2.6H761.155V3.6ZM684.355 213V214H685.054L685.294 213.344L684.355 213ZM633.355 213L632.417 213.344L632.657 214H633.355V213ZM556.555 3.6V2.6H555.124L555.617 3.94433L556.555 3.6ZM601.555 3.6L602.5 3.27306L602.268 2.6H601.555V3.6ZM659.155 170.1L658.21 170.427L659.158 173.166L660.101 170.425L659.155 170.1ZM716.456 3.6V2.6H715.742L715.51 3.27458L716.456 3.6ZM760.217 3.25566L683.417 212.656L685.294 213.344L762.094 3.94433L760.217 3.25566ZM684.355 212H633.355V214H684.355V212ZM634.294 212.656L557.494 3.25566L555.617 3.94433L632.417 213.344L634.294 212.656ZM556.555 4.6H601.555V2.6H556.555V4.6ZM600.61 3.92693L658.21 170.427L660.101 169.773L602.5 3.27306L600.61 3.92693ZM660.101 170.425L717.401 3.92541L715.51 3.27458L658.21 169.775L660.101 170.425ZM716.456 4.6H761.155V2.6H716.456V4.6ZM827.837 37.5V36.5H826.837V37.5H827.837ZM827.837 90H826.837V91H827.837V90ZM898.337 90H899.337V89H898.337V90ZM898.337 123.3V124.3H899.337V123.3H898.337ZM827.837 123.3V122.3H826.837V123.3H827.837ZM827.837 178.8H826.837V179.8H827.837V178.8ZM907.337 178.8H908.337V177.8H907.337V178.8ZM907.337 213V214H908.337V213H907.337ZM785.837 213H784.837V214H785.837V213ZM785.837 3.29998V2.29998H784.837V3.29998H785.837ZM907.337 3.29998H908.337V2.29998H907.337V3.29998ZM907.337 37.5V38.5H908.337V37.5H907.337ZM826.837 37.5V90H828.837V37.5H826.837ZM827.837 91H898.337V89H827.837V91ZM897.337 90V123.3H899.337V90H897.337ZM898.337 122.3H827.837V124.3H898.337V122.3ZM826.837 123.3V178.8H828.837V123.3H826.837ZM827.837 179.8H907.337V177.8H827.837V179.8ZM906.337 178.8V213H908.337V178.8H906.337ZM907.337 212H785.837V214H907.337V212ZM786.837 213V3.29998H784.837V213H786.837ZM785.837 4.29998H907.337V2.29998H785.837V4.29998ZM906.337 3.29998V37.5H908.337V3.29998H906.337ZM907.337 36.5H827.837V38.5H907.337V36.5ZM1124.1 213V214H1125.1V213H1124.1ZM1082.1 213L1081.27 213.552L1081.57 214H1082.1V213ZM987.005 69.3L987.839 68.7481L986.005 65.977V69.3H987.005ZM987.005 213V214H988.005V213H987.005ZM945.005 213H944.005V214H945.005V213ZM945.005 3.29998V2.29998H944.005V3.29998H945.005ZM987.005 3.29998L987.839 2.7489L987.543 2.29998H987.005V3.29998ZM1082.1 147.3L1081.27 147.851L1083.1 150.629V147.3H1082.1ZM1082.1 3.29998V2.29998H1081.1V3.29998H1082.1ZM1124.1 3.29998H1125.1V2.29998H1124.1V3.29998ZM1124.1 212H1082.1V214H1124.1V212ZM1082.94 212.448L987.839 68.7481L986.171 69.8519L1081.27 213.552L1082.94 212.448ZM986.005 69.3V213H988.005V69.3H986.005ZM987.005 212H945.005V214H987.005V212ZM946.005 213V3.29998H944.005V213H946.005ZM945.005 4.29998H987.005V2.29998H945.005V4.29998ZM986.17 3.85107L1081.27 147.851L1082.94 146.749L987.839 2.7489L986.17 3.85107ZM1083.1 147.3V3.29998H1081.1V147.3H1083.1ZM1082.1 4.29998H1124.1V2.29998H1082.1V4.29998ZM1123.1 3.29998V213H1125.1V3.29998H1123.1ZM1307.61 3.6H1308.61V2.6H1307.61V3.6ZM1307.61 37.5V38.5H1308.61V37.5H1307.61ZM1251.81 37.5V36.5H1250.81V37.5H1251.81ZM1251.81 213V214H1252.81V213H1251.81ZM1209.81 213H1208.81V214H1209.81V213ZM1209.81 37.5H1210.81V36.5H1209.81V37.5ZM1154.01 37.5H1153.01V38.5H1154.01V37.5ZM1154.01 3.6V2.6H1153.01V3.6H1154.01ZM1306.61 3.6V37.5H1308.61V3.6H1306.61ZM1307.61 36.5H1251.81V38.5H1307.61V36.5ZM1250.81 37.5V213H1252.81V37.5H1250.81ZM1251.81 212H1209.81V214H1251.81V212ZM1210.81 213V37.5H1208.81V213H1210.81ZM1209.81 36.5H1154.01V38.5H1209.81V36.5ZM1155.01 37.5V3.6H1153.01V37.5H1155.01ZM1154.01 4.6H1307.61V2.6H1154.01V4.6ZM1379.15 3.6H1380.15V2.6H1379.15V3.6ZM1390.25 165.9L1389.54 166.598L1389.55 166.607L1390.25 165.9ZM1452.95 165.9L1453.66 166.607L1453.67 166.598L1452.95 165.9ZM1464.05 3.6V2.6H1463.05V3.6H1464.05ZM1506.35 3.6H1507.35V2.6H1506.35V3.6ZM1494.65 178.2L1493.81 177.668L1493.81 177.671L1494.65 178.2ZM1463.75 205.8L1463.32 204.897L1463.32 204.9L1463.75 205.8ZM1378.25 205.8L1377.81 206.697L1377.82 206.7L1378.25 205.8ZM1348.25 178.2L1347.4 178.712L1347.4 178.719L1348.25 178.2ZM1337.15 3.6V2.6H1336.15V3.6H1337.15ZM1378.15 3.6V133.2H1380.15V3.6H1378.15ZM1378.15 133.2C1378.15 147.57 1381.9 158.755 1389.54 166.598L1390.97 165.202C1383.81 157.845 1380.15 147.23 1380.15 133.2H1378.15ZM1389.55 166.607C1397.18 174.243 1407.87 178 1421.45 178V176C1408.24 176 1398.13 172.357 1390.96 165.193L1389.55 166.607ZM1421.45 178C1435.24 178 1446.02 174.246 1453.66 166.607L1452.25 165.193C1445.09 172.354 1434.87 176 1421.45 176V178ZM1453.67 166.598C1461.31 158.755 1465.05 147.57 1465.05 133.2H1463.05C1463.05 147.23 1459.4 157.845 1452.24 165.202L1453.67 166.598ZM1465.05 133.2V3.6H1463.05V133.2H1465.05ZM1464.05 4.6H1506.35V2.6H1464.05V4.6ZM1505.35 3.6V132.9H1507.35V3.6H1505.35ZM1505.35 132.9C1505.35 150.552 1501.49 165.458 1493.81 177.668L1495.5 178.732C1503.42 166.142 1507.35 150.848 1507.35 132.9H1505.35ZM1493.81 177.671C1486.31 189.709 1476.15 198.779 1463.32 204.897L1464.19 206.703C1477.36 200.421 1487.8 191.091 1495.5 178.729L1493.81 177.671ZM1463.32 204.9C1450.67 211.027 1436.52 214.1 1420.85 214.1V216.1C1436.79 216.1 1451.24 212.973 1464.19 206.7L1463.32 204.9ZM1420.85 214.1C1405.39 214.1 1391.34 211.028 1378.69 204.9L1377.82 206.7C1390.77 212.972 1405.12 216.1 1420.85 216.1V214.1ZM1378.7 204.903C1366.27 198.788 1356.41 189.721 1349.11 177.681L1347.4 178.719C1354.9 191.079 1365.04 200.412 1377.81 206.697L1378.7 204.903ZM1349.11 177.688C1341.83 165.475 1338.15 150.561 1338.15 132.9H1336.15C1336.15 150.839 1339.88 166.125 1347.4 178.712L1349.11 177.688ZM1338.15 132.9V3.6H1336.15V132.9H1338.15ZM1337.15 4.6H1379.15V2.6H1337.15V4.6ZM1654.43 213L1653.56 213.493L1653.85 214H1654.43V213ZM1608.23 131.4L1609.1 130.907L1608.82 130.4H1608.23V131.4ZM1588.43 131.4V130.4H1587.43V131.4H1588.43ZM1588.43 213V214H1589.43V213H1588.43ZM1546.43 213H1545.43V214H1546.43V213ZM1546.43 3.6V2.6H1545.43V3.6H1546.43ZM1666.43 12.3L1665.98 13.1914L1665.99 13.1975L1666.43 12.3ZM1691.93 35.4L1691.07 35.8961L1691.07 35.9067L1691.08 35.9171L1691.93 35.4ZM1688.63 105.3L1689.44 105.888L1689.45 105.881L1688.63 105.3ZM1652.93 128.1L1652.68 127.134L1651.4 127.472L1652.07 128.608L1652.93 128.1ZM1703.03 213V214H1704.79L1703.9 212.492L1703.03 213ZM1588.43 99.9H1587.43V100.9H1588.43V99.9ZM1649.03 91.8L1649.73 92.5198L1649.74 92.5135L1649.74 92.5071L1649.03 91.8ZM1649.03 46.5L1648.34 47.2198L1648.35 47.2264L1648.35 47.2328L1649.03 46.5ZM1588.43 38.4V37.4H1587.43V38.4H1588.43ZM1655.3 212.507L1609.1 130.907L1607.36 131.893L1653.56 213.493L1655.3 212.507ZM1608.23 130.4H1588.43V132.4H1608.23V130.4ZM1587.43 131.4V213H1589.43V131.4H1587.43ZM1588.43 212H1546.43V214H1588.43V212ZM1547.43 213V3.6H1545.43V213H1547.43ZM1546.43 4.6H1625.03V2.6H1546.43V4.6ZM1625.03 4.6C1641.12 4.6 1654.75 7.47923 1665.98 13.1913L1666.89 11.4087C1655.31 5.52075 1641.35 2.6 1625.03 2.6V4.6ZM1665.99 13.1975C1677.24 18.7209 1685.58 26.2909 1691.07 35.8961L1692.8 34.9039C1687.09 24.9091 1678.43 17.0791 1666.88 11.4024L1665.99 13.1975ZM1691.08 35.9171C1696.78 45.3501 1699.63 55.969 1699.63 67.8H1701.63C1701.63 55.631 1698.69 44.6499 1692.79 34.8829L1691.08 35.9171ZM1699.63 67.8C1699.63 81.3922 1695.7 93.6888 1687.82 104.719L1689.45 105.881C1697.57 94.5111 1701.63 81.8078 1701.63 67.8H1699.63ZM1687.83 104.712C1679.99 115.491 1668.3 122.98 1652.68 127.134L1653.19 129.066C1669.17 124.82 1681.28 117.109 1689.44 105.888L1687.83 104.712ZM1652.07 128.608L1702.17 213.508L1703.9 212.492L1653.8 127.592L1652.07 128.608ZM1703.03 212H1654.43V214H1703.03V212ZM1588.43 100.9H1623.53V98.9H1588.43V100.9ZM1623.53 100.9C1635.07 100.9 1643.87 98.1682 1649.73 92.5198L1648.34 91.0802C1643 96.2318 1634.79 98.9 1623.53 98.9V100.9ZM1649.74 92.5071C1655.57 86.6771 1658.43 78.6985 1658.43 68.7H1656.43C1656.43 78.3015 1653.7 85.7229 1648.33 91.0929L1649.74 92.5071ZM1658.43 68.7C1658.43 58.8979 1655.57 51.2026 1649.71 45.7672L1648.35 47.2328C1653.7 52.1974 1656.43 59.302 1656.43 68.7H1658.43ZM1649.73 45.7802C1643.87 40.1317 1635.07 37.4 1623.53 37.4V39.4C1634.79 39.4 1643 42.0682 1648.34 47.2198L1649.73 45.7802ZM1623.53 37.4H1588.43V39.4H1623.53V37.4ZM1587.43 38.4V99.9H1589.43V38.4H1587.43ZM1780.12 37.5V36.5H1779.12V37.5H1780.12ZM1780.12 90H1779.12V91H1780.12V90ZM1850.62 90H1851.62V89H1850.62V90ZM1850.62 123.3V124.3H1851.62V123.3H1850.62ZM1780.12 123.3V122.3H1779.12V123.3H1780.12ZM1780.12 178.8H1779.12V179.8H1780.12V178.8ZM1859.62 178.8H1860.62V177.8H1859.62V178.8ZM1859.62 213V214H1860.62V213H1859.62ZM1738.12 213H1737.12V214H1738.12V213ZM1738.12 3.29998V2.29998H1737.12V3.29998H1738.12ZM1859.62 3.29998H1860.62V2.29998H1859.62V3.29998ZM1859.62 37.5V38.5H1860.62V37.5H1859.62ZM1779.12 37.5V90H1781.12V37.5H1779.12ZM1780.12 91H1850.62V89H1780.12V91ZM1849.62 90V123.3H1851.62V90H1849.62ZM1850.62 122.3H1780.12V124.3H1850.62V122.3ZM1779.12 123.3V178.8H1781.12V123.3H1779.12ZM1780.12 179.8H1859.62V177.8H1780.12V179.8ZM1858.62 178.8V213H1860.62V178.8H1858.62ZM1859.62 212H1738.12V214H1859.62V212ZM1739.12 213V3.29998H1737.12V213H1739.12ZM1738.12 4.29998H1859.62V2.29998H1738.12V4.29998ZM1858.62 3.29998V37.5H1860.62V3.29998H1858.62ZM1859.62 36.5H1780.12V38.5H1859.62V36.5Z" fill="#9194FC" fill-opacity="0.4" mask="url(#path-1-outside-1_1629_16541)"/>
</svg>
